<svg xmlns="http://www.w3.org/2000/svg"  viewBox="0 0 900 600">
  <g fill="none">
    <rect width="900" height="600" fill="#DE2910"/>
    <g transform="translate(390 124)">
      <path fill="#FFFFFF" d="M59.96406,175.9134 C-45.29899,131.42714 1.36232,-5.66845 102.03362,1.2227 C81.66753,11.68964 78.71587,31.22042 90.34658,49.31291 C103.37102,69.56871 89.14761,102.16147 71.54081,110.08031 C42.60596,123.10474 36.8129,157.8303 59.96406,175.9134 Z"/>
      <polygon fill="#DE2910" points="54.272 76.92 48.352 86.214 46.208 75.399 35.529 72.64 45.154 67.251 44.483 56.251 52.568 63.74 62.824 59.698 58.214 69.707 65.215 78.213"/>
      <path fill="#DE2910" d="M60.56002,174.75902 C47.82888,168.22451 37.56372,154.60411 33.09163,138.32768 C27.97665,119.65799 30.91894,99.58521 41.17471,83.29 L38.96682,81.89629 C28.32625,98.825 25.27369,119.63922 30.58107,139.01515 C35.30891,156.23716 45.79462,170.1133 59.3681,177.07953 L60.56002,174.75902 Z"/>
    </g>
    <g transform="rotate(72 169.664 506.394)">
      <path fill="#FFFFFF" d="M59.96406,175.9134 C-45.29899,131.42714 1.36232,-5.66845 102.03362,1.2227 C81.66753,11.68964 78.71587,31.22042 90.34658,49.31291 C103.37102,69.56871 89.14761,102.16147 71.54081,110.08031 C42.60596,123.10474 36.8129,157.8303 59.96406,175.9134 Z"/>
      <polygon fill="#DE2910" points="54.272 76.92 48.352 86.214 46.208 75.399 35.529 72.64 45.154 67.251 44.483 56.251 52.568 63.74 62.824 59.698 58.214 69.707 65.215 78.213"/>
      <path fill="#DE2910" d="M60.56002,174.75902 C47.82888,168.22451 37.56372,154.60411 33.09163,138.32768 C27.97665,119.65799 30.91894,99.58521 41.17471,83.29 L38.96682,81.89629 C28.32625,98.825 25.27369,119.63922 30.58107,139.01515 C35.30891,156.23716 45.79462,170.1133 59.3681,177.07953 L60.56002,174.75902 Z"/>
    </g>
    <g transform="rotate(144 234.855 301.36)">
      <path fill="#FFFFFF" d="M59.96406,175.9134 C-45.29899,131.42714 1.36232,-5.66845 102.03362,1.2227 C81.66753,11.68964 78.71587,31.22042 90.34658,49.31291 C103.37102,69.56871 89.14761,102.16147 71.54081,110.08031 C42.60596,123.10474 36.8129,157.8303 59.96406,175.9134 Z"/>
      <polygon fill="#DE2910" points="54.272 76.92 48.352 86.214 46.208 75.399 35.529 72.64 45.154 67.251 44.483 56.251 52.568 63.74 62.824 59.698 58.214 69.707 65.215 78.213"/>
      <path fill="#DE2910" d="M60.56002,174.75902 C47.82888,168.22451 37.56372,154.60411 33.09163,138.32768 C27.97665,119.65799 30.91894,99.58521 41.17471,83.29 L38.96682,81.89629 C28.32625,98.825 25.27369,119.63922 30.58107,139.01515 C35.30891,156.23716 45.79462,170.1133 59.3681,177.07953 L60.56002,174.75902 Z"/>
    </g>
    <g transform="rotate(-144 275.145 174.64)">
      <path fill="#FFFFFF" d="M59.96406,175.9134 C-45.29899,131.42714 1.36232,-5.66845 102.03362,1.2227 C81.66753,11.68964 78.71587,31.22042 90.34658,49.31291 C103.37102,69.56871 89.14761,102.16147 71.54081,110.08031 C42.60596,123.10474 36.8129,157.8303 59.96406,175.9134 Z"/>
      <polygon fill="#DE2910" points="54.272 76.92 48.352 86.214 46.208 75.399 35.529 72.64 45.154 67.251 44.483 56.251 52.568 63.74 62.824 59.698 58.214 69.707 65.215 78.213"/>
      <path fill="#DE2910" d="M60.56002,174.75902 C47.82888,168.22451 37.56372,154.60411 33.09163,138.32768 C27.97665,119.65799 30.91894,99.58521 41.17471,83.29 L38.96682,81.89629 C28.32625,98.825 25.27369,119.63922 30.58107,139.01515 C35.30891,156.23716 45.79462,170.1133 59.3681,177.07953 L60.56002,174.75902 Z"/>
    </g>
    <g transform="rotate(-72 340.336 -30.394)">
      <path fill="#FFFFFF" d="M59.96406,175.9134 C-45.29899,131.42714 1.36232,-5.66845 102.03362,1.2227 C81.66753,11.68964 78.71587,31.22042 90.34658,49.31291 C103.37102,69.56871 89.14761,102.16147 71.54081,110.08031 C42.60596,123.10474 36.8129,157.8303 59.96406,175.9134 Z"/>
      <polygon fill="#DE2910" points="54.272 76.92 48.352 86.214 46.208 75.399 35.529 72.64 45.154 67.251 44.483 56.251 52.568 63.74 62.824 59.698 58.214 69.707 65.215 78.213"/>
      <path fill="#DE2910" d="M60.56002,174.75902 C47.82888,168.22451 37.56372,154.60411 33.09163,138.32768 C27.97665,119.65799 30.91894,99.58521 41.17471,83.29 L38.96682,81.89629 C28.32625,98.825 25.27369,119.63922 30.58107,139.01515 C35.30891,156.23716 45.79462,170.1133 59.3681,177.07953 L60.56002,174.75902 Z"/>
    </g>
  </g>
</svg>
