<?xml version="1.0" encoding="UTF-8"?>
<svg width="101px" height="14px" viewBox="0 0 101 14" version="1.1" xmlns="http://www.w3.org/2000/svg" xmlns:xlink="http://www.w3.org/1999/xlink">
    <!-- Generator: sketchtool 48.2 (47327) - http://www.bohemiancoding.com/sketch -->
    <title>3DD6A06E-B228-46AD-BA45-74FB78E3974A</title>
    <desc>Created with sketchtool.</desc>
    <defs>
        <polygon id="path-1" points="0 0.07 13.4814019 0.07 13.4814019 13.5514019 0 13.5514019"></polygon>
        <polygon id="path-3" points="0.0117102804 0.07 13.4932056 0.07 13.4932056 13.5514019 0.0117102804 13.5514019"></polygon>
        <polygon id="path-5" points="0.0678573942 0.0723084112 10.3872897 0.0723084112 10.3872897 13.5308104 0.0678573942 13.5308104"></polygon>
    </defs>
    <g id="Adhive-ICO-20.04" stroke="none" stroke-width="1" fill="none" fill-rule="evenodd" transform="translate(-984.000000, -490.000000)">
        <g id="Group-12" transform="translate(953.000000, 387.000000)">
            <g id="Page-1" transform="translate(31.000000, 103.000000)">
                <g id="Group-3">
                    <mask id="mask-2" fill="white">
                        <use xlink:href="#path-1"></use>
                    </mask>
                    <g id="Clip-2"></g>
                    <path d="M5.25775701,6.81068224 C5.25775701,4.15937383 6.51598131,1.77759813 8.44841121,0.294700935 C7.90906542,0.159841121 7.32495327,0.0699345794 6.74074766,0.0699345794 C3.01084112,0.0699345794 0,3.08086916 0,6.81068224 C0,10.5404953 3.01084112,13.5514299 6.74074766,13.5514299 C7.32495327,13.5514299 7.90906542,13.4615234 8.44841121,13.3266636 C6.51598131,11.8437664 5.25775701,9.46199065 5.25775701,6.81068224 M12.2681308,2.94600935 C10.6054206,3.48526168 9.43700935,5.01311215 9.43700935,6.81068224 C9.43700935,8.60825234 10.6503738,10.1810561 12.2681308,10.6753551 C13.0320561,9.59685047 13.4814019,8.24871963 13.4814019,6.81068224 C13.4814019,5.37264486 13.0320561,4.02451402 12.2681308,2.94600935" id="Fill-1" fill="#FFFFFF" mask="url(#mask-2)"></path>
                </g>
                <g id="Group-6" transform="translate(7.000000, 0.000000)">
                    <mask id="mask-4" fill="white">
                        <use xlink:href="#path-3"></use>
                    </mask>
                    <g id="Clip-5"></g>
                    <path d="M6.75245794,12.3830093 C3.69666355,12.3830093 1.1801215,9.86646729 1.1801215,6.8106729 C1.1801215,3.7548785 3.69666355,1.23833645 6.75245794,1.23833645 C9.80825234,1.23833645 12.3247944,3.7548785 12.3247944,6.8106729 C12.3247944,8.11385047 11.8753551,9.37216822 11.0664766,10.3158131 L9.80825234,9.05758879 C9.58357944,8.83291589 9.22404673,8.83291589 8.99937383,9.05758879 C8.77470093,9.28226168 8.77470093,9.64179439 8.99937383,9.86646729 L10.2575981,11.1246916 C9.31395327,11.9335701 8.05563551,12.3830093 6.75245794,12.3830093 Z M11.9203084,11.124785 C12.909,9.95637383 13.4932056,8.42842991 13.4932056,6.8106729 C13.4932056,3.08085981 10.4823645,0.0699252336 6.75245794,0.0699252336 C3.0225514,0.0699252336 0.0117102804,3.08085981 0.0117102804,6.8106729 C0.0117102804,10.5405794 3.0225514,13.5514206 6.75245794,13.5514206 C8.41516822,13.5514206 9.89815888,12.967215 11.0664766,11.9785234 L12.2798411,13.1918879 C12.504514,13.4165607 12.8640467,13.4165607 13.0887196,13.1918879 C13.3133925,12.967215 13.3133925,12.6076822 13.0887196,12.3830093 L11.9203084,11.124785 Z" id="Fill-4" fill="#FFFFFF" mask="url(#mask-4)"></path>
                </g>
                <path d="M32.0621495,0 C32.1001371,0.0232714676 32.1354179,0.0597120602 32.1766723,0.0679202135 C34.2495628,0.480763264 35.1135706,1.98925948 34.9881275,3.87785633 C34.8468174,6.00521122 33.558786,7.16418443 31.3427186,7.22858686 C30.895641,7.24157559 30.4478168,7.23048105 29.9741385,7.23048105 C30.0045659,7.42323735 30.1532496,7.49638914 30.254612,7.59470658 C31.7255813,9.02166246 33.2005639,10.4446496 34.6733065,11.8698014 C35.0529024,12.2370938 35.0980769,12.5751614 34.8100432,12.8414303 C34.5397432,13.0912829 34.1915081,13.0467244 33.833846,12.7017113 C31.9406265,10.8751717 30.0506737,9.04538492 28.1569875,7.21929631 C27.9312087,7.00164495 27.7900853,6.77127546 27.9352221,6.45873424 C28.0725188,6.16287993 28.3308718,6.12607854 28.6312258,6.12977672 C29.502047,6.14051045 30.3731483,6.13717307 31.2441562,6.1325729 C32.2008462,6.12752173 33.0568271,5.8689198 33.518745,4.99714176 C34.0235973,4.04436458 34.0151971,3.04639746 33.4528501,2.10985619 C33.0371333,1.41748493 32.3351561,1.11116748 31.5320032,1.10449271 C29.1835859,1.08500963 26.8348886,1.1062967 24.486378,1.08852741 C24.1124755,1.08573122 24.1424363,1.27054997 24.1426229,1.50606083 C24.1450497,5.03836293 24.144303,8.57066502 24.1441163,12.1028769 C24.1441163,12.2381762 24.1523298,12.3744676 24.1384228,12.5084138 C24.1102355,12.7807261 23.9503516,12.9505717 23.6685714,12.9854789 C23.392298,13.0196645 23.1924664,12.9123271 23.0725302,12.6561606 C22.9975817,12.4958761 23.0097153,12.3336974 23.0097153,12.1705265 C23.0083153,8.38277949 23.0133554,4.59494225 23.0000084,0.807195206 C22.9988884,0.486175233 23.1097711,0.241373826 23.2886021,0 L32.0621495,0 Z" id="Fill-7" fill="#FFFFFF"></path>
                <g id="Group-11" transform="translate(90.000000, 0.000000)">
                    <mask id="mask-6" fill="white">
                        <use xlink:href="#path-5"></use>
                    </mask>
                    <g id="Clip-10"></g>
                    <path d="M8.98543925,0.0723084112 C9.16618692,0.314457944 9.39254206,0.547728972 9.21562617,0.886327103 C9.04992523,1.20324299 8.75151402,1.19716822 8.44721495,1.19614019 C6.90814953,1.19109346 5.36899065,1.18595327 3.83001869,1.19660748 C2.78188785,1.20380374 1.8942243,1.5363271 1.44319626,2.57034579 C0.636373832,4.42015888 1.75235514,6.1845514 3.76216822,6.23585981 C4.74095327,6.26081308 5.72085981,6.24043925 6.70029907,6.24053271 C8.64123364,6.24062617 9.78328972,7.10828972 10.3210467,8.98885047 C10.3275888,9.01174766 10.3645981,9.02595327 10.3873084,9.04427103 L10.3873084,10.726514 C10.360486,10.7598785 10.3188972,10.7893178 10.3089907,10.8271682 C9.85114019,12.5758598 8.63001869,13.5283832 6.83450467,13.5298785 C4.96684112,13.5314673 3.09917757,13.5307196 1.23151402,13.5298785 C0.725719626,13.5296916 0.476934579,13.3511869 0.466186916,12.9867944 C0.455065421,12.6083832 0.720953271,12.4092243 1.24357009,12.4090374 C2.98674766,12.4082897 4.72983178,12.4074486 6.47300935,12.4096916 C6.86338318,12.4102523 7.25020561,12.3876355 7.62590654,12.2739907 C8.79142056,11.9214673 9.42665421,10.8103458 9.2324486,9.46894393 C9.04824299,8.19660748 8.24282243,7.43305607 6.94469159,7.38511215 C5.79450467,7.34268224 4.64179439,7.37333645 3.49039252,7.36043925 C2.00179439,7.34380374 0.711981308,6.42408411 0.285439252,5.08857009 C-0.246897196,3.4221215 0.223757009,1.63726168 1.41114019,0.767728972 C1.89291589,0.414925234 2.46478505,0.284551402 3.00413084,0.0723084112 L8.98543925,0.0723084112 Z" id="Fill-9" fill="#FFFFFF" mask="url(#mask-6)"></path>
                </g>
                <path d="M48.6588497,0 C49.12507,0.472005414 49.117065,0.690451217 48.6124591,1.16263717 C47.0329618,2.64075701 45.4558757,4.12095299 43.8696272,5.59275415 C43.6724915,5.77572508 43.5890656,5.96149428 43.5904158,6.22308764 C43.6009285,8.19325214 43.5963955,10.1635069 43.5955275,12.1337617 C43.5955275,12.2688009 43.6026645,12.4062773 43.5793246,12.5383377 C43.5324518,12.8024586 43.3718691,12.9740559 43.0721147,12.9971642 C42.7566396,13.0215363 42.5387679,12.8886634 42.4583319,12.6042326 C42.4141596,12.4478904 42.4082764,12.2788205 42.407987,12.1154375 C42.4048043,10.1602573 42.3992104,8.20498683 42.4130987,6.2498969 C42.4152205,5.95400213 42.3167491,5.75297783 42.0948267,5.54771099 C40.5067457,4.07771516 38.9312991,2.59571385 37.3529592,1.1165108 C36.8757441,0.669328772 36.8819166,0.435718136 37.3746596,0 L37.953336,0 C38.1700503,0.10407769 38.3434603,0.257170286 38.513977,0.41721343 C39.8729986,1.69277444 41.2338526,2.96653011 42.5961533,4.23902204 C43.0065313,4.62220487 43.0269779,4.62220487 43.4373559,4.23902204 C44.7996567,2.96653011 46.1605107,1.69277444 47.5196287,0.41721343 C47.6901454,0.257170286 47.863459,0.10407769 48.0801733,0 L48.6588497,0 Z" id="Fill-12" fill="#FFFFFF"></path>
                <path d="M72.6504506,0 C72.8897879,0.178192552 73.0808833,0.388250337 72.9654057,0.7154783 C72.8427943,1.06310723 72.5510239,1.0880217 72.2350879,1.08657738 C70.6606689,1.07953634 69.0860716,1.09388923 67.511831,1.07484231 C67.1829651,1.07087044 67.0969142,1.14678732 67.098341,1.48854872 C67.1125193,5.03714416 67.1073473,8.5857396 67.1060989,12.134335 C67.1060989,12.2839121 67.1175129,12.4403496 67.0796149,12.5815316 C67.006048,12.8548685 66.8255641,13.0152779 66.5264816,12.9988488 C66.2497812,12.9836834 66.0901635,12.8250794 66.0377305,12.5623944 C66.0087496,12.4169697 66.0075012,12.264143 66.0075012,12.1146562 C66.0059853,8.35555166 66.009998,4.59644708 66.0000107,0.837342508 C65.9990299,0.499552979 66.0649279,0.221702587 66.3192461,0 L72.6504506,0 Z" id="Fill-14" fill="#FFFFFF"></path>
                <path d="M81.0040387,11.8849544 C77.7885301,11.8849544 75.2054585,9.47581523 75.2057488,6.47726048 C75.2061359,3.49213843 77.8017885,1.09562057 81.0333621,1.0968827 C84.1888689,1.09814483 86.8125869,3.55740868 86.8028124,6.50457662 C86.7929412,9.45535066 84.1744492,11.8849544 81.0040387,11.8849544 M83.6033688,0.450581059 C83.0750639,0.250893775 82.5103708,0.183369723 81.9801303,0 L79.9478158,0 C79.9231377,0.100429632 79.8329417,0.0784324772 79.7581331,0.0907833386 C76.0824505,0.69895057 73.5719615,3.89818427 74.0607815,7.35029509 C74.5523113,10.8220591 77.9486958,13.3191869 81.6998644,12.9668718 C84.9503094,12.6616162 87.44754,10.372019 87.9357793,7.24932455 C88.3743721,4.44369567 86.5269015,1.55548731 83.6033688,0.450581059" id="Fill-16" fill="#FFFFFF"></path>
                <path d="M61.0014212,5.60796252 C60.5663414,5.95685226 60.0474054,6.11960729 59.4905145,6.12267644 C57.1389894,6.13549464 54.7873708,6.13116172 52.4358457,6.14307723 C52.2035352,6.14425073 52.1538011,6.07059121 52.1549229,5.86098656 C52.16343,4.37217971 52.1664216,2.88337286 52.1529597,1.39465627 C52.1505291,1.1303486 52.2396204,1.0752845 52.4939935,1.07799257 C53.6619968,1.08999835 54.8300935,1.08322817 55.9980968,1.08322817 C55.9980968,1.08638759 55.9981903,1.08963727 55.9981903,1.09279669 C57.1504881,1.09279669 58.3034402,1.07194455 59.4550836,1.09875444 C60.5702678,1.12457138 61.3741465,1.67990636 61.6871347,2.57411121 C62.0778091,3.69010704 61.7927729,4.97337134 61.0014212,5.60796252 M60.2153982,0.0783535044 C60.1798739,0.0711319833 60.1524827,0.0269001663 60.1212587,0 L51.333656,0 C51.0537615,0.194619995 50.9992597,0.46244816 51.0000075,0.783715582 C51.0089821,4.58620754 51.0057101,8.38878977 51.006271,12.191372 C51.0063645,12.3113395 50.9997271,12.4337443 51.0210417,12.5507329 C51.069654,12.8172071 51.232692,12.9781567 51.522122,12.9980159 C51.8069712,13.0176043 51.9944089,12.8917693 52.0985514,12.6373912 C52.1696001,12.4638039 52.1593167,12.2836269 52.1593167,12.1037208 C52.1595037,10.6608609 52.176331,9.21763986 52.1489398,7.77532155 C52.1409001,7.34916153 52.2130707,7.19967605 52.7100376,7.20725864 C54.8886152,7.24038737 57.0680342,7.22152115 59.2471727,7.22152115 C61.4381838,7.22152115 62.7619333,6.11301765 62.9738641,4.0118258 C63.165976,2.1083231 62.3042301,0.50460379 60.2153982,0.0783535044" id="Fill-18" fill="#FFFFFF"></path>
            </g>
        </g>
    </g>
</svg>