<svg xmlns="http://www.w3.org/2000/svg"  viewBox="0 0 38 38">
  <g fill="#FFFFFF" transform="translate(-1 -1)">
    <path d="M40.7536232,16 L-0.830917874,16 C-2.60869565,16 -4,17.7560976 -4,20 C-4,22.2439024 -2.60869565,24 -0.830917874,24 L40.8309179,24 C42.6086957,24 44,22.2439024 44,20 C43.9227053,17.7560976 42.531401,16 40.7536232,16 Z" transform="rotate(45 20 20)"/>
    <path d="M40.7536232,16 L-0.830917874,16 C-2.60869565,16 -4,17.7560976 -4,20 C-4,22.2439024 -2.60869565,24 -0.830917874,24 L40.8309179,24 C42.6086957,24 44,22.2439024 44,20 C43.9227053,17.7560976 42.531401,16 40.7536232,16 Z" transform="rotate(-45 20 20)"/>
  </g>
</svg>
