<?xml version="1.0" encoding="UTF-8"?>
<svg viewBox="0 0 133 24" version="1.1" xmlns="http://www.w3.org/2000/svg" xmlns:xlink="http://www.w3.org/1999/xlink">
    <g id="2" stroke="none" stroke-width="1" fill="none" fill-rule="evenodd">
        <g id="Token-Desk" fill="#FFFFFF">
            <path d="M72.8853263,15.3012706 C72.4043762,17.3977412 70.9657204,23.6857412 70.9657204,23.6857412 L68.0604464,23.6857412 C68.0604464,23.6857412 69.5186758,17.4019765 69.9814505,15.3012706 C70.7811698,11.6688 69.6137474,10.7610353 68.1974613,10.7610353 C66.4735908,10.7610353 65.2069026,11.7408 63.9164464,13.4292706 L61.5690186,23.6857412 L58.6651428,23.6857412 L62.1967703,8.25938824 L65.1006462,8.25938824 L64.795858,9.59350588 C64.795858,9.59350588 66.5365058,7.94597647 69.1048351,7.94597647 C71.6745625,7.94597647 74.2820389,9.20244706 72.8853263,15.3012706 Z M26.7868216,0.185505882 L0.642152227,0.185505882 L0.000419433198,2.99068235 L17.430665,2.99068235 L12.6910699,23.6857412 L15.5949457,23.6857412 L20.3345409,2.99068235 L26.1436907,2.99068235 L26.7868216,0.185505882 Z M48.0688621,8.25938824 L44.4994856,8.25938824 L39.0873992,13.6452706 L42.1688351,0.185505882 L39.2663574,0.185505882 L33.8850294,23.6857412 L36.7889053,23.6857412 L38.4932022,16.2386824 L41.6291644,23.6857412 L44.5330402,23.6857412 L41.0000146,15.2928 L48.0688621,8.25938824 Z M58.3617528,13.9332706 C56.9860119,16.3883294 53.5424653,17.8438588 48.7888891,16.8316235 C48.1681279,20.9808 50.872074,21.3817412 53.1481981,21.1572706 C54.1478472,21.0584471 55.4536826,20.7831529 57.0209646,20.1365647 L56.4113884,22.8033882 C54.6427784,23.5996235 53.0111833,23.9991529 51.5207973,23.9991529 C47.8088135,23.9991529 45.5816232,21.5793882 45.8752265,17.3271529 C46.2135692,12.3450353 49.8822116,7.94456471 54.6917123,7.94456471 C58.8874424,7.94456471 59.8605274,11.2565647 58.3617528,13.9332706 Z M55.6689916,13.1793882 C56.8266273,11.8198588 56.2310321,10.0777412 53.2614451,10.9191529 C51.7766516,11.3412706 50.442854,12.6655059 49.6179687,14.2678588 C52.6434802,14.9271529 54.7140821,14.3017412 55.6689916,13.1793882 Z M30.4009377,21.9549176 C27.0370834,24.8885647 21.2922467,24.8815059 19.8871455,20.3822118 C19.0315018,17.6391529 19.7655099,12.6160941 23.4537258,9.70644706 C26.7420821,7.11162353 32.3443115,7.12291765 33.6641279,11.6928 C34.37297,14.1436235 33.8962143,18.9069176 30.4009377,21.9549176 Z M30.8567217,12.4960941 C30.2066003,10.5916235 27.0622494,9.8928 24.6099633,12.4226824 C23.1517339,13.9276235 21.8500928,17.0857412 22.6568027,19.4490353 C23.2216394,21.1092706 26.2373641,22.2711529 28.9007649,19.5238588 C30.3603924,18.0175059 31.6620335,14.8593882 30.8567217,12.4960941 Z" id="Fill-2"></path>
            <path d="M93.4537711,12.0252706 C90.7680005,23.8586824 83.1091503,23.6850353 81.5208966,23.6850353 L73.9375444,23.6850353 L77.4691719,8.26009412 L80.3730478,8.26009412 L77.483153,20.8798588 L81.803315,20.8798588 C86.9986942,20.8798588 89.5124972,16.4991529 90.6253933,12.0379765 C91.897674,6.9288 91.5076011,2.98997647 86.4086915,2.98997647 L63.4013825,2.98997647 L64.0431152,0.186211765 L86.1094958,0.186211765 C87.6977495,0.186211765 96.1395417,0.191858824 93.4537711,12.0252706 Z M102.703671,7.94527059 C97.8927725,7.94527059 94.2241301,12.3457412 93.8857873,17.3278588 C93.5921841,21.5786824 95.8193744,23.9998588 99.5327563,23.9998588 C101.021744,23.9998588 102.653339,23.6003294 104.421949,22.8026824 L105.031526,20.1358588 C103.465642,20.7838588 102.158408,21.0577412 101.158759,21.1565647 C98.8826348,21.3810353 96.1786888,20.9800941 96.7994499,16.8323294 C101.553026,17.8445647 104.997971,16.3890353 106.373712,13.9325647 C107.872486,11.2558588 106.898003,7.94527059 102.703671,7.94527059 Z M97.6299277,14.2671529 C98.454813,12.6648 99.7886105,11.3405647 101.272006,10.9198588 C104.241593,10.0770353 104.838586,11.8205647 103.680951,13.1800941 C102.726041,14.3024471 100.654041,14.9278588 97.6299277,14.2671529 Z M113.487299,23.5960941 C115.397118,22.9410353 116.647029,21.5038588 117.06786,19.8408 C117.550208,17.9264471 117.382435,16.3424471 115.397118,15.2073882 C113.687229,14.2276235 111.531342,14.5833882 111.852907,12.8539765 C112.25836,10.6657412 115.648778,9.91750588 118.292605,11.5975059 L118.902181,8.92927059 C117.943077,8.26574118 116.714138,7.94527059 115.216762,7.94527059 C111.633404,7.94527059 109.122397,10.2972706 108.918273,13.2337412 C108.743509,15.7749176 110.453399,16.4765647 112.203833,16.9212706 C113.755736,17.3137412 114.591806,17.9292706 114.194743,19.2633882 C113.919315,20.1895059 113.209075,21.1311529 111.25172,21.2822118 C109.697021,21.4036235 107.960567,21.0238588 107.007056,19.9692706 L106.39748,22.6375059 C108.175876,24.1706824 111.479612,24.2850353 113.487299,23.5960941 Z M132.391153,8.26009412 L128.823175,8.26009412 L123.40969,13.6459765 L126.492524,0.186211765 L123.588648,0.186211765 L118.20732,23.6850353 L121.111196,23.6850353 L122.815493,16.2379765 L125.951455,23.6850353 L128.856729,23.6850353 L125.322306,15.2935059 L132.391153,8.26009412 Z" id="Fill-4"></path>
        </g>
    </g>
</svg>