<?xml version="1.0" encoding="UTF-8"?>
<svg viewBox="0 0 151 22" version="1.1" xmlns="http://www.w3.org/2000/svg" xmlns:xlink="http://www.w3.org/1999/xlink">
    <defs>
        <polygon id="path-1" points="0.000123051735 0.451056338 19.9209043 0.451056338 19.9209043 21.6549251 0.000123051735 21.6549251"></polygon>
    </defs>
    <g id="2" stroke="none" stroke-width="1" fill="none" fill-rule="evenodd">
        <g id="Crypto-Currency" transform="translate(0.500000, 0.000000)">
            <g id="Group-3" transform="translate(0.000000, 0.077218)">
                <mask id="mask-2" fill="white">
                    <use xlink:href="#path-1"></use>
                </mask>
                <g id="Clip-2"></g>
                <path d="M9.13838028,12.1233803 C9.13890845,12.1233803 9.13943662,12.1233803 9.13943662,12.1233803 C9.13943662,12.5184507 9.13521127,12.9140493 9.14102113,13.3091197 C9.14577465,13.6075352 9.25827465,13.7237324 9.53714789,13.6328873 C9.9084507,13.5119366 10.2707746,13.3471479 10.6130282,13.1585915 C10.840669,13.0328873 10.8348592,12.8290141 10.6832746,12.6156338 C10.5,12.3573592 10.3299296,12.0901056 10.1566901,11.8249648 C9.95176056,11.5107042 9.7584507,11.1874648 9.53978873,10.8827113 C9.47588028,10.7929225 9.34278169,10.7522535 9.24137324,10.6888732 C9.20704225,10.791338 9.14630282,10.8927465 9.1431338,10.9957394 C9.13098592,11.3712676 9.13838028,11.7473239 9.13838028,12.1233803 M11.3382042,10.3936268 C11.3366197,10.3936268 11.3350352,10.3936268 11.3334507,10.3936268 C11.3334507,9.97901408 11.3376761,9.56492958 11.3318662,9.1503169 C11.3276408,8.83024648 11.2193662,8.71721831 10.9257042,8.80859155 C10.5533451,8.92478873 10.1873239,9.07901408 9.84190141,9.26123239 C9.58838028,9.39485915 9.59102113,9.57179577 9.76056338,9.81158451 C9.91003521,10.0239085 10.0431338,10.2473239 10.1836268,10.4659859 C10.4429577,10.8700352 10.6948944,11.2793662 10.9669014,11.6749648 C11.0286972,11.7647535 11.1580986,11.807007 11.2568662,11.8714437 C11.2838028,11.7642254 11.3318662,11.6575352 11.334507,11.5497887 C11.3440141,11.1647535 11.3382042,10.7791901 11.3382042,10.3936268 M11.9794014,11.8804225 C11.9794014,12.8078873 11.9757042,13.7353521 11.9825704,14.6628169 C11.9841549,14.9026056 11.9191901,15.0636972 11.6746479,15.1529577 C11.0434859,15.3832394 10.4366197,15.7228521 9.78697183,15.8485563 C8.97042254,16.007007 8.12007042,16.0582394 7.28714789,16.0376408 C6.65070423,16.0217958 5.99947183,15.8823592 5.39049296,15.6864085 C4.8306338,15.506831 4.30933099,15.1957394 3.78802817,14.9110563 C2.95246479,14.4547183 2.30017606,13.7802465 1.71285211,13.0460915 C1.21109155,12.4191549 0.805457746,11.7293662 0.586795775,10.9492606 C0.457394366,10.4871127 0.375,10.0128169 0.255105634,9.54802817 C0.208626761,9.36950704 0.1125,9.20419014 0.0470070423,9.0293662 C0.0205985915,8.95964789 0.0073943662,8.88147887 0.00475352113,8.80647887 C-0.00105633803,8.64221831 -0.00158450704,8.47795775 0.00422535211,8.31369718 C0.0132042254,8.06228873 -0.0285211268,7.82091549 0.164260563,7.58165493 C0.286795775,7.42954225 0.269366197,7.15859155 0.297887324,6.93887324 C0.426232394,5.95330986 0.804401408,5.06017606 1.33151408,4.23147887 C1.93204225,3.28764085 2.65985915,2.45735915 3.59841549,1.82461268 C4.30774648,1.34609155 5.07200704,0.994859155 5.89700704,0.771971831 C6.19753521,0.690633803 6.53503521,0.737640845 6.78908451,0.486760563 C6.84190141,0.434471831 6.97394366,0.455070423 7.07007042,0.454542254 C7.61091549,0.451901408 8.15228873,0.448204225 8.69366197,0.454542254 C9.00264085,0.458239437 9.29419014,0.446091549 9.59471831,0.641514085 C9.87253521,0.822147887 10.2538732,0.835352113 10.5792254,0.952077465 C10.9230634,1.07566901 11.253169,1.23623239 11.5917254,1.37566901 C11.853169,1.48394366 11.9852113,1.6725 11.9841549,1.95771127 C11.9815141,2.60471831 11.9873239,3.25225352 11.9772887,3.89978873 C11.9757042,4.00489437 11.9096831,4.10947183 11.8732394,4.2140493 C11.7734155,4.17179577 11.6566901,4.14961268 11.5753521,4.08411972 C10.5364437,3.2475 9.35334507,2.73940141 8.02288732,2.71933099 C6.21971831,2.6918662 4.76514085,3.4434507 3.65545775,4.87690141 C2.85264085,5.91369718 2.4665493,7.10841549 2.49190141,8.38077465 C2.52728873,10.1596479 3.225,11.6638732 4.67482394,12.7857042 C5.5721831,13.4797183 6.58204225,13.8092958 7.68961268,13.907007 C7.75669014,13.9128169 7.82482394,13.9138732 7.89242958,13.9138732 C8.33714789,13.9144014 8.44753521,13.8145775 8.44753521,13.3730282 C8.44753521,11.6628169 8.44225352,9.95207746 8.43908451,8.2418662 C8.43855634,8.10665493 8.4375,7.97144366 8.44489437,7.83623239 C8.45809859,7.59116197 8.58433099,7.44116197 8.80827465,7.32760563 C10.306162,6.56545775 11.8911972,6.27919014 13.5496479,6.51633803 C14.7147887,6.68323944 15.8038732,7.08464789 16.7672535,7.79397887 C17.5214789,8.34908451 18.1864437,8.9934507 18.6961268,9.77355634 C19.0045775,10.2452113 19.240669,10.7691549 19.4651408,11.2894014 C19.8950704,12.2871127 19.9621479,13.3513732 19.9019366,14.416162 C19.8375,15.5543662 19.543838,16.6392254 18.9554577,17.6316549 C18.4035211,18.5633451 17.7411972,19.3962676 16.8612676,20.0401056 C16.1889085,20.531831 15.4769366,20.9290141 14.6619718,21.1666901 C14.0783451,21.3367606 13.4984155,21.4165141 12.9005282,21.4577113 C12.7410211,21.4688028 12.5899648,21.5760211 12.4304577,21.6251408 C12.3496479,21.6499648 12.252993,21.666338 12.1742958,21.6452113 C11.9672535,21.5908099 11.7670775,21.4582394 11.5632042,21.4550704 C10.6204225,21.441338 9.77693662,21.0890493 8.93978873,20.7203873 C8.61021127,20.575669 8.39419014,20.3490845 8.43433099,19.9117606 C8.48503521,19.3561268 8.44014085,18.7915141 8.4459507,18.2311268 C8.44700704,18.1339437 8.49559859,18.0367606 8.52200704,17.9395775 C8.61760563,17.9702113 8.72376761,17.9828873 8.80669014,18.0341197 C9.11830986,18.2269014 9.41461268,18.4439789 9.73045775,18.6298944 C10.9922535,19.3719718 12.3522887,19.5415141 13.7566901,19.2045423 C14.5193662,19.0217958 15.225,18.6589437 15.7742958,18.0705634 C16.1551056,17.6633451 16.571831,17.2682746 16.8591549,16.7982042 C17.6477113,15.5073592 17.856338,14.1013732 17.4945423,12.6240845 C17.2727113,11.7172183 16.8639085,10.9080634 16.203169,10.2383451 C15.7352113,9.76352113 15.2334507,9.34838028 14.6128521,9.06158451 C13.9579225,8.75841549 13.2808099,8.62161972 12.5778169,8.55507042 C12.109331,8.51123239 11.9820423,8.62426056 11.9799296,9.09697183 C11.9762324,10.0249648 11.9788732,10.9524296 11.9794014,11.8804225" id="Fill-1" fill="#FFFFFF" mask="url(#mask-2)"></path>
            </g>
            <path d="M119.60382,10.388662 C119.60382,8.82369718 119.602236,7.25873239 119.608046,5.69323944 C119.608574,5.59922535 119.67037,5.50521127 119.703644,5.41119718 C119.805053,5.44975352 119.934454,5.46137324 120.003116,5.53161972 C120.637447,6.18073944 121.259102,6.84200704 121.887095,7.49640845 C122.301708,7.9284507 122.725299,8.35151408 123.136743,8.78619718 C124.072658,9.77334507 125.00382,10.7657746 125.937095,11.7555634 C126.003116,11.8258099 126.061743,11.9097887 126.140968,11.9599648 C126.240264,12.0228169 126.356989,12.0576761 126.46632,12.1041549 C126.510158,11.9958803 126.592025,11.8881338 126.592025,11.7798592 C126.592025,9.96348592 126.584102,8.14764085 126.569842,6.33179577 C126.568257,6.07827465 126.67125,5.94200704 126.917377,5.9325 C127.196778,5.92140845 127.477764,5.92035211 127.757694,5.93302817 C128.005405,5.94411972 128.095722,6.08566901 128.095194,6.3381338 C128.088856,9.38091549 128.092025,12.4236972 128.086743,15.467007 C128.086215,15.5900704 128.02706,15.7131338 127.99537,15.8367254 C127.863327,15.7754577 127.698011,15.7464085 127.603468,15.6486972 C126.631109,14.6425352 125.668785,13.626338 124.705405,12.6111972 C123.696074,11.5469366 122.692025,10.4773944 121.675827,9.42 C121.551708,9.29112676 121.365792,9.22140845 121.208398,9.12422535 C121.175651,9.29535211 121.113856,9.46647887 121.113856,9.63760563 C121.10963,11.4634859 121.113856,13.2893662 121.120194,15.1157746 C121.120722,15.3692958 121.013504,15.4934155 120.756813,15.4891901 C120.505933,15.4849648 120.253996,15.4939437 120.003116,15.4860211 C119.688327,15.4765141 119.608046,15.3904225 119.608046,15.0840845 C119.607518,13.5191197 119.607518,11.9536268 119.607518,10.388662 C119.606461,10.388662 119.604877,10.388662 119.60382,10.388662" id="Fill-4" fill="#FFFFFF"></path>
            <path d="M109.854296,9.14725352 C109.854296,9.5175 109.864331,9.86028169 109.85007,10.2014789 C109.843204,10.3657394 109.790915,10.5273592 109.759225,10.6905634 C109.607641,10.6071127 109.428592,10.5521831 109.308697,10.4365141 C108.319437,9.48052817 107.091972,9.78369718 106.526831,10.8162676 C105.954824,11.8615141 106.305528,13.1808803 107.554648,13.5859859 C108.151479,13.7792958 108.739859,13.6319366 109.209401,13.1676761 C109.312394,13.0662676 109.404296,12.9458451 109.523662,12.8708451 C109.69162,12.7652113 109.842148,12.8175 109.849014,13.0298239 C109.862746,13.4544718 109.870669,13.8812324 109.834754,14.3032394 C109.824718,14.4226056 109.676831,14.5630986 109.556937,14.6349296 C108.925775,15.0152113 108.22331,14.9925 107.529824,14.9211972 C106.315035,14.7970775 105.465211,14.120493 105.00993,13.0203169 C104.774894,12.452007 104.681937,11.8308803 104.83669,11.1780634 C104.98088,10.5675 105.202183,10.0271831 105.634754,9.57612676 C106.41169,8.76591549 107.369261,8.47383803 108.471021,8.57630282 C108.959049,8.62172535 109.422782,8.72630282 109.82419,9.04584507 C110.2425,8.39091549 110.855176,8.74056338 111.382817,8.7078169 C111.487394,8.7009507 111.643732,8.85147887 111.707113,8.96714789 C112.142324,9.75992958 112.559577,10.5632746 112.982641,11.3634507 C113.009577,11.4146831 113.020669,11.4785915 113.058169,11.5187324 C113.172782,11.6402113 113.29743,11.7527113 113.417852,11.8689085 C113.500775,11.7490141 113.599014,11.6365141 113.663979,11.5076408 C114.063275,10.7169718 114.452535,9.9215493 114.850246,9.13035211 C115.013979,8.805 115.237394,8.59214789 115.652007,8.66714789 C115.866444,8.70623239 116.095141,8.65816901 116.316972,8.66767606 C116.577359,8.67876761 116.673486,8.81133803 116.57419,9.05165493 C116.476479,9.29038732 116.337042,9.51221831 116.217148,9.74197183 C115.665211,10.7998944 115.108521,11.8546479 114.564507,12.9157394 C114.016268,13.986338 113.484401,15.0648592 112.938803,16.1365141 C112.646725,16.711162 112.357289,17.2889789 112.030352,17.8435563 C111.948486,17.9819366 111.732465,18.0928521 111.563979,18.1171479 C111.251303,18.1625704 110.928063,18.1419718 110.609577,18.1345775 C110.341796,18.1282394 110.256232,17.964507 110.387746,17.7231338 C110.82507,16.9192606 111.266092,16.1175 111.703944,15.3136268 C111.916268,14.9248944 112.123838,14.5335211 112.332993,14.1432042 C112.510986,13.8109859 112.512042,13.4872183 112.322958,13.151831 C111.684401,12.0183803 111.053768,10.8801761 110.421549,9.74355634 C110.297958,9.52172535 110.251479,9.23862676 109.854296,9.14725352" id="Fill-6" fill="#FFFFFF"></path>
            <path d="M48.7919894,11.8021479 C48.7666373,11.8116549 48.7418134,11.821162 48.7164613,11.8301408 C48.8337148,12.1702817 48.9145246,12.5278521 49.0740317,12.846338 C49.515581,13.7283803 50.7261444,13.896338 51.4682218,13.2488028 C52.2139965,12.5986268 52.2879401,11.2343662 51.6752641,10.5076056 C50.9944542,9.70003521 50.1324824,9.61869718 49.3111796,10.3787324 C48.909243,10.7510915 48.7745599,11.2581338 48.7919894,11.8021479 M47.3965669,13.3903521 C47.3965669,12.008662 47.3955106,10.6275 47.3976232,9.24580986 C47.3981514,8.73982394 47.4911092,8.65584507 47.9928697,8.6706338 C48.1571303,8.67538732 48.3240317,8.64950704 48.4845951,8.67433099 C48.5981514,8.69176056 48.7666373,8.7440493 48.8004401,8.82644366 C48.9393486,9.16288732 49.1421655,9.08471831 49.3507923,8.93894366 C49.9027289,8.55179577 50.5164613,8.52855634 51.1544894,8.5940493 C51.9192782,8.67274648 52.4706866,9.0968662 52.9354754,9.66570423 C53.4462148,10.2894718 53.5819542,11.0352465 53.5819542,11.8090141 C53.5819542,12.8526761 53.2349472,13.7479225 52.3972711,14.4250352 C51.7798415,14.9236268 51.0683979,15.0329577 50.3236796,14.9209859 C49.9830106,14.8697535 49.6645246,14.6775 49.3323063,14.5591901 C49.212412,14.5164085 49.0819542,14.5021479 48.95625,14.4752113 C48.9340669,14.5919366 48.8928697,14.708662 48.8923415,14.8259155 C48.8891725,15.7723944 48.8981514,16.7194014 48.8933979,17.6658803 C48.8918134,18.0102465 48.7613556,18.124331 48.4085387,18.1322535 C48.2442782,18.1359507 48.0800176,18.133838 47.915757,18.1327817 C47.5006162,18.1301408 47.3976232,18.0345423 47.3970951,17.6215141 C47.3944542,16.2113028 47.3960387,14.8005634 47.3965669,13.3903521" id="Fill-8" fill="#FFFFFF"></path>
            <path d="M32.5026761,5.03646127 C33.0783803,4.91392606 33.6725704,5.19544014 34.2783803,5.37448944 C34.8144718,5.53346831 34.9396479,5.75477113 34.9380634,6.30353873 C34.937007,6.53540493 34.9533803,6.7677993 34.9391197,6.99860915 C34.9322535,7.11269366 34.8752113,7.22413732 34.8403521,7.33663732 C34.7357746,7.30389085 34.6153521,7.29385563 34.5282042,7.2347007 C33.6757394,6.6552993 32.7567254,6.34103873 31.7141197,6.50582746 C30.8283803,6.64579225 30.1412324,7.1206162 29.608838,7.81991197 C28.8255634,8.84984155 28.6523239,10.0086444 29.0569014,11.2170951 C29.3357746,12.0526585 29.9003873,12.6954401 30.6841901,13.1380458 C31.2065493,13.4327641 31.7669366,13.5336444 32.349507,13.5521303 C33.0641197,13.5748415 33.6741549,13.2758979 34.2609507,12.9072359 C34.4421127,12.7942077 34.6401761,12.7086444 34.8308451,12.6098768 C34.8662324,12.8179754 34.9127113,13.0250176 34.933838,13.2347007 C34.9507394,13.4068838 34.9169366,13.5848768 34.9422887,13.7549472 C35.0083099,14.194912 34.815,14.3797711 34.3391197,14.5783627 C33.3387676,14.9956162 32.2908803,15.0426232 31.2387676,14.8831162 C30.4628873,14.7648063 29.7783803,14.3998415 29.1725704,13.9017782 C27.6366549,12.6399824 27.1058451,11.01375 27.4364789,9.07642606 C27.6863028,7.61339789 28.5155282,6.53117958 29.7171127,5.73734155 C30.3498592,5.31955986 31.2530282,4.9609331 32.5026761,5.03646127" id="Fill-10" fill="#FFFFFF"></path>
            <path d="M72.8347183,5.04047535 C73.7241549,4.97973592 74.4746831,5.18466549 75.1871831,5.56653169 C75.4148239,5.6890669 75.4956338,5.85808099 75.4861268,6.10737676 C75.4750352,6.40579225 75.4882394,6.70579225 75.4935211,7.00473592 C75.4988028,7.29522887 75.3778521,7.37920775 75.1185211,7.24610915 C74.7952817,7.07920775 74.4884155,6.87691901 74.1567254,6.72955986 C73.3111268,6.35403169 72.4517958,6.36512324 71.6046127,6.72427817 C70.3787324,7.24399648 69.7248592,8.22005282 69.4866549,9.49294014 C69.2289085,10.8741021 69.9857746,12.4559683 71.2528521,13.1341373 C72.155493,13.617412 73.0951056,13.6760387 74.0516197,13.358081 C74.336831,13.2630106 74.5861268,13.058081 74.8491549,12.8980458 C74.9642958,12.8283275 75.0641197,12.7290317 75.1845423,12.6725176 C75.3625352,12.5885387 75.4940493,12.6397711 75.4972183,12.8584331 C75.5030282,13.2344894 75.5130634,13.6116021 75.4940493,13.9871303 C75.4776761,14.3013908 75.2299648,14.4434683 74.9780282,14.5533275 C73.9523239,15.001743 72.8753873,15.0608979 71.7958099,14.8697007 C70.9702817,14.7233979 70.2319014,14.3494542 69.6070775,13.7663556 C69.0657042,13.2614261 68.5692254,12.7200528 68.3046127,12.0202289 C68.1419366,11.5897711 67.9898239,11.1371303 67.9459859,10.6839613 C67.8165845,9.3334331 68.1113028,8.0959331 68.9516197,6.98096831 C69.4829577,6.27691901 70.1452817,5.76195423 70.9142958,5.41072183 C71.5285563,5.12973592 72.2030282,4.92903169 72.8347183,5.04047535" id="Fill-12" fill="#FFFFFF"></path>
            <path d="M136.316461,9.45401408 C136.993046,9.2390493 137.224384,9.69855634 137.439877,10.1908099 C137.753081,10.9059507 138.071039,11.6189789 138.393222,12.3298944 C138.42544,12.400669 138.498856,12.4962676 138.556426,12.4983803 C138.61875,12.5010211 138.712764,12.4212676 138.744982,12.3541901 C138.928785,11.9728521 139.105194,11.5878169 139.271567,11.1980282 C139.552025,10.5430986 139.817694,9.88183099 140.102377,9.22795775 C140.142518,9.13552817 140.253433,9.07320423 140.331602,8.99661972 C140.395511,9.08429577 140.478433,9.16299296 140.520687,9.26017606 C140.771567,9.83323944 141.013996,10.4105282 141.257482,10.9867606 C141.406954,11.3416901 141.553257,11.6982042 141.701144,12.0541901 C141.734419,12.1344718 141.749208,12.2311268 141.804665,12.2902817 C141.871215,12.3610563 141.972095,12.438169 142.058187,12.4386972 C142.119982,12.4392254 142.205018,12.3283099 142.241461,12.2490845 C142.609595,11.4452113 142.97456,10.6397535 143.330018,9.83007042 C143.455722,9.54327465 143.646391,9.41651408 143.963292,9.44820423 C144.193046,9.47091549 144.427025,9.44820423 144.658363,9.45348592 C145.026496,9.46246479 145.116813,9.59978873 144.958363,9.92725352 C144.736532,10.3867606 144.500968,10.8394014 144.274384,11.2967958 C144.014525,11.8228521 143.758891,12.3510211 143.500088,12.8770775 C143.152025,13.5853521 142.800264,14.2920423 142.454842,15.0013732 C142.379313,15.1566549 142.339173,15.3314789 142.25044,15.4783099 C142.187588,15.5823592 142.071391,15.7186268 141.976849,15.7207394 C141.889701,15.7223239 141.764525,15.5791901 141.716461,15.4730282 C141.426496,14.8328873 141.152905,14.1858803 140.877201,13.5394014 C140.75625,13.2563028 140.64956,12.966338 140.523856,12.6853521 C140.480546,12.5876408 140.39868,12.5073592 140.334771,12.4191549 C140.247095,12.4983803 140.125088,12.5617606 140.077553,12.6605282 C139.898504,13.0344718 139.742694,13.419507 139.579489,13.8013732 C139.349208,14.3401056 139.122095,14.8804225 138.889173,15.4186268 C138.854842,15.4973239 138.804137,15.5712676 138.750264,15.6388732 C138.602905,15.8242606 138.489349,15.8094718 138.387412,15.5997887 C137.710827,14.2159859 137.03213,12.8332394 136.358187,11.4478521 C136.096743,10.9107042 135.845335,10.3682746 135.591285,9.82690141 C135.476144,9.58130282 135.545863,9.46774648 135.82368,9.45559859 C135.98794,9.44820423 136.152201,9.45401408 136.316461,9.45401408" id="Fill-14" fill="#FFFFFF"></path>
            <path d="M132.520775,11.6041373 L132.520775,11.5988556 C132.849296,11.5988556 133.177817,11.6067782 133.50581,11.5956866 C133.656866,11.5904049 133.85757,11.5148768 133.732923,11.3416373 C133.55493,11.0939261 133.330986,10.8277289 133.064261,10.7041373 C132.403521,10.3972711 131.847359,10.6618838 131.397359,11.1800176 C131.331866,11.2560739 131.281162,11.3918134 131.302817,11.4794894 C131.318134,11.5391725 131.470775,11.5941021 131.564789,11.5988556 C131.882746,11.6131162 132.201761,11.6041373 132.520775,11.6041373 Z M133.220599,12.803081 C132.650704,12.803081 132.08081,12.7993838 131.510915,12.8041373 C131.102113,12.8073063 131.046127,12.8923415 131.175,13.2678697 C131.515141,14.259243 132.300528,14.5048415 133.065317,14.2513204 C133.383803,14.1456866 133.652641,13.8319542 133.892958,13.5662852 C134.183979,13.2456866 134.267958,13.1997359 134.651408,13.4073063 C134.82993,13.5034331 135.003697,13.6069542 135.183275,13.7009683 C135.368134,13.7976232 135.413556,13.9444542 135.301585,14.1076585 C134.676232,15.0192782 133.878697,15.6335387 132.709859,15.649912 C132.050176,15.6588908 131.420599,15.5881162 130.855458,15.2178697 C130.295599,14.8507923 129.894718,14.3580106 129.721479,13.7046655 C129.627993,13.3507923 129.537676,12.990581 129.506514,12.6277289 C129.482218,12.3462148 129.54243,12.0551937 129.581514,11.7705106 C129.700352,10.9058979 130.097007,10.1970951 130.821655,9.7006162 C131.346655,9.3409331 131.948768,9.19357394 132.579401,9.22262324 C133.581866,9.26963028 134.427993,9.64727113 134.932394,10.5546655 C135.12993,10.9101232 135.224472,11.3268486 135.335915,11.7240317 C135.391901,11.9247359 135.384507,12.1444542 135.40088,12.35625 C135.425704,12.6789613 135.320599,12.7972711 134.98838,12.799912 C134.399472,12.8051937 133.810035,12.8014965 133.220599,12.8014965 L133.220599,12.803081 Z" id="Fill-16" fill="#FFFFFF"></path>
            <path d="M94.603838,10.9497887 L94.603838,10.9534859 C94.9117606,10.9534859 95.2202113,10.9587676 95.5281338,10.9519014 C95.8392254,10.944507 95.9010211,10.8246127 95.7473239,10.5478521 C95.5144014,10.1279577 95.1552465,9.85753521 94.6804225,9.8781338 C94.1691549,9.9003169 93.7017254,10.0952113 93.4180986,10.5705634 C93.2960915,10.775493 93.3779577,10.9344718 93.6219718,10.9460915 C93.9483803,10.9614085 94.2763732,10.9497887 94.603838,10.9497887 Z M95.3369366,12.1513732 C94.7670423,12.1513732 94.1976761,12.1492606 93.6277817,12.1524296 C93.2543662,12.1545423 93.1460915,12.2934507 93.2770775,12.6415141 C93.4688028,13.1511972 93.8247887,13.5124648 94.369331,13.6191549 C95.019507,13.7464437 95.5397535,13.4987324 95.9348239,12.9753169 C96.0156338,12.8680986 96.0832394,12.7365845 96.1894014,12.666338 C96.2797183,12.6071831 96.4386972,12.5707394 96.5300704,12.6103521 C96.7846479,12.7212676 97.0228521,12.8712676 97.2610563,13.0165141 C97.4659859,13.141162 97.4828873,13.3017254 97.3513732,13.5055986 C96.9557746,14.1172183 96.4202113,14.5899296 95.7388732,14.7980282 C95.2550704,14.9453873 94.7115845,14.937993 94.1955634,14.9332394 C92.9316549,14.9221479 91.9144014,13.781831 91.7152817,12.6853521 C91.5790141,11.9353521 91.5816549,11.1959155 91.8071831,10.4802465 C92.0274296,9.78253521 92.4658099,9.2321831 93.1360563,8.87619718 C93.9013732,8.46950704 94.7110563,8.47320423 95.5001408,8.67443662 C96.3135211,8.88200704 96.8802465,9.43024648 97.1971479,10.2378169 C97.3925704,10.7364085 97.4781338,11.2365845 97.4469718,11.7647535 C97.4279577,12.091162 97.341338,12.162993 97.0149296,12.1592958 C96.4555986,12.1534859 95.8962676,12.1577113 95.3369366,12.1577113 L95.3369366,12.1513732 Z" id="Fill-18" fill="#FFFFFF"></path>
            <path d="M60.8247359,13.6391197 C61.4136444,13.6723944 61.8826585,13.443169 62.2148768,12.9635915 C62.6912852,12.274331 62.6791373,11.2222183 62.1789613,10.5435211 C61.6365317,9.80830986 60.5231514,9.5843662 59.7308979,10.2958099 C59.1557218,10.8128873 59.0183979,11.4382394 59.1509683,12.1766197 C59.315757,13.0940493 59.9147007,13.6375352 60.8247359,13.6391197 M64.0402289,11.7667606 C64.1992077,13.4373592 62.6347711,14.9738028 60.8627641,14.9738028 C58.884243,14.9738028 57.5664613,13.5218662 57.5770246,11.6970423 C57.5870599,9.91077465 59.0014965,8.54862676 60.8796655,8.54862676 C62.6194542,8.54862676 64.171743,10.0063732 64.0402289,11.7667606" id="Fill-20" fill="#FFFFFF"></path>
            <path d="M40.9845423,8.67713028 C41.0326056,8.67713028 41.0833099,8.68610915 41.1292606,8.67554577 C41.5966901,8.5693838 41.8613028,8.79544014 42.0609507,9.19420775 C42.4782042,10.029243 42.9202817,10.8521303 43.3459859,11.6829401 C43.4685211,11.9211444 43.6195775,11.9549472 43.7716901,11.7257218 C43.930669,11.4869894 44.0516197,11.2218486 44.180493,10.9635739 C44.5037324,10.3186796 44.8280282,9.67378521 45.1396479,9.02255282 C45.2484507,8.79491197 45.4063732,8.67713028 45.6561972,8.67713028 C45.9361268,8.67713028 46.2160563,8.67237676 46.4959859,8.67660211 C46.8186972,8.68241197 46.8878873,8.78117958 46.746338,9.06586268 C46.3914085,9.78100352 46.0269718,10.491919 45.6641197,11.2033627 C45.3060211,11.907412 44.949507,12.6119894 44.5845423,13.3123415 C44.1139437,14.2165669 43.6311972,15.1149824 43.1627113,16.0202641 C42.915,16.4993134 42.6915845,16.9899824 42.4491549,17.4711444 C42.3583099,17.65125 42.2590141,17.8318838 42.1333099,17.9876937 C42.0704577,18.0653345 41.9410563,18.1239613 41.8385915,18.129243 C41.5206338,18.145088 41.2010915,18.13875 40.8831338,18.1271303 C40.5577817,18.1144542 40.4785563,17.9993134 40.6259155,17.7003697 C40.8598944,17.2260739 41.1229225,16.7655106 41.374331,16.2996655 C41.8090141,15.4952641 42.2542606,14.6966725 42.6699296,13.8822359 C42.7359507,13.7528345 42.7259155,13.5257218 42.6561972,13.3947359 C42.0863028,12.3246655 41.4973944,11.2651585 40.9063732,10.2067077 C40.6729225,9.78786972 40.4162324,9.38223592 40.1764437,8.96709507 C40.0708099,8.78329225 40.2091901,8.70829225 40.3486268,8.69403169 C40.5583099,8.67184859 40.7722183,8.68822183 40.9845423,8.68822183 C40.9845423,8.68452465 40.9845423,8.68082746 40.9845423,8.67713028" id="Fill-22" fill="#FFFFFF"></path>
            <path d="M98.4901585,11.7683979 C98.4901585,10.9180458 98.4885739,10.0682218 98.4906866,9.21786972 C98.491743,8.76205986 98.6063556,8.65695423 99.0621655,8.66963028 C99.216919,8.67385563 99.3743134,8.64850352 99.5248415,8.67174296 C99.660581,8.69286972 99.820088,8.72878521 99.9146303,8.81646127 C100.110053,8.99867958 100.284877,8.98441901 100.487165,8.85396127 C101.167975,8.41452465 101.910581,8.46892606 102.597729,8.74146127 C103.340335,9.03617958 103.70213,9.68160211 103.719032,10.487588 C103.745968,11.7710387 103.76287,13.0550176 103.77713,14.3395246 C103.781356,14.7720951 103.693151,14.8492077 103.26956,14.8423415 C103.095792,14.8397007 102.922025,14.8433979 102.748257,14.8386444 C102.38118,14.8291373 102.283468,14.7393486 102.281356,14.3691021 C102.276602,13.4220951 102.285053,12.4756162 102.280299,11.5291373 C102.278715,11.2692782 102.260229,11.0078345 102.229595,10.750088 C102.17044,10.2520246 101.80706,9.89128521 101.354419,9.86170775 C100.79456,9.82526408 100.248433,10.1564261 100.13963,10.637588 C100.061461,10.9840669 100.006004,11.3421655 99.998081,11.6965669 C99.9785387,12.5368838 99.9933275,13.3772007 99.9943838,14.2180458 C99.994912,14.7641725 99.9141021,14.8455106 99.3795951,14.840757 C99.2929754,14.8397007 99.2058275,14.8397007 99.1186796,14.8402289 C98.5714965,14.8455106 98.4901585,14.7673415 98.4901585,14.2317782 C98.4901585,13.4104754 98.4901585,12.5897007 98.4901585,11.7683979" id="Fill-24" fill="#FFFFFF"></path>
            <path d="M76.5805458,10.8720423 C76.5805458,10.3116549 76.5784331,9.75179577 76.5810739,9.19140845 C76.5831866,8.75514085 76.6566021,8.68278169 77.0828345,8.67591549 C77.2470951,8.67327465 77.4113556,8.67274648 77.575088,8.66535211 C77.971743,8.64792254 78.0789613,8.74035211 78.0800176,9.14440141 C78.0831866,10.2355986 78.0731514,11.3273239 78.0805458,12.4185211 C78.0837148,12.8780282 78.2648768,13.2593662 78.6662852,13.5139437 C79.0507923,13.7569014 79.8694542,13.7072535 80.1409331,13.1172887 C80.2814261,12.8109507 80.3632923,12.5109507 80.3590669,12.1723944 C80.346919,11.1873592 80.3516725,10.2023239 80.353257,9.21728873 C80.3543134,8.7218662 80.4361796,8.64897887 80.9337148,8.67221831 C81.0203345,8.67591549 81.1074824,8.67591549 81.1946303,8.67591549 C81.8279049,8.67591549 81.8537852,8.70232394 81.853257,9.3218662 C81.8516725,10.2102465 81.8659331,11.0991549 81.8453345,11.9875352 C81.8363556,12.3799648 81.7634683,12.7718662 81.7101232,13.1621831 C81.5659331,14.2185211 80.5777289,14.871338 79.637588,14.9405282 C79.0618838,14.9827817 78.4904049,14.9738028 77.9379401,14.711831 C77.0136444,14.2734507 76.6513204,13.5023239 76.5884683,12.5521479 C76.5514965,11.9944014 76.5816021,11.4324296 76.5816021,10.8720423 L76.5805458,10.8720423 Z" id="Fill-26" fill="#FFFFFF"></path>
            <path d="M147.39919,15.645 C146.442676,15.685669 145.800423,15.2288028 145.339331,14.4640141 C145.214155,14.2559155 145.269613,14.0990493 145.484049,13.9923592 C145.647782,13.9110211 145.804648,13.8164789 145.970493,13.7398944 C146.325423,13.5756338 146.509225,13.6178873 146.751655,13.9215845 C146.935986,14.1523944 147.161514,14.298169 147.463099,14.3129577 C147.691796,14.3240493 147.878239,14.2680634 147.990739,14.042007 C148.104296,13.8148944 148.100599,13.5772183 147.913627,13.4303873 C147.607817,13.1911268 147.274014,12.9772183 146.926479,12.804507 C146.517676,12.601162 146.134225,12.3830282 145.822606,12.038662 C145.413803,11.5876056 145.481937,10.3601408 145.99743,9.8409507 C146.860458,8.97158451 148.276479,9.00327465 149.028592,10.0992254 C149.196021,10.3432394 149.145845,10.5539789 148.877535,10.691831 C148.808873,10.7266901 148.727535,10.7441197 148.668908,10.7911268 C148.314507,11.0742254 147.998134,11.1127817 147.669085,10.7277465 C147.51169,10.5423592 147.215915,10.5909507 147.077535,10.7626056 C146.93757,10.9353169 146.975599,11.185669 147.214859,11.3298592 C147.559754,11.5369014 147.937923,11.6874296 148.283345,11.8934155 C148.602359,12.0835563 148.917148,12.2916549 149.193908,12.5367254 C149.340739,12.6671831 149.411514,12.8890141 149.501303,13.0765141 C149.574718,13.2302113 149.630176,13.3939437 149.685106,13.5555634 C149.706232,13.616831 149.731056,13.6976408 149.708345,13.7494014 C149.566796,14.0710563 149.452183,14.413838 149.254648,14.6990493 C148.759754,15.4141901 148.260106,15.6439437 147.39919,15.645" id="Fill-28" fill="#FFFFFF"></path>
            <path d="M54.7190493,12.4636268 C54.7190493,11.8160915 54.7142958,11.1685563 54.7216901,10.5215493 C54.724331,10.2917958 54.6841901,10.1211972 54.4121831,10.0932042 C54.2230986,10.073662 54.1570775,9.94267606 54.1634155,9.76362676 C54.1692254,9.58985915 54.1782042,9.41609155 54.1734507,9.24232394 C54.1660563,8.96503521 54.1850704,8.73105634 54.5320775,8.64338028 C54.6202817,8.62119718 54.7053169,8.39989437 54.7105986,8.26679577 C54.7290845,7.81362676 54.7190493,7.35887324 54.7053169,6.90464789 C54.6973944,6.63211268 54.808838,6.51380282 55.0829577,6.5259507 C55.3333099,6.53704225 55.5852465,6.52542254 55.8361268,6.52911972 C56.158838,6.53334507 56.217993,6.59725352 56.2164085,6.92947183 C56.2137676,7.36415493 56.2084859,7.79883803 56.2074296,8.23352113 C56.2058451,8.60165493 56.2834859,8.67823944 56.6452817,8.67823944 C57.3345423,8.6771831 57.3577817,8.7009507 57.3567254,9.3965493 C57.3561972,10.0984859 57.3561972,10.0984859 56.6357746,10.107993 C56.2528521,10.1127465 56.2053169,10.1660915 56.2063732,10.5479577 C56.2100704,11.8134507 56.2121831,13.0794718 56.2116549,14.345493 C56.2111268,14.7928521 56.1451056,14.852007 55.7104225,14.8419718 C55.5366549,14.8377465 55.3623592,14.8388028 55.1885915,14.8425 C54.7892958,14.8514789 54.7174648,14.7870423 54.7142958,14.3766549 C54.7100704,13.7391549 54.7132394,13.1016549 54.7132394,12.4636268 C54.7153521,12.4636268 54.7169366,12.4636268 54.7190493,12.4636268" id="Fill-30" fill="#FFFFFF"></path>
            <path d="M83.1076056,11.7404577 C83.1076056,10.8710915 83.1049648,10.0017254 83.108662,9.13288732 C83.1107746,8.70876761 83.1826056,8.64961268 83.6046127,8.67021127 C83.7683451,8.6781338 83.9347183,8.68658451 84.0968662,8.66809859 C84.3155282,8.64327465 84.4924648,8.66757042 84.6144718,8.88359155 C84.7032042,9.04045775 84.8389437,9.00612676 84.958838,8.90735915 C85.4790845,8.47848592 86.0685211,8.51651408 86.6600704,8.68130282 C87.0276761,8.78323944 87.1100704,9.04838028 86.9267958,9.38112676 C86.8385915,9.54116197 86.7477465,9.70066901 86.6706338,9.86651408 C86.5348944,10.1591197 86.3875352,10.216162 86.0658803,10.1364085 C85.8387676,10.0798944 85.5889437,10.0027817 85.3702817,10.044507 C84.9303169,10.1279577 84.618169,10.6154577 84.6017958,11.1800704 C84.5854225,11.7399296 84.5954577,12.3003169 84.5954577,12.8601761 C84.5949296,13.382007 84.6039085,13.9033099 84.5949296,14.4251408 C84.5891197,14.7864085 84.505669,14.8503169 84.1322535,14.8429225 C83.9484507,14.8392254 83.7651761,14.8386972 83.5819014,14.8423944 C83.1831338,14.8508451 83.1107746,14.7869366 83.108662,14.3770775 C83.1049648,13.4982042 83.1076056,12.619331 83.1076056,11.7404577" id="Fill-32" fill="#FFFFFF"></path>
            <path d="M87.6462676,11.7680282 C87.6462676,10.908169 87.6430986,10.0483099 87.6473239,9.1884507 C87.6499648,8.74690141 87.7196831,8.68299296 88.150669,8.67559859 C88.3149296,8.67295775 88.4797183,8.67876761 88.6429225,8.66239437 C88.8494366,8.64179577 89.0020775,8.69144366 89.0813028,8.90165493 C89.1510211,9.08809859 89.2783099,9.10816901 89.416162,8.9771831 C89.8983803,8.51873239 90.4730282,8.51873239 91.0709155,8.63545775 C91.5219718,8.7231338 91.6566549,8.97242958 91.4691549,9.3828169 C91.3688028,9.60147887 91.2647535,9.82172535 91.1327113,10.0213732 C91.0809507,10.1000704 90.9515493,10.1513028 90.850669,10.1660915 C90.7513732,10.1803521 90.6420423,10.1370423 90.5390493,10.111162 C89.7188028,9.90517606 89.2825352,10.1940845 89.153662,11.0491901 C89.1108803,11.3344014 89.0897535,11.6254225 89.0865845,11.914331 C89.0781338,12.7255986 89.0871127,13.5368662 89.0839437,14.348662 C89.081831,14.7917958 89.0152817,14.8514789 88.5795423,14.8414437 C88.444331,14.8382746 88.3091197,14.8414437 88.1739085,14.8398592 C87.7265493,14.8356338 87.6457394,14.7595775 87.6441549,14.3185563 C87.6415141,13.4682042 87.6436268,12.6183803 87.6436268,11.7680282 L87.6462676,11.7680282 Z" id="Fill-34" fill="#FFFFFF"></path>
            <path d="M36.0356514,11.7647535 C36.0356514,10.9144014 36.0340669,10.0640493 36.0361796,9.21369718 C36.0377641,8.75577465 36.1449824,8.65753521 36.6076585,8.66704225 C36.7523768,8.67021127 36.9029049,8.63799296 37.0402289,8.66915493 C37.1669894,8.69820423 37.33125,8.76052817 37.3882923,8.86035211 C37.5203345,9.09116197 37.6682218,9.04362676 37.8139965,8.9253169 C38.2740317,8.55137324 38.7990317,8.5059507 39.3446303,8.62690141 C39.553257,8.67285211 39.7476232,8.79961268 39.9345951,8.91158451 C39.9773768,8.93693662 39.9985035,9.07161972 39.9710387,9.12760563 C39.8273768,9.42179577 39.665757,9.70700704 39.509419,9.99538732 C39.4180458,10.1644014 39.2838908,10.2214437 39.0974472,10.1585915 C39.0060739,10.1274296 38.9046655,10.1242606 38.8164613,10.0872887 C38.2867077,9.86440141 37.7442782,10.1638732 37.6191021,10.7765493 C37.5361796,11.1800704 37.4601232,11.5909859 37.4458627,12.0008451 C37.4189261,12.762993 37.440581,13.5272535 37.4389965,14.2904577 C37.4379401,14.7800704 37.3671655,14.8482042 36.8886444,14.8408099 C36.850088,14.8402817 36.8110035,14.8392254 36.7724472,14.8392254 C36.049912,14.8386972 36.0345951,14.8207394 36.0361796,14.0839437 C36.0382923,13.3107042 36.0367077,12.537993 36.0367077,11.7647535 L36.0356514,11.7647535 Z" id="Fill-36" fill="#FFFFFF"></path>
        </g>
    </g>
</svg>