<?xml version="1.0" encoding="UTF-8"?>
<svg viewBox="0 0 286 207" version="1.1" xmlns="http://www.w3.org/2000/svg" xmlns:xlink="http://www.w3.org/1999/xlink">
    <defs>
        <polygon id="path-1" points="0.0497833292 0.909 132.680424 0.909 132.680424 102.545058 0.0497833292 102.545058"></polygon>
        <polygon id="path-3" points="0.84250694 0.0187722626 83.978 0.0187722626 83.978 69.1384783 0.84250694 69.1384783"></polygon>
    </defs>
    <g id="Roadmap-Center" stroke="none" stroke-width="1" fill="none" fill-rule="evenodd" transform="translate(-274.000000, -595.000000)">
        <g id="Page-1" transform="translate(274.000000, 594.000000)">
            <g id="Group-3" transform="translate(57.000000, 0.091000)">
                <mask id="mask-2" fill="white">
                    <use xlink:href="#path-1"></use>
                </mask>
                <g id="Clip-2"></g>
                <path d="M64.0953,40.2874 C48.0003,40.1684 32.6733,45.5014 22.6113,54.7234 C10.2533,66.0484 11.2493,80.6574 25.7643,89.0144 C31.7843,92.4804 38.9933,94.8104 45.9013,95.6234 C64.0783,97.7634 81.2213,94.3184 95.1463,81.4654 C107.5623,70.0054 105.6153,55.2814 90.9683,46.7594 C82.6793,41.9364 73.5613,40.3354 64.0953,40.2874 M18.9063,24.8704 C18.9063,27.0554 18.5513,29.3204 19.0163,31.4014 C19.4003,33.1164 20.7573,34.6124 21.6833,36.2054 C23.0293,35.1534 24.8803,34.3734 25.6233,32.9954 C27.5933,29.3484 29.0423,25.4224 30.7843,21.6474 C31.4793,20.1424 32.1093,18.4154 33.2843,17.3664 C35.1613,15.6924 37.4703,14.4994 39.5963,13.1034 C40.1483,15.4804 40.6513,17.8694 41.2663,20.2294 C41.8443,22.4534 42.5393,24.6464 43.1833,26.8524 C45.2943,25.8244 48.0403,25.3184 49.3963,23.6694 C53.2953,18.9304 56.3273,13.4684 60.3023,8.8054 C62.8173,5.8554 66.2163,3.4854 69.6103,1.5354 C71.1603,0.6444 74.0723,0.7214 75.5703,1.6484 C76.5243,2.2384 76.4663,5.2924 76.0703,7.0644 C75.3103,10.4594 73.5533,13.6644 73.0463,17.0724 C72.7013,19.3884 73.7783,21.9154 74.2193,24.3484 C76.6153,23.6124 79.5343,23.5014 81.3053,22.0184 C85.8823,18.1854 89.7343,13.4854 94.3133,9.6544 C96.7623,7.6044 99.9803,6.1174 103.0933,5.3094 C106.9923,4.2974 108.5803,6.2834 107.0693,10.0094 C105.5763,13.6914 103.2053,17.0294 101.8343,20.7454 C101.0603,22.8404 101.5263,25.3934 101.4343,27.7404 C103.8753,27.3904 106.6063,27.6214 108.6963,26.5734 C113.2783,24.2754 117.4533,21.1784 121.9643,18.7204 C123.8043,17.7184 126.0603,17.2074 128.1723,17.0364 C132.2633,16.7054 133.8453,19.0204 131.7673,22.6294 C129.7043,26.2104 126.5883,29.2074 124.6853,32.8514 C123.4393,35.2374 122.2723,38.8764 123.2143,41.0064 C133.4213,64.0874 122.3973,80.0334 106.4393,88.7894 C80.2933,103.1354 52.6453,106.7574 23.9853,97.2964 C12.8413,93.6174 3.1013,87.2574 0.6733,74.8504 C-0.5197,68.7514 0.0873,61.8114 1.7463,55.7634 C4.0183,47.4794 7.8783,39.5974 11.4543,31.7234 C12.7283,28.9174 15.1603,26.6374 17.0633,24.1174 C17.6773,24.3684 18.2923,24.6194 18.9063,24.8704" id="Fill-1" fill="#FFFFFF" mask="url(#mask-2)"></path>
            </g>
            <path d="M164.2455,169.2431 C167.7285,158.0161 170.9725,147.7371 174.0885,137.4191 C175.2425,133.5991 176.2885,129.7261 177.0365,125.8111 C178.0205,120.6641 176.2135,117.6901 170.9895,117.7911 C165.4765,117.8971 159.9215,119.3151 154.5495,120.7671 C153.2205,121.1261 152.1605,123.7181 151.5975,125.4821 C147.3965,138.6361 143.2245,151.8021 139.3455,165.0531 C138.3555,168.4361 136.8405,169.4891 133.3975,169.3191 C127.2685,169.0171 121.1145,169.2351 114.1325,169.2351 C116.0855,162.8631 117.8585,157.0601 119.6425,151.2611 C123.6555,138.2201 127.5495,125.1401 131.8245,112.1851 C132.4725,110.2211 134.6055,108.0051 136.5475,107.3281 C151.4645,102.1261 166.9035,99.8781 182.6985,100.3081 C201.3495,100.8161 206.9545,108.7421 201.3995,126.4711 C197.5195,138.8541 193.4515,151.1881 190.0165,163.6951 C188.7335,168.3671 186.5895,169.6641 182.0485,169.3391 C176.4345,168.9381 170.7705,169.2431 164.2455,169.2431" id="Fill-4" fill="#FFFFFF"></path>
            <g id="Group-8" transform="translate(202.000000, 100.091000)">
                <mask id="mask-4" fill="white">
                    <use xlink:href="#path-3"></use>
                </mask>
                <g id="Clip-7"></g>
                <path d="M16.9182,19.2233 C18.5842,13.8783 19.8402,9.2733 21.5372,4.8373 C21.9322,3.8053 23.7512,2.9293 25.0452,2.6903 C39.3772,0.0413 53.7822,-1.0777 68.2672,1.3963 C81.9782,3.7373 86.5232,10.8613 82.6512,24.0303 C80.2572,32.1733 77.7982,40.3033 75.0402,48.3263 C74.2832,50.5273 72.7292,52.8283 70.8882,54.2213 C54.9992,66.2493 36.9372,70.5813 17.2592,68.7263 C15.6172,68.5713 13.9892,68.0983 12.3942,67.6373 C2.4682,64.7623 -1.3148,57.4163 2.0362,47.5643 C4.8622,39.2553 10.8222,33.9443 18.6862,30.6703 C29.1482,26.3143 40.2412,25.5413 52.1912,24.9393 C51.0832,28.9363 50.3452,32.4473 49.0502,35.7393 C48.6682,36.7093 46.7732,37.3353 45.4602,37.6393 C41.9002,38.4613 38.1872,38.7253 34.7172,39.7993 C32.4272,40.5083 29.7782,41.7743 28.5132,43.6263 C27.0752,45.7313 26.0702,49.0063 26.6622,51.3153 C27.0552,52.8513 30.6112,54.5623 32.6882,54.4843 C37.5842,54.3003 42.5832,53.5463 47.2512,52.0933 C49.3152,51.4513 51.4272,48.8253 52.2202,46.6313 C54.7042,39.7553 56.5612,32.6523 58.6792,25.6423 C60.6142,19.2363 58.9012,16.5413 51.9672,15.3853 C42.2522,13.7673 32.7142,14.9213 23.2832,17.4203 C21.4242,17.9123 19.5822,18.4663 16.9182,19.2233" id="Fill-6" fill="#FFFFFF" mask="url(#mask-4)"></path>
            </g>
            <path d="M82.6563,105.1152 C81.3503,109.4452 79.8943,113.5132 78.9303,117.6932 C78.0353,121.5792 76.6253,122.1802 73.1173,120.0902 C64.3543,114.8712 54.8333,113.1862 44.7713,115.2572 C43.1633,115.5882 41.3563,115.9612 40.1433,116.9372 C38.8683,117.9642 37.5473,119.7132 37.4873,121.1962 C37.4473,122.1922 39.4133,123.8802 40.7433,124.2142 C45.8973,125.5092 51.1563,126.3812 56.3743,127.4192 C57.8423,127.7112 59.3203,127.9712 60.7663,128.3482 C75.2733,132.1382 78.8913,142.8612 69.4573,154.5972 C63.6733,161.7922 55.6273,165.4402 46.8743,167.4162 C32.6433,170.6272 18.4653,170.0682 4.4023,166.1062 C0.7583,165.0802 -1.1337,163.6512 0.7243,159.4832 C2.0673,156.4712 2.8673,153.1872 3.6473,149.9612 C4.5013,146.4332 6.0123,146.1242 8.9073,148.0882 C17.0543,153.6152 26.2263,155.7452 35.9403,155.1152 C39.3343,154.8952 42.7663,153.8132 45.9523,152.5482 C47.1243,152.0832 48.3743,149.8732 48.2323,148.6122 C48.1053,147.4862 46.2563,146.0352 44.9103,145.6642 C41.0743,144.6052 37.1043,144.0352 33.1913,143.2512 C30.2553,142.6632 27.2813,142.2032 24.4013,141.4072 C10.7413,137.6352 7.0923,125.8172 16.2263,114.8622 C21.1853,108.9152 27.7443,105.3342 35.0473,103.1782 C49.6573,98.8662 64.2903,99.2362 78.8613,103.4792 C80.0983,103.8392 81.2483,104.4992 82.6563,105.1152" id="Fill-9" fill="#FFFFFF"></path>
            <path d="M118.5381,110.703 C116.2331,117.577 114.1061,124.874 111.3601,131.928 C102.9211,153.606 94.3661,175.241 85.5471,196.766 C84.0091,200.522 80.9751,203.665 78.6311,207.091 C77.9301,206.886 77.2291,206.681 76.5281,206.476 C76.2461,203.678 75.4241,200.811 75.7721,198.093 C77.6481,183.414 79.4351,168.706 81.9891,154.137 C84.4281,140.223 87.8761,126.488 90.6381,112.626 C91.3121,109.241 92.2931,108.554 95.8871,109.068 C103.2161,110.114 110.6831,110.195 118.5381,110.703" id="Fill-11" fill="#FFFFFF"></path>
            <path d="M106.2043,67.6664 C101.5523,68.6754 97.7893,72.6824 97.7863,76.2274 C97.7833,79.4774 100.7803,82.3314 103.9153,82.0644 C107.4483,81.7634 111.5273,77.5284 110.6473,74.1464 C110.0263,71.7624 107.7443,69.8114 106.2043,67.6664 M113.5673,51.7474 C123.7253,51.7634 131.0693,58.6614 131.0723,68.1874 C131.0763,79.9914 120.0073,90.5524 107.5443,90.6364 C97.3963,90.7054 89.5443,83.3504 89.6453,73.8694 C89.7703,62.1914 101.0843,51.7284 113.5673,51.7474" id="Fill-15" fill="#FFFFFF"></path>
        </g>
    </g>
</svg>