<?xml version="1.0" encoding="UTF-8"?>
<svg viewBox="0 0 150 23" version="1.1" xmlns="http://www.w3.org/2000/svg" xmlns:xlink="http://www.w3.org/1999/xlink">

    <defs>
        <polygon id="path-1" points="0 0.205602879 16.6831157 0.205602879 16.6831157 20.383168 0 20.383168"></polygon>
    </defs>
    <g id="2" stroke="none" stroke-width="1" fill="none" fill-rule="evenodd">
        <g id="Coin-Idol">
            <path d="M61.6723339,1.80238193 C60.6241822,1.80238193 59.9332531,1.50530425 59.7691995,1.30662021 C59.9332531,1.10746198 60.6241822,0.811095579 61.6723339,0.811095579 C62.7207656,0.811095579 63.4119746,1.10841036 63.5760282,1.30662021 C63.4122545,1.50530425 62.7207656,1.80238193 61.6723339,1.80238193 M61.6723339,0 C61.4049768,0 59.0592334,0.0367494343 59.0592334,1.30662021 C59.0592334,2.57625389 61.4049768,2.61324042 61.6723339,2.61324042 C61.939691,2.61324042 64.2857143,2.57649098 64.2857143,1.30662021 C64.2857143,0.0367494343 61.939691,0 61.6723339,0" id="Fill-1" fill="#FFFFFF"></path>
            <g id="Group-5" transform="translate(0.000000, 2.613240)">
                <mask id="mask-2" fill="white">
                    <use xlink:href="#path-1"></use>
                </mask>
                <g id="Clip-4"></g>
                <path d="M7.72512982,15.6569301 L7.72512982,4.54107189 C8.04991345,4.50191454 8.37415758,4.47214423 8.69732269,4.47214423 C8.78661122,4.47214423 8.86942565,4.48394508 8.95817467,4.48635889 L8.95817467,15.792908 C8.54167472,15.7800344 8.13056986,15.7349766 7.72512982,15.6569301 Z M4.4619175,14.1968439 C3.81774531,13.6891395 3.30170619,13.0832734 2.9129909,12.3779048 C2.52454535,11.673609 2.33059233,10.8990446 2.33059233,10.0526022 C2.33059233,9.07581423 2.51968978,8.23473593 2.8989637,7.53017192 C3.27823761,6.82587612 3.76568281,6.24870759 4.36264808,5.79705712 C4.91942003,5.37598157 5.55307182,5.06245461 6.25793863,4.84574821 L6.25793863,15.2039387 C5.60270653,14.9386879 4.99414185,14.6155057 4.4619175,14.1968439 Z M14.2108216,12.8075628 C14.3055052,12.9027742 14.3529819,13.0341926 14.3529819,13.2034275 C14.3529819,13.3919728 14.2108216,13.6320127 13.9265011,13.9243517 C13.6421805,14.2164226 13.2631764,14.5033977 12.7897583,14.7863497 C12.3160706,15.0684972 11.7711678,15.3088052 11.1553198,15.5067376 C10.9184759,15.5831749 10.6721906,15.6309146 10.4256356,15.6778498 L10.4256356,4.64164726 C10.5591638,4.66685815 10.6988963,4.6805364 10.8289176,4.71191592 C11.4919726,4.87203191 12.0695156,5.06084541 12.5626256,5.27728361 C13.0549264,5.49425821 13.4431022,5.71954704 13.7274227,5.95529571 C14.012013,6.19104438 14.1539036,6.38388089 14.1539036,6.53434165 C14.1539036,6.6853388 14.1066966,6.80737025 14.012013,6.9020452 L14.3813061,7.07128003 L16.143608,4.04758206 L15.8023693,3.82202503 C15.7454513,3.89738951 15.6982444,3.95880754 15.6602091,4.00520631 C15.621904,4.05267788 15.5277599,4.07601137 15.3761583,4.07601137 C15.2434394,4.07601137 15.0017399,3.99608747 14.6513297,3.83597148 C14.3006497,3.67612369 13.8507002,3.50179305 13.3014814,3.31271135 C12.7514533,3.12497066 12.1075509,2.95064001 11.3689648,2.79025582 C11.0752029,2.72669219 10.7523075,2.68565744 10.4256356,2.64730469 L10.4256356,0.205602879 L8.95817467,0.205602879 L8.95817467,2.55584816 C8.91690233,2.55557996 8.88102506,2.55075234 8.83921322,2.55075234 C8.455893,2.55075234 8.08659998,2.57033101 7.72512982,2.60144233 L7.72512982,0.205602879 L6.25793863,0.205602879 L6.25793863,2.83129057 C5.87893447,2.91765129 5.50910194,3.01661746 5.15869169,3.14374473 C4.06861639,3.53960939 3.14066314,4.07198836 2.37321344,4.73980882 C1.60576374,5.40897029 1.01850961,6.17682973 0.611181297,7.04365533 C0.203313476,7.90994453 -8.09261549e-05,8.8239735 -8.09261549e-05,9.78493765 C-8.09261549e-05,10.9339107 0.217880184,11.9930364 0.653802405,12.9631194 C1.08945487,13.934007 1.70044734,14.7721351 2.48704957,15.4783083 C3.27311229,16.1847497 4.21590199,16.7265157 5.31487917,17.1033381 C5.61943127,17.2074001 5.93504327,17.2942972 6.25766888,17.3696617 L6.25766888,20.383168 L7.72512982,20.383168 L7.72512982,17.6038011 C8.12436552,17.6424221 8.53061481,17.6681694 8.95277959,17.6681694 L8.95817467,17.6681694 L8.95817467,20.383168 L10.4256356,20.383168 L10.4256356,17.5968279 C11.0023693,17.5402375 11.5291986,17.4517312 11.9939845,17.3240675 C12.8269844,17.0942192 13.5145869,16.8313823 14.0543644,16.5350202 C14.5946814,16.2391945 15.0106418,15.9672387 15.3049432,15.7212984 C15.5987052,15.4742853 15.7926582,15.351181 15.8873418,15.351181 C16.058096,15.351181 16.2002563,15.4176948 16.3138226,15.5488451 L16.6831157,15.2945906 L14.5801146,12.5820058 L14.2108216,12.8075628 Z" id="Fill-3" fill="#FFFFFF" mask="url(#mask-2)"></path>
            </g>
            <path d="M28.1022559,13.9065356 C27.8596232,14.4843022 27.514144,14.9867656 27.067147,15.4149864 C26.618024,15.8434723 26.071901,16.1833974 25.4282466,16.4344965 C24.783795,16.6861259 24.0612118,16.8120732 23.2578397,16.8120732 C22.4555306,16.8120732 21.7316187,16.6861259 21.0882301,16.4344965 C20.4448414,16.1831322 19.8989842,15.8434723 19.4498612,15.4149864 C19.0025985,14.9867656 18.6565877,14.4843022 18.413955,13.9065356 C18.1713223,13.3295645 18.0501388,12.704866 18.0501388,12.0345613 C18.0501388,11.3830824 18.1713223,10.7684596 18.413955,10.1909582 C18.6565877,9.61398704 19.0025985,9.11125852 19.4498612,8.68250745 C19.8989842,8.25402153 20.4448414,7.91913433 21.0882301,7.67652009 C21.7316187,7.43443615 22.4555306,7.31379191 23.2578397,7.31379191 C24.0612118,7.31379191 24.7835292,7.43443615 25.4282466,7.67652009 C26.071901,7.91913433 26.618024,8.25402153 27.067147,8.68250745 C27.514144,9.11099336 27.8596232,9.61372189 28.1022559,10.1909582 C28.3446229,10.7684596 28.4658064,11.3833475 28.4658064,12.0345613 C28.4658064,12.704866 28.3446229,13.3295645 28.1022559,13.9065356 M28.410264,7.60705022 C27.7937164,7.03882911 27.0519991,6.58674464 26.1840489,6.25132714 C25.3166302,5.91643994 24.34105,5.74912892 23.2578397,5.74912892 C22.1759582,5.74912892 21.2006437,5.91643994 20.3326936,6.25132714 C19.4650092,6.58674464 18.7224945,7.03882911 18.1064785,7.60705022 C17.4901967,8.17500618 17.0184846,8.8408033 16.6921396,9.60417641 C16.3655288,10.3678147 16.2020906,11.1874001 16.2020906,12.0629325 C16.2020906,12.938465 16.3655288,13.757255 16.6921396,14.5208932 C17.0187504,15.2850618 17.4901967,15.9508589 18.1064785,16.5188149 C18.7224945,17.087036 19.4650092,17.5242719 20.3326936,17.8318484 C21.200378,18.1386295 22.1759582,18.2926829 23.2578397,18.2926829 C24.34105,18.2926829 25.3166302,18.1386295 26.1840489,17.8318484 C27.0519991,17.5242719 27.7937164,17.087036 28.410264,16.5188149 C29.0265458,15.9508589 29.4982578,15.2850618 29.8240713,14.5208932 C30.1504163,13.7575201 30.3135889,12.938465 30.3135889,12.0629325 C30.3135889,11.1874001 30.1504163,10.3678147 29.8240713,9.60417641 C29.4982578,8.84106845 29.0268116,8.17500618 28.410264,7.60705022" id="Fill-6" fill="#FFFFFF"></path>
            <path d="M32.4041812,6.09112746 C32.7026221,6.09112746 32.8942302,6.14388831 32.9787397,6.24832774 C33.062452,6.35303773 33.104441,6.56651625 33.104441,6.889575 L33.104441,17.1525074 C33.104441,17.4758367 33.062452,17.6895858 32.9787397,17.7937547 C32.8942302,17.8981941 32.7026221,17.9504138 32.4041812,17.9504138 L32.4041812,18.2926829 L35.5400697,18.2926829 L35.5400697,17.9504138 C35.241363,17.9504138 35.0500207,17.8981941 34.9663084,17.7937547 C34.8825961,17.6895858 34.8406071,17.4755662 34.8406071,17.1525074 L34.8406071,6.889575 C34.8406071,6.56651625 34.8825961,6.35303773 34.9663084,6.24805717 C35.0500207,6.14388831 35.241363,6.09112746 35.5400697,6.09112746 L35.5400697,5.74912892 L32.4041812,5.74912892 L32.4041812,6.09112746 Z" id="Fill-8" fill="#FFFFFF"></path>
            <path d="M47.6085496,6.09112746 C47.9077884,6.09112746 48.1089685,6.14388831 48.2123564,6.24832774 C48.3149449,6.35303773 48.3669054,6.56651625 48.3669054,6.889575 L48.3669054,15.6987431 L40.7580339,6.83221448 C40.551791,6.56651625 40.4497354,6.40525745 40.4497354,6.34762636 C40.4497354,6.27240833 40.50063,6.20990701 40.603485,6.1628281 C40.7066064,6.11520805 40.9083195,6.09112746 41.2075582,6.09112746 L41.2075582,5.74912892 L37.1080139,5.74912892 L37.1080139,6.09112746 C37.4072527,6.09112746 37.6092322,6.14388831 37.7120872,6.24805717 C37.8149422,6.35303773 37.8663697,6.56651625 37.8663697,6.889575 L37.8663697,17.1522368 C37.8663697,17.4755662 37.8149422,17.6895858 37.7120872,17.7934841 C37.6092322,17.8979235 37.4072527,17.9504138 37.1080139,17.9504138 L37.1080139,18.2924124 L40.1973943,18.2924124 L40.1973943,17.9504138 C39.8970897,17.9504138 39.696176,17.8979235 39.593321,17.7934841 C39.490466,17.6895858 39.4390385,17.4755662 39.4390385,17.1522368 L39.4390385,7.9732017 L47.3844536,17.1806465 C47.4774495,17.2948264 47.5568557,17.3857374 47.6232051,17.4520267 C47.6882223,17.5185866 47.7212638,17.5986748 47.7212638,17.6941855 C47.7212638,17.789155 47.6831595,17.8554443 47.6088161,17.893865 C47.5336733,17.9317446 47.3093109,17.9504138 46.9351958,17.9504138 L46.9351958,18.2926829 L50.6968641,18.2926829 L50.6968641,17.9504138 C50.3978918,17.9504138 50.1959123,17.8981941 50.0933238,17.7937547 C49.9904688,17.6895858 49.9393078,17.4755662 49.9393078,17.1525074 L49.9393078,6.889575 C49.9393078,6.56651625 49.9904688,6.35303773 50.0933238,6.24805717 C50.1959123,6.14388831 50.3978918,6.09112746 50.6968641,6.09112746 L50.6968641,5.74912892 L47.6088161,5.74912892 L47.6088161,6.09112746 L47.6085496,6.09112746 Z" id="Fill-10" fill="#FFFFFF"></path>
            <path d="M60.1045296,4.51495517 C60.3375076,4.51495517 60.4953543,4.57595278 60.5787808,4.69636366 C60.6622074,4.81677453 60.7036836,4.97864266 60.7036836,5.18328834 L60.7036836,17.8142836 C60.7036836,18.0181371 60.6622074,18.1807974 60.5787808,18.3014723 C60.4953543,18.4216191 60.3375076,18.4818246 60.1045296,18.4818246 L60.1045296,18.815331 L62.71777,18.815331 L62.71777,18.4818246 C62.484318,18.4818246 62.3264713,18.4216191 62.2430448,18.3014723 C62.1593813,18.1807974 62.118142,18.0181371 62.118142,17.8142836 L62.118142,5.18328834 C62.118142,4.97864266 62.1593813,4.81677453 62.2430448,4.69636366 C62.3264713,4.57595278 62.484318,4.51495517 62.71777,4.51495517 L62.71777,4.18118467 L60.1045296,4.18118467 L60.1045296,4.51495517 Z" id="Fill-12" fill="#FFFFFF"></path>
            <path d="M76.2892905,13.8311833 C76.1117533,14.392625 75.8327286,14.8858819 75.4514213,15.3139305 C75.069584,15.7411673 74.5769847,16.078844 73.9717686,16.3256078 C73.3665525,16.5729127 72.6267262,16.6965651 71.7517596,16.6965651 L67.7595593,16.6965651 L67.7595593,7.34578787 L71.7517596,7.34578787 C72.6267262,7.34578787 73.3665525,7.46998147 73.9717686,7.71647466 C74.5769847,7.963509 75.069584,8.30091515 75.4514213,8.72869312 C75.8327286,9.15592994 76.1114884,9.65026919 76.2892905,10.2108991 C76.4660326,10.7715291 76.5540063,11.3757215 76.5540063,12.0215824 C76.5540063,12.6671726 76.4660326,13.2713651 76.2892905,13.8311833 M76.9032509,7.55954157 C76.3913081,6.99918219 75.7349507,6.55733436 74.9347087,6.23399807 C74.1342018,5.91093235 73.1855706,5.74912892 72.0877553,5.74912892 L65.3310105,5.74912892 L65.3310105,6.09113484 C65.6285839,6.09113484 65.819635,6.14362625 65.9033689,6.24806793 C65.9868379,6.35332133 66.0287048,6.56653388 66.0287048,6.8895996 L66.0287048,17.1527534 C66.0287048,17.4758191 65.9865729,17.6898434 65.9033689,17.7940145 C65.819635,17.8981856 65.6285839,17.950677 65.3310105,17.950677 L65.3310105,18.2926829 L72.0877553,18.2926829 C73.1855706,18.2926829 74.1342018,18.1311501 74.9347087,17.8083549 C75.7349507,17.4855598 76.3913081,17.043712 76.9032509,16.4819997 C77.4146638,15.9221815 77.7917315,15.2568393 78.0341889,14.4867848 C78.2755864,13.7175421 78.3972125,12.8955374 78.3972125,12.0215824 C78.3972125,11.1278754 78.2758513,10.3015415 78.0341889,9.5406866 C77.7917315,8.78145511 77.4146638,8.12044209 76.9032509,7.55954157" id="Fill-14" fill="#FFFFFF"></path>
            <path d="M91.8656295,13.9064429 C91.6222041,14.4842217 91.2775286,14.9866957 90.8294771,15.4149255 C90.3811598,15.8434205 89.8353129,16.1830876 89.1911391,16.4344572 C88.547231,16.6860919 87.8235985,16.812307 87.0210388,16.812307 C86.2182133,16.812307 85.4951123,16.6860919 84.85147,16.4344572 C84.207562,16.1830876 83.6614493,15.8434205 83.2133978,15.4149255 C82.7656119,14.9866957 82.4198735,14.4842217 82.177511,13.9064429 C81.9340856,13.3294596 81.8129044,12.7047478 81.8129044,12.034429 C81.8129044,11.3829363 81.9340856,10.7683006 82.177511,10.1907869 C82.4198735,9.61380358 82.7656119,9.11079927 83.2133978,8.6823043 C83.6614493,8.25380932 84.2072962,7.91891505 84.85147,7.67629568 C85.4951123,7.43394146 86.2182133,7.31329467 87.0210388,7.31329467 C87.8235985,7.31329467 88.547231,7.43394146 89.1911391,7.67629568 C89.8350471,7.91891505 90.3811598,8.25380932 90.8294771,8.6823043 C91.2775286,9.11079927 91.6222041,9.61380358 91.8656295,10.1907869 C92.1082577,10.7683006 92.2291732,11.3829363 92.2291732,12.034429 C92.2291732,12.705013 92.1082577,13.3294596 91.8656295,13.9064429 M92.1725688,7.60682434 C91.5573616,7.03859121 90.8156582,6.58649719 89.9471929,6.2510726 C89.0787276,5.91617832 88.1034315,5.74912892 87.0210388,5.74912892 C85.9386461,5.74912892 84.9628185,5.91617832 84.0954162,6.2510726 C83.2274824,6.58676235 82.4855133,7.03885637 81.8689773,7.60682434 C81.2532386,8.1747923 80.7812697,8.84060349 80.4554623,9.6042579 C80.1283262,10.3679123 79.9651568,11.1872499 79.9651568,12.063066 C79.9651568,12.9383518 80.1283262,13.7571591 80.4554623,14.5208135 C80.7812697,15.2849982 81.2532386,15.9508094 81.8689773,16.5187774 C82.4855133,17.0870105 83.2274824,17.5242557 84.0954162,17.8318387 C84.9628185,18.1383611 85.9386461,18.2926829 87.0210388,18.2926829 C88.1034315,18.2926829 89.0787276,18.1383611 89.9471929,17.8318387 C90.8156582,17.5242557 91.5573616,17.0870105 92.1725688,16.5187774 C92.7896362,15.9508094 93.2605422,15.2849982 93.586881,14.5208135 C93.9140171,13.7571591 94.0766551,12.9383518 94.0766551,12.063066 C94.0766551,11.1872499 93.9140171,10.3676472 93.586881,9.6042579 C93.2605422,8.84086865 92.7896362,8.1747923 92.1725688,7.60682434" id="Fill-16" fill="#FFFFFF"></path>
            <path d="M107.844591,15.8261999 C107.844591,16.1496194 107.797025,16.3722573 107.701621,16.4960052 C107.605946,16.6189424 107.41541,16.6805461 107.128383,16.6805461 L98.1365125,16.6805461 L98.1365125,6.88717651 C98.1365125,6.56483777 98.1797296,6.35165649 98.2653483,6.24709229 C98.3509671,6.14279828 98.5466671,6.09011089 98.8521765,6.09011089 L98.8521765,5.74912892 L95.6445993,5.74912892 L95.6445993,6.09011089 C95.9501087,6.09011089 96.1458087,6.14279828 96.2322429,6.24709229 C96.3184052,6.35165649 96.3610787,6.56483777 96.3610787,6.88717651 L96.3610787,17.1358192 C96.3610787,17.4584281 96.3184052,17.67242 96.2322429,17.7764438 C96.1458087,17.8804676 95.9501087,17.933155 95.6445993,17.933155 L95.6445993,18.2744072 L107.128112,18.2744072 C107.41541,18.2744072 107.605674,18.312234 107.70135,18.3886983 C107.797025,18.4640818 107.844591,18.6062026 107.844591,18.815331 L108.188153,18.815331 L108.188153,15.8261999 L107.844591,15.8261999 Z" id="Fill-18" fill="#FFFFFF"></path>
            <path d="M111.062486,15.6794425 C111.429073,15.6794425 111.738316,15.8069177 111.99091,16.0618679 C112.243041,16.3168182 112.369338,16.6274781 112.369338,16.9940907 C112.369338,17.3499994 112.240487,17.6553072 111.982785,17.9102575 C111.725082,18.1652078 111.418393,18.2926829 111.062486,18.2926829 C110.701238,18.2926829 110.393388,18.1639914 110.138472,17.9063651 C109.883556,17.6489821 109.756098,17.3392954 109.756098,16.978278 C109.756098,16.6226126 109.882163,16.3185211 110.134293,16.0660036 C110.386888,15.813486 110.69613,15.6847945 111.062486,15.6794425" id="Fill-20" fill="#FFFFFF"></path>
            <path d="M122.042966,14.8120509 L123.344693,17.1332083 L123.167671,17.2929018 C123.044314,17.1863526 122.946647,17.1332083 122.874922,17.1332083 C122.787428,17.1332083 122.584717,17.2491359 122.266279,17.4809911 C121.562512,17.9819547 120.941152,18.3297376 120.401945,18.5238186 C119.862738,18.7181602 119.241378,18.815331 118.537611,18.815331 C117.130331,18.815331 115.982481,18.4050254 115.094315,17.5841537 C114.590716,17.1144515 114.190126,16.525435 113.89229,15.8176252 C113.573599,15.0532845 113.414634,14.2232949 113.414634,13.3273959 C113.414634,12.0933529 113.707383,11.0033728 114.292881,10.0571951 C115.212076,8.57905287 116.621899,7.83972125 118.52235,7.83972125 C119.225863,7.83972125 119.851292,7.93689204 120.39813,8.1309731 C120.945476,8.32531468 121.567853,8.67283701 122.266533,9.17406113 C122.584971,9.40591636 122.787682,9.52158346 122.874922,9.52158346 C122.946901,9.52158346 123.044314,9.46843912 123.167671,9.36188991 L123.344948,9.53122239 L122.042966,11.8333625 L121.873574,11.6838289 C121.878406,11.6088016 121.883747,11.56217 121.888834,11.5431527 C121.893921,11.4871427 121.896719,11.4467634 121.896719,11.4217543 C121.896719,11.1161743 121.550049,10.7704756 120.856456,10.383616 C120.198979,10.0157738 119.53667,9.83185265 118.86902,9.83185265 C117.934309,9.83185265 117.163904,10.1319619 116.557805,10.7316593 C115.864466,11.4063841 115.517796,12.2715428 115.517796,13.3271354 C115.517796,14.3895012 115.864466,15.257786 116.557805,15.9327713 C117.168737,16.5262165 117.939396,16.8229391 118.86902,16.8229391 C119.598221,16.8229391 120.324879,16.6004623 121.049248,16.1557692 C121.614398,15.8051207 121.896719,15.4982382 121.896719,15.234861 C121.896719,15.2223565 121.888834,15.1348246 121.873574,14.9717444 L122.042966,14.8120509 Z" id="Fill-22" fill="#FFFFFF"></path>
            <path d="M130.657616,9.83180537 C129.646856,9.83180537 128.823245,10.17958 128.186514,10.8748686 C127.596504,11.5263924 127.301499,12.3441186 127.301499,13.3272656 C127.301499,14.3049421 127.596504,15.1190212 128.186514,15.7705449 C128.823245,16.4720857 129.649526,16.8229864 130.666159,16.8229864 C131.676652,16.8229864 132.500263,16.4720857 133.136994,15.7705449 C133.727271,15.1255338 134.022276,14.326564 134.022276,13.3744171 C134.022276,12.3409925 133.727004,11.507636 133.136994,10.8748686 C132.49439,10.1920842 131.667841,9.84430962 130.657616,9.83180537 M130.648539,7.83972125 C132.207394,7.83972125 133.506484,8.26564744 134.54581,9.11776031 C135.789103,10.1451933 136.41115,11.5766699 136.41115,13.4119299 C136.41115,15.134912 135.78937,16.509859 134.54581,17.5370315 C133.517964,18.3891443 132.225014,18.815331 130.666159,18.815331 C129.107571,18.815331 127.814354,18.3891443 126.786775,17.5370315 C125.537342,16.509859 124.912892,15.1065169 124.912892,13.3272656 C124.912892,11.5295185 125.537342,10.1264369 126.786775,9.11776031 C127.820227,8.28440382 129.107304,7.85847764 130.648539,7.83972125" id="Fill-24" fill="#FFFFFF"></path>
            <path d="M143.254929,18.2926829 L139.650776,11.4164971 L139.650776,17.3314762 C139.650776,17.524235 139.691958,17.6719736 139.774593,17.7746921 C139.856689,17.8774106 140.003654,17.9627937 140.215489,18.0311001 L140.215489,18.2926829 L136.933798,18.2926829 L136.933798,18.0311001 C137.139442,17.975213 137.285062,17.8944872 137.370388,17.7886639 C137.455445,17.6828406 137.498242,17.5335495 137.498242,17.340532 L137.498242,8.79161348 C137.498242,8.59885466 137.45706,8.45111602 137.374964,8.34839756 C137.292329,8.24593783 137.145364,8.16340083 136.933798,8.1010453 L136.933798,7.83972125 L141.108318,7.83972125 L141.108318,8.1010453 C140.831883,8.19444924 140.6938,8.37168386 140.6938,8.6330079 C140.6938,8.88812226 140.793661,9.19938248 140.993922,9.56627109 L143.458151,14.2946838 L145.940414,9.63173147 C146.222771,9.14013178 146.363815,8.79161348 146.363815,8.58617656 C146.363815,8.33132094 146.21981,8.16961052 145.931263,8.1010453 L145.931263,7.83972125 L150,7.83972125 L150,8.1010453 C149.788434,8.1631421 149.6412,8.2456791 149.558834,8.34813882 C149.476469,8.45085728 149.435556,8.59833719 149.435556,8.79109601 L149.435556,17.3319937 C149.435556,17.5247525 149.476469,17.6740435 149.558834,17.7796081 C149.6412,17.8851727 149.788434,17.9690033 150,18.0311001 L150,18.2926829 L146.506474,18.2926829 L146.506474,18.0311001 C146.712118,17.975213 146.857738,17.8942284 146.943064,17.7884051 C147.028121,17.6823231 147.070918,17.533032 147.070918,17.3400145 L147.070918,11.4164971 L143.254929,18.2926829 Z" id="Fill-26" fill="#FFFFFF"></path>
        </g>
    </g>
</svg>