<?xml version="1.0" encoding="UTF-8"?>
<svg viewBox="0 0 55 31" version="1.1" xmlns="http://www.w3.org/2000/svg" xmlns:xlink="http://www.w3.org/1999/xlink">

    <defs>
        <polygon id="path-1" points="0 0.7092 54 0.7092 54 29.9187747 0 29.9187747"></polygon>
    </defs>
    <g id="2" stroke="none" stroke-width="1" fill="none" fill-rule="evenodd">
        <g id="ME" transform="translate(0.250000, 0.000000)">
            <g id="Group-3">
                <mask id="mask-2" fill="white">
                    <use xlink:href="#path-1"></use>
                </mask>
                <g id="Clip-2"></g>
                <path d="M9.04068,18.55956 C8.95188,18.68196 8.98908,18.82476 8.98908,18.95796 C8.98668,22.47876 8.98668,26.00076 8.98668,29.52156 C8.98668,29.91156 8.98548,29.91156 8.59548,29.91156 C5.85948,29.91156 3.12228,29.90676 0.38628,29.91876 C0.08748,29.91996 -0.00012,29.84796 -0.00012,29.53836 C0.01068,23.58636 0.00828,17.63556 0.00828,11.68476 C0.00828,8.60436 0.01068,5.52276 -0.00012,2.44236 C-0.00132,2.15676 0.07068,2.07756 0.36228,2.07876 C3.09948,2.09076 5.83548,2.08956 8.57148,2.07876 C8.85828,2.07876 9.00468,2.16396 9.17028,2.41236 C10.14228,3.88116 11.14668,5.33076 12.14148,6.78516 C13.14588,8.25276 14.16108,9.71316 15.15348,11.18916 C15.47148,11.66316 15.80868,12.12396 16.10628,12.60876 C16.26948,12.87276 16.30188,12.78636 16.42068,12.60636 C16.67028,12.22716 16.94508,11.86596 17.19708,11.48796 C18.84588,9.02436 20.49108,6.55956 22.13628,4.09356 C22.56828,3.44676 22.99308,2.79516 23.42628,2.14836 C23.49708,2.04396 23.59068,1.96356 23.74068,1.98516 C23.84868,2.00076 23.96028,1.98756 24.06948,1.98756 C32.11908,1.98756 40.16748,1.98756 48.21588,1.98756 C48.75948,1.98756 48.64428,2.01396 48.65988,1.53756 C48.66948,1.27356 48.62508,1.00596 48.69828,0.70836 C49.14588,1.06596 49.47948,1.49196 49.85748,1.87116 C51.20148,3.22116 52.50708,4.61076 53.87748,5.93556 C54.02388,6.07716 54.05388,6.19476 53.88588,6.36516 C52.34628,7.91796 50.81388,9.47916 49.28268,11.04036 C49.09548,11.22996 48.92028,11.43036 48.69948,11.66916 C48.62748,11.33556 48.64908,11.04156 48.66588,10.75476 C48.68148,10.48356 48.58548,10.42356 48.32868,10.42476 C41.83788,10.43076 35.34708,10.43076 28.85628,10.42596 C28.66428,10.42596 28.54068,10.47156 28.42788,10.64196 C27.35508,12.26556 26.28348,13.89036 25.18908,15.49716 C23.49708,17.98116 21.82188,20.47476 20.17668,22.98876 C19.14108,24.57036 18.14028,26.17476 17.12628,27.77076 C16.79748,28.28916 16.47948,28.81476 16.15188,29.33316 C16.07028,29.46156 16.03308,29.57076 15.88428,29.32956 C15.11868,28.08276 14.31228,26.86116 13.52988,25.62516 C12.04188,23.27436 10.56108,20.91996 9.07668,18.56676 C9.07308,18.56076 9.05748,18.56316 9.04068,18.55956" id="Fill-1" fill="#FFFFFF" mask="url(#mask-2)"></path>
            </g>
            <path d="M39.0057388,30.9855468 C35.8207476,30.9855468 32.6345462,31.02911 29.450765,30.9649753 C28.0397848,30.9371432 26.6300147,30.9395634 25.2190346,30.9153616 C25.0544605,30.9117314 25.0000059,30.8717985 25.0000059,30.6975457 C25.0048463,27.6033492 25.0072665,24.5079425 25.0000059,21.413746 C24.9987958,21.1475265 25.1839416,20.9950553 25.2989014,20.8159622 C26.2137393,19.3820072 27.1576197,17.9674137 28.0881889,16.5443495 C28.7985194,15.4589 29.5064297,14.3710304 30.2034491,13.2759002 C30.3365604,13.067765 30.4854031,13 30.7250035,13 C36.6702399,13.0072605 42.6154763,13.0060504 48.5607127,13.0060504 C48.9927195,13.0060504 48.9927195,13.0060504 48.9927195,13.4610438 C48.9927195,15.8993723 48.9878791,18.3389109 48.9999801,20.7784495 C49.0011902,21.0712909 48.9479457,21.1620476 48.6357391,21.1620476 C43.2737724,21.1499467 37.9130158,21.1559971 32.5510491,21.1463164 C32.269095,21.1463164 32.1698666,21.2128713 32.1880181,21.5105531 C32.2134303,21.932874 32.2110101,22.3576151 32.1880181,22.779936 C32.174707,23.0328445 32.2678849,23.0751976 32.4905439,23.0739875 C36.6653995,23.0679371 40.8402551,23.0703573 45.0139006,23.0703573 C46.2409451,23.0703573 47.4679896,23.0739875 48.693824,23.0655169 C48.9080123,23.0643068 48.9999801,23.0945591 48.99877,23.3523079 C48.9878791,25.7821658 48.9890892,28.2108136 48.9975599,30.6406715 C48.99877,30.9141516 48.9273739,30.9928073 48.6502603,30.9928073 C45.4362266,30.9819165 42.2209827,30.9855468 39.0057388,30.9855468" id="Fill-4" fill="#FFFFFF"></path>
        </g>
    </g>
</svg>