<svg viewBox="0 0 400 86" version="1.1" xmlns="http://www.w3.org/2000/svg" xmlns:xlink="http://www.w3.org/1999/xlink">
    <defs>
        <polygon id="path-1" points="0.0410999767 0.414172367 8.89411765 0.414172367 8.89411765 10.0041609 0.0410999767 10.0041609"></polygon>
    </defs>
    <g id="Roadmap-Center" stroke="none" stroke-width="1" fill="none" fill-rule="evenodd" transform="translate(-94.000000, -205.000000)">
        <g id="Page-1" transform="translate(94.000000, 205.000000)">
            <path d="M372.154583,51.9064843 C372.154583,48.4449248 372.327497,44.9696854 372.06156,41.5283721 C371.967442,40.3135978 371.086457,38.6101778 370.076881,38.1045691 C362.858824,34.4914364 353.840492,35.441368 351.822435,45.9343912 C351.667579,46.739316 351.50725,47.5458824 351.410944,48.359015 C350.563885,55.4999179 352.964432,61.7543639 358.566074,64.0449248 C361.732695,65.3395896 365.640766,64.8772093 369.222161,65.0802189 C371.248427,65.19513 372.179754,64.0449248 372.157866,62.0186594 C372.121751,58.6479343 372.148016,55.2772093 372.154583,51.9064843 Z M379.140629,13.8747469 C379.20684,15.8687278 379.32777,17.8627086 379.330506,19.8566895 C379.3513,35.1535431 379.347469,50.4503967 379.357866,65.7467031 C379.359508,67.4041587 379.56197,69.310041 377.531874,69.8566895 C369.961423,71.8971819 362.260192,73.0238577 354.801368,69.7576471 C346.691929,66.2063475 343.980027,59.0572367 343.825171,50.8531327 C343.716826,45.1108618 345.312996,39.7871956 349.184952,35.2044323 C353.916005,29.6055267 363.619973,29.0419152 368.882353,31.1814501 C371.628181,32.2977291 372.121751,32.0525855 372.134884,29.1568263 C372.157866,24.0629822 372.06922,18.968591 372.027086,13.8747469 L379.140629,13.8747469 Z" id="Fill-1" fill="#FFFFFF"></path>
            <path d="M209.510205,13.8746375 C210.029494,14.5947469 210.535103,15.3258003 211.071354,16.032777 C212.50446,17.9211491 212.28777,20.9515185 210.596936,22.4820246 C209.053844,23.8801094 205.966566,23.7323666 204.37368,22.1843502 C202.729357,20.5870862 202.711847,17.6289466 204.299261,15.7739535 C204.806512,15.1813406 205.22238,14.5099316 205.679836,13.8746375 L209.510205,13.8746375 Z" id="Fill-3" fill="#FFFFFF"></path>
            <g id="Group-7" transform="translate(390.697674, 13.460465)">
                <mask id="mask-2" fill="white">
                    <use xlink:href="#path-1"></use>
                </mask>
                <g id="Clip-6"></g>
                <path d="M6.50062927,0.414172367 C7.00240766,1.14194254 7.48612859,1.88229822 8.0097948,2.59419973 C9.37833105,4.45630643 9.12716826,7.58571819 7.47463748,9.06205198 C5.91512996,10.4541176 2.83934337,10.2773735 1.26396717,8.70473324 C-0.362298222,7.08175103 -0.36120383,4.12087551 1.235513,2.29105335 C1.75206566,1.69898769 2.19419973,1.04180575 2.67025992,0.414172367 C3.94686731,0.414172367 5.22402189,0.414172367 6.50062927,0.414172367" id="Fill-5" fill="#FFFFFF" mask="url(#mask-2)"></path>
            </g>
            <path d="M319.36881,47.1900958 C321.645691,47.1900958 323.924213,47.2371546 326.199453,47.1786047 C329.207934,47.1009029 330.29959,45.4549384 329.256088,42.6850342 C327.506156,38.0426265 324.143639,35.5764159 319.839398,35.7783311 C315.685089,35.9731327 311.09357,39.9862654 310.162244,44.2828454 C309.746922,46.1974829 310.403557,47.2672503 312.538167,47.2087004 C314.813406,47.1468673 317.091929,47.1950205 319.36881,47.1900958 Z M323.176744,52.662052 C319.62052,52.662052 316.063748,52.7107524 312.509166,52.6429001 C310.554036,52.6051436 309.929685,53.5430369 310.041313,55.3438577 C310.314364,59.7465937 314.388782,64.5591792 318.82052,64.8946101 C322.583037,65.1791518 326.418331,64.8590424 330.190698,64.4946101 C331.99699,64.3200547 333.435568,63.9950205 333.998085,66.2494665 C334.533242,68.3939261 333.879343,70.0464569 331.744733,70.4973461 C324.809029,71.9605472 317.826813,72.8349658 311.264295,69.0937893 C307.49959,66.9476881 304.997264,63.6973461 303.578386,59.5490561 C301.447606,53.3170451 301.822982,47.2092476 303.937893,41.0604104 C305.860739,35.4697127 312.52777,30.3616416 318.430917,30.1279891 C323.74528,29.9173187 328.857729,30.2319562 332.643776,34.7605472 C336.532148,39.41171 337.437209,44.8781943 336.801915,50.6423529 C336.715458,51.4281259 334.909713,52.533461 333.837756,52.608974 C330.29959,52.8584952 326.732421,52.7030917 323.176744,52.7030917 L323.176744,52.662052 Z" id="Fill-8" fill="#FFFFFF"></path>
            <path d="M186.614008,49.6494665 C186.228235,48.1211491 185.757647,45.1476881 184.715787,42.3898222 C183.180903,38.3285363 179.978714,36.3914637 175.601696,36.2437209 C171.276115,36.0976197 167.893352,37.7009029 165.90539,41.5351026 C162.761751,47.5969357 162.840547,53.835513 165.832066,59.9208755 C168.478304,65.304186 175.507579,67.0519289 180.616744,63.8929685 C185.434254,60.9134884 186.245746,56.1780575 186.614008,49.6494665 M175.482955,30.1216963 C185.42933,29.6029549 193.426594,37.888591 194.001696,49.6390698 C194.291163,55.555896 192.733297,61.038249 188.931382,65.6598632 C181.386101,74.8335978 164.493625,73.5154036 158.878851,62.1671135 C154.388016,53.0907798 155.763666,41.1745007 162.893625,34.383803 C165.901012,31.5197811 170.073379,30.106922 175.482955,30.1216963" id="Fill-10" fill="#FFFFFF"></path>
            <path d="M222.789822,51.4015869 C222.789822,46.0242955 222.802955,40.6470041 222.782709,35.2697127 C222.776142,33.4710807 223.235787,31.6429001 225.158085,31.4913269 C231.386265,31.0010397 237.722791,30.0500137 243.859042,30.7230643 C250.866977,31.4924213 254.706101,36.764104 254.961642,43.8672503 C255.243447,51.6861286 255.367114,59.5115732 255.518687,67.3342818 C255.578331,70.389275 254.961094,70.7931053 251.488591,70.8385226 C248.930451,70.8724487 247.992011,69.9482353 248.072996,67.2587688 C248.278194,60.4292202 248.343858,53.5832558 248.090506,46.7580848 C247.999124,44.3066484 247.242353,41.6713543 246.063694,39.5175923 C244.29461,36.2847606 240.69461,36.089959 237.560821,36.338933 C229.214993,37.0004925 230.045089,35.4732695 230.022107,43.7424897 C229.999672,51.6713543 229.949877,59.6018605 230.054938,67.5296306 C230.08777,70.0084268 229.268071,70.9802462 226.727989,70.8461833 C223.191464,70.6590424 222.790917,70.45658 222.790369,67.533461 C222.788728,62.1561696 222.789822,56.7788782 222.789822,51.4015869" id="Fill-12" fill="#FFFFFF"></path>
            <path d="M280.308016,61.7132695 C282.075458,56.9406293 283.605964,53.0949384 284.923611,49.1781122 C286.634145,44.0919289 288.148782,38.9395349 289.801313,33.8331053 C290.678468,31.1239398 294.20788,29.7838577 296.534555,31.3088919 C296.986539,31.605472 297.399124,32.5975376 297.24591,33.0850889 C295.448372,38.8076607 293.688591,44.5499316 291.616361,50.176197 C289.607606,55.6300958 287.20104,60.9362517 285.057127,66.3419973 C283.447825,70.3983584 282.142216,71.3909713 278.18435,70.6801642 C277.224569,70.5083447 275.96985,69.6103967 275.625663,68.7398085 C271.354254,57.9337893 267.187907,47.0850889 263.108564,36.2051984 C262.568482,34.7649795 262.66041,33.0878249 262.459042,31.5201094 C264.4087,31.3608755 266.364925,31.0473324 268.302544,31.1392613 C268.85959,31.1655267 269.603776,32.2812585 269.851655,33.0325581 C272.532367,41.1485636 275.092695,49.3045144 277.791464,57.4145007 C278.217729,58.6949384 279.167661,59.801368 280.308016,61.7132695" id="Fill-14" fill="#FFFFFF"></path>
            <path d="M140.030917,29.8394528 C142.448427,30.1984131 144.870315,30.5300137 147.281806,30.9239945 C149.524213,31.2906156 149.715185,32.7718741 149.17565,34.6016963 C148.68591,36.2613406 148.25472,37.6090834 145.833379,37.012093 C141.462927,35.9335705 136.933789,35.2878796 132.994528,38.2881532 C131.540629,39.3956772 130.230643,40.9442408 129.397264,42.5694118 C126.273871,48.6618878 127.445417,57.9724213 131.563611,62.0752941 C135.83119,66.3270041 141.033379,65.6315185 146.19015,64.8118194 C148.125581,64.5042955 149.799453,63.867907 150.278796,66.6268673 C150.702326,69.065171 149.936799,70.5633926 147.273598,70.7592886 C142.868126,71.0837756 138.324213,71.5997811 134.031464,70.8829549 C127.855814,69.8514911 123.879891,65.6309713 121.777565,59.6938988 C119.89357,54.3735157 119.515458,49.0131874 121.291108,43.6183858 C124.401368,34.1683174 130.067579,30.1174282 140.030917,29.8394528" id="Fill-16" fill="#FFFFFF"></path>
            <path d="M391.462544,50.8055814 C391.462544,45.1661833 391.57855,39.5229549 391.414938,33.8884815 C391.329576,30.9412859 393.107415,30.9680985 395.128755,30.910643 C397.079508,30.8559234 398.752285,30.8110534 398.73368,33.604487 C398.657073,45.1563338 398.667469,56.709275 398.72383,68.2611218 C398.73751,71.1563338 396.837647,70.8263748 394.997428,70.8022982 C393.086074,70.7771272 391.345992,70.7880711 391.407278,67.9957319 C391.532038,62.2682353 391.444487,56.535814 391.444487,50.8055814 C391.450506,50.8055814 391.456525,50.8055814 391.462544,50.8055814" id="Fill-18" fill="#FFFFFF"></path>
            <path d="M203.872886,50.9337893 C203.872886,45.2839945 203.991081,39.6309166 203.825828,33.9860465 C203.734993,30.8752394 205.646895,31.0120383 207.748126,30.8927497 C209.935267,30.7690834 211.147305,31.2522572 211.125964,33.8366621 C211.031847,45.2270862 211.042791,56.6186047 211.117756,68.0084815 C211.133625,70.4391245 209.963174,70.9633379 207.888208,70.8248974 C205.883283,70.6913817 203.759617,71.0694938 203.829658,67.8820793 C203.953871,62.2350205 203.864679,56.5835841 203.864679,50.9337893 C203.867415,50.9337893 203.87015,50.9337893 203.872886,50.9337893" id="Fill-20" fill="#FFFFFF"></path>
            <path d="M94.5719289,0 L35.5410123,0 C18.7300684,6.03994528 7.21926129,17.3794802 1.26467852,34.2763338 L1.26467852,34.2900137 C0.491491108,36.369357 0.000109439124,39.4270862 0.000109439124,42.8454172 C0.000109439124,46.2642955 0.491491108,49.3220246 1.26467852,51.4008208 L1.26467852,51.4139535 C7.12240766,68.4076607 18.5473051,79.8325581 35.5410123,85.6902873 L45.0622161,85.6902873 L45.0622161,73.2623803 C40.8947743,72.2057456 37.1508618,71.6388509 33.6991518,70.3124487 C21.1333516,65.4845417 13.4364979,52.5132695 15.0206293,39.3170999 C16.586156,26.2719562 27.1098222,14.8426813 40.6605746,13.8900137 C55.0671409,12.8777018 69.6006566,13.6623803 85.8523666,13.6623803 C78.3027086,27.6377565 71.3910807,40.4317373 64.3087278,53.5409029 C56.0143365,45.5567715 59.0934063,26.1991792 38.7152941,33.4177839 C46.5686457,50.897948 54.3842408,68.293844 62.1998358,85.6902873 L64.1040766,85.6902873 C65.3916279,82.5477428 66.4170725,79.2662107 68.0088646,76.2861833 C78.0701505,57.4478796 87.9754856,38.5165527 98.530342,19.9562244 C103.286019,11.5928865 102.879453,5.27332421 94.5719289,0" id="Fill-22" fill="#FFFFFF"></path>
        </g>
    </g>
</svg>