<?xml version="1.0" encoding="UTF-8"?>
<svg  viewBox="0 0 151 41" version="1.1" xmlns="http://www.w3.org/2000/svg" xmlns:xlink="http://www.w3.org/1999/xlink">
    <defs>
        <polygon id="path-1" points="0.174856303 0.17212931 5.38774648 0.17212931 5.38774648 15.195625 0.174856303 15.195625"></polygon>
        <polygon id="path-3" points="0.331161972 0.23565441 14.2758803 0.23565441 14.2758803 8.12931034 0.331161972 8.12931034"></polygon>
        <polygon id="path-5" points="0 40.8278707 149.717254 40.8278707 149.717254 0.353448276 0 0.353448276"></polygon>
    </defs>
    <g id="2" stroke="none" stroke-width="1" fill="none" fill-rule="evenodd">
        <g id="CryptoNinjas" transform="translate(0.500000, 0.000000)">
            <path d="M108.271972,18.0978241 L108.271972,4.90925517 L110.354014,4.90925517 L110.354014,5.63665172 C110.353662,10.6312293 110.353662,15.6261603 110.353662,20.6207379 C110.353662,20.7066259 110.354366,20.7921603 110.35331,20.8780483 C110.340634,21.8719448 109.994859,22.3985828 109.269507,22.530419 C108.517746,22.6672034 107.793451,22.2328155 107.483592,21.3979707 C106.224789,18.0069879 104.980775,14.61035 103.732183,11.2154793 C103.529366,10.6633931 103.329366,10.1102466 102.99169,9.58007414 L102.99169,22.5378414 L100.929366,22.5378414 C100.913873,22.3349621 100.88993,22.1681345 100.88993,22.0016603 C100.888169,16.7925397 100.883944,11.583419 100.89169,6.37465172 C100.893451,5.06017759 102.033944,4.36706552 103.12162,5.04179828 C103.415634,5.22417759 103.665282,5.58999655 103.785704,5.92612586 C105.187113,9.8345569 106.56,13.7535914 107.940986,17.6694448 C107.995211,17.8239017 108.056127,17.9762379 108.113873,18.1296345 C108.16669,18.119031 108.219155,18.1084276 108.271972,18.0978241" id="Fill-1" fill="#FFFFFF"></path>
            <path d="M23.9983803,19.697425 C26.5684507,18.737106 28.9793662,17.6735802 31.6765493,17.7644164 C32.0142254,17.7757267 32.4149296,17.985675 32.6617606,18.2302612 C33.2952113,18.8576319 33.5621127,19.6740974 33.5638732,20.5647871 C33.569507,23.2220112 33.5733803,25.8795888 33.5578873,28.5368129 C33.5557746,28.9160629 33.4885211,29.308744 33.3740845,29.670675 C32.96,30.979494 32.3364085,31.4117612 30.978662,31.3891405 C29.3702113,31.361925 26.3145775,30.4525026 24.1779577,29.3440888 C24.3835915,29.2087181 24.5420423,29.0938474 24.71,28.9959422 C25.5959155,28.4795543 26.4973239,27.9889681 27.3614085,27.4386491 C27.5635211,27.3092871 27.7511972,26.9848216 27.7571831,26.7455371 C27.7934507,25.2889767 27.7966197,23.8306491 27.7554225,22.3747957 C27.7480282,22.1210198 27.5367606,21.7785284 27.3173944,21.6410371 C26.2705634,20.9853905 25.188169,20.3862957 23.9983803,19.697425" id="Fill-3" fill="#FFFFFF"></path>
            <path d="M30.6134507,32.2747759 C28.6254225,33.4203017 26.6652113,34.5909224 24.6641549,35.6862586 C23.6683803,36.2312759 22.5856338,36.1976983 21.5919718,35.6350086 C19.1951408,34.2784741 16.811338,32.8982586 14.4402113,31.4968362 C13.4359859,30.9033966 12.8571127,29.9731207 12.836338,28.8003793 C12.7965493,26.5308879 12.8247183,24.2603362 12.8247183,21.9883707 C12.8719014,21.9922586 12.9261268,21.98625 12.9307042,21.9982672 C13.7528873,24.2737672 15.314507,25.9575948 17.3032394,27.21375 C20.3638028,29.1467586 23.5891549,30.7637845 27.1123944,31.675681 C28.2388028,31.9669224 29.4123944,32.0747241 30.6134507,32.2747759" id="Fill-5" fill="#FFFFFF"></path>
            <path d="M79.5143662,16.3143241 C79.5073239,16.3143241 79.5006338,16.3143241 79.4935915,16.3143241 C79.4935915,15.5010397 79.5383099,14.6842207 79.4738732,13.8762379 C79.4435915,13.500169 79.2914789,13.0534103 79.0379577,12.7915052 C78.4217606,12.1552983 77.6175352,12.0188672 76.791831,12.3352034 C75.9777465,12.6472983 75.5347887,13.2690138 75.5316197,14.1628845 C75.5259859,15.662919 75.5164789,17.1626 75.5340845,18.662281 C75.548169,19.8731948 76.279507,20.5744362 77.4717606,20.5680741 C78.6288028,20.5617121 79.4907746,19.7512552 79.5115493,18.62835 C79.5259859,17.8571259 79.5143662,17.0855483 79.5143662,16.3143241 M75.5259859,21.8479103 L75.5259859,27.5331259 L73.5097887,27.5331259 L73.5097887,26.8569793 C73.5097887,21.5807034 73.5073239,16.3040741 73.5178873,11.0274448 C73.5182394,10.7747293 73.3347887,10.3102983 73.8277465,10.3498845 C74.3030986,10.3880569 74.9921831,9.95402241 75.1992254,10.8263328 C75.248169,11.0316862 75.3344366,11.2282034 75.4432394,11.5452466 C76.0016901,10.5746776 76.7721127,10.1201431 77.8069718,10.1844707 C78.9492254,10.2555138 79.9953521,10.5456948 80.7766901,11.4681948 C81.3499296,12.1446948 81.5302113,12.9572724 81.5425352,13.8013069 C81.5671831,15.4731172 81.5721127,17.1466948 81.5298592,18.8185052 C81.4689437,21.2276086 79.2270423,23.0135828 76.916831,22.4929534 C76.4597887,22.3901 76.0460563,22.0953241 75.5259859,21.8479103" id="Fill-7" fill="#FFFFFF"></path>
            <path d="M69.0569014,10.4118793 C69.5759155,10.4118793 69.9988028,10.4090517 70.4216901,10.4132931 C70.608662,10.4150603 70.7959859,10.4316724 71.0195775,10.4436897 C71.0357746,10.6638879 71.061831,10.8501552 71.061831,11.0367759 C71.0639437,15.1749483 71.0759155,19.3134741 71.0583099,23.4516466 C71.0480986,25.888319 69.2227465,27.66475 66.9174648,27.5332672 C65.9678169,27.4791897 64.5727465,26.8231897 63.833662,26.0724655 C63.8727465,26.0088448 63.9065493,25.9321466 63.958662,25.8713534 C64.3192254,25.4493362 64.683662,25.0305 65.0343662,24.6250948 C65.5385915,24.8834655 65.9921127,25.1732931 66.4843662,25.3570862 C67.6692254,25.7988966 68.8942254,25.0418103 69.0146479,23.7789397 C69.0815493,23.0794655 69.0266197,22.3683276 69.0266197,21.6610776 C68.9949296,21.6540086 68.9357746,21.6253793 68.9216901,21.6398707 C67.8442254,22.7762069 66.5780282,22.9751983 65.1674648,22.1817069 C63.9248592,21.4825862 63.1540845,20.404569 63.1230986,18.9713362 C63.0632394,16.2066638 63.1040845,13.4398707 63.105493,10.6737845 C63.105493,10.6136983 63.133662,10.5536121 63.158662,10.4539397 L65.1259155,10.4539397 C65.1259155,10.697819 65.1259155,10.9257931 65.1259155,11.1537672 C65.1259155,13.5982155 65.1230986,16.0426638 65.1269718,18.4871121 C65.1294366,19.9146897 66.0748592,20.763319 67.4783803,20.6099224 C68.5192254,20.4961121 69.0480986,19.9323621 69.0526761,18.8730776 C69.0632394,16.3427414 69.0565493,13.8124052 69.0569014,11.2824224 C69.0569014,11.0268793 69.0569014,10.7716897 69.0569014,10.4118793" id="Fill-9" fill="#FFFFFF"></path>
            <path d="M51.6615845,17.7639569 L53.6559507,17.7639569 C53.9802465,19.8994914 52.2200352,22.1933707 49.9633451,22.6203362 C48.9055986,22.8203879 47.8728521,22.72425 46.8830634,22.3146034 C45.2140493,21.6246724 44.2957394,20.3511983 44.2717958,18.5450776 C44.2284859,15.3071379 44.2291901,12.0677845 44.269331,8.82984483 C44.2978521,6.52324138 45.9034859,4.97266379 48.4344718,4.68743103 C51.3221479,4.36190517 53.7985563,6.6515431 53.7024296,9.61414655 L51.6728521,9.61414655 C51.6397535,9.4395431 51.6045423,9.27342241 51.5767254,9.10624138 C51.2313028,7.00393103 49.0429225,6.05174138 47.2700352,7.23331897 C46.5633451,7.70446552 46.2964437,8.38096552 46.2992606,9.21333621 C46.3087676,12.1515517 46.3010211,15.0897672 46.3034859,18.0276293 C46.3048944,19.5615948 47.1404577,20.4773793 48.6513732,20.6113362 C50.1136972,20.7414052 51.2703873,19.8895948 51.5492606,18.473681 C51.594331,18.2442931 51.6228521,18.0117241 51.6615845,17.7639569" id="Fill-11" fill="#FFFFFF"></path>
            <path d="M137.718275,18.3698026 C137.718275,18.2842681 137.718275,18.1987336 137.718275,18.1131991 C137.715106,16.7828198 137.009824,16.0232595 135.773908,16.019725 C134.630599,16.016544 133.83412,16.8436129 133.801725,18.0803284 C133.793979,18.3789922 133.790458,18.6826043 133.83412,18.9763198 C133.955951,19.7899578 134.420035,20.3423974 135.198204,20.5940526 C136.574613,21.0386905 137.718275,20.0214664 137.718275,18.3698026 M137.6975,15.1375181 C137.805246,14.0481905 137.668627,13.1666905 136.748908,12.6252078 C135.639754,11.9723888 134.750317,12.5442681 133.819331,13.2730784 C133.466162,12.7361905 133.121092,12.2113198 132.733063,11.6210612 C133.83412,10.6971474 135.001021,10.0673026 136.467923,10.3677336 C138.075317,10.6964405 139.113345,11.691044 139.597852,13.2561129 C139.691514,13.5583112 139.735176,13.8884319 139.736585,14.2058284 C139.747852,16.8648198 139.744331,19.5241647 139.743275,22.183156 C139.742923,22.2867164 139.723204,22.3902767 139.708063,22.5341302 L138.154894,22.5341302 C138.079894,22.1990612 138.008063,21.8770698 137.920035,21.4840353 C137.040458,22.7168629 135.895739,22.9565009 134.600317,22.5249405 C133.020739,21.998656 132.033768,20.8722164 131.842923,19.220906 C131.74257,18.3510698 131.816162,17.403475 132.059824,16.5636819 C132.499261,15.0512767 133.926373,14.0913112 135.502077,14.0333457 C136.374613,14.0008284 137.073204,14.3546302 137.6975,15.1375181" id="Fill-13" fill="#FFFFFF"></path>
            <path d="M96.4564085,16.4674379 C96.4564085,15.7170672 96.4708451,14.9666966 96.4532394,14.2166793 C96.4257746,13.0612569 95.5655634,12.2723603 94.3539437,12.2667052 C93.2324648,12.2614034 92.3328169,13.104731 92.3169718,14.2262224 C92.2961972,15.70505 92.2983099,17.1845845 92.3159155,18.6634121 C92.3296479,19.8432224 93.1803521,20.6296448 94.3933803,20.6271707 C95.5937324,20.6246966 96.4123944,19.8796276 96.4507746,18.7189034 C96.4757746,17.9692397 96.4553521,17.2178086 96.4564085,16.4674379 M98.4782394,16.450119 C98.4789437,17.1782224 98.4838732,17.9066793 98.4782394,18.6351362 C98.4595775,21.0445931 96.8726056,22.6400586 94.4546479,22.6853 C92.0733099,22.7298345 90.4011268,21.2057655 90.3166197,18.8231707 C90.2592254,17.1976621 90.2585211,15.5657914 90.3271831,13.9406362 C90.4240141,11.6439293 92.1803521,10.1820672 94.623662,10.2721966 C96.9243662,10.3570241 98.4778873,11.9411793 98.4775352,14.2018345 C98.4775352,14.9511448 98.4775352,15.7004552 98.4782394,16.450119" id="Fill-15" fill="#FFFFFF"></path>
            <path d="M117.349261,10.4246034 L118.907007,10.4246034 C118.994683,10.7617931 119.077782,11.0827241 119.192218,11.5238276 C119.734472,10.7215 120.417218,10.3178621 121.298556,10.2687328 C123.208415,10.1619914 125.036585,11.7245862 125.259472,13.7304052 C125.349261,14.5362672 125.31581,15.3569741 125.318627,16.171319 C125.325317,18.1011466 125.307359,20.0309741 125.329894,21.9604483 C125.335528,22.4333621 125.203134,22.624931 124.71581,22.5842845 C124.275317,22.5478793 123.82919,22.5768621 123.30912,22.5768621 L123.30912,21.8095259 C123.30912,19.4294052 123.315106,17.0492845 123.302782,14.6695172 C123.301021,14.3100603 123.270739,13.9318707 123.155599,13.5960948 C122.845387,12.6933879 121.887993,12.1656897 120.955599,12.3286293 C120.039754,12.4883879 119.36088,13.2935431 119.354894,14.3008707 C119.340106,16.7668793 119.349261,19.2328879 119.348556,21.6985431 C119.348556,21.9544397 119.348556,22.2106897 119.348556,22.5217241 L117.349261,22.5217241 L117.349261,10.4246034 Z" id="Fill-17" fill="#FFFFFF"></path>
            <path d="M141.681056,20.2321216 C142.264859,19.917906 142.806761,19.6263112 143.359225,19.3287078 C143.594789,19.5814233 143.794085,19.8316647 144.029648,20.0405526 C144.739155,20.6689836 145.551127,20.8888284 146.46662,20.573906 C147.244789,20.3059922 147.651831,19.706544 147.614859,18.9155267 C147.581056,18.1867164 147.096549,17.6505353 146.29162,17.4826474 C146.00007,17.4218543 145.699366,17.400294 145.401479,17.3787336 C143.177535,17.2179147 141.993732,16.1250526 141.957113,14.1927509 C141.917324,12.1148284 143.362394,10.494975 145.438451,10.289975 C147.096549,10.125975 148.705,10.997225 149.552535,12.5523974 C149.028944,12.9019578 148.501127,13.2543457 147.969437,13.6099147 C147.578592,13.2515181 147.237746,12.8644922 146.827535,12.5771388 C145.741268,11.8154578 144.184577,12.5364922 143.997606,13.8608629 C143.895493,14.584725 144.19338,15.0572853 144.933169,15.2325957 C145.365915,15.3350957 145.820493,15.3453457 146.264507,15.4011905 C148.619789,15.6977336 149.924366,17.3741388 149.609225,19.6980612 C149.344789,21.6494491 147.270493,23.0621819 145.155,22.7066129 C143.627183,22.4503629 142.520845,21.5787595 141.681056,20.2321216" id="Fill-19" fill="#FFFFFF"></path>
            <path d="M18.5085915,26.512756 C16.1480282,25.0759888 14.1603521,23.4013509 13.3019014,20.694644 C12.8628169,19.3101871 12.9357042,18.603644 14.5107042,17.5751095 C15.7082394,16.7932819 16.9804225,16.1270319 18.2191549,15.4091784 C18.8082394,15.0677474 19.3973239,14.7259629 20.0987324,14.319144 C18.3938028,18.275644 18.4029577,22.3424198 18.5085915,26.512756" id="Fill-21" fill="#FFFFFF"></path>
            <path d="M83.9677113,5.44957155 L85.9328521,5.44957155 L85.9328521,10.3607353 L88.4258099,10.3607353 L88.4258099,12.3743302 L86.0057394,12.3743302 C85.9846127,12.6712267 85.9529225,12.9168733 85.9522183,13.1625198 C85.9476408,14.7279422 85.9497535,16.2937181 85.9501056,17.8591405 C85.9504577,19.4620284 86.5560915,20.1961405 88.1349648,20.5100026 C88.3022183,20.5428733 88.4701761,20.571856 88.7064437,20.6156836 L88.7064437,21.5608043 L88.7064437,22.4472526 C86.5525704,22.9618733 83.9930634,20.8337612 83.9736972,18.511606 C83.9515141,15.8102009 83.9680634,13.1087957 83.9677113,10.4073905 C83.9677113,8.77905431 83.9677113,7.1507181 83.9677113,5.44957155" id="Fill-23" fill="#FFFFFF"></path>
            <g id="Group-27" transform="translate(25.000000, 0.181319)">
                <mask id="mask-2" fill="white">
                    <use xlink:href="#path-1"></use>
                </mask>
                <g id="Clip-26"></g>
                <path d="M5.38774648,15.195625 C3.80887324,14.2342457 2.14549296,13.5892026 1.17190141,11.9537974 C1.83035211,11.2327629 2.54338028,10.5028922 2.50816901,9.43477155 C2.49408451,9.01522845 2.25957746,8.60275431 2.11978873,8.16942672 C1.45323944,8.5119181 0.894788732,8.7989181 0.179647887,9.16650431 C0.0743661972,5.61152155 1.71838028,2.93697845 3.6965493,0.171952586 C4.26908451,5.25736638 4.8215493,10.166056 5.38774648,15.195625" id="Fill-25" fill="#FFFFFF" mask="url(#mask-2)"></path>
            </g>
            <g id="Group-30" transform="translate(27.464789, 32.698560)">
                <mask id="mask-4" fill="white">
                    <use xlink:href="#path-3"></use>
                </mask>
                <g id="Clip-29"></g>
                <path d="M0.331161972,2.32371034 C1.77130282,1.55354655 2.93397887,0.581563793 4.4459507,0.281839655 C4.97376761,0.176865517 5.30264085,0.207615517 5.47024648,0.840287931 C5.68257042,1.64190862 6.1209507,2.35127931 6.94454225,2.66938276 C7.28151408,2.79945172 7.67235915,2.78920172 8.14137324,2.85777069 L8.14137324,0.680882759 C11.2934859,2.31027931 12.8216549,5.05798621 14.2758803,8.12945172 C9.57024648,6.17028793 5.02235915,4.27686552 0.331161972,2.32371034" id="Fill-28" fill="#FFFFFF" mask="url(#mask-4)"></path>
            </g>
            <path d="M0,31.7755655 C3.89049296,28.8164966 7.78133803,25.8570741 11.7926056,22.8061086 C11.8278169,24.5807724 12.0725352,26.2380914 11.3260563,27.8095224 C11.2697183,27.928281 10.9887324,27.9947293 10.8140845,27.9904879 C10.3478873,27.9798845 9.8806338,27.8678414 9.41725352,27.8862207 C8.48591549,27.9229793 7.95774648,28.3379276 7.5778169,29.2424017 C8.11549296,29.5877207 8.65774648,29.9362207 9.31197183,30.3564707 C6.33309859,32.2735741 3.2056338,32.1830914 0.0528169014,31.9370914 C0.0352112676,31.8830138 0.0176056338,31.8292897 0,31.7755655" id="Fill-31" fill="#FFFFFF"></path>
            <path d="M125.532782,27.4909948 L125.532782,25.6155983 C125.58419,25.5678828 125.610951,25.5205207 125.644754,25.5148655 C127.476444,25.2052448 127.951092,24.6418483 127.951092,22.7728138 C127.951092,18.9357793 127.951092,15.0987448 127.951092,11.2617103 L127.951092,10.4470121 L129.933486,10.4470121 C129.945458,10.6226759 129.969401,10.8078828 129.969401,10.9930897 C129.971514,15.1302017 129.980317,19.2676672 129.967289,23.4044259 C129.959542,25.8223655 127.978556,27.6602966 125.532782,27.4909948" id="Fill-33" fill="#FFFFFF"></path>
            <path d="M19.1614085,21.3060741 C19.2853521,20.6804707 19.3297183,20.1916517 19.4814789,19.7388845 C19.9423944,18.3636172 20.3973239,16.9826948 20.9533099,15.6452466 C21.1923944,15.0691259 21.6240845,14.5467293 22.056831,14.0840655 C23.1202113,12.9470224 23.7730282,12.8752724 25.1040141,13.6447293 C26.856831,14.6580655 28.6071831,15.6756431 30.4906338,16.7677983 C26.1121127,16.8593414 22.6110563,18.8050741 19.1614085,21.3060741" id="Fill-35" fill="#FFFFFF"></path>
            <path d="M57.9795775,22.5346957 L56.0330986,22.5346957 L56.0330986,10.5050836 L57.6411972,10.5050836 C57.715493,10.823894 57.7911972,11.1490664 57.8869718,11.5611871 C58.0376761,11.3586612 58.1447183,11.2126871 58.2542254,11.0681267 C59.1883803,9.83423879 60.8478873,10.1770836 61.7014085,10.8366181 C61.7820423,10.898825 61.8214789,11.1062991 61.7852113,11.2141009 C61.6158451,11.7174112 61.4130282,12.2090578 61.2109155,12.7346353 C60.9394366,12.6271871 60.7112676,12.5211526 60.4735915,12.4451612 C59.0376761,11.9863853 57.9848592,12.743825 57.981338,14.2466871 C57.975,16.7522819 57.9795775,19.2582302 57.9795775,21.763825 L57.9795775,22.5346957 Z" id="Fill-37" fill="#FFFFFF"></path>
            <mask id="mask-6" fill="white">
                <use xlink:href="#path-5"></use>
            </mask>
            <g id="Clip-40"></g>
            <polygon id="Fill-39" fill="#FFFFFF" mask="url(#mask-6)" points="113.040845 22.5287931 114.965845 22.5287931 114.965845 10.447931 113.040845 10.447931"></polygon>
            <path d="M73.1769014,31.3055853 C73.2814789,31.3274991 73.3860563,31.3497664 73.4902817,31.3716802 C73.7152817,31.030956 74.0258451,30.7139129 74.1300704,30.3392578 C74.1832394,30.1476888 73.8659859,29.8529129 73.7159859,29.6047922 C73.4832394,29.7716198 73.0895775,29.9091112 73.0529577,30.1119905 C72.9846479,30.4898267 73.1240845,30.9054819 73.1769014,31.3055853 M74.5307746,33.9331198 C74.0871127,33.330844 73.6666901,32.760025 73.2430986,32.1846112 C72.488169,32.8391974 72.3276056,33.5920422 72.7793662,34.1123181 C73.1733803,34.5661457 73.8469718,34.5170164 74.5307746,33.9331198 M73.581831,31.7152319 C74.0402817,32.3387147 74.4156338,32.8494474 74.8888732,33.4927233 C74.9987324,33.0993353 75.0515493,32.8222319 75.1575352,32.5673957 C75.2078873,32.4472233 75.3592958,32.3694647 75.4649296,32.2726198 C75.5279577,32.3871371 75.6265493,32.4963526 75.644507,32.6175853 C75.6656338,32.7603784 75.6515493,32.9296802 75.5923944,33.0597491 C75.3156338,33.6669733 75.1022535,34.2572319 75.9244366,34.7559474 C75.850493,34.8033095 75.7769014,34.851025 75.7033099,34.8983871 C75.4047183,34.7732664 75.1061268,34.6481457 74.7304225,34.4905078 C74.644507,34.5382233 74.4670423,34.6516802 74.2779577,34.7396888 C73.5811268,35.0638009 72.6994366,34.8973267 72.2835915,34.3710422 C71.8202113,33.7857319 71.8110563,32.8847922 72.3867606,32.3104388 C72.8078873,31.8901888 72.8173944,31.5922319 72.5867606,31.0574647 C72.4149296,30.6591284 72.4614085,30.0787664 72.6103521,29.6489733 C72.8124648,29.0664905 73.6642254,28.9120336 74.2110563,29.2527578 C74.7621127,29.595956 74.9096479,30.3986371 74.4684507,30.9468353 C74.2332394,31.2391371 73.8959155,31.4487319 73.581831,31.7152319" id="Fill-41" fill="#FFFFFF" mask="url(#mask-6)"></path>
            <path d="M78.7773239,31.6428103 C79.3871831,31.6060517 80.0674648,31.9206207 80.4470423,31.2974914 C80.6315493,30.9942328 80.6502113,30.4191724 80.4843662,30.1060172 C80.1195775,29.4185603 79.408662,29.7359569 78.7773239,29.6797586 L78.7773239,31.6428103 Z M78.7375352,32.1500086 C78.7375352,32.5893448 78.7333099,32.9859138 78.7382394,33.3821293 C78.7512676,34.4509569 78.5938732,34.34775 79.683662,34.3484569 C80.4857746,34.3488103 80.8417606,33.996069 80.8385915,33.2396897 C80.8357746,32.4776552 80.4938732,32.1570776 79.6755634,32.1503621 C79.4206338,32.1482414 79.1657042,32.1500086 78.7375352,32.1500086 Z M80.6921127,31.8142328 C80.8882394,32.065181 81.1174648,32.2747759 81.2435211,32.5342069 C81.7921127,33.6638276 81.0907042,34.8026379 79.8410563,34.8340948 C79.3329577,34.846819 78.8241549,34.8362155 78.2625352,34.8362155 L78.2625352,29.215681 C78.8819014,29.215681 79.4998592,29.1499397 80.0980986,29.2308793 C81.0811972,29.3637759 81.546338,30.5718621 80.9921127,31.4427586 C80.9030282,31.5823707 80.7833099,31.7025431 80.6921127,31.8142328 Z" id="Fill-42" fill="#FFFFFF" mask="url(#mask-6)"></path>
            <path d="M132.912746,30.9084862 C132.796901,30.7381241 132.640915,30.5826069 132.572958,30.3949259 C132.358169,29.8029 131.869437,29.4879776 131.280704,29.6032017 C130.741972,29.7088828 130.372958,30.1386759 130.500775,30.6617793 C130.572254,30.9558483 130.816268,31.2562793 131.064507,31.4450207 C131.326479,31.6436586 131.687746,31.7086931 132.002183,31.8401759 C132.947254,32.235331 133.368028,32.9545983 133.153944,33.7989862 C132.963451,34.54865 132.27331,34.9678397 131.352183,34.8936155 C130.385282,34.8155034 129.857465,34.2719 129.915563,33.1408655 C130.05993,33.2755293 130.272606,33.383331 130.33669,33.5490983 C130.586338,34.193081 131.053944,34.5571328 131.712042,34.3804086 C132.045493,34.2906328 132.420141,33.9831328 132.570493,33.6735121 C132.764507,33.2751759 132.611338,32.8043828 132.181761,32.5640379 C131.793732,32.3463138 131.362042,32.2091759 130.956056,32.0222017 C130.094437,31.6249259 129.737394,30.9625638 129.953239,30.1828569 C130.161338,29.4303655 130.91662,28.9786586 131.763099,29.0998914 C132.603239,29.2200638 133.099718,29.8325897 133.105704,30.75615 C133.04162,30.8070466 132.977183,30.8579431 132.912746,30.9084862" id="Fill-43" fill="#FFFFFF" mask="url(#mask-6)"></path>
            <path d="M97.6328521,34.7654905 L97.6328521,28.865025 C98.0113732,28.7109216 98.1807394,28.8074129 98.1726408,29.2061026 C98.1610211,29.7578353 98.1694718,30.3099216 98.1694718,30.9514302 C98.3603169,30.8347922 98.460669,30.7665767 98.5666549,30.7093181 C99.3557394,30.2834129 100.160669,30.5806629 100.258204,31.4734733 C100.375458,32.5486629 100.286021,33.6464733 100.286021,34.7446371 C99.8367254,34.8315853 99.8208803,34.8315853 99.8120775,34.3915422 C99.7972887,33.6203181 99.8187676,32.8480336 99.7976408,32.0768095 C99.7779225,31.3550681 99.504331,31.0051543 99.029331,31.0295422 C98.5441197,31.0542836 98.1800352,31.5070509 98.1726408,32.1231112 C98.163838,32.8946888 98.1620775,33.6666198 98.172993,34.437844 C98.1789789,34.861275 97.9772183,34.8927319 97.6328521,34.7654905" id="Fill-44" fill="#FFFFFF" mask="url(#mask-6)"></path>
            <path d="M112.638697,32.7426707 L114.250317,32.7426707 C113.994331,31.8919207 113.757007,31.1026707 113.519683,30.3134207 C113.471444,30.3208431 113.422852,30.328619 113.374261,30.3360414 C113.140106,31.1019638 112.905951,31.8682397 112.638697,32.7426707 M115.430951,34.7371793 C114.851373,34.9969638 114.826021,34.5873172 114.720739,34.2745155 C114.333415,33.1233345 114.655599,33.3813517 113.397148,33.2739034 C112.594331,33.2056879 112.293275,33.5322741 112.166866,34.2423517 C112.105951,34.58555 112.034824,35.0156966 111.4475,34.7576793 C111.998556,33.0063431 112.545035,31.2539466 113.109824,29.5075586 C113.151373,29.3792569 113.313345,29.2435328 113.445035,29.2081879 C113.528486,29.1859207 113.727077,29.3216448 113.759824,29.4234379 C114.326725,31.1899724 114.876021,32.9618086 115.430951,34.7371793" id="Fill-45" fill="#FFFFFF" mask="url(#mask-6)"></path>
            <path d="M93.5593662,34.9392103 C93.3364789,34.7748569 93.0653521,34.6486759 92.9009155,34.4383741 C92.5988028,34.0527621 92.3488028,33.6236759 92.0988028,33.1998914 C91.9935211,33.0217534 91.9428169,32.8114517 91.8671127,32.6159948 C91.7456338,32.696581 91.6241549,32.7775207 91.5026761,32.8581069 C91.5026761,33.3797966 91.4924648,33.9014862 91.5058451,34.422469 C91.5164085,34.8257534 91.3424648,34.9109345 90.9396479,34.7511759 C90.9396479,32.8824948 90.9350704,31.0000293 90.9519718,29.1175638 C90.9530282,29.0083483 91.1311972,28.9009 91.2269718,28.7927448 C91.3185211,28.9065552 91.4857746,29.0178914 91.4889437,29.1341759 C91.5125352,29.9481672 91.5026761,30.763219 91.5030282,31.5779172 C91.5033803,31.8065983 91.5030282,32.0352793 91.5030282,32.3311155 C92.4949296,32.0575466 92.3671127,30.5670552 93.6326056,30.6193655 C93.2445775,31.1767534 92.9343662,31.661331 92.5826056,32.1130379 C92.3505634,32.4109948 92.3308451,32.6428569 92.5597183,32.9584862 C92.9709859,33.526831 93.3371831,34.1280466 93.7223944,34.7154776 C93.6678169,34.7900552 93.6135915,34.8646328 93.5593662,34.9392103" id="Fill-46" fill="#FFFFFF" mask="url(#mask-6)"></path>
            <path d="M103.306197,32.8457362 C102.750563,32.8040293 102.157254,32.7008224 101.853028,33.2935552 C101.730845,33.5314259 101.772042,34.0308483 101.943521,34.1937879 C102.116056,34.3574345 102.587535,34.3546069 102.849859,34.2415034 C103.440352,33.9873741 103.446338,33.4465983 103.306197,32.8457362 M103.482254,32.3148569 C103.330493,31.8942534 103.266408,31.4916759 103.048803,31.2064431 C102.935775,31.0583483 102.54,31.0558741 102.295282,31.1050034 C102.124859,31.1392879 102.000915,31.3814 101.842817,31.5142966 C101.707606,31.6284603 101.553028,31.7200034 101.406901,31.8210897 C101.397042,31.6295207 101.316056,31.4026069 101.389296,31.2520379 C101.663592,30.6904086 102.163944,30.4695034 102.765704,30.5310034 C103.350563,30.5910897 103.787535,30.8985897 103.869577,31.5111155 C103.940352,32.0374 103.922746,32.5760552 103.937535,33.1090552 C103.945282,33.387219 103.939648,33.6653828 103.939648,33.9435466 C103.94,34.2188828 103.939648,34.494219 103.939648,34.9211845 C103.667465,34.7674345 103.463944,34.6525638 103.227324,34.5186069 C102.792465,34.8883138 102.240352,35.0855379 101.649859,34.7306759 C101.164648,34.439081 101.08331,33.9237534 101.195282,33.4239776 C101.457606,32.2568914 102.47169,32.4375034 103.482254,32.3148569" id="Fill-47" fill="#FFFFFF" mask="url(#mask-6)"></path>
            <path d="M47.452007,30.929269 C47.3291197,30.7801138 47.1344014,30.6472172 47.0967254,30.4789759 C46.9703169,29.9173466 46.6502465,29.6073724 46.0851056,29.5893466 C45.4921479,29.5709672 45.0312324,29.8880103 44.9886268,30.4531741 C44.911162,31.4880707 44.9118662,32.5374586 44.9917958,33.5720017 C45.0358099,34.1407 45.498838,34.4404241 46.0963732,34.4181569 C46.6696127,34.3965966 46.9822887,34.0933379 47.0984859,33.5267603 C47.1301761,33.3726569 47.3266549,33.2524845 47.4474296,33.1167603 C47.502007,33.2910103 47.6248944,33.4765707 47.5991901,33.6380966 C47.4798239,34.3902345 47.0136268,34.8087172 46.2720775,34.8875362 C45.4407394,34.9758983 44.6403873,34.6539069 44.552007,33.9074241 C44.4034155,32.6565707 44.3946127,31.3604759 44.552007,30.1120966 C44.652007,29.3189586 45.5551761,28.9584414 46.3826408,29.1107776 C47.2090493,29.2627603 47.6051761,29.7925793 47.6248944,30.7733983 C47.5671479,30.8253552 47.5094014,30.8773121 47.452007,30.929269" id="Fill-48" fill="#FFFFFF" mask="url(#mask-6)"></path>
            <path d="M147.426127,32.2505293 L149.099718,32.2505293 C149.134577,31.5033397 148.848662,31.0519862 148.35007,31.0201759 C147.827535,30.9865983 147.445493,31.4839 147.426127,32.2505293 M149.708521,32.7754 L147.412394,32.7754 C147.298662,33.3677793 147.374366,33.8912362 147.840915,34.2333741 C148.366268,34.6189862 148.888099,34.4192879 149.345845,34.0029259 C149.406056,34.0350897 149.466268,34.0672534 149.526831,34.0994172 C149.450775,34.2810897 149.426127,34.5309776 149.290915,34.6331241 C148.456056,35.2647362 147.207113,34.8501414 146.943028,33.7943914 C146.79162,33.1907017 146.797958,32.5184431 146.871549,31.8935466 C146.971197,31.0495121 147.670141,30.482581 148.385986,30.5200466 C149.11662,30.5585724 149.601127,31.0929862 149.704296,31.9981672 C149.730704,32.2272017 149.708521,32.4618914 149.708521,32.7754" id="Fill-49" fill="#FFFFFF" mask="url(#mask-6)"></path>
            <path d="M124.713732,32.2546647 C124.758803,31.5226733 124.474296,31.0614233 123.974648,31.0207767 C123.45669,30.9787164 123.077465,31.456225 123.022535,32.2546647 L124.713732,32.2546647 Z M125.302465,32.8007422 L123.009155,32.8007422 C122.908451,33.4263457 123.015141,33.954044 123.503873,34.2696733 C124.014789,34.5990871 124.522535,34.4174147 124.953521,34.0024664 C125.01338,34.032156 125.073239,34.0618457 125.133099,34.0918888 C125.057042,34.2774491 125.033451,34.5326388 124.896127,34.636906 C124.005634,35.3130526 122.680986,34.7595526 122.489789,33.6083716 C122.400352,33.0683026 122.417254,32.4971302 122.472535,31.9485784 C122.556338,31.1239836 123.223592,30.5146388 123.941197,30.5195871 C124.686972,30.5248888 125.176056,31.0260784 125.297535,31.9400957 C125.330282,32.187156 125.302465,32.4419922 125.302465,32.8007422 Z" id="Fill-50" fill="#FFFFFF" mask="url(#mask-6)"></path>
            <path d="M58.7605282,32.2644552 C58.8267254,32.2079034 58.8929225,32.1513517 58.9594718,32.0948 C58.7446831,31.7646793 58.5837676,31.36705 58.2929225,31.1323603 C58.1432746,31.0118345 57.6686268,31.0853517 57.5059507,31.2429897 C57.2619366,31.4787397 57.162993,31.866119 56.9647535,32.2644552 L58.7605282,32.2644552 Z M59.3658099,32.778369 L57.0848239,32.778369 C56.9876408,33.4124552 57.0710915,33.9422741 57.5647535,34.2667397 C58.0851761,34.6085241 58.5851761,34.393981 59.0348239,34.0097828 C59.4017254,34.3088 59.200669,34.5074379 58.9239085,34.6841621 C58.0658099,35.2327138 56.8242606,34.8053948 56.6175704,33.7899379 C56.4770775,33.0989466 56.5077113,32.3372655 56.6309507,31.6374379 C56.7615845,30.8962569 57.4894014,30.4509121 58.1450352,30.5251362 C58.8383451,30.6039552 59.2971479,31.1341276 59.3626408,31.9530672 C59.3827113,32.2026017 59.3658099,32.4549638 59.3658099,32.778369 Z" id="Fill-51" fill="#FFFFFF" mask="url(#mask-6)"></path>
            <path d="M136.362993,32.7956879 C136.304542,32.4037138 136.287289,32.0806621 136.203134,31.7763431 C136.078838,31.3253431 135.780599,31.01855 135.288697,31.0234983 C134.792218,31.0288 134.445387,31.359981 134.406303,31.8039121 C134.3475,32.470869 134.361937,33.1653948 134.494331,33.8175069 C134.543979,34.0617397 135.009472,34.3720672 135.289401,34.3763086 C135.571444,34.3809034 135.955599,34.1020328 136.117923,33.8380069 C136.304894,33.5336879 136.297852,33.1091966 136.362993,32.7956879 M133.695035,32.6953086 C133.754894,32.3217138 133.7725,31.9534207 133.877077,31.6116362 C134.095387,30.8966103 134.66757,30.4965069 135.354542,30.5198345 C136.005951,30.5417483 136.629894,30.9588172 136.734472,31.6434466 C136.842218,32.3471621 136.845739,33.0932914 136.737641,33.7966534 C136.630246,34.4971879 136.03412,34.8820931 135.35243,34.8994121 C134.633415,34.9181448 134.090458,34.5470241 133.874965,33.8221017 C133.767218,33.4598172 133.751725,33.0696103 133.695035,32.6953086" id="Fill-52" fill="#FFFFFF" mask="url(#mask-6)"></path>
            <path d="M86.2545423,32.7791466 C86.162993,32.3497069 86.1566549,31.9142586 85.9703873,31.5798966 C85.8281338,31.3254138 85.4499648,31.0444224 85.1908099,31.0571466 C84.8996127,31.0712845 84.4126408,31.3724224 84.3802465,31.6018103 C84.2749648,32.3398103 84.2816549,33.1096207 84.3753169,33.8504483 C84.4027817,34.067819 84.8573592,34.365069 85.1284859,34.3788534 C85.3989085,34.3926379 85.7894014,34.1618362 85.9390493,33.9207845 C86.1394014,33.5980862 86.1587676,33.161931 86.2545423,32.7791466 M83.5598239,32.6971466 C83.6232042,32.3196638 83.644331,31.9294569 83.7591197,31.5696466 C83.9749648,30.8913793 84.5432746,30.5054138 85.2034859,30.5191983 C85.8577113,30.5329828 86.4848239,30.9387414 86.5964437,31.6251379 C86.7105282,32.3270862 86.7144014,33.073569 86.6119366,33.7776379 C86.5094718,34.4802931 85.9189789,34.873681 85.2408099,34.8991293 C84.5217958,34.9256379 83.9714437,34.5605259 83.7492606,33.8409052 C83.637993,33.4800345 83.6214437,33.0894741 83.5598239,32.6971466" id="Fill-53" fill="#FFFFFF" mask="url(#mask-6)"></path>
            <path d="M66.9034507,30.6781086 C67.3020423,30.5261259 67.4805634,30.6402897 67.5805634,31.0195397 C67.8143662,31.9042207 68.0865493,32.7786517 68.4675352,33.6661603 C68.7221127,32.7966776 68.9935915,31.9317897 69.2235211,31.0559448 C69.3277465,30.6590224 69.4974648,30.5027983 69.9488732,30.7003759 C69.4175352,32.3923328 68.8978169,34.0839362 68.3499296,35.7667034 C68.2122535,36.1904879 67.9340845,36.5329793 67.42,36.4948069 C67.3087324,36.4866776 67.2069718,36.3506 67.1009859,36.2735483 C67.1717606,36.1830655 67.2235211,36.0558241 67.3161268,36.0084621 C67.9756338,35.6691517 68.2597887,35.0470828 68.038662,34.3355914 C67.7214085,33.3155397 67.388662,32.3004362 67.0661268,31.2821517 C67.0038028,31.085281 66.9580282,30.8831086 66.9034507,30.6781086" id="Fill-54" fill="#FFFFFF" mask="url(#mask-6)"></path>
            <path d="M107.167394,30.8946664 C107.533239,30.5670198 107.99169,30.3740371 108.527254,30.630994 C109.062113,30.8879509 109.194507,31.3951491 109.212817,31.9214336 C109.242042,32.7569853 109.237817,33.5939509 109.21669,34.4295026 C109.213169,34.5645198 109.049085,34.6956491 108.959296,34.8285457 C108.866338,34.6935284 108.698732,34.5616922 108.693099,34.4231405 C108.659648,33.6095026 108.673732,32.7944509 108.652254,31.980106 C108.639577,31.495175 108.503662,31.0657353 107.918099,31.0314509 C107.46,31.0045888 107.046972,31.4623043 107.034648,32.0299422 C107.015282,32.9280543 107.029366,33.8268733 107.029366,34.7567957 C106.701901,34.8702526 106.466338,34.905244 106.466338,34.4641405 C106.465986,33.2023302 106.466338,31.9408733 106.466338,30.5299078 C106.759296,30.682244 106.950493,30.7819164 107.167394,30.8946664" id="Fill-55" fill="#FFFFFF" mask="url(#mask-6)"></path>
            <path d="M50.8748239,30.5487112 C50.990669,30.6989267 51.202993,30.8470216 51.2068662,31.0000647 C51.2353873,32.1349871 51.2294014,33.2709698 51.2146127,34.4062457 C51.2128521,34.5469181 51.0948944,34.6858233 51.0308099,34.8254353 C50.8786972,34.7480302 50.7265845,34.6702716 50.5413732,34.5759009 C49.4579225,35.2573491 48.5702465,34.841694 48.4864437,33.5127284 C48.4339789,32.6800043 48.4547535,31.8419784 48.4744718,31.0071336 C48.4776408,30.8760043 48.6501761,30.7491164 48.7441901,30.6201078 C48.8255282,30.762194 48.9705986,30.9014526 48.9769366,31.0470733 C49.0040493,31.6458147 48.9850352,32.2466767 48.9910211,32.8464784 C48.9931338,33.0815216 48.9980634,33.3190388 49.0329225,33.5505474 C49.1051056,34.0252284 49.2508803,34.4620905 49.8625,34.3825647 C50.4213028,34.3097543 50.6575704,33.9375733 50.6621479,33.3971509 C50.6663732,32.9472112 50.6639085,32.4972716 50.6639085,32.0473319 C50.6639085,31.5995129 50.6639085,31.151694 50.6639085,30.7042284 C50.734331,30.6522716 50.8044014,30.6006681 50.8748239,30.5487112" id="Fill-56" fill="#FFFFFF" mask="url(#mask-6)"></path>
            <path d="M140.36169,30.7044759 L140.36169,34.8635017 C140.128592,34.7765534 139.943732,34.707631 139.672606,34.6061914 C138.519085,35.2561828 137.70007,34.8221483 137.62507,33.3475621 C137.580704,32.4741914 137.616972,31.5965793 137.616972,30.7150793 C138.013099,30.5164414 138.177887,30.6161138 138.17331,31.0448466 C138.165563,31.7938034 138.163099,32.5434672 138.185986,33.2920707 C138.210986,34.096519 138.44338,34.4043724 138.959225,34.3905879 C139.523662,34.3753897 139.828239,33.9703379 139.83493,33.2075966 C139.841268,32.5010534 139.817324,31.7938034 139.851479,31.0890276 C139.860282,30.9077086 140.038803,30.7348724 140.139507,30.5585017 C140.213451,30.6069241 140.287746,30.6557 140.36169,30.7044759" id="Fill-57" fill="#FFFFFF" mask="url(#mask-6)"></path>
            <path d="M115.826197,33.4378328 C116.099437,33.6544966 116.243099,33.7877466 116.404718,33.8927207 C116.686408,34.0758069 116.963873,34.3292293 117.272676,34.3833069 C117.466338,34.4172379 117.854014,34.1783069 117.901901,33.9952207 C117.96,33.7718414 117.825845,33.395419 117.644155,33.2353069 C117.348028,32.9741086 116.944155,32.838031 116.588873,32.643281 C116.089577,32.3697121 115.79169,31.9660741 115.953662,31.3807638 C116.118099,30.7866172 116.587817,30.5392034 117.170211,30.5236517 C117.75331,30.5081 118.221972,30.7374879 118.426549,31.3182034 C118.479366,31.4680655 118.393803,31.6670569 118.371972,31.843781 C118.225141,31.7434017 118.019859,31.6758931 117.943099,31.5366345 C117.729718,31.1517293 117.442042,30.9244621 117.012465,31.0573586 C116.818099,31.1174448 116.561761,31.3153759 116.532535,31.4853845 C116.497676,31.6879103 116.617394,31.9961172 116.776901,32.134669 C117.027958,32.3520397 117.369155,32.4651431 117.670915,32.6245483 C118.408592,33.0136948 118.668803,33.4890828 118.482535,34.102669 C118.307535,34.67985 117.740634,34.9746259 116.975141,34.8866172 C116.265986,34.8053241 115.917394,34.4285483 115.826197,33.4378328" id="Fill-58" fill="#FFFFFF" mask="url(#mask-6)"></path>
            <path d="M119.148345,33.4368784 C119.412077,33.6595509 119.551866,33.7977491 119.711373,33.9069647 C119.974049,34.0872233 120.237782,34.3530164 120.522641,34.3844733 C120.74588,34.4088612 121.130387,34.1808871 121.206444,33.976594 C121.280035,33.7800767 121.115951,33.4004733 120.936373,33.2255164 C120.701866,32.9968353 120.349049,32.8908009 120.047641,32.7310422 C119.32088,32.3450767 119.080387,31.9025595 119.27088,31.3034647 C119.438486,30.7754129 120.097993,30.4286802 120.73743,30.5322405 C121.401866,30.6400422 121.742711,31.0479216 121.776866,31.9955164 C121.517711,31.7809733 121.380387,31.6441888 121.221937,31.5413353 C120.942007,31.3596629 120.66419,31.123206 120.355387,31.0602922 C120.20257,31.0295422 119.876514,31.3038181 119.822641,31.4953871 C119.771585,31.6763526 119.915951,32.0001112 120.078275,32.134775 C120.351162,32.3613353 120.709261,32.483275 121.027218,32.6571716 C121.731444,33.0417233 121.984261,33.5641198 121.767007,34.1716974 C121.576162,34.7061112 120.94588,34.991344 120.205739,34.8782405 C119.527923,34.7743267 119.195528,34.3887147 119.148345,33.4368784" id="Fill-59" fill="#FFFFFF" mask="url(#mask-6)"></path>
            <path d="M60.1162676,30.5237224 C60.3926761,30.6686362 60.5634507,30.7580586 60.7697887,30.8658603 C61.6912676,30.1384638 62.8310563,30.4795414 62.8416197,32.0598086 C62.8469014,32.8303259 62.8602817,33.60155 62.8335211,34.3710069 C62.8282394,34.5265241 62.6588732,34.6763862 62.5652113,34.8287224 C62.4817606,34.6682569 62.3324648,34.5102655 62.3264789,34.3469724 C62.2990141,33.5987224 62.3289437,32.8483517 62.3046479,32.1001017 C62.2880986,31.5918431 62.2057042,31.0754552 61.5437324,31.0341017 C61.0511268,31.0033517 60.6588732,31.5077224 60.648662,32.1580672 C60.6377465,32.8858172 60.6606338,33.6142741 60.6345775,34.3409638 C60.6289437,34.5063776 60.483169,34.6664897 60.4014789,34.8287224 C60.3064085,34.6781534 60.1317606,34.5286448 60.1289437,34.3763086 C60.1064085,33.1381793 60.1162676,31.90005 60.1162676,30.5237224" id="Fill-60" fill="#FFFFFF" mask="url(#mask-6)"></path>
            <path d="M115.270423,7.7513681 C115.260563,8.4483681 114.697887,8.99197155 113.987676,8.99020431 C113.290493,8.98843707 112.742606,8.41585086 112.758803,7.70577328 C112.775704,6.98791983 113.342958,6.43371293 114.032746,6.4612819 C114.741197,6.48955776 115.280282,7.05154052 115.270423,7.7513681" id="Fill-61" fill="#FFFFFF" mask="url(#mask-6)"></path>
            <path d="M130.237817,7.68389483 C130.251197,8.37241207 129.692394,8.94747241 128.986761,8.97115345 C128.294859,8.99412759 127.72162,8.43179138 127.713873,7.72242069 C127.706127,7.0020931 128.250141,6.43551552 128.94838,6.43657586 C129.656127,6.43798966 130.224437,6.98760172 130.237817,7.68389483" id="Fill-62" fill="#FFFFFF" mask="url(#mask-6)"></path>
            <path d="M66.4959859,33.3202405 C66.430493,34.2890422 66.0642958,34.7499388 65.4294366,34.871525 C64.721338,35.0072491 64.1142958,34.7396888 63.8502113,34.0819216 C63.4857746,33.1749733 63.4850704,32.2344474 63.8628873,31.3296198 C64.1139437,30.7280509 64.708662,30.4308009 65.3280282,30.5311802 C65.9396479,30.6301457 66.3322535,30.9945509 66.4600704,31.6014216 C66.4914085,31.7502233 66.3892958,31.9273009 66.3488028,32.0913009 C66.2238028,31.9870336 66.0297887,31.9057405 65.9857746,31.7739043 C65.8248592,31.2900336 65.5516197,30.9659216 65.0157042,31.0337836 C64.4843662,31.1012922 64.261831,31.5091716 64.2248592,31.9884474 C64.1861268,32.4984733 64.1840141,33.0180422 64.2361268,33.5259474 C64.2819014,33.9744733 64.4970423,34.3537233 65.0178169,34.4063871 C65.5167606,34.4572836 65.8093662,34.2109302 65.9871831,33.7489733 C66.0414085,33.6083009 66.2442254,33.5248871 66.4959859,33.3202405" id="Fill-63" fill="#FFFFFF" mask="url(#mask-6)"></path>
            <path d="M146.113944,33.4175448 C146.165352,34.301519 145.801268,34.7542862 145.167113,34.8723379 C144.456901,35.0045276 143.849155,34.7359069 143.589648,34.0774328 C143.231901,33.1697776 143.228028,32.2288983 143.608662,31.3244241 C143.861127,30.7253293 144.45831,30.4379759 145.077324,30.5291655 C145.668521,30.6164672 146.147394,31.0752431 146.220634,31.6690362 C146.237183,31.8029931 146.132606,31.9517948 146.084014,32.093881 C145.966056,32.0069328 145.775915,31.9418983 145.742817,31.8295017 C145.591761,31.3191224 145.322746,30.9543638 144.751268,31.0363638 C144.155493,31.1218983 143.972746,31.6011741 143.951268,32.1235707 C143.930141,32.6346569 143.889648,33.174019 144.02662,33.6522345 C144.112535,33.9516052 144.470986,34.2774845 144.778028,34.3821052 C145.206197,34.5277259 145.525915,34.2354241 145.71007,33.8017431 C145.77662,33.6448121 145.975563,33.5440793 146.113944,33.4175448" id="Fill-64" fill="#FFFFFF" mask="url(#mask-6)"></path>
            <path d="M96.7130282,33.4072241 C96.8669014,34.207431 96.5260563,34.6287414 95.9295775,34.836569 C95.296831,35.0567672 94.6014085,34.8383362 94.3130282,34.2615086 C93.806338,33.2485259 93.8059859,32.1828793 94.3161972,31.1737845 C94.6080986,30.5966034 95.1823944,30.4248276 95.8035211,30.5573707 C96.4126761,30.6874397 96.7588028,31.1030948 96.843662,31.7159741 C96.859507,31.8326121 96.7609155,31.9648017 96.7151408,32.0899224 C96.5919014,32.01075 96.3841549,31.9520776 96.3591549,31.8488707 C96.2306338,31.3222328 95.9552817,30.9677241 95.3883803,31.0348793 C94.7901408,31.1059224 94.5943662,31.5859052 94.5714789,32.1075948 C94.5478873,32.6381207 94.5158451,33.1983362 94.659507,33.6956379 C94.7433099,33.9854655 95.1295775,34.2873103 95.4419014,34.3862759 C95.8440141,34.5135172 96.146831,34.2254569 96.3228873,33.8200517 C96.3940141,33.6567586 96.5795775,33.5433017 96.7130282,33.4072241" id="Fill-65" fill="#FFFFFF" mask="url(#mask-6)"></path>
            <path d="M90.0409859,33.4131974 C90.1983803,34.2056284 89.8603521,34.6290595 89.2628169,34.8368871 C88.6304225,35.0570853 87.9342958,34.8383009 87.6462676,34.2618267 C87.1399296,33.2484905 87.1406338,32.1824905 87.6494366,31.1737491 C87.9406338,30.597275 88.5159859,30.4247922 89.1374648,30.5576888 C89.7466197,30.6874043 90.0909859,31.1055336 90.1783099,31.7166457 C90.1948592,31.8325767 90.094507,31.9651198 90.0480282,32.0902405 C89.9247887,32.0107147 89.7173944,31.9516888 89.6920423,31.8481284 C89.563169,31.321844 89.2878169,30.9676888 88.7205634,31.034844 C88.1212676,31.1058871 87.9276056,31.5876371 87.9040141,32.1082664 C87.8800704,32.6387922 87.8490845,33.1990078 87.9930986,33.695956 C88.0772535,33.9864905 88.4635211,34.2890422 88.7758451,34.3873009 C89.1765493,34.5131284 89.481831,34.2271888 89.6561268,33.8196629 C89.7251408,33.6584905 89.9092958,33.5471543 90.0409859,33.4131974" id="Fill-66" fill="#FFFFFF" mask="url(#mask-6)"></path>
            <path d="M82.7786268,28.8482009 L82.7786268,34.7804767 C82.717007,34.8179422 82.6557394,34.8554078 82.5941197,34.8932267 C82.4786268,34.7306405 82.2648944,34.5694681 82.2624296,34.4054681 C82.2381338,32.6767526 82.2381338,30.9473302 82.2627817,29.2186147 C82.2652465,29.0546147 82.4807394,28.8941491 82.5972887,28.7319164 C82.6578521,28.7704422 82.7180634,28.8093216 82.7786268,28.8482009" id="Fill-67" fill="#FFFFFF" mask="url(#mask-6)"></path>
            <path d="M126.840563,30.5569819 C127.072606,30.5919733 127.275775,30.6223698 127.478592,30.6527664 C127.509225,30.7103784 127.540211,30.7676371 127.570845,30.8248957 C127.362746,30.9531974 127.154648,31.0814991 126.823662,31.2854388 C126.823662,32.0852922 126.803944,33.0357147 126.845141,33.9833095 C126.851127,34.1250422 127.14162,34.2544043 127.300423,34.3894216 C127.409225,34.4823784 127.517676,34.5756888 127.626127,34.6689991 C127.51169,34.7411026 127.405352,34.8538526 127.281761,34.8775336 C126.721549,34.9853353 126.333521,34.7008095 126.295493,34.0843957 C126.245493,33.275706 126.266268,32.462775 126.255,31.6516112 C126.251479,31.3798095 126.313451,31.071956 125.87331,31.0701888 C125.807113,31.0698353 125.709225,30.9107836 125.689507,30.812525 C125.678944,30.7609216 125.806056,30.6237836 125.871549,30.6237836 C126.309225,30.6230767 126.21662,30.3053267 126.267324,30.0413009 C126.299718,29.8734129 126.438803,29.7263784 126.529648,29.5698009 C126.620141,29.7239043 126.738099,29.8688181 126.793028,30.0345853 C126.84338,30.1879819 126.826127,30.3639991 126.840563,30.5569819" id="Fill-68" fill="#FFFFFF" mask="url(#mask-6)"></path>
            <path d="M141.349718,34.7789569 L141.349718,30.5594914 C141.592324,30.6793103 141.782465,30.7729741 141.93493,30.8479052 C142.257113,30.7231379 142.593028,30.5927155 142.929296,30.4626466 C142.988451,30.5336897 143.047958,30.6047328 143.107465,30.6757759 C142.981056,30.8168017 142.864859,31.0663362 142.726127,31.0794138 C142.08669,31.1412672 141.89831,31.5449052 141.886338,32.0892155 C141.869085,32.8600862 141.901127,33.6327241 141.864859,34.402181 C141.856761,34.5711293 141.650423,34.7305345 141.535634,34.894181 C141.473662,34.8556552 141.41169,34.8174828 141.349718,34.7789569" id="Fill-69" fill="#FFFFFF" mask="url(#mask-6)"></path>
            <path d="M52.1707746,30.5037172 C52.4693662,30.6694845 52.6397887,30.7642086 52.7397887,30.8200534 C53.0919014,30.7239155 53.4228873,30.6337862 53.7538732,30.5433034 C53.7947183,30.7076569 53.8352113,30.8716569 53.8774648,31.0430793 C52.9172535,31.1699672 52.7024648,31.4170276 52.6982394,32.3356397 C52.6950704,33.0397086 52.7112676,33.7444845 52.6838028,34.4474931 C52.6788732,34.5779155 52.5070423,34.7019759 52.4126761,34.8288638 C52.3320423,34.707631 52.1830986,34.5874586 52.181338,34.4651655 C52.1640845,33.2083034 52.1707746,31.9514414 52.1707746,30.5037172" id="Fill-70" fill="#FFFFFF" mask="url(#mask-6)"></path>
            <path d="M55.0233099,30.8193466 C55.3866901,30.7239155 55.7173239,30.6298983 56.0539437,30.5687517 C56.0708451,30.5655707 56.1388028,30.8465621 56.1842254,30.9992517 C55.1233099,31.2473724 55.0004225,31.4046569 54.9976056,32.4384931 C54.995493,33.1658897 54.9926761,33.8929328 54.9877465,34.6203293 C54.9873944,34.6606224 54.9666197,34.7009155 54.9004225,34.9341914 C54.7127465,34.7433293 54.4814085,34.6182086 54.4782394,34.4874328 C54.4497183,33.3115103 54.4560563,32.1345276 54.4701408,30.9582517 C54.4715493,30.8451483 54.6176761,30.6309586 54.6574648,30.6397948 C54.8123944,30.6744328 54.9514789,30.7801138 55.0233099,30.8193466" id="Fill-71" fill="#FFFFFF" mask="url(#mask-6)"></path>
            <path d="M105.490775,30.6747862 C105.490775,31.9510879 105.502394,33.2273897 105.473521,34.5029845 C105.470352,34.6351741 105.225282,34.7620621 105.092535,34.8917776 C105.034789,34.8514845 104.97669,34.8111914 104.918592,34.7708983 C104.918592,33.4953034 104.90662,32.2197086 104.936197,30.9448207 C104.939366,30.8119241 105.187958,30.6846828 105.322817,30.5546138 C105.378803,30.5949069 105.434789,30.6348466 105.490775,30.6747862" id="Fill-72" fill="#FFFFFF" mask="url(#mask-6)"></path>
            <path d="M105.647606,29.139619 C105.428592,29.3075069 105.312042,29.4594897 105.181056,29.4736276 C105.106056,29.4817569 104.923662,29.2520155 104.939155,29.1534034 C104.960282,29.0205069 105.107465,28.873119 105.238099,28.8098517 C105.290211,28.7847569 105.442324,28.96855 105.647606,29.139619" id="Fill-73" fill="#FFFFFF" mask="url(#mask-6)"></path>
        </g>
    </g>
</svg>