<svg viewBox="0 0 345 120" version="1.1" xmlns="http://www.w3.org/2000/svg" xmlns:xlink="http://www.w3.org/1999/xlink">
    <defs>
        <polygon id="path-1" points="0.6969 0.2931 233.8669 0.2931 233.8669 92 0.6969 92"></polygon>
        <polygon id="path-3" points="0.989386027 0.204398143 29.974 0.204398143 29.974 29.1874041 0.989386027 29.1874041"></polygon>
    </defs>
    <g id="Roadmap-Center" stroke="none" stroke-width="1" fill="none" fill-rule="evenodd" transform="translate(-53.000000, -393.000000)">
        <g id="Inc" transform="translate(53.000000, 393.000000)">
            <g id="Group-3" transform="translate(85.000000, 27.166000)">
                <mask id="mask-2" fill="white">
                    <use xlink:href="#path-1"></use>
                </mask>
                <g id="Clip-2"></g>
                <path d="M132.0539,64.8221 L132.0539,89.7671 L69.8369,89.7671 L69.8369,64.2991 L81.6419,64.2991 C81.6599,64.0051 81.6849,63.7841 81.6849,63.5621 C81.6849,54.7531 81.6909,45.9441 81.6739,37.1351 C81.6699,35.1781 81.2469,33.3011 80.2849,31.5781 C78.7959,28.9101 76.4529,27.3451 73.5639,26.5771 C69.1859,25.4141 64.8949,25.6671 60.8199,27.7301 C56.1349,30.1011 53.4029,33.9771 52.4329,39.1061 C52.2579,40.0271 52.1569,40.9761 52.1539,41.9121 C52.1309,49.1801 52.1399,56.4481 52.1389,63.7161 C52.1389,63.8741 52.1389,64.0321 52.1389,64.2651 L64.2479,64.2651 L64.2479,89.7581 L0.7059,89.7581 L0.7059,64.2941 L12.0689,64.2941 L12.0689,25.7831 L0.6969,25.7831 L0.6969,0.2931 L50.8469,0.2931 L50.8469,17.6871 L51.0309,17.7741 C51.6119,17.1431 52.2169,16.5331 52.7699,15.8781 C59.1749,8.2791 67.1529,3.4031 77.0529,1.8861 C85.0469,0.6611 92.9989,0.8191 100.8539,2.8741 C106.0289,4.2291 110.7059,6.5451 114.4959,10.4191 C118.3829,14.3921 120.5039,19.2361 121.2479,24.6791 C121.5579,26.9481 121.6649,29.2591 121.6739,31.5521 C121.7169,42.1091 121.6929,52.6661 121.6929,63.2231 L121.6929,64.2191 L131.8459,64.2191 C131.5329,63.3851 131.2189,62.5781 130.9249,61.7641 C129.4469,57.6711 128.6749,53.4411 128.4479,49.1001 C128.1929,44.2451 128.5989,39.4581 129.8039,34.7431 C131.5499,27.9111 134.8819,21.9651 139.8189,16.9361 C145.8879,10.7531 153.2849,6.8111 161.4759,4.2441 C168.2049,2.1351 175.1099,1.1141 182.1529,0.9001 C185.9279,0.7861 189.6929,0.7771 193.4499,1.2111 C201.5089,2.1411 209.1729,4.2881 216.0879,8.6681 C223.7589,13.5281 228.8769,20.3441 231.5449,29.0181 C232.4049,31.8171 232.9409,34.6781 233.3109,37.5761 C233.3279,37.7071 233.3129,37.8421 233.3129,38.0341 C221.8789,39.2901 210.4699,40.5441 199.0599,41.7981 C198.8889,40.0451 198.7619,38.3531 198.5529,36.6711 C198.2029,33.8561 197.5749,31.1161 196.2559,28.5671 C194.4329,25.0461 191.5679,22.9671 187.6629,22.3851 C184.5479,21.9201 181.4639,22.1421 178.4879,23.2251 C174.7069,24.6001 172.3489,27.3761 170.9689,31.0681 C169.7479,34.3351 169.2949,37.7531 169.1939,41.2051 C169.0929,44.6731 169.0849,48.1491 169.1959,51.6171 C169.3199,55.4641 169.8149,59.2681 171.4019,62.8401 C173.4219,67.3841 177.0099,69.8111 181.8539,70.4721 C184.7289,70.8641 187.5889,70.7741 190.3809,69.8811 C195.8699,68.1261 199.1599,63.8851 199.5209,58.1191 C199.5459,57.7121 199.5639,57.3051 199.5869,56.8731 L233.8669,56.8731 C233.6429,58.3591 233.5169,59.7981 233.1999,61.1931 C232.0809,66.1221 230.1959,70.7301 227.2899,74.8981 C223.5349,80.2861 218.5469,84.1601 212.6189,86.8711 C206.8999,89.4871 200.8469,90.8271 194.6179,91.4771 C189.1149,92.0521 183.6039,92.1761 178.0889,91.7331 C167.8919,90.9131 158.1489,88.4841 149.2479,83.2721 C141.8479,78.9391 136.0499,73.0581 132.3119,65.2611 C132.2669,65.1661 132.2059,65.0791 132.0539,64.8221" id="Fill-1" fill="#FFFFFF" mask="url(#mask-2)"></path>
            </g>
            <polygon id="Fill-4" fill="#FFFFFF" points="66.1172 91.458 81.3502 91.458 81.3502 116.924 0.0082 116.924 0.0082 91.465 15.2292 91.465 15.2292 27.423 0.0002 27.423 0.0002 0 81.3412 0 81.3412 27.392 66.1172 27.392"></polygon>
            <g id="Group-8" transform="translate(315.000000, 88.166000)">
                <mask id="mask-4" fill="white">
                    <use xlink:href="#path-3"></use>
                </mask>
                <g id="Clip-7"></g>
                <path d="M15.4944,0.2044 C23.5194,0.2084 29.9764,6.6864 29.9744,14.7324 C29.9724,22.6844 23.4404,29.1934 15.4684,29.1874 C7.4634,29.1824 0.9784,22.6644 0.9894,14.6364 C0.9994,6.6604 7.4924,0.2004 15.4944,0.2044" id="Fill-6" fill="#FFFFFF" mask="url(#mask-4)"></path>
            </g>
        </g>
    </g>
</svg>