<?xml version="1.0" encoding="UTF-8"?>
<svg width="263px" height="66px" viewBox="0 0 263 66" version="1.1" xmlns="http://www.w3.org/2000/svg" xmlns:xlink="http://www.w3.org/1999/xlink">
    <defs>
        <path d="M1.63537037,0.482740741 C0.778259259,0.482740741 0.205209877,1.064 0.205209877,1.93260494 L0.205209877,39.6274321 C0.205209877,40.497679 0.778259259,41.0772963 1.63537037,41.0772963 L23.3619877,41.0772963 C30.2221605,41.0772963 33.6538889,37.5979506 33.6538889,30.6376173 L33.6538889,26.869284 C33.6538889,20.2012222 27.3651235,19.0403457 27.3651235,19.0403457 L27.3651235,18.751358 C27.3651235,18.751358 31.3666173,17.5904815 31.3666173,12.0816543 L31.3666173,10.9224198 C31.3666173,3.96208642 27.9365309,0.482740741 21.074716,0.482740741 L1.63537037,0.482740741 Z M7.3527284,7.15244444 L20.2176049,7.15244444 C22.7905802,7.15244444 24.2190988,8.60230864 24.2190988,11.2114074 L24.2190988,12.0816543 C24.2190988,14.6907531 22.7905802,16.1406173 20.2176049,16.1406173 L7.3527284,16.1406173 L7.3527284,7.15244444 Z M7.3527284,22.810321 L22.5048765,22.810321 C25.0778519,22.810321 26.5080123,24.2601852 26.5080123,26.869284 L26.5080123,30.3486296 C26.5080123,32.9577284 25.0778519,34.4075926 22.5048765,34.4075926 L7.3527284,34.4075926 L7.3527284,22.810321 Z M186.311617,10.9224198 C182.022778,10.9224198 180.594259,14.4001235 180.594259,14.4001235 L180.308556,14.4001235 L180.308556,12.9502593 C180.308556,12.0816543 179.737148,11.5003951 178.878395,11.5003951 L175.448309,11.5003951 C174.591198,11.5003951 174.01979,12.0816543 174.01979,12.9502593 L174.01979,39.6274321 C174.01979,40.497679 174.591198,41.0772963 175.448309,41.0772963 L178.878395,41.0772963 C179.737148,41.0772963 180.308556,40.497679 180.308556,39.6274321 L180.308556,21.9400741 C180.308556,19.0403457 182.310123,17.0108642 185.16716,17.0108642 L189.170296,17.0108642 C190.027407,17.0108642 190.600457,16.4312469 190.600457,15.561 L190.600457,12.372284 C190.600457,11.5003951 190.027407,10.9224198 189.170296,10.9224198 L186.311617,10.9224198 Z M148.861444,10.9224198 C142.858383,10.9224198 139.714,14.1111358 139.714,20.2012222 L139.714,32.3797531 C139.714,38.4681975 142.858383,41.6585556 148.861444,41.6585556 L157.151778,41.6585556 C163.156481,41.6585556 166.300864,38.4681975 166.300864,32.3797531 L166.300864,20.2012222 C166.300864,14.1111358 163.156481,10.9224198 157.151778,10.9224198 L148.861444,10.9224198 Z M146.002765,32.0874815 L146.002765,20.4902099 C146.002765,18.1700988 147.432926,16.7202346 149.718556,16.7202346 L156.294667,16.7202346 C158.580296,16.7202346 160.012099,18.1700988 160.012099,20.4902099 L160.012099,32.0874815 C160.012099,34.4075926 158.580296,35.8574568 156.294667,35.8574568 L149.718556,35.8574568 C147.432926,35.8574568 146.002765,34.4075926 146.002765,32.0874815 Z M115.985815,10.9224198 C109.982753,10.9224198 106.83837,14.1111358 106.83837,20.2012222 L106.83837,32.3797531 C106.83837,38.4681975 109.982753,41.6585556 115.985815,41.6585556 L123.704741,41.6585556 C129.707802,41.6585556 132.852185,38.4681975 132.852185,32.3797531 L132.852185,31.2188765 C132.852185,30.3486296 132.280778,29.7690123 131.423667,29.7690123 L127.991938,29.7690123 C127.134827,29.7690123 126.56342,30.3486296 126.56342,31.2188765 L126.56342,32.0874815 C126.56342,34.4075926 125.134901,35.8574568 122.84763,35.8574568 L116.844568,35.8574568 C114.555654,35.8574568 113.127136,34.4075926 113.127136,32.0874815 L113.127136,20.4902099 C113.127136,18.1700988 114.555654,16.7202346 116.844568,16.7202346 L122.84763,16.7202346 C125.134901,16.7202346 126.56342,18.1700988 126.56342,20.4902099 L126.56342,21.3604568 C126.56342,22.2290617 127.134827,22.810321 127.991938,22.810321 L131.423667,22.810321 C132.280778,22.810321 132.852185,22.2290617 132.852185,21.3604568 L132.852185,20.2012222 C132.852185,14.1111358 129.707802,10.9224198 123.704741,10.9224198 L115.985815,10.9224198 Z M85.3974568,10.9224198 C81.1102593,10.9224198 79.6800988,14.4001235 79.6800988,14.4001235 L79.3943951,14.4001235 L79.3943951,12.9502593 C79.3943951,12.0816543 78.8229877,11.5003951 77.9658765,11.5003951 L74.5341481,11.5003951 C73.677037,11.5003951 73.1056296,12.0816543 73.1056296,12.9502593 L73.1056296,39.6274321 C73.1056296,40.497679 73.677037,41.0772963 74.5341481,41.0772963 L77.9658765,41.0772963 C78.8229877,41.0772963 79.3943951,40.497679 79.3943951,39.6274321 L79.3943951,21.6510864 C79.3943951,18.751358 81.394321,16.7202346 84.253,16.7202346 L89.1132469,16.7202346 C91.4005185,16.7202346 92.830679,18.1700988 92.830679,20.4902099 L92.830679,39.6274321 C92.830679,40.497679 93.4020864,41.0772963 94.2591975,41.0772963 L97.6909259,41.0772963 C98.548037,41.0772963 99.1194444,40.497679 99.1194444,39.6274321 L99.1194444,20.2012222 C99.1194444,14.1111358 95.9750617,10.9224198 89.970358,10.9224198 L85.3974568,10.9224198 Z M50.805963,10.9224198 C44.8029012,10.9224198 41.6585185,14.1111358 41.6585185,19.9105926 C41.6585185,20.7808395 42.2299259,21.3604568 43.088679,21.3604568 L46.5187654,21.3604568 C47.3758765,21.3604568 47.947284,20.7808395 47.947284,19.9105926 C47.947284,17.8811111 49.0917407,16.7202346 51.0916667,16.7202346 L55.0948025,16.7202346 C57.3804321,16.7202346 58.8105926,18.1700988 58.8105926,20.4902099 L58.8105926,23.3899383 L48.5186914,23.3899383 C42.8013333,23.3899383 39.9442963,26.2896667 39.9442963,32.0874815 L39.9442963,32.9577284 C39.9442963,38.7571852 42.8013333,41.6585556 48.5186914,41.6585556 L52.8075309,41.6585556 C57.0963704,41.6585556 58.5248889,38.1775679 58.5248889,38.1775679 L58.8105926,38.1775679 L58.8105926,39.6274321 C58.8105926,40.497679 59.382,41.0772963 60.2407531,41.0772963 L63.6708395,41.0772963 C64.5279506,41.0772963 65.099358,40.497679 65.099358,39.6274321 L65.099358,20.2012222 C65.099358,14.1111358 61.9549753,10.9224198 55.9519136,10.9224198 L50.805963,10.9224198 Z M46.2330617,32.6687407 L46.2330617,32.0874815 C46.2330617,30.059642 47.3758765,28.8987654 49.3774444,28.8987654 L58.8105926,28.8987654 L58.8105926,30.9298889 C58.8105926,33.8279753 56.8090247,35.8574568 53.9519877,35.8574568 L49.3774444,35.8574568 C47.3758765,35.8574568 46.2330617,34.6982222 46.2330617,32.6687407 Z" id="path-1"></path>
    </defs>
    <g id="Menu-plus-Events" stroke="none" stroke-width="1" fill="none" fill-rule="evenodd" transform="translate(-809.000000, -16010.000000)">
        <g id="Bancor" transform="translate(809.000000, 16010.000000)">
            <polygon id="Fill-1" fill="#FFFFFF" points="3.73332222 9.24182099 18.9692111 18.1692407 34.4924457 9.24182099 18.9692111 0.312759259"></polygon>
            <polygon id="Fill-2" fill="#FFFFFF" points="22.1597333 47.9788099 22.1597333 65.8352914 42.8568321 54.0278469 42.8568321 36.1697235"></polygon>
            <polygon id="Fill-3" fill="#FFFFFF" points="22.1597333 23.7861099 22.1597333 41.6425914 37.6829679 32.7151716 37.6829679 14.8570481"></polygon>
            <polygon id="Fill-4" fill="#FFFFFF" points="0.313744444 32.7148432 15.836979 41.642263 15.836979 23.7857815 0.313744444 14.8567198"></polygon>
            <polygon id="Fill-5" fill="#FFFFFF" points="0.313744444 56.9075432 15.836979 65.834963 15.836979 47.9784815 0.313744444 39.0494198"></polygon>
            <g id="Group-8" transform="translate(72.246914, 12.963358)">
                <mask id="mask-2" fill="white">
                    <use xlink:href="#path-1"></use>
                </mask>
                <g id="Clip-7"></g>
                <polygon id="Fill-6" fill="#FFFFFF" mask="url(#mask-2)" points="-1.1067284 42.9704938 191.912395 42.9704938 191.912395 -0.830839506 -1.1067284 -0.830839506"></polygon>
            </g>
        </g>
    </g>
</svg>