<?xml version="1.0" encoding="UTF-8"?>
<svg width="200px" height="88px" viewBox="0 0 200 88" version="1.1" xmlns="http://www.w3.org/2000/svg" xmlns:xlink="http://www.w3.org/1999/xlink">
    <g id="Menu-plus-Events" stroke="none" stroke-width="1" fill="none" fill-rule="evenodd" transform="translate(-221.000000, -15999.000000)">
        <g id="Wings" transform="translate(221.000000, 15999.000000)" fill="#FFFFFF">
            <polygon id="Fill-1" points="101.449162 55.3477253 101.906697 58.4887844 102.610626 55.6550166 107.467619 38.9937107 110.21289 38.9937107 114.964247 55.6550166 115.632986 58.5570573 116.160901 55.3477253 119.997255 39.0278471 123.27044 39.0278471 117.287174 62.8930818 114.330763 62.8930818 109.262566 45.4807109 108.875411 43.6711629 108.488257 45.4807109 103.24411 62.8930818 100.287699 62.8930818 94.3396226 39.0278471 97.5776179 39.0278471"></polygon>
            <polygon id="Fill-2" points="127.044025 62.8930818 129.559748 62.8930818 129.559748 38.9937107 127.044025 38.9937107"></polygon>
            <polygon id="Fill-3" points="155.974843 62.8930818 152.713295 62.8930818 140.368466 44.4642415 140.368466 62.8930818 137.106918 62.8930818 137.106918 38.9937107 140.368466 38.9937107 152.74836 57.4909215 152.74836 38.9937107 155.974843 38.9937107"></polygon>
            <g id="Group-14">
                <path d="M178.616502,60.8297213 C177.764092,62.0363734 176.592013,62.923604 175.100264,63.526963 C173.608581,64.130256 171.832673,64.4141936 169.843762,64.4141936 C167.819274,64.4141936 166.007855,63.9528363 164.445083,62.9945719 C162.88231,62.0363734 161.674785,60.6877856 160.786799,58.9487424 C159.934389,57.2097652 159.472673,55.1868504 159.472673,52.8800641 L159.472673,50.7151476 C159.472673,46.9887395 160.360594,44.0785942 162.10099,42.0201955 C163.84132,39.9617968 166.292013,38.9325645 169.453069,38.9325645 C172.045809,38.9325645 174.14132,39.6068914 175.704092,40.9199953 C177.266865,42.2330992 178.26132,44.1140782 178.616502,46.5628662 L175.348911,46.5628662 C174.745083,43.2623315 172.791683,41.6298061 169.488515,41.6298061 C167.286469,41.6298061 165.617162,42.4105849 164.516106,43.9366584 C163.379538,45.462666 162.811287,47.6985504 162.811287,50.6441797 L162.811287,52.6670944 C162.811287,55.4707879 163.450627,57.6711224 164.729241,59.3036478 C166.007855,60.9361732 167.712673,61.7524359 169.914785,61.7524359 C171.157888,61.7524359 172.223366,61.6105001 173.146865,61.3620465 C174.070297,61.0781749 174.816172,60.6167517 175.419934,59.9779747 L175.419934,54.4060717 L169.666139,54.4060717 L169.666139,51.7443799 L178.687525,51.7443799 L178.616502,60.8297213 Z" id="Fill-4"></path>
                <path d="M190.834442,53.0219933 C188.028568,52.2057306 185.968568,51.2119822 184.689954,50.04088 C183.41134,48.8697119 182.772,47.4146063 182.772,45.675629 C182.772,43.7236822 183.553386,42.0911568 185.116158,40.8135369 C186.678865,39.5359169 188.703353,38.8970739 191.225135,38.8970739 C192.929954,38.8970739 194.457215,39.2164954 195.77134,39.8908223 C197.120977,40.5650833 198.15101,41.4523798 198.861307,42.6235479 C199.607182,43.7946501 199.962363,45.0367861 199.962363,46.4209238 L196.659261,46.4209238 C196.659261,44.9303343 196.197545,43.7236822 195.238535,42.8719356 C194.279591,42.0201889 192.929954,41.5943156 191.189558,41.5943156 C189.59134,41.5943156 188.31266,41.949221 187.424739,42.6590319 C186.536818,43.3687768 186.075102,44.3625251 186.075102,45.6046612 C186.075102,46.6338275 186.501307,47.4855742 187.353716,48.1599011 C188.206125,48.8697119 189.662363,49.5084889 191.722363,50.076364 C193.782363,50.6441731 195.416158,51.283016 196.55266,51.9927609 C197.724739,52.7025718 198.577149,53.5188345 199.145465,54.441549 C199.713716,55.3643295 199.997875,56.4644638 199.997875,57.7420837 C199.997875,59.7649985 199.216488,61.3620399 197.653716,62.568692 C196.090944,63.775344 193.995432,64.378703 191.367182,64.378703 C189.662363,64.378703 188.064079,64.0592816 186.607842,63.3849547 C185.116092,62.7461777 183.979525,61.8234631 183.198205,60.687779 C182.381307,59.5520948 181.990614,58.2744748 181.990614,56.8193692 L185.293716,56.8193692 C185.293716,58.3099588 185.861967,59.5166108 186.963023,60.3683575 C188.064079,61.2201041 189.555828,61.6814614 191.402693,61.6814614 C193.143089,61.6814614 194.457215,61.326556 195.380647,60.6168111 C196.304079,59.9070002 196.765861,58.9488017 196.765861,57.7420837 C196.765861,56.5354976 196.339591,55.5772332 195.487248,54.9384562 C194.634838,54.2996132 193.072066,53.6608362 190.834442,53.0219933" id="Fill-6"></path>
                <polygon id="Fill-8" points="6.49966337 16.7870134 54.3414455 19.1293496 65.4939208 41.9137371 48.7297624 57.4227282 41.6972871 28.3566269"></polygon>
                <polygon id="Fill-10" points="11.2945017 88.0503145 90.4270429 13.6638918 97.4239406 32.4734836 88.4735776 29.3503686 88.4735776 48.3373802"></polygon>
                <polygon id="Fill-12" points="0 0.00039573175 58.710099 3.58486797 81.4411881 51.9572704 57.7156436 64.1657268 44.8228383 14.6576402"></polygon>
            </g>
        </g>
    </g>
</svg>