<?xml version="1.0" encoding="UTF-8"?>
<svg viewBox="0 0 300 130" version="1.1" xmlns="http://www.w3.org/2000/svg" xmlns:xlink="http://www.w3.org/1999/xlink">  
    <defs>
        <polygon id="path-1" points="0 0.127112462 30.230152 0.127112462 30.230152 38.2745289 0 38.2745289"></polygon>
        <polygon id="path-3" points="0.0863434859 0.151471627 34.1288754 0.151471627 34.1288754 39.2097264 0.0863434859 39.2097264"></polygon>
        <polygon id="path-5" points="0.24775076 0.426291793 12.4577508 0.426291793 12.4577508 16.8872862 0.24775076 16.8872862"></polygon>
    </defs>
    <g id="Custom-Preset-3" stroke="none" stroke-width="1" fill="none" fill-rule="evenodd" transform="translate(-62.000000, -526.000000)">
        <g id="HitBTC" transform="translate(62.000000, 526.000000)">
            <path d="M90.723921,105.793176 C93.3869909,105.793176 95.8034043,105.886185 98.2084195,105.759894 C99.7699696,105.677827 100.639878,104.648343 100.647629,103.047128 C100.65538,101.446368 99.8100912,100.407766 98.2330395,100.33117 C95.7714894,100.212173 93.2999088,100.299711 90.723921,100.299711 L90.723921,105.793176 Z M90.6815198,120.639529 C93.517386,120.639529 96.1526444,120.736185 98.7769605,120.607614 C100.690942,120.513693 101.912827,119.300471 101.931976,117.386489 C101.951581,115.461109 100.686839,114.218252 98.8266565,114.093784 C96.1435258,113.913693 93.4394225,114.047736 90.6815198,114.047736 L90.6815198,120.639529 Z M81.2023404,91.6867933 C87.9227052,91.6867933 94.4529483,91.3307143 100.920729,91.8130851 C105.169514,92.1299544 108.28304,94.7971277 109.376353,99.2665805 C110.434559,103.592416 109.127416,107.013693 105.550213,109.612933 C110.121793,112.627523 111.673769,115.974939 110.590942,121.143328 C109.619818,125.77965 106.402796,128.532994 101.915106,128.956094 C95.0871429,129.599407 88.1980851,129.593024 81.2023404,129.868404 L81.2023404,91.6867933 Z" id="Fill-1" fill="#CECECE"></path>
            <g id="Group-5" transform="translate(0.000000, 91.215046)">
                <mask id="mask-2" fill="white">
                    <use xlink:href="#path-1"></use>
                </mask>
                <g id="Clip-4"></g>
                <polygon id="Fill-3" fill="#FFFFFF" mask="url(#mask-2)" points="30.230152 38.2745289 20.9073556 38.2745289 20.9073556 23.8102432 9.36145897 23.8102432 9.36145897 38.2544681 -9.11854103e-05 38.2544681 -9.11854103e-05 0.127112462 9.26981763 0.127112462 9.26981763 14.4778723 20.7828875 14.4778723 20.7828875 0.180911854 30.230152 0.180911854"></polygon>
            </g>
            <g id="Group-8" transform="translate(149.088146, 90.759119)">
                <mask id="mask-4" fill="white">
                    <use xlink:href="#path-3"></use>
                </mask>
                <g id="Clip-7"></g>
                <path d="M34.1288754,6.63556231 C32.1077508,8.50075988 30.1618541,10.2971125 28.1051672,12.1955927 C25.0171733,9.69711246 21.4924012,8.36079027 17.7346505,9.30592705 C15.6031915,9.84209726 13.3518237,11.2044073 11.8914894,12.8489362 C8.42006079,16.7580547 8.90197568,23.5199088 12.3410334,27.2886018 C15.4855623,30.7340426 22.5196049,31.6677812 28.1106383,27.2402736 C30.0683891,29.0416413 32.0553191,30.8694529 34.031307,32.68769 C28.3737082,40.4329787 15.1595745,41.4424012 7.21550152,34.8419453 C-1.65455927,27.4718845 -2.34984802,14.1898176 5.70410334,5.95531915 C13.4785714,-1.99422492 26.5089666,-1.78677812 34.1288754,6.63556231" id="Fill-6" fill="#CECECE" mask="url(#mask-4)"></path>
            </g>
            <polygon id="Fill-9" fill="#CECECE" points="134.78535 100.135897 134.78535 129.483009 125.361793 129.483009 125.361793 100.313708 115.645988 100.313708 115.645988 91.3483587 144.304195 91.3483587 144.304195 100.135897"></polygon>
            <path d="M60.5368085,110.814848 C59.3824012,110.733237 58.4924316,110.669863 57.4305775,110.594635 L57.4305775,102.294939 C58.3501824,102.214696 59.2989666,102.131717 60.5007903,102.026854 L60.5007903,93.1435714 L69.1597568,93.1435714 L69.1597568,101.981717 C70.4445593,102.102538 71.4612766,102.197827 72.7223708,102.316368 C72.7223708,104.7419 72.783921,107.081261 72.6681155,109.41196 C72.646231,109.856489 71.9974468,110.45193 71.5068693,110.645699 C70.9137082,110.87959 70.1805775,110.760137 69.2988146,110.803906 L69.2988146,129.447675 L60.5368085,129.447675 L60.5368085,110.814848 Z" id="Fill-11" fill="#FFFFFF"></path>
            <path d="M41.0555015,104.064574 C43.9679635,106.765942 46.633769,106.727644 49.4637082,104.203632 L49.4637082,129.458799 L41.0555015,129.458799 L41.0555015,104.064574 Z" id="Fill-13" fill="#FFFFFF"></path>
            <path d="M45.3625988,100.378769 C42.3990729,100.393815 40.3706535,98.6033891 40.3815957,95.9818085 C40.3916261,93.4650912 42.3749088,91.6637234 45.1774924,91.6249696 C47.9946657,91.5857599 50.3107751,93.4924468 50.3850912,95.9115957 C50.4589514,98.3357599 48.1784043,100.364179 45.3625988,100.378769" id="Fill-15" fill="#FFFFFF"></path>
            <path d="M275.735471,28.8668845 C272.061155,33.2670365 268.387295,37.6676444 264.712979,42.0677964 C264.565714,42.3919605 264.422553,42.7184043 264.154468,42.9677964 C263.227568,43.6302584 262.260091,44.194696 261.159939,44.5489514 C254.510699,46.6877052 247.980456,49.1775228 241.332584,51.3231155 C239.662979,51.8615653 237.973769,52.2203799 236.222553,52.2705319 C234.466322,51.7348176 234.803252,50.6146049 235.442918,49.426003 C237.59535,45.4252432 239.993982,41.5681003 242.315562,37.6658207 C242.815714,36.8246353 243.404316,36.0267629 243.703404,34.6270669 C230.771945,40.5828419 218.523465,47.3674924 205.566474,52.6361854 C205.31845,52.6329939 205.090942,52.5687082 204.874833,52.4501672 C204.669666,52.3051824 204.515106,52.1187082 204.40614,51.8939362 C203.848085,50.8539666 204.196869,49.8117173 204.45766,48.7995593 C206.0069,42.7954559 207.609939,36.8045745 209.054316,30.7744833 C209.397173,29.3433283 210.219666,28.213997 210.990182,27.032234 C213.418906,26.426307 215.76921,27.251079 218.12772,27.5278267 C226.82772,28.5495593 235.521337,29.6478875 244.187599,30.9194681 C246.505988,31.2595897 247.930304,30.7790426 248.931064,28.6544225 C249.503252,27.4398328 250.384103,26.370228 251.125897,25.2354255 C252.342766,25.3298024 253.194894,25.963541 253.938511,26.9168845 C256.362219,30.0253951 258.78,33.138921 261.260243,36.2032067 C261.774073,36.8383131 262.216322,37.5737234 263.329696,38.0875532 C263.871793,35.8466717 263.955684,33.5925684 264.001277,31.4465198 C264.07696,27.8802584 264.719362,24.3463678 264.542462,20.7860334 C264.475897,19.4433283 265.413739,18.5829939 265.676353,17.4317781 C268.691854,16.5997112 271.819514,16.6603495 274.89383,16.3101976 C278.959331,15.8469757 283.043526,15.5529027 287.119514,15.1863374 C287.784711,16.23269 287.022857,16.8901368 286.443374,17.5722036 C283.320729,21.251535 280.366778,25.0945441 276.441246,28.0042705 C276.131672,28.2340578 275.85766,28.4866413 275.735471,28.8668845" id="Fill-17" fill="#C1C1C1"></path>
            <path d="M223.660122,127.739681 C223.58079,128.339225 223.416657,128.916884 222.753739,128.205182 C222.351155,127.772964 222.123647,127.175699 221.826383,126.647736 C212.678207,110.387553 203.53003,94.1278267 194.387325,77.8644529 C194.091429,77.3383131 193.853891,76.7793465 193.589453,76.2354255 C193.677447,76.1218997 193.765441,76.0083739 193.853891,75.8957599 C195.138237,75.0632371 196.596292,75.0226596 198.009666,75.2027508 C203.938997,75.9568541 209.928055,75.251079 215.858754,76.0060942 C217.202371,76.1770669 218.560122,76.2126292 219.87,76.6047264 C220.139909,76.7168845 220.362857,76.8896809 220.537477,77.1244833 C222.348419,80.8184043 221.778967,84.8579179 222.055714,88.7369453 C222.713161,97.9621733 223.141733,107.204726 223.857082,116.428131 C224.150243,120.20731 223.728055,123.969164 223.660122,127.739681" id="Fill-19" fill="#6F6F6F"></path>
            <path d="M210.99,27.0321884 C209.97921,32.8179027 208.275866,38.4362918 206.862036,44.1248936 C206.209605,46.7505775 205.279058,49.3133435 205.071155,52.0393313 C204.418267,53.4426748 203.056869,53.5156231 201.807629,53.703921 C191.84152,55.2052888 181.831641,56.3884195 171.850486,57.7831003 C168.656261,58.2294529 165.470243,58.6794529 162.233161,58.3876596 C161.470395,56.9583283 162.966748,56.9282371 163.52617,56.5758055 C174.360821,49.7542249 185.233769,42.9923708 196.106717,36.2309726 C201.059453,33.1507295 206.028602,30.097386 210.99,27.0321884" id="Fill-21" fill="#ADADAD"></path>
            <path d="M162.233343,58.3876596 C164.035167,57.1685106 166.161611,57.3937386 168.156748,57.1220061 C180.016778,55.5084802 191.885471,53.9619757 203.750061,52.3826444 C204.197781,52.3233739 204.630912,52.1569605 205.070881,52.0397872 C205.071337,52.0393313 205.04307,52.1086322 205.04307,52.1086322 C205.191702,52.285076 205.289726,52.4856839 205.330304,52.7131915 C205.109635,55.1136474 203.897325,57.1739818 202.886535,59.2566565 C200.708571,63.7420669 198.644134,68.2812766 196.446109,72.7571125 C195.770881,74.1321884 194.965714,75.3609119 193.748389,76.3001216 C193.748389,76.3001216 193.589271,76.2353799 193.589271,76.2353799 C183.137143,70.2859878 172.685471,64.3370517 162.233343,58.3876596" id="Fill-23" fill="#A0A0A0"></path>
            <path d="M261.101444,111.110152 C252.294301,101.919574 243.487158,92.7294529 234.679559,83.5388754 C232.885486,82.5166869 233.067401,80.7399392 233.188678,79.1400912 C233.833359,70.6379635 233.517857,62.0884195 234.482599,53.6095441 C234.792173,52.1355319 235.495669,52.0261094 236.456763,53.0861398 C237.546429,54.2879635 238.06117,55.8235258 238.698556,57.2669909 C245.737158,73.1948024 252.862842,89.0838602 259.901444,105.011216 C260.692477,106.800729 261.08503,108.706049 261.565122,110.587204 C261.472112,110.816535 261.317553,110.990699 261.101444,111.110152" id="Fill-25" fill="#636363"></path>
            <path d="M261.101444,111.110152 C261.116945,110.886748 261.132903,110.662888 261.148404,110.439483 C259.668009,97.8267173 260.783207,85.166079 260.463146,72.5314286 C260.374696,69.0490578 260.418009,65.5621277 260.471809,62.0779331 C260.489134,60.9558967 260.37424,59.7846201 261.158435,58.8153191 C261.50266,58.6229179 261.892477,58.1168389 262.081231,58.9548328 L262.555395,60.1990578 C268.212994,70.7077204 271.990805,82.0124316 276.439742,93.0326444 C276.77576,93.8647112 277.14734,94.7232219 276.759802,95.6565046 C276.740198,97.1934347 275.90266,98.2657751 274.923328,99.3859878 C271.303267,103.528997 267.562842,107.544802 263.407523,111.159848 C262.622872,111.869271 261.845517,112.261824 261.101444,111.110152" id="Fill-27" fill="#8C8C8C"></path>
            <path d="M223.660122,127.739681 C223.385653,125.643328 222.983526,123.554271 222.858602,121.448799 C222.194316,110.255334 221.621216,99.0563982 220.96924,87.8620213 C220.762249,84.3094377 220.410729,80.7655167 220.125319,77.2174924 C221.053587,76.5500152 222.026991,76.8299544 222.929271,77.1956079 C226.079726,78.4717477 229.200091,79.8226596 232.301307,81.2150608 C233.508602,81.7567021 234.20845,82.6516869 233.810426,84.0810182 C232.101155,91.5842097 230.417416,99.0933283 228.675775,106.589225 C227.035805,113.64652 225.334286,120.690137 223.660122,127.739681" id="Fill-29" fill="#505050"></path>
            <path d="M233.810426,84.0810182 C233.550091,82.9872492 232.692948,82.5769149 231.756474,82.1829939 C227.870152,80.5484954 224.000243,78.8752432 220.124863,77.2170365 C220.125319,77.2174924 220.065593,77.1399848 220.065593,77.1399848 C219.927447,76.957614 219.848571,76.7533587 219.837173,76.5244833 C220.573951,73.3316261 222.73003,70.8855775 224.328055,68.1605015 C227.088237,63.4530547 229.805562,58.7146049 232.832006,54.1667325 C233.375927,53.3492553 233.842796,52.3621733 235.130334,52.9959119 C235.175471,61.8459119 234.819848,70.682234 234.258146,79.5121733 C234.171976,80.8685562 234.094924,82.2436322 234.679878,83.538921 C234.389909,83.719924 234.099939,83.9004711 233.810426,84.0810182" id="Fill-31" fill="#6F6F6F"></path>
            <path d="M265.67617,17.4318693 C265.972979,17.9142401 265.912796,18.4267021 265.87997,18.9674316 C265.494255,25.3034498 265.135441,31.6412918 264.765228,37.9782219 C264.705046,39.0104407 264.860517,40.1019301 263.813708,41.202538 C259.551246,35.8385562 255.33848,30.5365805 251.125714,25.2355167 C255.975866,22.6344529 260.826018,20.0329331 265.67617,17.4318693" id="Fill-33" fill="#ADADAD"></path>
            <path d="M276.162492,95.8795897 C273.581489,88.3444833 270.369027,81.052386 267.576474,73.6002584 C265.902766,69.133541 263.788632,64.8305015 262.55535,60.1991945 C263.910821,62.1801976 265.266292,64.1616565 266.621307,66.1431155 C269.112948,67.477614 270.105502,70.0458511 271.466444,72.2498024 C274.091672,76.5013222 276.670851,80.783845 279.298815,85.0344529 C280.972979,87.7417477 281.919939,90.7750304 283.376626,93.5739666 C283.270851,94.8491945 282.214468,94.7096809 281.378754,94.971383 C279.969027,95.4131763 278.318571,95.0767021 277.140456,96.2671277 C276.63848,96.5821733 276.378146,96.2867325 276.162492,95.8795897" id="Fill-35" fill="#ADADAD"></path>
            <path d="M262.081094,58.9547416 C261.919696,58.7860486 261.758298,58.6168997 261.5969,58.4482067 C261.513921,58.3483587 261.431398,58.2485106 261.348419,58.1486626 C260.83231,57.1410638 260.972736,56.0878723 261.140517,55.0355927 C261.640669,51.8937994 262.227447,48.765228 262.671976,45.6165957 C262.851611,44.346383 263.315289,43.3515502 264.285957,42.5609726 C264.428663,42.396383 264.571368,42.2317933 264.713617,42.0676596 C267.422736,47.5643161 270.921064,52.6004863 273.967568,57.9006383 C275.086869,59.8469909 276.25541,61.7646201 277.077903,64.1623404 C272.078663,62.4266261 267.079878,60.6904559 262.081094,58.9547416" id="Fill-37" fill="#CECECE"></path>
            <path d="M283.376489,93.5741033 C279.404453,87.87 276.005973,81.807538 272.380441,75.8882371 C270.411292,72.6730395 268.169498,69.6101216 266.62117,66.1437082 C269.048526,66.1464438 271.477249,66.2043465 273.901869,66.1332219 C275.493055,66.0867173 276.38348,66.5855015 276.806581,68.2624012 C278.937128,76.7148328 281.175729,85.1394529 283.376489,93.5741033" id="Fill-39" fill="#C2C2C2"></path>
            <g id="Group-43" transform="translate(287.234043, 0.029635)">
                <mask id="mask-6" fill="white">
                    <use xlink:href="#path-5"></use>
                </mask>
                <g id="Clip-42"></g>
                <path d="M0.24775076,15.0373404 C4.12267477,10.1671277 7.99759878,5.29645897 11.8725228,0.426246201 C12.0672036,0.522446809 12.2627964,0.618647416 12.4579331,0.714848024 C11.3947112,5.96484802 11.2766261,11.3767021 9.45155015,16.4967629 C7.31917933,16.8861246 5.17951368,17.0739666 3.03346505,16.6308055 C1.94106383,16.4051216 0.723738602,16.3581611 0.24775076,15.0373404" id="Fill-41" fill="#C2C2C2" mask="url(#mask-6)"></path>
            </g>
            <path d="M287.481793,15.0669757 C290.520091,15.7417477 293.686049,15.608617 296.685593,16.5263982 C289.702158,20.639772 282.718723,24.7531459 275.735289,28.8669757 C276.395927,26.7615046 278.247903,25.5569453 279.541824,23.9425076 C281.95459,20.9324772 284.581641,18.0952432 287.119787,15.1859726 C287.238328,15.1394681 287.358693,15.0998024 287.481793,15.0669757" id="Fill-44" fill="#979797"></path>
            <path d="M276.162492,95.8795897 C276.48848,96.008617 276.814468,96.1381003 277.140456,96.2671277 C278.764924,97.2017781 280.516596,97.933541 282.160669,99.3610486 C275.816444,103.352234 269.612188,107.255881 263.407477,111.159529 C265.139544,107.992204 268.003222,105.762264 270.194863,102.974726 C272.105653,100.544635 274.566748,98.5759422 276.162492,95.8795897" id="Fill-46" fill="#6F6F6F"></path>
            <path d="M235.130289,52.996003 C231.673906,57.4225988 229.214179,62.4751824 226.215091,67.1890122 C224.189863,70.371383 222.532568,73.789924 220.102477,76.7124164 C218.723298,76.8377964 218.130593,75.8137842 217.542903,74.8786778 C213.491535,68.4314134 209.652173,61.8560334 205.698374,55.3494985 C205.165851,54.4727508 204.960228,53.5490426 205.042295,52.5432675 C205.042751,52.3982827 205.042751,52.2532979 205.043207,52.108769 C205.19503,52.0887082 205.34731,52.0681915 205.499134,52.0481307 C207.907796,51.2534498 210.376641,50.933845 212.914331,50.9484347 C219.181505,50.9849088 225.449134,50.9379483 231.716763,50.9753343 C232.989711,50.9826292 234.300502,50.8864286 235.433024,51.6692553 C243.273602,52.3718389 250.702933,54.9674316 258.31965,56.7063374 C259.547918,56.9867325 260.894726,57.1545137 261.603237,58.4580091 C261.603237,58.4580091 261.596854,58.4484347 261.596854,58.4484347 C261.590471,74.665304 261.586824,90.8821733 261.57269,107.099498 C261.571778,108.226094 261.739103,109.384149 261.148222,110.43962 C257.086824,101.380805 253.006733,92.3306535 248.969043,83.2618085 C244.592143,73.4311094 240.253997,63.5826292 235.899894,53.7418997 C235.743055,53.3881003 235.581657,53.0434195 235.130289,52.996003" id="Fill-48" fill="#7F7F7F"></path>
            <path d="M236.048161,52.0905775 C225.86503,52.0764438 215.682356,52.06231 205.499225,52.0481763 C213.046641,48.3104863 220.589498,44.5641337 228.142386,40.8382979 C233.316702,38.2860182 238.501505,35.7547112 243.692234,33.2361702 C244.419438,32.8837386 245.083267,32.2896657 246.250441,32.4583587 C245.809103,34.6144377 244.402112,36.2393617 243.405,38.0202128 C241.254392,41.8600304 238.92962,45.6022796 236.718374,49.4083587 C236.327644,50.0803951 235.542994,50.7077508 236.085091,51.6674772 C236.205456,51.8202128 236.193146,51.9610942 236.048161,52.0905775" id="Fill-50" fill="#ADADAD"></path>
            <path d="M236.048161,52.0905775 C236.056824,51.9492401 236.069134,51.8079027 236.084635,51.6674772 C243.872325,49.4981763 251.393754,46.5264438 259.082052,44.0580547 C260.799529,43.5068389 262.446337,42.6920973 264.286003,42.5607903 C263.391474,47.8600304 262.497401,53.1588146 261.603328,58.4580547 C256.707128,57.7855623 252.010167,56.2509119 247.230228,55.0846505 C243.483875,54.1705167 239.66959,53.481155 236.048161,52.0905775" id="Fill-52" fill="#8C8C8C"></path>
            <path d="M205.042204,52.5434043 C209.030653,58.0491793 212.125486,64.1079939 215.744179,69.8421884 C217.191748,72.1355015 218.649347,74.4224316 220.102386,76.7120973 C220.093723,76.8552584 220.081413,76.9979635 220.065912,77.1402128 C212.350714,76.9259271 204.630957,76.8484195 196.928982,76.2725836 C195.874878,76.1941641 194.808009,76.2862614 193.747523,76.2994833 C194.565456,73.0268389 196.460289,70.2292705 197.863632,67.2233435 C200.166976,62.2906687 202.231869,57.2312462 205.042204,52.5434043" id="Fill-54" fill="#8F8F8F"></path>
        </g>
    </g>
</svg>