<svg xmlns="http://www.w3.org/2000/svg" xmlns:xlink="http://www.w3.org/1999/xlink" width="60" height="19" viewBox="0 0 60 19">
    <defs>
        <path id="a" d="M0 .637h21.267V19H0z"/>
    </defs>
    <g fill="none" fill-rule="evenodd">
        <g transform="translate(0 -.637)">
            <mask id="b" fill="#fff">
                <use xlink:href="#a"/>
            </mask>
            <path fill="#FFF" d="M21.267 7.634c-.018 5.466-3.171 9.666-7.592 10.93-4.696 1.343-9.478-.478-12.085-4.602C-.863 10.082-.445 5 2.616 1.476 3.587.358 3.961.354 4.932 1.48c.333.386.761.758.919 1.215.526 1.522 1.507 1.743 2.953 1.4 1.625-.384 3.292-.17 4.914.168.577.12.849.01 1.082-.522.413-.944 1.082-1.724 1.745-2.505.677-.796 1.263-.72 1.937.032 1.839 2.05 2.755 4.442 2.785 6.365" mask="url(#b)"/>
        </g>
        <path fill="#FFF" d="M60 10.549c-.02 1.928-1.471 3.372-3.36 3.34-1.885-.03-3.28-1.511-3.25-3.45.029-1.924 1.5-3.395 3.36-3.358 1.868.037 3.269 1.533 3.25 3.468M30.949 10.48c.01-1.931 1.452-3.41 3.315-3.4 1.864.01 3.296 1.5 3.295 3.427-.002 1.926-1.44 3.39-3.322 3.383-1.888-.008-3.298-1.47-3.288-3.41M42.935 13.753c-.73-.024-.983-.642-1.29-1.1-.579-.866-.993-1.016-1.624-.019-.348.548-.802 1.618-1.667.874-.727-.624.234-1.155.593-1.627 1.006-1.323 1.004-1.285-.04-2.665-.38-.5-1.365-1.058-.569-1.739.86-.736 1.261.344 1.696.852.882 1.032.832 1.037 1.677-.017.381-.475.727-1.469 1.485-.913.88.646-.043 1.276-.474 1.71-.91.913-1.046 1.7 0 2.588.318.271.572.655.761 1.034.277.552.003.886-.548 1.022M27.349 11.083c-.001-.472-.01-.944.002-1.416.01-.523.08-1.04-.722-1.03a.607.607 0 0 1-.616-.603c-.018-.452.324-.67.67-.682.615-.022.626-.364.69-.839.177-1.302 1.413-2.084 2.698-1.76.388.097.825.23.773.73-.048.457-.404.637-.864.593-.194-.019-.395-.04-.586-.015-.428.058-.563.355-.588.753-.03.464.253.486.598.5.51.02 1.127.004 1.092.74-.03.641-.598.656-1.071.627-.57-.035-.636.264-.63.721.018 1.101.007 2.203.005 3.305-.001.505-.08.98-.724 1-.67.018-.725-.467-.726-.97l-.001-1.654M50.602 7.08c.515.045 1.104.1 1.61.445.395.27.642.631.353 1.093-.263.421-.633.34-1.022.112-.756-.439-1.526-.405-2.195.15-.668.551-.812 1.334-.635 2.146.284 1.305 1.395 1.79 2.862 1.25.443-.162.868-.299 1.088.23.21.503-.144.784-.562 1.005-1.221.643-2.892.47-3.864-.419-.99-.904-1.314-2.63-.76-4.04.489-1.248 1.644-1.995 3.125-1.973M46.045 10.457c0 .707.003 1.412 0 2.118-.003.52.016 1.095-.706 1.127-.747.033-.744-.537-.745-1.065-.002-1.45-.003-2.902.001-4.353.001-.487.02-1.009.681-1.016.714-.007.768.53.77 1.071v2.118M45.246 6.369c-.47.036-.69-.21-.687-.691.004-.487.281-.715.731-.716.498-.001.808.225.776.784-.03.52-.357.637-.82.623"/>
        <path fill="#3E8880" d="M10.578 13.602a11.412 11.412 0 0 0-2.753-3.787c-.302-.274-.322-.587-.297-.957.067-1.021.119-2.045-.158-3.047-.156-.565.105-.78.627-.867a15.894 15.894 0 0 1 5.28 0c.525.088.79.31.625.869a2.001 2.001 0 0 0-.05.23c-.376 2.234-1.505 4.856-3.274 7.559M11.42 16.28c.303-3.566 4.186-7.367 7.771-7.693.647-.059.626.18.573.644-.415 3.603-4.093 7.212-7.707 7.6-.532.055-.765.004-.637-.55M2.034 8.597c3.493.193 7.424 4.035 7.814 7.618.053.488.03.687-.59.629-3.598-.338-7.485-4.161-7.764-7.684-.034-.43-.01-.728.54-.563M15.18 8.469c-.3-2.445.536-4.383 1.832-6.19.34-.477.584-.538.95-.026.878 1.23 1.521 2.553 1.803 4.05.102.545-.038.82-.599.875-1.38.132-2.646.645-3.986 1.29M6.088 8.434C4.76 7.858 3.47 7.29 2.052 7.163c-.507-.046-.64-.305-.553-.798.27-1.542.932-2.9 1.844-4.156.33-.455.572-.408.88.022C5.546 4.06 6.414 6.02 6.089 8.434M56.687 12.507c-1.064-.004-1.86-.872-1.854-2.023.006-1.131.834-2.027 1.871-2.023 1.04.004 1.856.904 1.852 2.04-.004 1.158-.799 2.01-1.869 2.006zM34.242 8.46c1.034-.007 1.865.892 1.872 2.023.006 1.15-.791 2.02-1.854 2.024-1.07.005-1.865-.848-1.87-2.005-.003-1.138.809-2.033 1.852-2.041"/>
    </g>
</svg>
