<svg xmlns="http://www.w3.org/2000/svg" xmlns:xlink="http://www.w3.org/1999/xlink"  viewBox="0 0 71 10">
    <defs>
        <path id="a" d="M.211.257h43.134V10H.211z"/>
    </defs>
    <g fill="none" fill-rule="evenodd">
        <path fill="#FFF" d="M20.58 4.96a3.3 3.3 0 0 0-.197-1.153 2.75 2.75 0 0 0-.549-.918 2.522 2.522 0 0 0-.846-.603 2.641 2.641 0 0 0-1.09-.222 2.595 2.595 0 0 0-1.93.825 2.61 2.61 0 0 0-.549.918 3.405 3.405 0 0 0-.192 1.153c0 .428.067.824.199 1.186s.314.673.548.932a2.516 2.516 0 0 0 1.923.83c.397 0 .758-.073 1.084-.22.327-.148.609-.351.847-.61.238-.26.422-.57.555-.932.132-.362.198-.758.198-1.186zm2.42 0a5.35 5.35 0 0 1-.384 2.058 4.69 4.69 0 0 1-1.063 1.594 4.719 4.719 0 0 1-1.62 1.025 5.609 5.609 0 0 1-2.036.363 5.551 5.551 0 0 1-2.028-.363 4.729 4.729 0 0 1-1.613-1.025 4.69 4.69 0 0 1-1.064-1.594 5.35 5.35 0 0 1-.384-2.058c0-.76.128-1.446.384-2.058a4.508 4.508 0 0 1 1.064-1.562c.454-.428.991-.759 1.613-.991A5.746 5.746 0 0 1 17.897 0c.732 0 1.41.117 2.036.349a4.723 4.723 0 0 1 1.62.991c.453.43.808.95 1.063 1.562.256.612.384 1.298.384 2.058zM12.438 8.43a4.45 4.45 0 0 1-1.533 1.146c-.608.282-1.309.423-2.102.423a5.41 5.41 0 0 1-2.002-.363 4.693 4.693 0 0 1-1.593-1.025A4.754 4.754 0 0 1 4.15 7.024a5.272 5.272 0 0 1-.383-2.038c0-.759.13-1.448.39-2.064a4.59 4.59 0 0 1 1.077-1.575A4.764 4.764 0 0 1 6.847.35 5.616 5.616 0 0 1 8.843 0c.66 0 1.311.118 1.95.355s1.156.583 1.553 1.039l-1.533 1.555a1.903 1.903 0 0 0-.833-.657 2.727 2.727 0 0 0-1.058-.214c-.396 0-.76.074-1.09.22a2.56 2.56 0 0 0-.853.61 2.78 2.78 0 0 0-.555.92 3.28 3.28 0 0 0-.199 1.158c0 .43.067.823.199 1.18s.315.663.549.919c.233.254.513.453.839.596.326.143.683.214 1.07.214.45 0 .843-.09 1.177-.268.335-.178.604-.41.806-.697l1.573 1.501zM0 9.745h2.273V.255H0v9.49z"/>
        <g transform="translate(27)">
            <mask id="b" fill="#fff">
                <use xlink:href="#a"/>
            </mask>
            <path fill="#FFF" d="M41.216 9.761V6.367a3.16 3.16 0 0 0-.04-.503 1.17 1.17 0 0 0-.147-.421.822.822 0 0 0-.29-.289.902.902 0 0 0-.466-.107c-.37 0-.654.128-.851.383-.198.256-.297.573-.297.95V9.76h-2.117V.257h2.117v4.036h.026c.146-.252.378-.476.696-.673.32-.197.702-.295 1.15-.295.438 0 .806.075 1.103.226.296.15.538.346.722.584.185.239.319.514.4.824.082.31.123.62.123.93v3.872h-2.13zm-6.299-4.236a1.28 1.28 0 0 0-.49-.365 1.535 1.535 0 0 0-.633-.138c-.223 0-.426.043-.606.132a1.464 1.464 0 0 0-.465.351 1.72 1.72 0 0 0-.413 1.126c0 .218.035.423.103.616a1.45 1.45 0 0 0 1.407.98c.216 0 .428-.04.639-.119a1.23 1.23 0 0 0 .51-.345l1.174 1.395c-.267.251-.61.448-1.032.59a4.154 4.154 0 0 1-1.342.215c-.508 0-.982-.076-1.42-.227-.44-.15-.82-.37-1.143-.66a3.1 3.1 0 0 1-.76-1.05 3.365 3.365 0 0 1-.279-1.395c0-.511.093-.972.278-1.383a3.1 3.1 0 0 1 .761-1.05c.323-.289.704-.511 1.143-.666a4.192 4.192 0 0 1 2.755 0c.211.071.405.16.58.264.178.104.33.22.46.346l-1.227 1.383zM26.76 9.76v-3.42c0-.176-.015-.343-.045-.502-.03-.16-.08-.3-.148-.421a.763.763 0 0 0-.29-.29.944.944 0 0 0-.472-.106c-.19 0-.355.036-.497.106a.999.999 0 0 0-.355.296c-.094.126-.165.27-.212.434a1.812 1.812 0 0 0-.072.509V9.76h-2.13v-6.26h2.053v.867h.025a2.09 2.09 0 0 1 .304-.396c.125-.13.271-.24.439-.333.167-.092.35-.168.548-.226.198-.059.41-.088.633-.088.43 0 .796.075 1.097.226.3.15.544.346.729.584.185.239.318.514.4.824.082.31.123.62.123.93v3.872h-2.13zm-7.912 0v-.867h-.025a1.773 1.773 0 0 1-.304.402c-.125.126-.27.234-.439.327a2.723 2.723 0 0 1-.555.226 2.285 2.285 0 0 1-.638.088c-.43 0-.794-.075-1.09-.226a2.101 2.101 0 0 1-.724-.585 2.276 2.276 0 0 1-.4-.817 3.594 3.594 0 0 1-.123-.936V3.5h2.13v3.395c0 .176.013.343.039.503.025.159.075.302.149.427a.8.8 0 0 0 .29.295c.12.072.28.108.477.108.37 0 .652-.135.846-.403a1.57 1.57 0 0 0 .29-.942V3.5h2.117v6.261h-2.04zm-5.175-4.576a1.658 1.658 0 0 0-.278-.05 2.79 2.79 0 0 0-.265-.012c-.283 0-.522.05-.715.15a1.376 1.376 0 0 0-.716.83 1.512 1.512 0 0 0-.078.44V9.76H9.504v-6.26h2.04v.904h.025c.164-.317.396-.577.697-.779.301-.2.65-.301 1.046-.301.085 0 .17.004.251.012.082.008.148.021.2.038l-.09 1.81zM8.678 8.53c-.404.453-.904.81-1.497 1.075-.594.264-1.278.396-2.053.396a5.476 5.476 0 0 1-1.955-.34A4.618 4.618 0 0 1 1.618 8.7a4.451 4.451 0 0 1-1.033-1.49 4.774 4.774 0 0 1-.374-1.91c0-.713.127-1.359.38-1.936a4.303 4.303 0 0 1 1.053-1.478c.448-.406.972-.719 1.575-.937A5.685 5.685 0 0 1 5.167.622c.646 0 1.28.11 1.904.333.624.222 1.13.547 1.516.974L7.091 3.388a1.855 1.855 0 0 0-.814-.617 2.77 2.77 0 0 0-1.032-.2c-.387 0-.742.069-1.065.207A2.5 2.5 0 0 0 2.805 4.21c-.129.33-.193.694-.193 1.087 0 .402.064.771.193 1.107.13.335.308.622.536.86.228.24.501.426.82.56.318.134.667.201 1.045.201.439 0 .822-.083 1.148-.251.328-.167.59-.386.788-.654L8.678 8.53z" mask="url(#b)"/>
        </g>
    </g>
</svg>
