<svg xmlns="http://www.w3.org/2000/svg" xmlns:xlink="http://www.w3.org/1999/xlink"  viewBox="0 0 60 16">
    <defs>
        <path id="a" d="M.01 0h27.47v15.96H.01z"/>
        <path id="c" d="M0 15.96h60V0H0z"/>
    </defs>
    <g fill="none" fill-rule="evenodd">
        <g transform="translate(32.52)">
            <mask id="b" fill="#fff">
                <use xlink:href="#a"/>
            </mask>
            <path fill="#FFF" d="M13.75 14.887h11.22c1.08 0 1.439-.36 1.439-1.437V2.53c0-1.073-.366-1.438-1.441-1.438H2.588c-1.118 0-1.47.35-1.47 1.47v10.86c0 1.115.353 1.465 1.473 1.465h11.16zM1.32 15.96C.31 15.478 0 14.663.01 13.574.05 9.836.049 6.096.013 2.357 0 1.227.36.42 1.44 0h24.72l1.32 1.32v13.32a2.454 2.454 0 0 1-1.32 1.32H1.32z" mask="url(#b)"/>
        </g>
        <path fill="#FFF" d="M0 5.52c1.06-.032 1.058-.031 1.326.993.302 1.153.607 2.305.956 3.63l.973-3.25c.08-.267.187-.531.229-.805.07-.464.307-.6.771-.597.432.002.573.167.682.55.376 1.32.791 2.63 1.236 4.089.375-1.394.71-2.64 1.043-3.885.226-.84.225-.84 1.2-.66-.54 1.797-1.086 3.588-1.608 5.386-.118.404-.408.29-.669.312-.28.024-.472-.012-.57-.355-.354-1.247-.749-2.483-1.13-3.722-.052-.17-.11-.338-.209-.64l-1.097 3.583c-.059.19-.126.38-.164.575-.08.408-.27.579-.73.58-.475.001-.55-.255-.651-.598A488.49 488.49 0 0 0 .246 6.232C.184 6.03.083 5.837 0 5.64v-.12M19.74 7.876h3.463c-.055-1.061-.588-1.637-1.558-1.717-.953-.08-1.673.55-1.906 1.717m4.491.778h-4.563c.087.835.366 1.48 1.11 1.783 1.026.417 1.953.183 2.753-.607l.581.516c-.737.94-1.718 1.198-2.816 1.107-1.1-.09-1.94-.6-2.354-1.667-.314-.81-.329-1.645-.08-2.472.41-1.368 1.595-2.125 3.036-1.965 1.35.15 2.219 1.092 2.33 2.538.017.218.003.438.003.767M17.153 6.023l-.429.602c-.523-.177-.979-.386-1.457-.475-.316-.058-.704-.022-.987.12-.24.12-.503.44-.52.69-.015.2.281.53.51.619.555.213 1.156.303 1.73.47.55.16 1.047.414 1.273.993.295.754.009 1.58-.694 2.038-1.172.763-3.08.397-3.945-.786.15-.168.304-.343.383-.433.618.277 1.155.568 1.726.75.281.09.637.022.94-.052.41-.1.71-.356.743-.827.035-.496-.276-.73-.683-.855-.609-.187-1.238-.314-1.842-.517-.804-.27-1.145-.733-1.132-1.43.013-.705.415-1.222 1.207-1.455 1.115-.327 2.16-.161 3.177.548M25.902 5.542h.899v1.064c.678-1.043 1.553-1.474 2.826-1.15l-.135.795c-.14 0-.255.003-.37 0-1.281-.038-2.19.82-2.236 2.127-.017.478-.005.958-.005 1.437v1.42h-.979V5.542z"/>
        <mask id="d" fill="#fff">
            <use xlink:href="#c"/>
        </mask>
        <path fill="#FFF" d="M10.002 11.25h.895V5.563h-.895zM54.671 7.969c-.091-.426-.136-.87-.282-1.276-.567-1.582-2.775-2.031-3.945-.819-.985 1.019-.99 3.256.027 4.238a2.43 2.43 0 0 0 1.02.582c1.801.477 3.13-.695 3.18-2.725m1.356.027c.009 3.492-2.974 4.552-5.4 3.722-.844-.29-1.467-.87-1.876-1.67-1.137-2.23-.214-5.08 1.939-5.795 2.577-.857 5.359.436 5.337 3.743M46.413 9.668l.972.699c-.619 1.258-2.212 1.863-4.012 1.535-1.67-.305-2.788-1.57-2.941-3.327-.183-2.1.705-3.719 2.375-4.328 1.704-.621 3.498-.139 4.51 1.262l-.959.756c-.63-.93-1.518-1.203-2.57-1.022a2.083 2.083 0 0 0-.57.17c-1.148.572-1.44 1.6-1.398 2.763.038 1.085.41 2.008 1.507 2.444 1.048.418 2.158.134 2.944-.719.053-.057.084-.136.142-.233M37.273 11.752h1.331V4.216h-1.33z" mask="url(#d)"/>
    </g>
</svg>
