<svg xmlns="http://www.w3.org/2000/svg" xmlns:xlink="http://www.w3.org/1999/xlink" viewBox="0 0 70 14">
    <defs>
        <path id="a" d="M0 .132h12.805v12.685H0z"/>
        <path id="c" d="M.465.05H5.29v5.942H.465z"/>
    </defs>
    <g fill="none" fill-rule="evenodd">
        <g transform="translate(0 .361)">
            <mask id="b" fill="#fff">
                <use xlink:href="#a"/>
            </mask>
            <path fill="#FFF" d="M6.359 12.401c1.841 0 3.683-.01 5.524.01.37.003.453-.12.452-.464-.01-3.658-.01-7.317 0-10.975 0-.327-.078-.451-.432-.45-3.695.011-7.391.01-11.086 0-.342 0-.442.11-.44.447.01 3.658.01 7.317 0 10.975-.001.348.095.469.457.465 1.841-.016 3.683-.007 5.525-.008M6.367.132h5.894c.448 0 .541.085.541.534.003 3.88.003 7.76.002 11.64 0 .407-.115.51-.531.51l-11.787.001c-.478 0-.485-.008-.485-.502L0 .601C0 .136.003.132.474.132h5.893" mask="url(#b)"/>
        </g>
        <path fill="#FFF" d="M22.064 6.754c.068.335.123.583.168.832.126.7.641 1.204 1.37 1.278.45.046 1.27-.207 1.49-.852.071-.206.127-.417.2-.622.363-1.011-.169-2.151-1.173-2.508-.633-.224-1.434.079-1.697.692-.169.394-.253.824-.358 1.18m1.697-3.004c1.753-.116 2.797 1.414 2.898 2.779.159 2.154-1.388 3.298-2.627 3.408-1.922.171-3.357-1.376-3.214-3.372.101-1.392 1.143-2.946 2.943-2.815M48.184 6.836l.117-.027c-.13-.422-.202-.871-.4-1.258-.27-.529-.78-.796-1.366-.748-.607.048-1.104.378-1.33.957-.267.69-.286 1.43-.005 2.112.404.982 1.628 1.392 2.488.513.423-.432.587-.947.496-1.549m-4.428.016c-.062-.834.168-1.577.712-2.214a2.5 2.5 0 0 1 1.573-.868c.796-.109 1.6-.05 2.286.454.663.489 1.01 1.16 1.152 1.97a3.685 3.685 0 0 1-.112 1.768c-.359 1.146-1.311 1.929-2.628 1.967-.527.014-1.02-.065-1.483-.313-.955-.512-1.456-1.307-1.48-2.396-.003-.123-.013-.245-.02-.368M62.224 10.015c-.448-.124-.881-.223-1.3-.363-.736-.246-1.03-.858-1.192-1.548-.017-.074.131-.258.22-.27.265-.038.539-.027.807-.006.086.006.218.09.238.164.178.645.622.918 1.256.898.286-.009.592-.042.85-.154.439-.19.496-.774.08-1.001-.417-.23-.896-.35-1.356-.491-.511-.158-1.012-.293-1.442-.663-.662-.571-.625-1.932.368-2.48.963-.534 1.977-.525 2.94.005.407.224.728.586.788 1.096.031.26-.029.436-.35.406a3.961 3.961 0 0 0-.55-.001c-.21.01-.322-.04-.375-.286-.131-.603-1.141-.693-1.643-.439-.165.084-.283.344-.33.546-.025.112.112.347.227.391.487.185 1 .3 1.49.479.407.148.832.296 1.185.538 1.03.703.654 2.428-.488 2.82-.453.154-.931.237-1.423.359M43.113 5.826c-.471 0-.824.012-1.175-.01-.082-.005-.194-.11-.23-.196-.43-1.003-1.76-1.044-2.43-.248-.53.632-.6 2.501.158 3.07.395.297.8.517 1.313.383.58-.152.925-.523 1.031-1.114.002-.012 0-.025.002-.037.046-.193.73-.334 1.12-.208.281.092.147.309.109.492-.163.77-.593 1.34-1.296 1.684-.975.476-1.941.41-2.853-.166-.851-.537-1.243-1.347-1.262-2.34-.01-.55-.006-1.087.192-1.626.363-.988 1.432-1.76 2.462-1.774.93-.013 1.733.192 2.296.96.228.31.353.697.563 1.13M28.87 5.79c0 .17.011.343-.002.513-.02.264.073.382.356.361.292-.02.588.018.879-.009.33-.03.662-.11.817-.457.314-.704-.06-1.277-.824-1.28-.122-.002-.244-.001-.367-.001-.86 0-.86 0-.858.873m.353-1.97c.595.05 1.2.048 1.782.162.733.145 1.202.868 1.245 1.62.056.945-.324 1.622-1.198 1.914-.516.172-1.1.16-1.655.19-.523.03-.525.007-.526.516-.001.417-.008.834.005 1.251.006.233-.071.324-.316.33-.98.024-.98.032-.98-.944.001-1.532.009-3.065-.005-4.598-.003-.304.086-.415.394-.4.416.023.834.006 1.25.006l.004-.046"/>
        <g transform="translate(64.577 3.812)">
            <mask id="d" fill="#fff">
                <use xlink:href="#c"/>
            </mask>
            <path fill="#FFF" d="M2.228 3.53c0-.675-.014-1.351.006-2.025.01-.315-.102-.41-.405-.388-.342.024-.687 0-1.03.01-.217.006-.304-.078-.317-.299C.436.055.43.056 1.202.056c1.216 0 2.432.009 3.647-.007.326-.004.454.074.44.43-.026.716.035.637-.632.646-.363.005-.84-.09-1.051.1-.184.166-.078.667-.08 1.019-.006 1.13-.01 2.26.004 3.389.003.274-.086.359-.359.359-.942 0-.942.01-.942-.915V3.53" mask="url(#d)"/>
        </g>
        <path fill="#FFF" d="M18.608 7.41c0 .674-.009 1.349.004 2.023.005.257-.049.372-.342.37-.935-.004-.935.008-.935-.923 0-1.178-.01-2.356.006-3.533.004-.318-.084-.446-.417-.419-.328.028-.662-.005-.993.01-.23.01-.342-.055-.338-.304.014-.896-.084-.761.724-.765 1.202-.006 2.404.007 3.607-.008.319-.004.461.06.447.423-.03.743.053.645-.654.65-.258 0-.516.01-.773-.005-.26-.015-.344.094-.34.345.011.712.004 1.423.004 2.135M52.738 6.818c0-.859.01-1.717-.006-2.575-.005-.29.09-.382.379-.382.889.002.89-.008.89.892v3.494c-.001.478-.001.478.46.478.687 0 1.374.012 2.06-.006.3-.007.412.082.402.395-.027.806.083.677-.687.681-1.054.006-2.108-.006-3.163.006-.257.003-.343-.079-.34-.336.012-.882.004-1.765.005-2.647M57.63 6.818c0-.86.01-1.719-.006-2.577-.006-.295.096-.378.381-.38.984-.003.984-.012.985.985 0 1.51-.007 3.019.006 4.528.003.308-.063.435-.403.43-.963-.015-.963 0-.963-.961V6.818M35.387 6.857c0-.883.007-1.765-.005-2.648-.003-.251.074-.35.335-.345 1.175.023.937-.134.947.907.014 1.532-.005 3.065.01 4.597.005.34-.091.446-.436.436-.85-.024-.851-.008-.851-.85V6.857M6.295 4.985c-1.056 0-2.111.013-3.167-.02-.11-.002-.22-.267-.33-.412.107-.221.207-.604.323-.634.34-.088.686-.038 1.03-.038h5.155c.074 0 .163-.061.219.012.135.179.256.421.382.638-.124.152-.247.43-.371.434-1.08.035-2.161.02-3.241.02M6.356 9.343c1.042 0 2.084-.015 3.126.016.144.005.411.257.408.363-.015.618-.223.707-.452.705-1.066-.012-2.133-.005-3.2-.005l-2.906-.001c-.098 0-.216.062-.288-.046-.1-.151-.166-.435-.246-.661.095-.124.189-.353.285-.355.955-.027 1.912-.016 2.868-.016h.405M6.321 7.57c-.992 0-1.985.001-2.977-.002-.122 0-.248.014-.366-.052-.067-.037-.177-.263-.168-.332.024-.187.089-.418.16-.477.112-.093.242-.072.364-.072 2.034-.003 4.068-.003 6.102-.003.025 0 .054-.021.073.002.135.164.268.337.402.507-.13.143-.26.407-.392.41-1.065.034-2.131.019-3.198.019"/>
    </g>
</svg>
