<svg xmlns="http://www.w3.org/2000/svg"  viewBox="0 0 52 7">
    <g fill="none" fill-rule="evenodd">
        <path fill="#FFF" d="M3.64 0L2.473 2.218l-2.474.403 1.748 1.795-.379 2.476 2.247-1.107 2.239 1.127-.36-2.48 1.764-1.78-2.47-.424zM14.666 0l-1.168 2.218-2.473.403 1.748 1.795-.38 2.476 2.247-1.107 2.236 1.127-.357-2.48 1.764-1.78-2.47-.424zM25.69 0l-1.168 2.218-2.473.403 1.748 1.795-.38 2.476 2.248-1.107 2.238 1.127-.36-2.48 1.764-1.78-2.47-.424zM36.713 0l-1.165 2.218-2.474.403 1.746 1.795-.38 2.476 2.248-1.107 2.238 1.127-.36-2.48 1.764-1.78-2.47-.424z"/>
        <path fill="#828282" d="M47.736 0L46.57 2.218l-2.473.403 1.749 1.795-.382 2.476 2.247-1.107 2.238 1.127-.357-2.48 1.761-1.78-2.469-.424z"/>
        <path fill="#FFF" d="M46.57 2.218l-2.473.403 1.75 1.796-.383 2.476 2.247-1.107h.004V.042z"/>
    </g>
</svg>
