<svg xmlns="http://www.w3.org/2000/svg"  viewBox="0 0 61 12">
    <g fill="#FFF" fill-rule="evenodd">
        <path d="M0 12h2V3H0zM7.723 11.928a4.772 4.772 0 0 1-1.755-.334 4.473 4.473 0 0 1-1.53-1.01 4.681 4.681 0 0 1-1.004-1.507 4.706 4.706 0 0 1-.353-1.769c0-.631.127-1.227.353-1.786A4.422 4.422 0 0 1 4.44 4.033a4.458 4.458 0 0 1 1.547-1.01 4.772 4.772 0 0 1 1.755-.334 4.611 4.611 0 0 1 3.267 1.344L9.497 5.54a2.322 2.322 0 0 0-.842-.541 2.522 2.522 0 0 0-.95-.172c-.317 0-.633.054-.95.172-.317.126-.579.297-.823.54a2.704 2.704 0 0 0-.543.822c-.127.298-.19.631-.19.965 0 .334.072.65.19.948.126.297.316.577.543.803.244.243.524.424.823.541.317.126.615.171.95.171.317 0 .634-.054.95-.171.317-.126.597-.298.842-.541l1.51 1.506a4.56 4.56 0 0 1-1.528 1.011 4.703 4.703 0 0 1-1.756.334M31.475 3.392c.914 0 1.629.262 2.208.803.561.542.842 1.345.842 2.446v4.195h-.752V6.568c-.036-.803-.244-1.416-.633-1.858-.389-.424-1.004-.632-1.828-.632-.47 0-.914.108-1.312.316-.407.208-.787.56-1.158 1.065.109.333.154.73.154 1.209v4.16h-.733V6.631c0-1.679-.823-2.518-2.47-2.518-.968 0-1.72.406-2.298 1.191v5.531h-.751V3.672h.615l.145.731c.687-.668 1.493-.983 2.388-.983 1.213 0 2.109.487 2.688 1.452.425-.487.841-.857 1.267-1.1.416-.262.968-.38 1.628-.38M41.637 9.492V8.337c-.172-.352-.525-.686-1.032-.984a3.7 3.7 0 0 0-1.665-.505c-.317-.018-.615 0-.914.072a2.394 2.394 0 0 0-.805.298 1.58 1.58 0 0 0-.58.614c-.144.261-.19.577-.171.929.036.541.262.965.715 1.245.452.28 1.013.424 1.719.433.507 0 1.004-.072 1.475-.243.47-.163.887-.407 1.258-.704M35.7 8.779a2.27 2.27 0 0 1 .226-1.191c.172-.352.425-.614.715-.821a3.226 3.226 0 0 1 1.031-.451c.38-.1.788-.145 1.213-.127.615.019 1.158.145 1.61.388.453.244.842.506 1.122.84v-.298c0-1.01-.208-1.769-.615-2.256-.407-.487-1.031-.713-1.891-.713-.507 0-1.004.109-1.457.298-.47.19-.841.47-1.14.821l-.407-.631a3.598 3.598 0 0 1 1.348-.894 4.49 4.49 0 0 1 1.647-.315c1.068 0 1.873.297 2.434.875.543.577.823 1.488.823 2.725v3.852h-.615l-.145-.73c-.28.243-.67.469-1.194.667a5.03 5.03 0 0 1-1.53.316c-.95.018-1.718-.154-2.28-.56-.524-.415-.859-1.01-.895-1.795M47.337 3.438l-.154.73c-.072 0-.172-.018-.317-.018-1.122 0-1.945.388-2.506 1.155v5.531h-.751V3.672h.597l.154.731c.688-.668 1.565-.983 2.597-.983.081 0 .208 0 .38.018M54.123 3.672l-3.529 3.573 3.665 3.582h-1.05l-3.592-3.582 3.475-3.573h1.031zm-5.664 7.164h.751V.027h-.751v10.809zM60.584 4.141l-.371.632c-.226-.19-.543-.37-.986-.523a3.964 3.964 0 0 0-1.312-.244c-.507 0-.914.108-1.213.316-.299.207-.47.505-.489.875-.036.433.154.767.525.983.335.19.787.334 1.367.452.75.153 1.348.315 1.755.487.452.19.751.469.932.875.154.388.19.821.109 1.308-.127.614-.507 1.065-1.122 1.345-.453.207-1.014.315-1.683.315a4.83 4.83 0 0 1-1.684-.315c-.56-.208-1.004-.452-1.33-.731l.371-.632.073.072c.226.226.597.433 1.086.632.506.19 1.004.28 1.493.28.579.018 1.05-.073 1.402-.262.37-.19.597-.47.67-.84.126-.63-.09-1.064-.67-1.325-.389-.172-.896-.316-1.53-.433-.768-.154-1.311-.352-1.646-.524-.67-.388-.968-.93-.914-1.624.054-.65.335-1.155.878-1.507.407-.28.95-.406 1.592-.406 1.059-.045 1.937.235 2.697.794M17.93 7.85l.407 2.364v.09a.26.26 0 0 1-.054.171.165.165 0 0 1-.145.072.408.408 0 0 1-.19-.054l-2.126-1.1-2.127 1.118a.474.474 0 0 1-.19.054c-.072 0-.127-.018-.154-.072a.296.296 0 0 1-.054-.171c0-.018 0-.054.018-.09l.407-2.382-1.719-1.679c-.09-.09-.127-.153-.127-.225 0-.126.09-.19.263-.208l2.389-.352 1.067-2.147c.055-.126.145-.19.227-.19.09 0 .171.073.226.19l1.067 2.147 2.39.352c.171.036.262.109.262.208 0 .072-.037.144-.127.225L17.93 7.85zm-2.19-5.252c-2.56 0-4.65 2.085-4.65 4.638s2.09 4.638 4.65 4.638c2.56 0 4.651-2.085 4.651-4.638s-2.09-4.638-4.65-4.638z"/>
    </g>
</svg>
