<svg xmlns="http://www.w3.org/2000/svg" xmlns:xlink="http://www.w3.org/1999/xlink" viewBox="0 0 60 22">
    <defs>
        <path id="a" d="M0 .332h59.99V22H0z"/>
    </defs>
    <g fill="none" fill-rule="evenodd">
        <g transform="translate(0 -.332)">
            <mask id="b" fill="#fff">
                <use xlink:href="#a"/>
            </mask>
            <path fill="#2E395D" d="M59.99 4.697v1.33c-.396.938-1.256 1.476-1.902 2.196a5.064 5.064 0 0 1-.645.623c-.194.152-.405.258-.665.185-.734-.623-1.627-.726-2.534-.763-.54-.023-1.083.016-1.623-.01-.482-.023-.622.186-.62.644.01 1.523.023 3.046.007 4.569-.002.22.016.44-.021.66-.371.602-.864 1.1-1.39 1.566-.257.23-.527.28-.788-.018-.29-.332-.663-.588-.897-.973-.046-.245.11-.42.227-.601 1.086-1.702.867-3.545-.451-4.927-.987-1.034-2.343-1.21-3.756-.892-1.744.394-2.735 2.2-2.708 3.693.033 1.826 1.285 3.378 2.93 3.639 1.113.175 2.202.066 3.165-.614.144-.101.268-.252.473-.236.456.237.738.67 1.105 1.006.184.169.133.364.025.55-.123.211-.306.372-.476.543-1.433 1.442-2.88 2.87-4.307 4.317-.328.333-.67.634-1.111.804-14.491 0-28.981-.002-43.472.012-.453 0-.557-.102-.556-.555C.017 14.572.017 7.7 0 .826-.001.413.082.332.496.332c18.38.013 36.76.012 55.14.012.444.167.783.473 1.11.807.803.821 1.615 1.633 2.436 2.436.335.327.64.666.808 1.11" mask="url(#b)"/>
        </g>
        <path fill="#2E395D" d="M56.978 8.594c.84-.822 1.678-1.646 2.52-2.466.157-.152.328-.289.492-.433 0 5.179-.005 10.359.01 15.539 0 .36-.073.434-.433.433-5.18-.015-10.36-.01-15.54-.01 1.314-1.333 2.626-2.668 3.94-3.999.538-.544 1.07-1.095 1.628-1.618.28-.262.33-.452.015-.724-.272-.234-.498-.523-.744-.788-.036-.114.009-.151.119-.127.08.06.166.114.239.182.942.875.94.874 1.869-.049.213-.212.44-.411.66-.616.319.162.238.464.256.706 0-.417-.002-.86 0-1.303.005-.812.169-.967 1.004-.976.86-.01 1.72.023 2.577-.144 1.488-.29 1.88-1.725 1.566-2.763-.083-.27-.361-.515-.178-.844M59.99 4.365A89.351 89.351 0 0 1 55.637.012c1.35 0 2.7.009 4.05-.008.26-.003.314.05.31.31-.016 1.35-.007 2.7-.007 4.05"/>
        <path fill="#FEFEFE" d="M12.116 15.122h.573l-.797-.536a1.641 1.641 0 0 1 1.113-.715c.422-.078.713-.065.397.52.238-.048.252-.295.368-.312.644-.095.698-.746 1.073-1.088.083-.076.195-.118.304-.181.369 1.81-.047 2.76-1.573 3.647-1.078.626-2.16 1.248-3.235 1.88-.787.462-1.565.44-2.344-.008-1.028-.592-2.022-1.256-3.089-1.768-1.533-.734-2.027-1.91-1.724-3.563.299.434.578.558 1.086.21.461-.314 1.266.175 1.425.768.049.18.154.22.278.265.179.064.354.16.422.323.313.738.825.375 1.223.183.636-.308 2.477-.343 2.919.024-.099.287-.357.468-.49.733-.252.405-.679.413-1.074.493-.088-.013-.017-.1-.031-.02-.003.017.018.028.057.016.596-.177 1.203-.286 1.827-.263.165-.087.333-.166.52-.192.146 0 .296.013.391-.133.103-.127.133-.355.381-.283"/>
        <path fill="#FDFDFD" d="M11.68 5.059c1.113.655 2.235 1.28 3.319 1.966.756.478 1.066 1.25 1.076 2.119.02 1.753.018 3.506.002 5.259-.01 1.02-.452 1.818-1.351 2.339-1.462.846-2.92 1.702-4.388 2.537-.778.442-1.584.433-2.36-.01a293.715 293.715 0 0 1-4.384-2.542c-.861-.51-1.308-1.256-1.292-2.292.026-1.772.025-3.546 0-5.318-.014-.986.4-1.718 1.209-2.217C4.519 6.278 5.557 5.704 6.6 5.099c.169.327.026.48-.23.626-.805.456-1.594.94-2.4 1.395-.89.502-1.322 1.236-1.307 2.27a228.3 228.3 0 0 1 .003 4.896c-.006.956.397 1.654 1.222 2.13 1.34.776 2.679 1.557 4.01 2.349.84.5 1.666.512 2.508.015 1.37-.806 2.743-1.606 4.115-2.408.717-.42 1.122-1.045 1.132-1.872.02-1.793.017-3.586.003-5.38-.007-.884-.462-1.518-1.212-1.955-.834-.486-1.666-.976-2.504-1.455-.246-.14-.451-.276-.26-.651"/>
        <path fill="#FCFDFD" d="M31.324 7.617c2.34.006 3.997 1.667 3.992 4-.004 2.284-1.763 4.012-4.038 3.969-2.344-.044-3.959-1.7-3.95-4.045.01-2.292 1.677-3.93 3.996-3.924"/>
        <path fill="#FDFDFD" d="M48.985 14.401l-.119.127c-1.643 1.42-3.951 1.232-5.215.353-1.251-.87-1.927-2.732-1.522-4.3.423-1.639 1.743-2.808 3.361-2.94 1.668-.138 3.082.323 3.952 1.863.864 1.528.779 3.036-.199 4.493-.089.133-.172.27-.258.404"/>
        <path fill="#FBFCFC" d="M56.978 8.594c1.182 1.901.313 3.658-1.913 3.908-.725.082-1.45.103-2.171.067-.503-.025-.725.073-.67.641.06.619.017 1.248.01 1.872 0 .169.058.393-.237.383-.297-.009-.21-.24-.217-.401-.017-.382-.018-.764-.026-1.146.008-1.889.029-3.777.013-5.665-.004-.43.124-.546.539-.527.782.035 1.568.003 2.35.027.862.025 1.666.236 2.322.841"/>
        <path fill="#FDFDFE" d="M7.45 14.41c1.374-2.278 1.399-4.872 1.698-7.415.298 2.463.334 4.984 1.623 7.325-1.154-.428-2.21.254-3.321.09"/>
        <path fill="#FCFCFC" d="M20.669 11.68c0 2.298 1.892 3.801 4.317 3.416.354-.056.694-.195 1.044-.277.137-.032.3-.267.408-.062.122.23-.09.347-.286.436a4.307 4.307 0 0 1-1.936.385c-1.64-.065-2.981-.687-3.671-2.279-.681-1.572-.331-3.422.855-4.58 1.362-1.33 3.269-1.321 4.724-.709.193.08.332.227.224.412-.111.188-.27-.009-.394-.057-1.718-.659-3.433-.312-4.473.913-.588.693-.811 1.51-.812 2.402"/>
        <path fill="#FEFEFE" d="M38.857 11.83c0 1.067.004 2.133-.005 3.2-.001.158.095.412-.185.426-.34.017-.225-.274-.226-.444-.008-2.093-.02-4.186.005-6.28.006-.465-.104-.641-.596-.607-.641.044-1.287.015-1.931.007-.141-.002-.35.076-.371-.178-.021-.26.179-.218.33-.218 1.852-.002 3.704-.002 5.555 0 .13 0 .3-.04.313.177.016.258-.176.22-.33.22-.684.004-1.37.024-2.052-.005-.392-.017-.526.097-.516.502.026 1.066.009 2.133.009 3.2M18.006 11.556c0-1.125-.005-2.251.005-3.377.002-.168-.116-.456.232-.43.286.02.18.27.181.423.007 2.292.006 4.585.001 6.877 0 .16.08.407-.207.41-.295.005-.207-.247-.208-.404-.007-1.166-.004-2.332-.004-3.498"/>
        <path fill="#EBECEF" d="M8.868 3.834c0-.624.003-1.248-.002-1.872-.002-.222.063-.445.29-.443.184.002.259.213.258.418a829.867 829.867 0 0 0-.001 3.865c0 .202-.031.361-.291.351-.274-.01-.253-.205-.254-.387V3.834"/>
        <path fill="#F4F5F7" d="M9.659 2.048c.517.286.607.636.593 1.075-.027.863-.01 1.728-.007 2.592 0 .231.014.45-.328.44-.338-.01-.254-.25-.255-.43-.006-1.2-.003-2.4-.003-3.677M8.62 2.135l.001 3.668c0 .192-.005.357-.278.351-.246-.005-.306-.127-.305-.34.003-1.024.002-2.048.002-3.073 0-.333.288-.444.58-.607"/>
        <path fill="#FBFBFB" d="M11.31 15.736c-.122.079-.245.159-.37.238-.197-.073-.406-.112-.607-.174-.18-.055-.391-.108-.344-.38.145-.358.457-.464.796-.53.464-.038.949-.198 1.33.232-.196.12-.03.345-.14.49-.225.02-.46-.012-.664.124"/>
        <path fill="#FCFCFC" d="M10.57 4.353c.855.677.297 1.607.432 2.418-.844-.668-.285-1.61-.433-2.418"/>
        <path fill="#FCFCFD" d="M7.709 4.343c-.135.817.419 1.752-.425 2.448.12-.82-.442-1.756.425-2.448"/>
        <path fill="#4E5776" d="M10.785 14.89l-.69.493c-.056.059-.108.055-.157-.011.077-.322.312-.487.597-.602l.25.12"/>
        <path fill="#465070" d="M9.938 15.372l.158.012c-.12.207.034.218.174.256.246.065.52.08.671.334-.043.032-.093.099-.129.093-1.123-.213-1.123-.214-1.988.399-.209-.126.243-.27-.014-.414-.155-.087-.307.05-.545-.101.581-.264 1.322.06 1.673-.58"/>
        <path fill="#8D93A6" d="M11.31 15.736c.186-.234.399-.323.665-.124-.196.178-.44.104-.664.124"/>
        <path fill="#2E395D" d="M31.275 15.146c-2.069-.013-3.518-1.482-3.513-3.563.005-2.059 1.476-3.54 3.535-3.559 2.085-.019 3.581 1.51 3.564 3.641-.017 2.063-1.492 3.494-3.586 3.481M46.04 15.146c-2.08.01-3.566-1.444-3.579-3.502-.013-2.098 1.456-3.6 3.538-3.62 2.03-.02 3.57 1.49 3.582 3.519.013 2.107-1.447 3.594-3.54 3.604M52.237 10.124c0-.503.03-1.008-.009-1.507-.032-.426.152-.498.523-.487.782.02 1.566.006 2.348.088 1.219.129 1.915.792 1.934 1.892.02 1.11-.69 1.88-1.913 1.982-.84.069-1.688.03-2.532.06-.316.012-.36-.138-.355-.4.014-.542.005-1.085.005-1.628"/>
    </g>
</svg>
