<?xml version="1.0" encoding="UTF-8"?>
<svg viewBox="0 0 41 40" version="1.1" xmlns="http://www.w3.org/2000/svg" xmlns:xlink="http://www.w3.org/1999/xlink">
    <defs>
        <polygon id="path-1" points="7.4747042e-05 0.0583606557 39.9337001 0.0583606557 39.9337001 39.6720809 7.4747042e-05 39.6720809"></polygon>
    </defs>
    <g id="2" stroke="none" stroke-width="1" fill="none" fill-rule="evenodd">
        <g id="Bitcoinist" transform="translate(0.750000, 0.000000)">
            <g id="Group-3" transform="translate(0.000000, 0.269508)">
                <mask id="mask-2" fill="white">
                    <use xlink:href="#path-1"></use>
                </mask>
                <g id="Clip-2"></g>
                <path d="M30.1340165,16.914 C30.0252562,18.7061311 29.2417851,20.0228525 27.3740165,20.6907213 C29.702281,22.6025246 30.1356694,23.9762951 29.2437686,26.3861311 C28.3935207,28.6838361 26.7584793,29.7336721 24.0817851,29.7530164 C23.0764959,29.7599016 21.8414545,29.1048197 21.1462479,29.7530164 C20.5449256,30.314 20.5330248,31.5346557 20.3412893,32.4795738 C20.1283967,33.5271148 19.4490579,33.058918 18.9244298,32.936623 C18.3872397,32.8117049 17.5875702,32.8484262 17.9869091,31.8382623 C18.2275702,31.229082 18.2976529,30.5553115 18.4930248,29.9254754 C18.7095537,29.2280984 18.634843,28.8080984 17.7895537,28.6087541 C16.9872397,28.4192459 16.7518678,28.7097377 16.6569917,29.4136721 C16.5928595,29.8900656 16.4239339,30.3523607 16.3016198,30.8208852 C15.9558347,32.1458033 15.3244298,32.3838361 14.0629421,31.7356393 C13.7452562,31.5726885 13.7105455,31.3959672 13.7561653,31.1208852 C13.7849256,30.9471148 13.8275702,30.7759672 13.8606281,30.6028525 C14.0384793,29.6743279 14.8054215,28.5694098 14.3039339,27.8880984 C13.8731901,27.3035082 12.6050909,27.3402295 11.7191405,27.0651475 C11.1502149,26.8884262 10.1452562,26.9772787 10.1207934,26.4484262 C10.087405,25.7333443 10.5657521,24.9500656 10.961124,24.2743279 C11.2569917,23.7680984 11.7753388,24.1700656 12.1700496,24.2802295 C13.2880661,24.5920328 13.7802975,24.1451475 14.0295537,23.0628525 C14.7112066,20.1035082 15.4778182,17.1635082 16.2047603,14.2143279 C16.561124,12.769082 16.3816198,12.4772787 14.9151736,12.0546557 C13.7978182,11.7330164 13.4520331,10.3317049 14.2616198,9.4992459 C14.5244298,9.22908197 14.7581488,9.4044918 14.9895537,9.45432787 C15.8130248,9.63104918 16.6741818,9.73498361 17.4388099,10.0582623 C18.7396364,10.6084262 19.1921983,10.0480984 19.350876,8.8792459 C19.3921983,8.57629508 19.498314,8.28186885 19.5750083,7.9835082 C19.8943471,6.73859016 20.6850909,6.45104918 21.824595,7.10252459 C22.2216198,7.3297377 22.1115372,7.60318033 22.0500496,7.8835082 C21.9088926,8.52809836 21.7303802,9.16481967 21.5753388,9.80678689 C21.4282314,10.4153115 21.2242645,10.934 22.2126942,11.1556393 C23.1141818,11.3572787 23.298314,11.0359672 23.4024463,10.3097377 C23.470876,9.83334426 23.7029421,9.37596721 23.7429421,8.90055738 C23.8447603,7.6844918 24.4824463,7.68678689 25.4550083,7.9635082 C26.2364959,8.18580328 26.4321983,8.4835082 26.173686,9.2497377 C25.893686,10.0795738 25.4447603,11.0284262 25.6312066,11.7903934 C25.8345124,12.6218689 27.0814545,12.5825246 27.8117025,13.0517049 C29.2467438,13.974 30.2440992,15.0979344 30.1340165,16.914 M39.914843,0.213672131 C39.5902149,0.00121311475 39.2239339,0.085147541 38.8751736,0.085147541 C26.3340165,0.080557377 13.7928595,0.0936721311 1.25203306,0.0582622951 C0.230876033,0.0556393443 -0.00416528926,0.357934426 0.000132231405,1.32809836 C0.0368264463,9.57596721 0.0212892562,17.8241639 0.0212892562,26.076623 C-0.0458181818,27.1838361 0.478479339,28.0048197 1.23781818,28.754 C4.23319008,31.709082 7.23781818,34.6553115 10.1945124,37.6484262 C11.0123636,38.4762951 11.8540165,39.2346557 12.9631074,39.6480984 C21.6186446,39.6480984 30.2738512,39.6326885 38.9287273,39.6720328 C39.7931901,39.6759672 39.9353388,39.4392459 39.933686,38.6448197 C39.9069091,25.8346557 39.914843,13.0241639 39.914843,0.213672131" id="Fill-1" fill="#FFFFFF" mask="url(#mask-2)"></path>
            </g>
            <path d="M21.4659835,26.6575082 C20.4468099,26.5552131 18.9347438,26.648 18.1225124,25.8814426 C17.2269752,25.0365246 18.3968926,23.748 18.5089587,22.6296393 C18.5522645,22.1971803 18.7360661,21.780459 18.8124298,21.3489836 C18.9073058,20.812918 19.2312727,20.9119344 19.6025124,20.9981639 C20.6811901,21.2489836 21.7608595,21.4994754 22.7704463,21.9617705 C24.4273058,22.720459 25.0861488,23.7316066 24.7658182,24.9640656 C24.4567273,26.1535738 23.4511074,26.708 21.4659835,26.6575082" id="Fill-4" fill="#FFFFFF"></path>
            <path d="M22.7399008,19.0969508 C19.6202314,19.011377 19.4645289,18.8123607 20.1871736,15.8376066 C20.681719,13.8025246 20.6823802,13.8008852 22.7693223,14.4641639 C23.1055207,14.5710492 23.4460165,14.6759672 23.7660165,14.8218689 C25.2030413,15.4776066 25.7815537,16.409082 25.4926281,17.5684262 C25.2281653,18.631377 24.3121322,19.1402295 22.7399008,19.0969508" id="Fill-6" fill="#FFFFFF"></path>
        </g>
    </g>
</svg>