<?xml version="1.0" encoding="UTF-8"?>
<svg viewBox="0 0 400 55" version="1.1" xmlns="http://www.w3.org/2000/svg" xmlns:xlink="http://www.w3.org/1999/xlink">
    <defs>
        <polygon id="path-1" points="0.0643553009 0.149596725 54.6347661 0.149596725 54.6347661 53.2951289 0.0643553009 53.2951289"></polygon>
        <polygon id="path-3" points="0.281002865 0.196040671 74.1048711 0.196040671 74.1048711 2.90959885 0.281002865 2.90959885"></polygon>
    </defs>
    <g id="Custom-Preset" stroke="none" stroke-width="1" fill="none" fill-rule="evenodd" transform="translate(-262.000000, -1663.000000)">
        <g id="Insider" transform="translate(262.000000, 1663.000000)">
            <g id="Group-3" transform="translate(32.664756, 0.852149)">
                <mask id="mask-2" fill="white">
                    <use xlink:href="#path-1"></use>
                </mask>
                <g id="Clip-2"></g>
                <path d="M12.8422923,51.7762751 L0.823954155,51.7762751 C0.570659026,51.462808 0.317363897,51.1490544 0.0643553009,50.8355874 C1.0365616,49.9565043 1.87065903,48.6410315 3.00733524,48.2811461 C6.26836676,47.2481948 6.89386819,45.1883095 6.83455587,42.0043553 C6.63226361,31.1467622 6.67581662,20.2817192 6.81765043,9.42212034 C6.85088825,6.89060172 6.32452722,5.26595989 3.83340974,4.25048711 C2.75432665,3.81037249 2.03340974,2.49203438 1.15002865,1.57283668 C2.28985673,1.11696275 3.41908309,0.294613181 4.57123209,0.261375358 C18.0503152,-0.127449857 18.0660745,-0.106819484 26.0394269,10.9387393 C31.5508883,18.5745559 37.014212,26.2447564 42.5606304,33.9860172 L42.5606304,0.214670487 C46.0073352,0.214670487 49.2855587,0.135014327 52.5546132,0.274269341 C53.3070487,0.306361032 54.5895702,1.04160458 54.6308309,1.53673352 C54.6927221,2.2765616 54.0130659,3.62613181 53.4024642,3.78802292 C48.3786819,5.12068768 48.5812607,8.85707736 48.6251003,12.9080802 C48.7683668,26.1112321 48.6786819,39.3172493 48.6786819,52.4416046 C41.9041834,53.9997708 41.4087679,53.8075072 37.6526074,48.5891691 C29.6187966,37.4289971 21.5746705,26.2765616 12.8422923,14.1599427 L12.8422923,51.7762751 Z" id="Fill-1" fill="#FFFFFF" mask="url(#mask-2)"></path>
            </g>
            <path d="M302.550745,29.3993983 C307.600888,37.6638682 311.170516,46.7701719 320.527249,51.6876504 C320.237278,52.0624355 319.947593,52.4372206 319.657622,52.8122923 C315.669943,52.8122923 311.655043,53.079914 307.707765,52.6790544 C306.151032,52.5208883 304.237851,51.2022636 303.357335,49.8466762 C299.141862,43.357851 295.224957,36.675616 291.228395,30.1054155 C300.664212,23.5418052 303.222951,18.4882235 300.642149,12.1140115 C298.474814,6.76071633 293.225817,4.74553009 284.555616,6.20111748 L284.555616,24.3572779 C284.555616,30.6177364 284.761347,36.8876504 284.474527,43.1349284 C284.314642,46.6163037 285.022092,49.0418052 288.58914,50.1498281 C289.281691,50.3647278 289.810057,51.1074212 291.280544,52.3231805 L267.023811,52.3231805 C268.223524,51.2584241 268.824097,50.3294842 269.636705,50.0730372 C273.213496,48.9432378 273.793438,46.5197421 273.716361,43.0589971 C273.480258,32.4910888 273.495444,21.9117192 273.70404,11.3426648 C273.776819,7.6595702 273.398309,4.78621777 269.263639,3.74037249 C268.614069,3.57618911 268.122951,2.78621777 267.177106,1.94724928 C267.822951,1.57217765 268.160774,1.20369628 268.494585,1.2074212 C278.634126,1.32318052 288.78914,1.18335244 298.906619,1.7334957 C304.882264,2.05813754 309.548166,5.22031519 311.04616,11.440086 C312.483696,17.4097135 311.161347,22.779914 306.293725,26.9036963 C305.26192,27.7781948 304.034126,28.4214613 302.550745,29.3993983" id="Fill-4" fill="#FFFFFF"></path>
            <path d="M237.578711,48.3010315 C242.232579,48.3010315 246.681576,48.6047564 251.038309,48.1041834 C252.245473,47.9655014 253.193324,45.4488825 254.232579,44.0038968 C255.418825,42.3546132 256.574413,40.6832665 257.743467,39.0216619 C258.323983,40.8686533 259.089885,42.6812607 259.440029,44.5709456 C259.911948,47.1173639 260.063524,49.7233811 260.385301,52.5944413 L220.430287,52.5944413 C220.203352,52.2480229 219.976705,51.9016046 219.749771,51.5551862 C220.792751,50.7769628 221.739742,49.5609169 222.897622,49.3073352 C225.683295,48.6970201 226.234585,47.1113467 226.20851,44.5248138 C226.09361,33.1090544 226.068968,21.6907163 226.219685,10.2758166 C226.259226,7.26550143 225.838023,5.20389685 222.419971,4.5643553 C221.411375,4.37553009 220.614527,3.05633238 219.720831,2.25489971 C219.948911,1.92997135 220.176705,1.60475645 220.404785,1.27954155 L259.15063,1.27954155 C258.789599,5.10905444 258.523983,8.78269341 258.029427,12.4253868 C257.933725,13.1305444 257.042321,13.9978797 256.328567,14.2460172 C255.913668,14.3904298 254.642607,13.5173639 254.570401,12.9904298 C252.981003,1.39071633 244.071547,7.16378223 237.720544,5.52080229 L237.720544,23.631404 L252.508223,23.631404 C252.596476,25.374957 252.663524,26.6944413 252.761805,28.6334097 L237.578711,28.6334097 L237.578711,48.3010315 Z" id="Fill-6" fill="#FFFFFF"></path>
            <path d="M125.883668,2.72340974 C125.206017,6.79876791 124.684814,10.3652436 123.970201,13.8924642 C123.813467,14.6666762 122.969628,15.3013467 122.44212,16.0004871 C121.684814,15.3678223 120.632951,14.8804298 120.234097,14.0712607 C119.506304,12.5944699 118.948424,10.9592264 118.705731,9.33229226 C118.104011,5.3030659 115.434384,4.20163324 111.908309,4.17441261 C108.52063,4.14833811 105.3851,4.88702006 104.079656,8.44088825 C102.801146,11.9205444 103.613181,15.164384 106.674212,17.3603725 C109.596848,19.4569341 112.847851,21.0898854 115.848424,23.0855874 C118.722063,24.9967622 121.838395,26.7506304 124.184814,29.2070774 C130.986246,36.3279943 128.624928,48.0764183 119.542407,51.7655301 C110.482808,55.4457593 101.406877,54.2681089 92.3120344,50.7156734 C93.1381089,46.2308596 93.8100287,42.1506304 94.6982808,38.1182521 C94.8816619,37.2858739 95.8724928,36.6317192 96.4908309,35.8953295 C97.0776504,36.5388825 97.9358166,37.0881662 98.1991404,37.8446132 C98.9283668,39.9380229 99.5108883,42.0964756 99.9653295,44.2678223 C100.680516,47.6838682 102.854441,49.0887393 106.163324,49.2454728 C110.365043,49.4443266 114.099713,48.3360172 115.989971,44.3881662 C117.456447,41.3251289 117.130372,37.9597994 114.16533,35.7188252 C111.633811,33.8056447 108.73467,32.3873066 106.072493,30.6368768 C102.953582,28.5855874 99.5148997,26.812235 96.917192,24.2156734 C89.2524355,16.5540688 92.3598854,4.43888252 102.704011,1.277851 C110.418338,-1.07916905 118.021777,0.070974212 125.883668,2.72340974" id="Fill-8" fill="#FFFFFF"></path>
            <path d="M8.77401146,5.74140401 L8.59598854e-05,5.74140401 C8.38891117,-1.91389685 17.504384,2.13624642 27.0496562,0.88008596 C25.8889112,2.43510029 25.6510888,3.11848138 25.2654155,3.21590258 C19.7450716,4.60931232 19.804384,8.71361032 19.904957,13.2551576 C20.1227221,23.1210602 20.1035244,32.9975645 19.9020917,42.8640401 C19.8298854,46.4084527 20.274298,49.1121777 24.196361,50.145702 C24.9619771,50.3474212 25.5496562,51.223639 27.0081089,52.4548711 L2.56856734,52.4548711 C3.27945559,51.5393983 3.62587393,50.6032951 4.17286533,50.4663324 C8.73704871,49.3219198 8.89464183,46.0345272 8.83790831,42.1588825 C8.66255014,30.2342407 8.77401146,18.3055874 8.77401146,5.74140401" id="Fill-10" fill="#FFFFFF"></path>
            <path d="M152.362436,6.12510029 C152.362436,19.4597708 152.303983,32.7864183 152.480487,46.1102006 C152.493668,47.105043 154.089656,48.200745 155.127192,49.026533 C156.223181,49.8993123 157.532063,50.505043 158.747822,51.2273926 C158.592521,51.7672206 158.437507,52.3073352 158.282493,52.8471633 C153.523754,52.8471633 148.765301,52.8480229 144.006848,52.8465903 C141.783639,52.8460172 139.555845,52.9193696 137.339799,52.7901433 C136.655272,52.7503152 136.003123,52.1531805 135.336074,51.8110602 C135.817736,51.0935817 136.221748,49.8268195 136.793668,49.7460172 C141.425186,49.0898567 141.266734,45.9090544 141.222034,42.3806877 C141.086504,31.6829799 141.072178,20.9809742 141.237794,10.2841261 C141.284212,7.28011461 140.849255,5.23398281 137.500544,4.52166189 C136.639513,4.33856734 136.032063,2.9634957 135.307994,2.13598854 C136.250401,1.77667622 137.18765,1.12280802 138.135788,1.10647564 C143.831203,1.00876791 149.530344,0.997593123 155.225186,1.11106017 C156.28106,1.13226361 157.323181,1.85375358 158.371605,2.25203438 C157.47533,3.10275072 156.668166,4.0869914 155.655845,4.76406877 C154.760716,5.36234957 153.636934,5.61793696 152.362436,6.12510029" id="Fill-12" fill="#FFFFFF"></path>
            <g id="Group-16" transform="translate(325.787966, 0.852149)">
                <mask id="mask-4" fill="white">
                    <use xlink:href="#path-3"></use>
                </mask>
                <g id="Clip-15"></g>
                <path d="M0.281002865,1.502149 C1.56667622,1.06977077 2.84919771,0.273782235 4.13859599,0.262320917 C15.4179656,0.163467049 26.6984814,0.205014327 37.9784241,0.205014327 C48.7013467,0.205014327 59.4248424,0.163467049 70.147192,0.259169054 C71.4698281,0.270916905 72.7858739,1.01618911 74.1050716,1.42163324 C73.9787106,1.91762178 73.8523496,2.41361032 73.7259885,2.90959885 L0.93974212,2.90959885 C0.72025788,2.44054441 0.500487106,1.97120344 0.281002865,1.502149" id="Fill-14" fill="#FFFFFF" mask="url(#mask-4)"></path>
            </g>
            <path d="M399.554928,52.6177937 C398.213668,52.694298 396.872407,52.8364183 395.53086,52.8372779 C373.834298,52.8510315 352.137736,52.8475931 330.441175,52.8455874 C329.606791,52.8455874 328.711375,53.0057593 327.957507,52.7530372 C327.338023,52.5455874 326.887307,51.8352722 326.361519,51.3475931 C326.954355,50.9306877 327.496189,50.3610602 328.154642,50.1412894 C328.781576,49.9324069 329.530573,50.0851289 330.225989,50.0851289 C352.061805,50.0842693 373.897335,50.0682235 395.732865,50.1232378 C397.097908,50.1266762 398.461519,50.6885673 399.825989,50.9905731 C399.735731,51.5329799 399.645186,52.0753868 399.554928,52.6177937" id="Fill-17" fill="#FFFFFF"></path>
            <path d="M202.663324,37.2208596 C199.859885,46.2624069 193.236103,49.802808 182.882521,47.997937 L182.882521,5.8217192 C191.944413,3.80653295 199.490544,7.70796562 202.381662,15.9337536 C204.853295,22.9652722 204.854155,30.154957 202.663324,37.2208596 M193.790544,1.60194842 C189.251576,1.05724928 184.642407,1.09707736 180.06533,0.869856734 C180.062464,0.932034384 180.059312,0.994498567 180.05616,1.05696275 C176.577937,1.05696275 173.09341,0.934613181 169.625788,1.12057307 C168.348138,1.18905444 167.109456,1.98504298 165.853009,2.44893983 C166.830086,3.2460745 167.703438,4.50166189 168.804585,4.75151862 C171.696275,5.40796562 172.376791,6.98131805 172.333524,9.79621777 C172.168481,20.5056734 172.159599,31.2208596 172.324355,41.9303152 C172.383668,45.8002292 172.404585,49.1744413 167.427221,49.8222923 C166.840401,49.89851 166.401146,51.106533 165.893123,51.789914 C166.552149,52.137192 167.213467,52.789914 167.869914,52.785043 C176.762751,52.7185673 185.740401,53.289914 194.527507,52.2595415 C208.571347,50.6131232 216.734097,40.4360458 216.52063,26.4283095 C216.313467,12.8237249 207.674499,3.26756447 193.790544,1.60194842" id="Fill-19" fill="#FFFFFF"></path>
            <path d="M362.86957,27.1723496 C361.930029,27.6161891 360.903381,27.8749284 359.958395,28.3090258 C358.760401,28.8591691 358.519427,28.2362464 358.514842,27.2471347 C358.508252,25.7729226 358.513123,24.2984241 358.512837,22.8239255 C358.512264,21.4445559 358.557822,20.0631805 358.497937,18.6863897 C358.449226,17.5683381 358.923725,17.293553 359.99937,17.1588825 C362.121719,16.8938395 363.709971,17.5588825 364.920287,19.2712034 C366.764413,21.8795129 365.766132,25.8038682 362.86957,27.1723496 M373.639484,38.5462751 C372.893066,37.7775072 371.96384,37.1442693 371.371003,36.2766476 C370.000802,34.2726361 368.82,32.1402579 367.498223,30.1012894 C366.358682,28.3431232 366.325158,28.3382521 368.0349,27.2560172 C369.971862,26.0299427 371.410831,23.158596 370.998223,21.1388252 C370.449513,18.454298 369.213696,16.15 366.283037,15.662894 C362.918281,15.1032951 359.494212,14.8995702 356.095931,14.541404 C356.085903,14.6247851 356.075874,14.7078797 356.065559,14.7912607 C354.587049,14.7912607 353.107106,14.7583095 351.630029,14.8104585 C351.164986,14.8267908 350.707679,15.0709169 350.246934,15.210745 C350.58533,15.6030086 350.849226,16.1829513 351.276447,16.3528653 C352.669284,16.9073066 353.133181,17.7869628 353.10596,19.3098854 C353.008539,24.7949857 353.002808,30.284384 353.109398,35.7691977 C353.14063,37.3820917 352.758395,38.4038682 351.170716,38.9130372 C350.822292,39.0247851 350.595072,39.5144699 350.311977,39.8299427 C350.732894,39.9588825 351.152665,40.1952722 351.574728,40.1992837 C354.243782,40.2253582 356.913983,40.2207736 359.582751,40.1709169 C360.033754,40.1626074 360.479885,39.8861032 360.928309,39.7333811 C360.62659,39.4153295 360.325158,39.0972779 360.023152,38.7792264 C359.506246,38.2348138 358.614842,37.7345272 358.544069,37.137106 C358.349799,35.4921203 358.49937,33.806447 358.512837,32.1368195 C358.52,31.2666189 358.940344,30.8674785 359.779026,30.5053009 C361.30596,29.8454155 362.09851,30.489255 362.800802,31.6906877 C364.003095,33.7474212 365.22745,35.7912607 366.443782,37.8399713 C367.356103,39.3769341 368.533467,40.3952722 370.497077,40.1588825 C371.389054,40.0514327 372.309685,40.2032951 373.212264,40.1497135 C373.686762,40.1213467 374.150086,39.9030086 374.618567,39.7703438 C374.294499,39.3603152 374.001662,38.9196275 373.639484,38.5462751" id="Fill-21" fill="#FFFFFF"></path>
            <path d="M393.123352,33.0970774 C392.711032,35.2194269 391.552292,36.8890544 389.741691,38.028596 C388.486676,38.8185673 385.72851,38.1767335 384.411032,37.0483668 C382.617908,35.5122636 381.879513,33.3732951 381.640831,31.245788 C381.265759,27.9062464 381.173496,24.5082521 382.162321,21.1916332 C382.933668,18.6045272 384.783524,17.0515186 387.239398,17.0801719 C390.462321,16.5841834 392.760315,20.133467 393.246848,22.9632665 C393.831089,26.3612607 393.777794,29.7294556 393.123352,33.0970774 M399.441691,24.807106 C398.35745,19.5340401 394.809885,14.697937 388.255444,14.7518052 C385.087249,14.6348997 382.661748,15.1715759 380.506734,16.6801719 C375.855444,19.9366189 374.92937,24.8455014 375.55745,29.8595415 C376.225072,35.1876218 378.729656,39.4638395 385.927077,40.4867622 C389.968625,41.0612607 395.401003,39.6205731 397.546275,35.4257307 C399.2351,32.1228653 400.25745,28.7747278 399.441691,24.807106" id="Fill-23" fill="#FFFFFF"></path>
            <path d="M340.216189,26.9698567 C338.944269,28.5896275 337.060315,28.8245845 335.154011,28.4890544 C334.813897,28.4291691 334.386963,27.7002292 334.35659,27.2558166 C334.256017,25.7873352 334.318481,24.3079656 334.318481,22.832894 C334.322779,21.3575358 334.342837,19.8818911 334.31533,18.407106 C334.298711,17.5079656 334.656304,17.2257307 335.580086,17.1331805 C338.395559,16.8503725 340.582092,17.6704298 341.606734,20.4412034 C342.496132,22.8466476 341.712751,25.0638395 340.216189,26.9698567 M341.794699,15.5191404 C338.518768,14.99851 335.178653,14.8836103 331.866905,14.5879083 C331.859742,14.6586819 331.852579,14.7294556 331.845415,14.8005158 C330.509026,14.8005158 329.17063,14.7586819 327.837106,14.8208596 C327.297564,14.845788 326.768338,15.0970774 326.234241,15.2455014 C326.639398,15.6274499 327.012751,16.0526648 327.457163,16.3813181 C328.10702,16.8621203 329.07149,16.9412034 329.058309,18.1234384 C328.993553,23.9452149 328.923926,29.7681375 328.994699,35.5887679 C329.01447,37.2179943 328.662894,38.3311748 327.068911,38.9403438 C326.729943,39.0701433 326.532521,39.5701433 326.269771,39.8993696 C326.653438,40.0033811 327.036246,40.1953582 327.420201,40.1965043 C330.044269,40.2059599 332.669198,40.197937 335.292693,40.1383381 C335.84255,40.1260172 336.386676,39.8750143 336.933668,39.7340401 C336.523066,39.3331805 336.094126,38.9489398 335.70616,38.5268768 C335.233668,38.0128367 334.475788,37.5062464 334.405014,36.9274499 C334.214756,35.3747278 334.249427,33.7795989 334.367765,32.2142693 C334.398711,31.8051003 335.009885,31.1956447 335.443123,31.1059599 C336.827364,30.8191404 338.250287,30.7013754 339.663467,30.576447 C343.419341,30.2449284 345.888109,28.289914 346.819054,24.6532378 C347.789542,20.8618338 346.200143,16.2194269 341.794699,15.5191404" id="Fill-25" fill="#FFFFFF"></path>
        </g>
    </g>
</svg>