<?xml version="1.0" encoding="UTF-8"?>
<svg viewBox="0 0 41 47" version="1.1" xmlns="http://www.w3.org/2000/svg" xmlns:xlink="http://www.w3.org/1999/xlink">
    <defs>
        <polygon id="path-1" points="0.055395122 0.210731707 9.516 0.210731707 9.516 11.9794634 0.055395122 11.9794634"></polygon>
        <polygon id="path-3" points="0.328345705 0.0534324435 9.68487805 0.0534324435 9.68487805 10.525561 0.328345705 10.525561"></polygon>
    </defs>
    <g id="2" stroke="none" stroke-width="1" fill="none" fill-rule="evenodd">
        <g id="CryptoCoin" transform="translate(0.250000, 0.000000)">
            <path d="M10.1490732,30.2567317 C10.5661463,29.8669756 10.9549268,29.8503902 11.4773659,30.1591707 C14.0959024,31.7074634 16.7402927,33.2113659 19.3773659,34.7274634 C19.5934634,34.8518537 19.689561,35.008439 19.696878,35.2718537 C19.7988293,38.9186829 19.712,42.566 19.7373659,46.2133171 C19.7398049,46.5869756 19.7237073,46.5869756 19.3866341,46.5079512 C19.432,46.2357561 19.447122,45.9620976 19.447122,45.6855122 C19.4451707,42.6733171 19.4466341,39.661122 19.4437073,36.6489268 C19.4437073,36.4747805 19.5217561,36.2430732 19.3700488,36.1425854 C19.2041951,36.0318537 19.0480976,36.2299024 18.9002927,36.3142927 C17.0588293,37.3655122 15.2237073,38.428439 13.3846829,39.4850244 C12.5154146,39.9850244 11.654439,40.5006341 10.7832195,40.9981951 C10.6398049,41.0801463 10.5334634,41.2030732 10.4290732,41.3274634 C10.2890732,41.3347805 10.2124878,41.2469756 10.1485854,41.1401463 C9.9915122,40.9328293 9.98565854,40.690878 9.98517073,40.4464878 C9.98419512,37.281122 9.98419512,34.1152683 9.98565854,30.9499024 C9.98565854,30.7055122 9.99004878,30.4630732 10.1490732,30.2567317" id="Fill-1" fill="#FFFFFF"></path>
            <path d="M10.2296585,5.91795122 C10.2652683,5.89209756 10.300878,5.8657561 10.3364878,5.83990244 C13.1789268,7.58185366 16.0764878,9.23014634 18.9720976,10.8818537 C19.3955122,11.1238049 19.4428293,11.0920976 19.4433171,10.5745366 C19.4462439,7.41746341 19.4452683,4.26087805 19.4442927,1.10380488 C19.4442927,0.926243902 19.4286829,0.747219512 19.4779512,0.572585366 C19.5462439,0.524292683 19.638439,0.471609756 19.671122,0.581365854 C19.7072195,0.701365854 19.6994146,0.836487805 19.6994146,0.965268293 C19.6989268,4.51453659 19.6886829,8.06380488 19.7057561,11.6125854 C19.7077073,12.0428293 19.571122,12.2794146 19.2023415,12.4886829 C16.5213659,14.0140488 13.8486829,15.553561 11.1818537,17.1038049 C10.8130732,17.3179512 10.5779512,17.171122 10.3316098,16.9316098 C10.0716098,16.7681951 9.98965854,16.5228293 9.98917073,16.2277073 C9.98478049,12.993561 9.98429268,9.75941463 9.99063415,6.52526829 C9.99112195,6.29307317 10.0272195,6.07209756 10.2296585,5.91795122" id="Fill-3" fill="#FFFFFF"></path>
            <path d="M21.0566829,35.409561 C20.9581463,35.0490732 21.1244878,34.8685854 21.4376585,34.689561 C24.0918049,33.1729756 26.7386341,31.6446829 29.3727805,30.094439 C29.7498537,29.8729756 30.0381463,29.8529756 30.3805854,30.1037073 C30.6396098,30.2929756 30.9210732,30.4505366 31.1922927,30.6222439 C30.7966829,30.7637073 30.7176585,31.0583415 30.719122,31.4515122 C30.7318049,34.3602927 30.7269268,37.2685854 30.7235122,40.176878 C30.7230244,40.4680976 30.7971707,40.754439 30.7635122,41.0466341 C30.7235122,41.1163902 30.6649756,41.154439 30.5825366,41.1500488 C30.3805854,41.2578537 30.2132683,41.1700488 30.0410732,41.0656585 C28.1727805,39.9339512 26.2498537,38.8954146 24.3727805,37.7798049 C23.4400976,37.2256585 22.5137561,36.6617561 21.5396098,36.1846829 C21.1961951,36.0163902 21.1000976,35.7407805 21.0566829,35.409561" id="Fill-5" fill="#FFFFFF"></path>
            <path d="M30.7783902,16.7346829 C30.5476585,16.8785854 30.3179024,17.024439 30.0857073,17.1663902 C29.9320488,17.2600488 29.7832683,17.2410244 29.629122,17.1512683 C26.8413171,15.5302927 24.0520488,13.9117561 21.2632683,12.2917561 C21.2496098,12.2839512 21.2408293,12.2683415 21.2300976,12.2561463 C20.929122,11.6463902 21.0018049,11.3390732 21.5583902,11.0122439 C23.4783902,9.88492683 25.4276585,8.80785366 27.3369268,7.6624878 C28.2783902,7.09760976 29.2725366,6.62395122 30.1798537,6.0015122 C30.2725366,5.93809756 30.3671707,5.86834146 30.491561,5.92004878 C30.6549756,5.91468293 30.7705854,6.0015122 30.8705854,6.11760976 C30.7657073,6.37614634 30.7261951,6.64443902 30.7266829,6.92395122 C30.729122,9.9522439 30.7271707,12.9800488 30.729122,16.0083415 C30.729122,16.2512683 30.7481463,16.4937073 30.7783902,16.7346829" id="Fill-7" fill="#FFFFFF"></path>
            <path d="M9.47473171,18.0805366 C10.0249756,18.2356585 10.188878,18.5834634 10.1825366,19.1600488 C10.1518049,22.0278537 10.1342439,24.8966341 10.1913171,27.7634634 C10.2069268,28.5322439 9.95131707,28.9415122 9.26887805,29.1610244 C9.06058537,28.906878 8.79034146,28.7434634 8.50497561,28.5839512 C6.71521951,27.5849268 4.9537561,26.5376098 3.17960976,25.5117561 C2.27131707,24.986878 1.37765854,24.4361463 0.457170732,23.9327317 C0.300585366,23.8473659 0.141073171,23.7702927 0.0215609756,23.6327317 C0.0215609756,23.6000488 0.0215609756,23.566878 0.0210731707,23.5337073 C0.474243902,22.946878 1.164,22.702 1.77180488,22.346878 C3.72302439,21.2073659 5.69326829,20.1015122 7.63278049,18.9429756 C8.08985366,18.6698049 8.584,18.4624878 9.02009756,18.1507805 C9.15326829,18.0556585 9.30692683,17.9985854 9.47473171,18.0805366" id="Fill-9" fill="#FFFFFF"></path>
            <g id="Group-13" transform="translate(20.975610, 0.277024)">
                <mask id="mask-2" fill="white">
                    <use xlink:href="#path-1"></use>
                </mask>
                <g id="Clip-12"></g>
                <path d="M9.516,5.64287805 C8.79356098,6.15409756 8.01356098,6.56531707 7.24234146,6.99556098 C6.57453659,7.3682439 5.92917073,7.78531707 5.26185366,8.16434146 C4.20673171,8.76434146 3.15697561,9.37507317 2.1057561,9.98190244 C1.6457561,10.2472683 1.18136585,10.5058049 0.729658537,10.7843415 C0.063804878,11.1950732 0.0657560976,11.2062927 0.254536585,11.9794634 C0.043804878,11.9599512 0.0555121951,11.7989756 0.0555121951,11.6550732 C0.0574634146,7.88434146 0.0613658537,4.11409756 0.0657560976,0.343853659 C0.0657560976,0.314097561 0.0857560976,0.284829268 0.112097561,0.210682927 C0.802341463,0.489219512 1.40673171,0.918 2.04331707,1.28043902 C4.49746341,2.6775122 6.93941463,4.09458537 9.38478049,5.50726829 C9.43746341,5.5375122 9.47258537,5.59702439 9.516,5.64287805" id="Fill-11" fill="#FFFFFF" mask="url(#mask-2)"></path>
            </g>
            <path d="M21.0566829,35.409561 C21.179122,35.807122 21.4659512,36.0159024 21.8318049,36.2017561 C23.1996098,36.8963902 24.5020488,37.7085854 25.8235122,38.4876098 C27.1161951,39.2500488 28.4244878,39.9866341 29.7342439,40.7207805 C30.0093659,40.8754146 30.2220488,41.1622439 30.5825366,41.1500488 C29.1771707,41.9734634 27.7752195,42.8012683 26.366439,43.6183415 C24.7454634,44.5588293 23.119122,45.4900488 21.4942439,46.4241951 C21.3708293,46.4949268 21.2420488,46.5559024 21.1220488,46.6183415 C20.9942439,46.5154146 21.0366829,46.3939512 21.0366829,46.2900488 C21.0337561,42.7437073 21.0342439,39.196878 21.0357073,35.6505366 C21.0357073,35.5700488 21.0493659,35.4900488 21.0566829,35.409561" id="Fill-14" fill="#FFFFFF"></path>
            <path d="M0.0215121951,23.632878 C0.911268293,23.9494634 1.66541463,24.5153171 2.47614634,24.9767805 C4.31078049,26.0211707 6.13565854,27.0836098 7.96541463,28.1367805 C8.28687805,28.3221463 8.6122439,28.5016585 8.94004878,28.6753171 C9.14004878,28.7811707 9.28736585,28.9123902 9.26882927,29.1611707 C7.31468293,30.2987317 5.36102439,31.4372683 3.40590244,32.5733659 C2.38590244,33.1660488 1.3615122,33.7509268 0.34395122,34.3470244 C0.121512195,34.4777561 -0.000926829268,34.5084878 4.87804878e-05,34.1797073 C0.0102926829,30.6640976 0.0151707317,27.1484878 0.0215121951,23.632878" id="Fill-16" fill="#FFFFFF"></path>
            <path d="M10.2296585,5.91795122 C10.1467317,6.09990244 10.1433171,6.29209756 10.1433171,6.48819512 C10.1452683,9.74282927 10.1467317,12.9974634 10.1403902,16.2520976 C10.1399024,16.5047805 10.178439,16.7306341 10.3320976,16.9316098 C9.11014634,16.3428293 7.96868293,15.6101463 6.79112195,14.9423415 C4.96331707,13.9052683 3.15063415,12.8428293 1.33160976,11.7906341 C1.23356098,11.7340488 1.14234146,11.6638049 1.04185366,11.613561 C0.707707317,11.4457561 0.802829268,11.3067317 1.05990244,11.1599024 C1.84478049,10.7101463 2.62673171,10.2550244 3.41063415,9.80331707 C5.60917073,8.5364878 7.80770732,7.27014634 10.0072195,6.0057561 C10.0755122,5.9662439 10.1555122,5.94673171 10.2296585,5.91795122" id="Fill-18" fill="#FFFFFF"></path>
            <path d="M30.7783902,16.7346829 C30.549122,16.6980976 30.5744878,16.522 30.5744878,16.3610244 C30.5744878,13.0727317 30.5754634,9.78492683 30.571561,6.49712195 C30.571561,6.27712195 30.594,6.10492683 30.8710732,6.11760976 C32.958878,7.31419512 35.0476585,8.50931707 37.1344878,9.70785366 C37.9598537,10.182 38.7813171,10.6634634 39.6037561,11.1424878 C40.0213171,11.3859024 40.0222927,11.4351707 39.6018049,11.6776098 C37.1408293,13.0976098 34.6798537,14.5180976 32.2169268,15.9346829 C31.7418049,16.2083415 31.2583902,16.4683415 30.7783902,16.7346829" id="Fill-20" fill="#FFFFFF"></path>
            <g id="Group-24" transform="translate(30.243902, 30.520927)">
                <mask id="mask-4" fill="white">
                    <use xlink:href="#path-3"></use>
                </mask>
                <g id="Clip-23"></g>
                <path d="M0.519756098,10.525561 C0.306585366,10.3440976 0.32902439,10.0967805 0.32902439,9.85385366 C0.329512195,6.78068293 0.32902439,3.7075122 0.329512195,0.634341463 C0.33,0.00604878049 0.336829268,0.00165853659 0.948536585,0.101170732 C2.15439024,0.783609756 3.36317073,1.46019512 4.56512195,2.14897561 C6.16170732,3.06360976 7.75195122,3.98946341 9.34707317,4.90653659 C9.77682927,5.15336585 9.79390244,5.2075122 9.41341463,5.4275122 C6.48170732,7.12165854 3.54658537,8.81141463 0.612439024,10.5016585 C0.585609756,10.5167805 0.55097561,10.5177561 0.519756098,10.525561" id="Fill-22" fill="#FFFFFF" mask="url(#mask-4)"></path>
            </g>
            <path d="M10.1490732,30.2567317 C10.1490732,33.8845366 10.1485854,37.5123415 10.1485854,41.1401463 C9.09102439,40.6167317 8.09395122,39.9864878 7.0724878,39.4001463 C5.08321951,38.2591707 3.09639024,37.1138049 1.10809756,35.970878 C0.847609756,35.821122 0.644682927,35.7094146 1.06956098,35.4664878 C4.04273171,33.766 7.00565854,32.0479512 9.9724878,30.3367317 C10.0280976,30.3045366 10.0900488,30.2830732 10.1490732,30.2567317" id="Fill-25" fill="#FFFFFF"></path>
            <path d="M19.4777561,0.572780488 C19.6289756,0.697658537 19.5777561,0.870829268 19.5777561,1.02643902 C19.5806829,4.28107317 19.5806829,7.53619512 19.5762927,10.7908293 C19.5762927,10.9420488 19.6597073,11.1430244 19.4850732,11.2347317 C19.3216585,11.3210732 19.188,11.1679024 19.0509268,11.0893659 C17.5119024,10.2079024 15.9694634,9.33229268 14.4333659,8.44546341 C13.1562927,7.70741463 11.8870244,6.95668293 10.6143415,6.21131707 C10.470439,6.12692683 10.3489756,6.02302439 10.3362927,5.83960976 C11.7982439,4.9844878 13.2577561,4.12497561 14.7221463,3.27473171 C16.2167805,2.40643902 17.7158049,1.54643902 19.2143415,0.685463415 C19.2962927,0.638146341 19.3894634,0.609853659 19.4777561,0.572780488" id="Fill-27" fill="#FFFFFF"></path>
            <path d="M9.47473171,18.0805366 C8.744,18.4800488 7.99570732,18.8512683 7.28595122,19.2859024 C6.08253659,20.0224878 4.84253659,20.6937073 3.6235122,21.4024878 C2.41717073,22.1039512 1.22156098,22.8229756 0.0210731707,23.5341951 C0.0166829268,19.9537073 0.0113170732,16.3732195 0.0083902439,12.7927317 C0.00790243902,12.7454146 0.0274146341,12.6985854 0.0488780488,12.6015122 C1.26302439,13.3029756 2.46009756,13.9951707 3.65765854,14.6863902 C5.50497561,15.7532195 7.35278049,16.8190732 9.19960976,17.8873659 C9.29619512,17.9429756 9.38302439,18.0156585 9.47473171,18.0805366" id="Fill-29" fill="#FFFFFF"></path>
            <path d="M10.429122,41.3272195 C10.2505854,41.018439 10.5520488,40.9667317 10.6993659,40.8799024 C11.8066829,40.2320976 12.9247317,39.6033171 14.0369268,38.9642927 C15.7676585,37.9686829 17.5018049,36.9794146 19.2208293,35.9642927 C19.5549756,35.7672195 19.589122,35.8589268 19.5886341,36.1745366 C19.5847317,39.493561 19.5861951,42.8125854 19.5861951,46.1316098 C19.5861951,46.2916098 19.6149756,46.4686829 19.3861951,46.5081951 C16.676439,44.9472195 13.9661951,43.3872195 11.2569268,41.8257561 C10.9779024,41.6647805 10.7047317,41.493561 10.429122,41.3272195" id="Fill-31" fill="#FFFFFF"></path>
        </g>
    </g>
</svg>