<?xml version="1.0" encoding="UTF-8"?>
<svg viewBox="0 0 300 40" version="1.1" xmlns="http://www.w3.org/2000/svg" xmlns:xlink="http://www.w3.org/1999/xlink">
    <g id="Adhive-ICO" stroke="none" stroke-width="1" fill="none" fill-rule="evenodd" transform="translate(-364.000000, -5759.000000)">
        <g id="Page-1" transform="translate(364.000000, 5759.000000)" fill="#FFFFFF">
            <path d="M11.2246817,1.39182752 L0.000246406571,39.0908008 L5.82160164,39.0908008 L8.52283368,29.7766324 L18.583614,29.7766324 L21.3784805,39.0908008 L27.2004517,39.0908008 L15.9285832,1.39182752 L11.2246817,1.39182752 Z M13.6000411,11.2049692 L16.86,23.7895688 L10.2932649,23.7895688 L13.6000411,11.2049692 Z" id="Fill-1"></path>
            <g id="Group-22" transform="translate(30.800821, 0.497495)">
                <path d="M11.5334908,32.2731622 C15.4458111,32.2731622 17.7743532,30.6099179 17.7743532,26.8405133 L17.7743532,13.8678234 C17.7743532,8.98897331 15.8647023,7.214846 11.6265092,7.214846 L5.66470226,7.214846 L5.66470226,32.2731622 L11.5334908,32.2731622 Z M0.0755852156,0.894517454 L11.6265092,0.894517454 C19.0322587,0.894517454 23.3634702,5.82880903 23.3634702,14.0341478 L23.3634702,26.8405133 C23.3634702,34.4353799 18.3336961,38.5934908 11.5334908,38.5934908 L2.77743326,38.5934908 L0.0755852156,38.5934908 L0.0755852156,0.894517454 Z" id="Fill-2"></path>
                <polygon id="Fill-4" points="54.3339425 0.894517454 43.0626899 38.5934908 36.9610472 38.5934908 25.6897947 0.894517454 31.9774743 0.894517454 40.0355852 30.4435934 48.0462628 0.894517454"></polygon>
                <polygon id="Fill-6" points="58.0571458 0.894517454 79.0152567 0.894517454 79.0152567 7.214846 63.6462628 7.214846 63.6462628 16.4175154 77.4320945 16.4175154 77.4320945 22.7378439 63.6462628 22.7378439 63.6462628 32.2731622 79.0152567 32.2731622 79.0152567 38.5934908 58.0571458 38.5934908"></polygon>
                <path d="M89.2592402,19.1340862 L96.0126283,19.1340862 C102.486961,19.1340862 102.486961,7.10390144 96.0126283,7.10390144 L89.2592402,7.10390144 L89.2592402,19.1340862 Z M100.390657,38.5934292 L93.9631417,25.4544148 L89.2592402,25.3435318 L89.2592402,38.5934292 L83.6701232,38.5934292 L83.6701232,0.894455852 L95.9658111,0.894455852 C108.401335,0.894455852 109.799076,20.5755647 100.157187,24.7336756 L107.376899,38.5934292 L100.390657,38.5934292 Z" id="Fill-8"></path>
                <polygon id="Fill-10" points="118.459836 7.32572895 109.23807 7.32572895 109.23807 0.894517454 133.690226 0.894517454 133.690226 7.32572895 124.048953 7.32572895 124.048953 38.5934908 118.459836 38.5934908"></polygon>
                <path d="M148.452136,32.8275154 C152.411273,32.8275154 154.879651,30.5550308 154.879651,26.4523614 L154.879651,12.9806982 C154.879651,8.60082136 152.364456,6.71581109 148.452136,6.71581109 C144.539199,6.77125257 142.071437,8.65626283 142.071437,12.9806982 L142.071437,26.4523614 C142.071437,30.5550308 144.539199,32.8275154 148.452136,32.8275154 M148.452136,0.118275154 C154.972669,0.118275154 160.934476,4.60903491 160.934476,12.9806982 L160.934476,26.4523614 C160.934476,34.7679671 154.972669,39.4250513 148.452136,39.4250513 C141.884784,39.4250513 136.016612,34.7679671 136.016612,26.4523614 L136.016612,12.9806982 C136.016612,4.60903491 141.884784,0.118275154 148.452136,0.118275154" id="Fill-12"></path>
                <polygon id="Fill-14" points="165.588727 0.894517454 171.177844 0.894517454 171.177844 32.2731622 184.68462 32.2731622 184.68462 38.5934908 165.588727 38.5934908"></polygon>
                <path d="M200.844209,32.8275154 C204.803347,32.8275154 207.271725,30.5550308 207.271725,26.4523614 L207.271725,12.9806982 C207.271725,8.60082136 204.75653,6.71581109 200.844209,6.71581109 C196.931273,6.77125257 194.463511,8.65626283 194.463511,12.9806982 L194.463511,26.4523614 C194.463511,30.5550308 196.931273,32.8275154 200.844209,32.8275154 M200.844209,0.118275154 C207.364743,0.118275154 213.32655,4.60903491 213.32655,12.9806982 L213.32655,26.4523614 C213.32655,34.7679671 207.364743,39.4250513 200.844209,39.4250513 C194.276858,39.4250513 188.408686,34.7679671 188.408686,26.4523614 L188.408686,12.9806982 C188.408686,4.60903491 194.276858,0.118275154 200.844209,0.118275154" id="Fill-16"></path>
                <path d="M242.665934,24.7889322 C242.712136,33.8252772 238.101253,39.0367762 230.510082,39.0367762 C222.870862,39.0367762 217.980924,33.6041273 217.980924,24.7889322 L217.980924,14.9209651 C217.980924,6.10577002 222.91768,0.451355236 230.416448,0.451355236 C235.865729,0.451355236 239.685031,3.22342916 241.594682,8.2125462 L236.285236,10.9846201 C235.307002,8.26798768 233.956078,7.04827515 230.416448,7.04827515 C225.479692,7.04827515 223.709877,9.65402464 223.709877,14.9209651 L223.709877,24.6780493 C223.709877,30.1113142 225.805565,32.4392402 230.556283,32.4392402 C235.400021,32.4392402 236.936982,30.2776386 236.936982,24.7889322 L236.936982,23.0702464 L228.832669,23.0702464 L228.832669,17.0831828 L242.712136,17.0831828 L242.665934,23.0702464 L242.665934,24.7889322 Z" id="Fill-18"></path>
                <polygon id="Fill-20" points="253.049815 23.2921971 242.709979 0.894455852 249.323532 0.894455852 255.890267 17.0273101 262.830308 0.894455852 268.978152 0.894455852 258.824969 23.2921971 258.778768 38.5934292 253.049815 38.5934292"></polygon>
            </g>
        </g>
    </g>
</svg>