<svg  viewBox="0 0 144 28" version="1.1" xmlns="http://www.w3.org/2000/svg" xmlns:xlink="http://www.w3.org/1999/xlink">
    <defs>
        <polygon id="path-1" points="0.333415624 0.965036752 10.0469624 0.965036752 10.0469624 15.1756949 0.333415624 15.1756949"></polygon>
    </defs>
    <g id="2" stroke="none" stroke-width="1" fill="none" fill-rule="evenodd">
        <g id="Entrepreneur">
            <polygon id="Fill-1" fill="#FFFFFF" points="0.104924167 0 0 1.86102186 2.02049916 2.13297213 2.02049916 19.3246393 0.211266228 19.6215796 0.131864156 21.5384615 12.9850746 21.5384615 12.7752263 16.1126861 10.1266 16.030366 9.75794754 19.5951196 5.82329127 19.5951196 5.82329127 11.3895714 7.52760004 11.3895714 7.94729671 13.2241332 9.70690335 13.2241332 9.70690335 7.88067788 7.94729671 7.82628783 7.55454003 9.60792961 5.85023126 9.60792961 5.85023126 1.86102186 9.75794754 1.86102186 9.91533379 5.12736513 12.4335138 5.20821521 12.7482863 0"></polygon>
            <g id="Group-25" transform="translate(14.067164, 4.307692)">
                <path d="M0.413041982,16.8261393 L0.491982401,15.3358573 L1.91003938,15.0592675 L1.91003938,4.91076325 L0.255161144,4.76077179 L0.255161144,3.24572051 L4.40312134,2.66501966 L4.71888301,3.52368632 L4.71888301,4.10301111 C5.71640285,3.09435299 6.92347362,2.48750684 8.47357639,2.48750684 C10.7312724,2.48750684 12.4105504,3.80165214 12.4105504,6.4010453 L12.4105504,15.0344983 L13.9075478,15.311088 L13.8286074,16.8013701 L8.89267825,16.8013701 L8.89267825,7.15788291 C8.89267825,5.76942991 8.36736565,4.98644701 7.05551941,4.98644701 C6.60914723,4.98644701 6.29482083,5.06213077 5.95178883,5.18872906 C5.7422379,5.36624188 5.53268697,5.61806239 5.34897108,5.84511368 L5.34897108,15.0840368 L6.8445332,15.3620026 L6.73975774,16.8509085 L0.413041982,16.8509085 L0.413041982,16.8261393 Z" id="Fill-2" fill="#FFFFFF"></path>
                <path d="M79.7254855,16.8261393 L79.7785909,15.3358573 L81.1966479,15.0592675 L81.1966479,4.91076325 L79.5417697,4.76077179 L79.5417697,3.24572051 L83.6897299,2.66501966 L84.0040563,3.52368632 L84.0040563,4.10301111 C85.0015761,3.09435299 86.2100821,2.48750684 87.7587496,2.48750684 C90.0164456,2.48750684 91.6971589,3.80165214 91.6971589,6.4010453 L91.6971589,15.0344983 L93.192721,15.311088 L93.1152159,16.8013701 L88.2051218,16.8013701 L88.2051218,7.15788291 C88.2051218,5.76942991 87.6798092,4.98644701 86.367963,4.98644701 C85.9215908,4.98644701 85.6072644,5.06213077 85.2642324,5.18872906 C85.0546815,5.36624188 84.8451305,5.61806239 84.6614147,5.84511368 L84.6614147,15.0840368 L86.1569768,15.3620026 L86.0522013,16.8509085 L79.7254855,16.8509085 L79.7254855,16.8261393 Z" id="Fill-4" fill="#FFFFFF"></path>
                <path d="M21.7311174,16.5484487 C21.1541347,16.7755 20.1293445,17.0286966 18.790228,17.0286966 C17.0320096,17.0286966 15.4044016,16.271859 15.4044016,13.797688 L15.4044016,4.91103846 L13.7236884,4.65921795 L13.8026288,2.89234615 L15.692893,2.81666239 L16.5066969,0.115440171 L18.9222738,0.0149871795 L18.9222738,2.91711538 L21.5201312,2.91711538 L21.3364153,4.68398718 L18.9481088,4.93718376 L18.9481088,13.8224573 C18.9481088,14.5545256 19.368646,15.0333974 20.1551796,15.0333974 L21.5732366,15.0333974 L21.7311174,16.5484487 Z" id="Fill-6" fill="#FFFFFF"></path>
                <g id="Group-10" transform="translate(119.481459, 1.675214)">
                    <mask id="mask-2" fill="white">
                        <use xlink:href="#path-1"></use>
                    </mask>
                    <g id="Clip-9"></g>
                    <path d="M0.517131508,15.1509256 L0.570236881,13.6867889 L1.90935344,13.3840538 L1.90935344,3.23554957 L0.333415624,3.08555812 L0.333415624,1.57050684 L4.63925665,0.989805983 L4.927748,1.97507094 L4.927748,2.30257521 C6.05587835,1.49482308 7.58014608,0.965036752 9.41730492,0.965036752 L10.047393,1.49482308 L9.6010208,5.33130171 L7.23854936,5.25561795 L7.0017281,3.21078034 C6.45058045,3.2864641 5.92526784,3.43783162 5.47889566,3.74194274 L5.47889566,13.4088231 L6.97445777,13.7115581 L6.86968231,15.1756949 L0.517131508,15.1756949 L0.517131508,15.1509256 Z" id="Fill-8" fill="#FFFFFF" mask="url(#mask-2)"></path>
                </g>
                <path d="M58.171163,16.8261393 L58.2501034,15.3620026 L59.58922,15.0592675 L59.58922,4.91076325 L58.0132821,4.76077179 L58.0132821,3.24572051 L62.3191232,2.66501966 L62.6076145,3.65028462 L62.6076145,3.97778889 C63.7371802,3.17003675 65.2600126,2.64025043 67.0971714,2.64025043 L67.7272595,3.17003675 L67.2292172,7.00651538 L64.8653105,6.93083162 L64.6284893,4.88599402 C64.0787769,4.96167778 63.5534643,5.1130453 63.1070921,5.41715641 L63.1070921,15.0840368 L64.6026542,15.3867718 L64.4978787,16.8509085 L58.171163,16.8509085 L58.171163,16.8261393 Z" id="Fill-11" fill="#FFFFFF"></path>
                <path d="M22.781312,16.8261393 L22.8602524,15.3620026 L24.199369,15.0592675 L24.199369,4.91076325 L22.6234312,4.76077179 L22.6234312,3.24572051 L26.9292722,2.66501966 L27.2177636,3.65028462 L27.2177636,3.97778889 C28.3473292,3.17003675 29.8701616,2.64025043 31.6814854,2.64025043 L32.3115735,3.17003675 L31.8652013,7.00651538 L29.5027299,6.93083162 L29.2659086,4.88599402 C28.714761,4.96167778 28.1894484,5.1130453 27.7430762,5.41715641 L27.7430762,15.0840368 L29.2386383,15.3867718 L29.1338628,16.8509085 L22.781312,16.8509085 L22.781312,16.8261393 Z" id="Fill-13" fill="#FFFFFF"></path>
                <path d="M36.3810239,10.6415376 C36.3810239,13.064794 37.4833192,14.9334949 39.6620747,14.9334949 C40.7916404,14.9334949 41.6843847,14.7064436 42.7335747,14.2261957 L43.3378277,15.5637342 C42.2613674,16.3976316 40.6854296,17.0278709 38.7176603,17.0278709 C34.8840265,17.0278709 32.6780006,13.8477769 32.6780006,9.75810171 C32.6780006,6.27527265 34.2797734,2.46218718 38.6645549,2.46218718 C42.4981887,2.46218718 43.9420807,5.87070855 43.9420807,9.65764872 L43.5746489,10.5658538 L36.3810239,10.6415376 Z M36.3279185,9.02603333 L40.738535,8.82375128 C40.6595946,7.13256325 40.2935981,4.45748632 38.5597794,4.45748632 C38.1392423,4.45748632 37.8507509,4.53317009 37.3254383,4.7849906 C36.6164098,5.94639231 36.3279185,8.04214444 36.3279185,9.02603333 Z" id="Fill-15" fill="#FFFFFF"></path>
                <path d="M97.3945042,10.6415376 C97.3945042,13.064794 98.4967995,14.9334949 100.675555,14.9334949 C101.805121,14.9334949 102.697865,14.7064436 103.747055,14.2261957 L104.351308,15.5637342 C103.274848,16.3976316 101.69891,17.0278709 99.7311406,17.0278709 C95.8975068,17.0278709 93.6914809,13.8477769 93.6914809,9.75810171 C93.6914809,6.27527265 95.2932538,2.46218718 99.6780352,2.46218718 C103.511669,2.46218718 104.955561,5.87070855 104.955561,9.65764872 L104.588129,10.5658538 L97.3945042,10.6415376 Z M97.3413988,9.02603333 L101.752015,8.82375128 C101.673075,7.13256325 101.307078,4.45748632 99.5732598,4.45748632 C99.1527226,4.45748632 98.8642313,4.53317009 98.3389187,4.7849906 C97.6298902,5.94639231 97.3413988,8.04214444 97.3413988,9.02603333 Z" id="Fill-17" fill="#FFFFFF"></path>
                <path d="M71.7708748,10.6415376 C71.7708748,13.064794 72.8731701,14.9334949 75.0519257,14.9334949 C76.1814913,14.9334949 77.0742357,14.7064436 78.1234256,14.2261957 L78.7276787,15.5637342 C77.6512184,16.3976316 76.0752806,17.0278709 74.1075112,17.0278709 C70.2738774,17.0278709 68.0692868,13.8477769 68.0692868,9.75810171 C68.0692868,6.27527265 69.6696244,2.46218718 74.0544059,2.46218718 C77.8880397,2.46218718 79.3319317,5.87070855 79.3319317,9.65764872 L78.9644999,10.5658538 L71.7708748,10.6415376 Z M71.7177695,9.02603333 L76.128386,8.82375128 C76.0494455,7.13256325 75.683449,4.45748632 73.9496304,4.45748632 C73.5290932,4.45748632 73.2406019,4.53317009 72.7152893,4.7849906 C72.0062608,5.94639231 71.6919344,8.04214444 71.7177695,9.02603333 Z" id="Fill-19" fill="#FFFFFF"></path>
                <path d="M114.879233,16.8261393 L114.511801,15.6151991 C113.540116,16.498635 112.595702,17.0284214 111.12454,17.0284214 C108.866844,17.0284214 106.845969,15.9427034 106.845969,12.9387462 L106.845969,4.55848974 L105.191091,4.40712222 L105.191091,3.06820769 L109.969139,2.53842137 L110.338006,3.75073761 L110.338006,12.5341821 C110.338006,14.0753786 110.993929,14.8831308 112.27994,14.8831308 C112.647372,14.8831308 113.121014,14.8322162 113.540116,14.6808487 C113.776938,14.4524214 114.013759,14.1758316 114.197475,13.8978658 L114.197475,4.55848974 L112.489491,4.40712222 L112.489491,3.06820769 L117.320645,2.53842137 L117.688077,3.75073761 L117.688077,15.0592675 L119.185074,15.3358573 L119.001358,16.8261393 L114.879233,16.8261393" id="Fill-21" fill="#FFFFFF"></path>
                <path d="M51.1094402,15.009041 C50.3473063,15.009041 49.7430533,14.8824427 49.270846,14.6306222 L49.270846,5.71920342 C49.4818323,5.41646838 49.7172182,5.13850256 49.9540395,4.88668205 C50.4004117,4.73393846 50.7936785,4.6844 51.2658857,4.6844 C53.2350904,4.6844 53.5766871,6.60263932 53.5766871,10.0359299 C53.5766871,13.3426222 53.0513745,14.2508274 52.920764,14.6306222 C52.3696163,14.8824427 51.7911983,15.009041 51.1094402,15.009041 M56.9897837,9.43045983 C56.9897837,5.16464786 55.6765022,2.48819487 52.3954514,2.48819487 C50.2166958,2.48819487 49.1933409,3.70051111 48.7713685,4.20552821 L48.7713685,3.72528034 L48.405372,2.51434017 L44.125366,3.09366496 L44.125366,4.55780171 L45.7802443,4.76008376 L45.7802443,21.9746991 L44.3621873,22.254041 L44.2832469,23.6920325 L50.6099626,23.6920325 L50.7147381,22.254041 L49.219176,21.9746991 L49.219176,16.5227162 C49.8219937,16.8515966 50.663068,17.0538786 51.5816474,17.0538786 C56.9366784,17.0538786 56.9897837,11.8275709 56.9897837,9.43045983" id="Fill-23" fill="#FFFFFF"></path>
            </g>
        </g>
    </g>
</svg>