<?xml version="1.0" encoding="UTF-8"?>
<svg viewBox="0 0 140 19" version="1.1" xmlns="http://www.w3.org/2000/svg" xmlns:xlink="http://www.w3.org/1999/xlink">
    <g id="2" stroke="none" stroke-width="1" fill="none" fill-rule="evenodd">
        <g id="Adhive-ICO-16.05" transform="translate(-445.000000, -826.000000)" fill="#FFFFFF" fill-rule="nonzero">
            <g id="venturebeat-seeklogo.com" transform="translate(445.000000, 826.000000)">
                <path d="M98.9411765,0.11875 C99.6470588,0.2375 100.352941,0.2375 100.941176,0.475 C103.647059,1.1875 105.058824,4.5125 103.647059,7.00625 C103.294118,7.6 102.823529,7.95625 102.235294,8.3125 C102,8.43125 101.764706,8.55 101.411765,8.7875 C101.529412,8.90625 101.647059,8.90625 101.764706,8.90625 C103.647059,9.5 104.470588,10.925 104.588235,12.70625 C104.823529,15.31875 103.176471,17.21875 100.588235,17.45625 C99.7647059,17.575 98.9411765,17.575 98.2352941,17.575 L90.1176471,17.575 L90.1176471,14.0125 L91.6470588,14.0125 L91.6470588,3.5625 L90.1176471,3.5625 L90.1176471,0 C93.1764706,0.11875 96,0.11875 98.9411765,0.11875 Z M96.3529412,10.56875 L96.3529412,14.0125 C96.3529412,14.13125 96.4705882,14.25 96.5882353,14.25 L98.5882353,14.25 C99.0588235,14.25 99.5294118,14.0125 99.7647059,13.5375 C100.352941,12.46875 99.7647059,11.04375 98.5882353,10.80625 C97.8823529,10.56875 97.1764706,10.56875 96.3529412,10.56875 Z M96.3529412,7.24375 C97.0588235,7.24375 97.6470588,7.24375 98.3529412,7.125 C99.1764706,7.00625 99.6470588,6.29375 99.6470588,5.4625 C99.6470588,4.63125 99.1764706,3.91875 98.4705882,3.8 C97.7647059,3.68125 97.0588235,3.68125 96.3529412,3.68125 L96.3529412,7.24375 Z M16.7058824,0.11875 L16.7058824,3.68125 L16,3.68125 C15.6470588,3.5625 15.5294118,3.8 15.5294118,4.0375 C14.4705882,7.71875 13.2941176,11.28125 12.1176471,14.9625 C11.8823529,15.79375 11.6470588,16.625 11.2941176,17.45625 C11.2941176,17.575 11.0588235,17.69375 10.9411765,17.69375 L5.52941176,17.69375 L5.41176471,17.3375 C4,12.94375 2.58823529,8.43125 1.29411765,4.0375 C1.17647059,3.68125 1.05882353,3.68125 0.705882353,3.68125 L0,3.68125 L0,0.11875 L7.52941176,0.11875 L7.52941176,3.68125 L6,3.68125 C6.82352941,7.00625 7.64705882,10.33125 8.47058824,13.5375 L8.58823529,13.5375 L11.2941176,3.68125 L9.76470588,3.68125 L9.76470588,0.11875 L16.7058824,0.11875 Z M139.411765,8.43125 L137.647059,8.43125 C137.529412,8.43125 137.411765,8.55 137.411765,8.66875 L137.411765,13.18125 C137.411765,14.13125 138,14.60625 139.058824,14.36875 L139.294118,14.36875 L139.294118,17.21875 C139.294118,17.45625 139.294118,17.575 139.058824,17.575 C137.764706,17.8125 136.470588,17.93125 135.058824,17.69375 C133.529412,17.3375 132.823529,16.50625 132.823529,14.9625 L132.823529,8.3125 L132.352941,8.3125 C131.647059,8.3125 131.764706,8.43125 131.764706,7.71875 L131.764706,4.75 L133.176471,4.75 L133.176471,2.375 C133.176471,1.54375 133.058824,1.6625 133.882353,1.54375 C135.058824,1.30625 136.117647,1.06875 137.411765,0.7125 L137.411765,4.75 L139.529412,4.75 C139.411765,6.05625 139.411765,7.24375 139.411765,8.43125 Z M28.5882353,4.86875 L33.6470588,4.86875 L33.7647059,6.65 C34.1176471,6.29375 34.3529412,5.9375 34.5882353,5.7 C36,4.5125 37.6470588,4.275 39.4117647,4.86875 C40.7058824,5.34375 41.2941176,6.4125 41.2941176,7.8375 L41.2941176,14.13125 L42.3529412,14.13125 L42.3529412,17.69375 L36.7058824,17.69375 L36.7058824,9.7375 C36.7058824,9.025 36.4705882,8.66875 36,8.55 C35.4117647,8.43125 34.9411765,8.55 34.5882353,9.025 L34.3529412,9.38125 L34.2352941,9.7375 L34.2352941,14.13125 L35.0588235,14.13125 L35.0588235,17.69375 L28.5882353,17.69375 L28.5882353,14.13125 L29.5294118,14.13125 L29.5294118,8.43125 L28.5882353,8.43125 L28.5882353,4.86875 Z M59.4117647,8.3125 L58.5882353,8.3125 L58.5882353,4.75 L64.1176471,4.75 L64.1176471,14.13125 L65.1764706,14.13125 L65.1764706,17.69375 L60,17.69375 L60,16.3875 C59.7647059,16.625 59.6470588,16.8625 59.4117647,16.98125 C58.1176471,18.16875 55.8823529,18.40625 54.3529412,17.69375 C53.1764706,17.1 52.5882353,16.15 52.5882353,14.84375 L52.4705882,8.90625 L52.4705882,8.43125 L51.4117647,8.43125 L51.4117647,4.86875 L57.0588235,4.86875 L57.0588235,12.46875 C57.0588235,12.825 57.0588235,13.18125 57.1764706,13.41875 C57.2941176,13.89375 57.7647059,14.13125 58.2352941,14.13125 C58.7058824,14.13125 59.0588235,13.89375 59.2941176,13.41875 C59.4117647,13.3 59.4117647,13.0625 59.4117647,12.825 L59.4117647,8.3125 Z M125.529412,9.7375 L125.529412,8.55 C125.529412,7.8375 125.058824,7.3625 124.470588,7.3625 C123.882353,7.3625 123.294118,7.8375 123.294118,8.43125 L123.294118,8.90625 L119.058824,8.90625 C118.941176,7.24375 119.764706,5.81875 121.294118,5.10625 C123.529412,4.15625 125.882353,4.15625 128.117647,5.225 C129.529412,5.9375 130.235294,7.00625 130.235294,8.55 L130.235294,13.89375 L131.294118,13.89375 L131.294118,17.45625 L126,17.45625 C126,16.98125 125.882353,16.625 125.882353,16.03125 C125.764706,16.15 125.647059,16.26875 125.647059,16.3875 C124.235294,18.05 121.647059,18.05 120.235294,17.3375 C119.176471,16.74375 118.705882,15.675 118.588235,14.4875 C118.470588,11.875 119.764706,10.2125 122.470588,9.7375 L125.294118,9.5 C125.176471,9.7375 125.294118,9.7375 125.529412,9.7375 Z M125.529412,11.99375 L124.470588,11.99375 C123.411765,12.1125 122.941176,12.94375 123.058824,13.89375 C123.176471,14.725 123.882353,15.2 124.705882,14.84375 C125.176471,14.725 125.411765,14.36875 125.529412,13.89375 L125.529412,11.99375 Z M27.7647059,12.1125 L19.8823529,12.1125 C19.8823529,12.825 19.8823529,13.5375 20.2352941,14.13125 C20.4705882,14.60625 21.0588235,14.84375 21.5294118,14.84375 C22,14.84375 22.5882353,14.60625 22.8235294,14.0125 C22.9411765,13.775 22.9411765,13.5375 23.0588235,13.18125 L27.4117647,13.18125 C27.2941176,14.60625 26.7058824,15.79375 25.5294118,16.625 C24.7058824,17.21875 23.7647059,17.575 22.8235294,17.69375 C21.5294118,17.93125 20.1176471,17.8125 18.8235294,17.45625 C17.0588235,16.8625 15.8823529,15.675 15.4117647,14.0125 C14.8235294,12.1125 14.8235294,10.2125 15.4117647,8.3125 C16.1176471,6.05625 17.7647059,4.75 20.1176471,4.39375 C21.1764706,4.275 22.2352941,4.275 23.2941176,4.63125 C25.6470588,5.34375 26.9411765,6.8875 27.4117647,9.38125 C27.6470588,10.33125 27.6470588,11.1625 27.7647059,12.1125 Z M20,9.61875 L23.0588235,9.61875 C23.0588235,8.90625 23.0588235,8.3125 22.3529412,7.95625 C21.7647059,7.6 21.1764706,7.6 20.7058824,7.95625 C20,8.3125 20,8.90625 20,9.61875 Z M89.0588235,12.1125 L81.1764706,12.1125 C81.1764706,12.825 81.1764706,13.5375 81.5294118,14.13125 C81.8823529,14.725 82.3529412,14.84375 82.9411765,14.84375 C83.5294118,14.84375 84,14.4875 84.2352941,14.0125 L84.4705882,13.3 L88.8235294,13.3 C88.5882353,15.9125 86.7058824,17.69375 84.1176471,17.93125 C82.8235294,18.05 81.6470588,18.05 80.4705882,17.575 C78.7058824,16.98125 77.5294118,15.79375 76.9411765,14.0125 C76.3529412,12.1125 76.3529412,10.33125 76.9411765,8.43125 C77.6470588,6.05625 79.4117647,4.86875 81.7647059,4.5125 C82.8235294,4.39375 84,4.39375 85.0588235,4.75 C87.2941176,5.4625 88.4705882,7.00625 88.9411765,9.14375 C89.0588235,10.2125 89.0588235,11.1625 89.0588235,12.1125 Z M81.4117647,9.61875 L84.4705882,9.61875 C84.4705882,8.3125 83.8823529,7.6 82.8235294,7.71875 C81.8823529,7.8375 81.2941176,8.55 81.4117647,9.61875 Z M118,12.1125 L110.117647,12.1125 C110.117647,12.94375 110.117647,13.65625 110.588235,14.25 C110.941176,14.725 111.411765,14.84375 112,14.84375 C112.588235,14.84375 112.941176,14.4875 113.176471,14.0125 L113.411765,13.3 L117.764706,13.3 C117.647059,14.725 117.058824,15.9125 115.882353,16.74375 C114.470588,17.8125 112.941176,18.05 111.294118,17.93125 C110.588235,17.93125 110,17.8125 109.294118,17.575 C107.529412,17.1 106.470588,15.9125 105.882353,14.25 C105.294118,12.23125 105.176471,10.2125 106,8.19375 C106.823529,6.05625 108.470588,4.86875 110.705882,4.63125 C111.764706,4.5125 112.941176,4.63125 114,4.86875 C116.235294,5.58125 117.411765,7.24375 117.882353,9.5 C117.882353,10.33125 118,11.1625 118,12.1125 Z M113.411765,9.7375 C113.411765,9.025 113.294118,8.3125 112.705882,7.95625 C112.117647,7.6 111.529412,7.6 110.941176,8.075 C110.470588,8.43125 110.352941,9.025 110.352941,9.7375 L113.411765,9.7375 Z M42.9411765,4.75 L44.3529412,4.75 L44.3529412,2.25625 C44.3529412,1.78125 44.4705882,1.6625 44.9411765,1.54375 L48.5882353,0.7125 L48.5882353,4.75 L50.5882353,4.75 L50.5882353,8.3125 L48.5882353,8.3125 L48.5882353,13.3 C48.7058824,14.13125 49.2941176,14.4875 50,14.36875 C50.1176471,14.36875 50.2352941,14.36875 50.4705882,14.25 L50.4705882,16.50625 C50.4705882,17.575 50.4705882,17.575 49.4117647,17.69375 C48.3529412,17.8125 47.2941176,17.93125 46.1176471,17.69375 C44.5882353,17.3375 43.8823529,16.3875 43.8823529,14.84375 L43.8823529,8.3125 L42.8235294,8.3125 C42.9411765,7.24375 42.9411765,6.05625 42.9411765,4.75 Z M66.1176471,17.69375 L66.1176471,14.13125 L67.1764706,14.13125 L67.1764706,8.43125 L66.1176471,8.43125 L66.1176471,4.86875 L71.0588235,4.86875 C71.0588235,5.4625 71.1764706,6.175 71.1764706,6.8875 C71.2941176,6.76875 71.2941176,6.65 71.2941176,6.53125 C71.6470588,5.4625 72.4705882,4.86875 73.5294118,4.75 L75.1764706,4.75 C75.2941176,4.75 75.4117647,4.86875 75.4117647,4.9875 L75.4117647,8.90625 C74.8235294,8.90625 74.1176471,8.7875 73.5294118,8.90625 C72.2352941,9.14375 71.6470588,9.85625 71.5294118,11.1625 L71.5294118,14.0125 L72.9411765,14.0125 L72.9411765,17.575 C70.8235294,17.69375 68.4705882,17.69375 66.1176471,17.69375 Z" id="Shape"></path>
            </g>
        </g>
    </g>
</svg>