<?xml version="1.0" encoding="UTF-8"?>
<svg viewBox="0 0 250 49" version="1.1" xmlns="http://www.w3.org/2000/svg" xmlns:xlink="http://www.w3.org/1999/xlink">
    <defs>
        <polygon id="path-1" points="0.446110369 0 36.561166 0 36.561166 48.9128953 0.446110369 48.9128953"></polygon>
        <polygon id="path-3" points="0.431223695 9.88142293e-05 36.5615119 9.88142293e-05 36.5615119 48.9130435 0.431223695 48.9130435"></polygon>
        <polygon id="path-5" points="0.39604012 0.275769046 36.8196786 0.275769046 36.8196786 36.5612648 0.39604012 36.5612648"></polygon>
        <polygon id="path-7" points="0 48.9130435 249.51334 48.9130435 249.51334 0 0 0"></polygon>
    </defs>
    <g id="Adhive-ICO" stroke="none" stroke-width="1" fill="none" fill-rule="evenodd" transform="translate(-62.000000, -5751.000000)">
        <g id="Page-1" transform="translate(62.000000, 5751.000000)">
            <g id="Group-3" transform="translate(137.351779, 0.000000)">
                <mask id="mask-2" fill="white">
                    <use xlink:href="#path-1"></use>
                </mask>
                <g id="Clip-2"></g>
                <path d="M28.2281621,30.8466897 C28.2736166,24.8269269 24.3516798,20.4870059 18.7647233,20.3738636 C13.2607708,20.2626976 9.01225296,24.6861166 8.98063241,30.5611166 C8.94851779,36.480583 13.0586957,41.0097332 18.498913,41.0507411 C24.1140316,41.0927372 28.1832016,36.8249506 28.2281621,30.8466897 Z M14.8220356,48.9128953 C9.96086957,47.6589427 5.95197628,45.2127964 3.21581028,40.8585474 C-1.675,33.0754447 0.098715415,21.41833 7.05968379,15.9608202 C12.7810277,11.4751482 20.1995059,11.4084486 26.0315217,15.7883893 C26.4717391,16.1189229 26.9173913,16.4415514 27.6678854,16.994417 L27.6678854,-0.000148221344 L36.561166,-0.000148221344 C36.5216403,13.0537055 36.4801383,26.1075593 36.443083,39.160919 C36.4351779,41.9420455 36.4420949,44.7231719 36.4420949,47.7039032 L28.0028656,47.7039032 C27.8798419,46.7083498 27.7652174,45.779496 27.6802372,45.0912549 C24.8264822,46.3876976 22.047332,47.6505435 19.2686759,48.9128953 L14.8220356,48.9128953 Z" id="Fill-1" fill="#FFFFFF" mask="url(#mask-2)"></path>
            </g>
            <g id="Group-6" transform="translate(44.960474, 0.000000)">
                <mask id="mask-4" fill="white">
                    <use xlink:href="#path-3"></use>
                </mask>
                <g id="Clip-5"></g>
                <path d="M28.2423419,30.7634387 C28.2630929,24.6858696 24.4043972,20.4581028 18.7586462,20.3741107 C13.242836,20.2916008 9.10301383,24.6863636 9.08522727,30.6438735 C9.06694664,36.5737154 13.1766304,41.0445652 18.6524209,41.0524704 C24.2680336,41.0608696 28.2215909,36.8192688 28.2423419,30.7634387 Z M14.8223814,48.9131423 C10.354002,47.7090909 6.58670949,45.5065217 3.80508893,41.668083 C-3.05360672,32.2031621 1.04767787,17.0905138 11.5664526,13.494664 C16.8218874,11.6977273 21.7467885,12.4329051 26.1909585,15.8746047 C26.5150692,16.126087 26.8342391,16.3874506 27.1800889,16.60583 C27.2887846,16.6745059 27.4775198,16.6162055 28.1623024,16.6162055 L28.1623024,9.88142293e-05 L36.5615119,9.88142293e-05 L36.5615119,47.7298419 L28.1865119,47.7298419 C28.0595356,46.7772727 27.9335474,45.8326087 27.8297925,45.0539526 C24.9434289,46.3548419 22.1059783,47.6339921 19.2690217,48.9131423 L14.8223814,48.9131423 Z" id="Fill-4" fill="#FFFFFF" mask="url(#mask-4)"></path>
            </g>
            <path d="M29.2591403,29.7468379 C27.0708992,24.1732213 25.0778162,19.0976285 22.8362154,13.3881423 C20.5728755,19.1238142 18.5461957,24.2596838 16.4281126,29.6272727 C17.5447134,29.6791502 18.2719862,29.7399209 18.999753,29.7423913 C22.2793972,29.7527668 25.5595356,29.7468379 29.2591403,29.7468379 M0.000247035573,47.4306324 C1.99085968,42.6040514 4.04520751,37.8021739 5.95874506,32.9444664 C9.87524704,23.0027668 13.7383893,13.0398221 17.5600296,3.06106719 C18.041749,1.80365613 18.6311759,1.29476285 20.0358202,1.27055336 C27.2759387,1.14752964 27.2487648,1.11442688 29.8421443,7.85306324 C34.7131917,20.5086957 39.61833,33.1509881 44.5046937,45.8001976 C44.735919,46.3985178 44.9231719,47.0141304 45.1870059,47.7848814 L36.201334,47.7848814 C35.2423419,45.3140316 34.1702075,42.7577075 33.2680336,40.143083 C32.7976779,38.7789526 32.11833,38.1870553 30.610919,38.2102767 C25.3441206,38.2913043 20.0733696,38.1761858 14.8090415,38.316502 C14.014081,38.337747 12.9118083,39.1470356 12.5284091,39.8896245 C11.5155632,41.8520751 10.6919466,43.9390316 10.0387846,46.052668 C9.55113636,47.6302372 8.68008893,48.0106719 7.15637352,47.9370553 C4.77593874,47.8224308 2.3861166,47.9182806 0.000247035573,47.9247036 C0.000247035573,47.7601779 0.000247035573,47.5956522 0.000247035573,47.4306324" id="Fill-7" fill="#FFFFFF"></path>
            <g id="Group-11" transform="translate(177.865613, 12.351779)">
                <mask id="mask-6" fill="white">
                    <use xlink:href="#path-5"></use>
                </mask>
                <g id="Clip-10"></g>
                <path d="M9.33843874,13.8766304 L28.0958498,13.8766304 C26.2658103,9.41022727 23.0385375,7.32030632 18.4046443,7.41072134 C14.0286561,7.49668972 10.8364625,9.72495059 9.33843874,13.8766304 Z M16.3043478,36.561413 C14.9693676,36.20667 13.6156126,35.9117095 12.3028656,35.4887846 C4.17045455,32.8677372 -0.368083004,25.394417 0.501976285,16.1088439 C1.26432806,7.97297431 7.45701581,1.52089921 15.5019763,0.480879447 C27.8186759,-1.11101779 36.7835968,6.70271739 36.819664,19.0722826 C36.8211462,19.5490613 36.7089921,20.026334 36.6215415,20.7264328 L8.98913043,20.7264328 C9.12549407,25.4042984 13.0148221,29.1004447 18.1590909,28.9616107 C20.6566206,28.894417 23.2623518,27.9141798 25.5494071,26.7956028 C26.9604743,26.1053854 27.9140316,25.8054842 29.2905138,26.5787055 C30.8448617,27.4512352 32.5133399,28.1207016 34.3493083,28.9798913 C31.6684783,32.8756423 28.1487154,35.0258399 23.8152174,35.9863142 C23.1151186,36.1414526 22.43083,36.3677372 21.7391304,36.561413 L16.3043478,36.561413 Z" id="Fill-9" fill="#FFFFFF" mask="url(#mask-6)"></path>
            </g>
            <mask id="mask-8" fill="white">
                <use xlink:href="#path-7"></use>
            </mask>
            <g id="Clip-13"></g>
            <polygon id="Fill-12" fill="#FFFFFF" mask="url(#mask-8)" points="87.944664 7.74901186 96.3438735 7.74901186 96.3438735 0 87.944664 0"></polygon>
            <path d="M247.979694,13.4758893 C245.487599,16.9161067 243.272678,19.9309289 241.105682,22.98083 C239.543429,25.1799407 236.857164,27.4230237 236.853706,29.6502964 C236.850247,31.8706522 239.529101,34.1211462 241.096789,36.3118577 C243.763291,40.0371542 246.480188,43.7258893 249.513291,47.8933794 C246.12248,47.8933794 243.213389,47.9783597 240.316156,47.8261858 C239.688192,47.793083 238.979694,47.0020751 238.522678,46.3978261 C236.15163,43.2594862 233.849259,40.0687747 231.279101,36.5628458 C228.80084,39.9245059 226.401136,43.008498 224.209931,46.2342885 C223.296887,47.5781621 222.294911,48.0099802 220.751433,47.9348814 C218.409536,47.8212451 216.057757,47.9052372 213.186215,47.9052372 C217.723271,41.6522727 221.948567,35.8286561 226.31665,29.8083992 C222.475247,24.5297431 218.627915,19.2421937 214.453508,13.5055336 C217.870998,13.5055336 220.858152,13.4166008 223.831472,13.5791502 C224.445603,13.612253 225.105682,14.5089921 225.578508,15.133498 C227.451532,17.6073123 229.25835,20.1310277 231.318626,22.9492095 C233.318132,20.1908103 235.183745,17.73083 236.916947,15.1804348 C237.793923,13.8899209 238.792935,13.3395257 240.387302,13.4383399 C242.732164,13.5835968 245.092836,13.4758893 247.979694,13.4758893" id="Fill-14" fill="#FFFFFF" mask="url(#mask-8)"></path>
            <path d="M103.051729,13.5939229 L111.435623,13.5939229 C111.520109,14.5825593 111.595208,15.4644763 111.708844,16.7930336 C112.589773,16.184832 113.274555,15.7134881 113.957362,15.240168 C119.436611,11.4427372 126.112006,11.760919 130.522085,15.9620059 C132.702915,18.0395751 133.609536,20.7159585 133.664377,23.5237648 C133.821492,31.4990613 133.719713,39.4792984 133.719713,47.6808794 L125.373864,47.6808794 C125.373864,46.6660573 125.388192,45.7041008 125.371393,44.7426383 C125.267144,38.8182312 125.198962,32.892836 125.030978,26.9704051 C124.927717,23.3137846 123.286413,21.0637846 120.48997,20.4407609 C117.662401,19.8108202 114.5542,21.1907609 113.124852,24.1606225 C112.297283,25.879496 111.757263,27.8958004 111.699457,29.7969862 C111.520603,35.705583 111.634239,41.6230731 111.634239,47.7204051 L103.051729,47.7204051 L103.051729,13.5939229 Z" id="Fill-15" fill="#FFFFFF" mask="url(#mask-8)"></path>
            <path d="M96.3133893,47.7211957 C95.6958004,47.786413 95.1414526,47.890168 94.5856225,47.8956028 C92.4630929,47.9153656 90.3400692,47.9035079 88.0693182,47.9035079 C87.9957016,46.9697134 87.8914526,46.2562747 87.8904644,45.542836 C87.8800889,35.2523221 87.929496,24.9618083 87.8371047,14.6722826 C87.8217885,12.9899704 88.4042984,12.1564723 89.852915,11.5161561 C91.9438241,10.5922431 93.9576581,9.49293478 96.3133893,8.31408103 L96.3133893,47.7211957 Z" id="Fill-16" fill="#FFFFFF" mask="url(#mask-8)"></path>
        </g>
    </g>
</svg>