<?xml version="1.0" encoding="UTF-8"?>
<svg viewBox="0 0 521 167" version="1.1" xmlns="http://www.w3.org/2000/svg" xmlns:xlink="http://www.w3.org/1999/xlink">
    <defs>
        <polygon id="path-1" points="3.07011414e-05 0.00756530071 142.855261 0.00756530071 142.855261 167 3.07011414e-05 167"></polygon>
    </defs>
    <g id="Roadmap-Center" stroke="none" stroke-width="1" fill="none" fill-rule="evenodd" transform="translate(-211.000000, -832.000000)">
        <g id="Page-1" transform="translate(211.000000, 831.000000)">
            <g id="Group-3" transform="translate(0.000000, 0.993000)">
                <mask id="mask-2" fill="white">
                    <use xlink:href="#path-1"></use>
                </mask>
                <g id="Clip-2"></g>
                <path d="M31.0259,79.7971 C31.4999,80.0081 31.9739,80.2191 32.4489,80.4311 C33.2359,79.0051 34.1299,77.6271 34.7939,76.1471 C40.6779,63.0271 47.3059,50.2271 57.1209,39.6771 C63.1489,33.1961 70.2479,27.4341 77.6949,22.6351 C84.2919,18.3831 91.7729,19.7431 96.0829,24.5831 C103.0449,32.4021 103.3179,41.9331 102.8179,52.0131 L88.7149,52.0131 C88.3269,53.3911 88.0199,54.4901 87.7079,55.5881 C84.6239,66.4381 81.9919,77.4471 78.2499,88.0641 C76.5419,92.9101 73.0259,97.3221 69.5669,101.2591 C67.9239,103.1281 64.4919,103.4241 61.8699,104.4331 C60.8869,101.7461 59.8519,99.0751 58.9629,96.3571 C58.7789,95.7971 59.1519,95.0611 59.2409,94.4031 C61.1829,79.9701 67.7049,67.5641 76.1989,56.0251 C77.0199,54.9111 77.7439,53.7261 78.9139,51.9711 C73.0989,51.9711 68.1079,51.7161 63.1669,52.1071 C61.4049,52.2471 58.7939,53.5701 58.2269,55.0061 C54.3419,64.8431 50.0679,74.6551 47.6139,84.8811 C46.0839,91.2541 46.5929,98.5171 47.8559,105.0591 C49.4099,113.1031 55.9329,115.2581 63.1939,111.2731 C64.6119,110.4951 65.9539,109.5771 67.3309,108.7231 C65.3459,112.6371 63.2159,116.2951 60.3539,119.2421 C56.0949,123.6261 51.7539,128.1851 46.6669,131.4531 C38.0189,137.0071 30.6039,133.8051 28.1439,123.8161 C27.0439,119.3521 27.1559,114.5911 26.7099,109.9661 C26.5959,108.7921 26.4499,107.6211 26.1469,104.9221 C24.9149,107.2631 24.2109,108.1441 23.9659,109.1381 C21.3709,119.6271 20.6999,130.2451 23.2909,140.7771 C27.6869,158.6461 43.8419,164.2251 58.6569,153.1871 C59.4559,152.5921 59.9799,151.6281 60.5229,150.9681 C54.0399,149.1671 47.9359,147.4701 41.8309,145.7741 C52.6289,143.1711 60.7819,137.3081 68.0869,130.1441 C86.4889,112.0981 98.3429,90.1071 105.3059,65.5591 C109.7079,50.0401 113.0139,34.1681 105.2749,18.2331 C108.4739,19.8981 111.3799,21.7081 114.0789,23.7871 C116.7749,25.8641 119.2639,28.2101 121.8439,30.4381 C122.2599,26.1271 121.9669,22.1731 120.9269,18.4271 C117.7499,6.9871 110.2659,2.5251 98.6819,4.6021 C89.2009,6.3021 81.2059,10.9631 73.9529,16.9571 C55.4479,32.2481 42.5619,51.6391 33.2429,73.5601 C32.3809,75.5871 31.7589,77.7161 31.0259,79.7971 M134.9199,37.7321 C133.3909,43.3581 135.5149,48.9451 137.8559,54.7821 C154.0219,95.0791 129.3829,140.9641 86.9649,150.1501 C84.4699,150.6911 82.1299,152.1441 79.8399,153.3971 C73.0099,157.1351 66.6029,161.9821 59.3799,164.5991 C39.2729,171.8821 23.0399,162.1921 19.9439,141.0221 C18.6909,132.4591 15.8109,125.3541 11.2549,117.9421 C-3.1331,94.5381 -3.7841,69.8481 9.6359,45.8511 C22.9709,22.0061 44.2049,10.0981 71.5279,9.5571 C76.3249,9.4621 80.3949,8.4581 84.7149,6.3401 C90.1709,3.6651 96.1179,1.4681 102.0889,0.4661 C119.4369,-2.4459 132.4639,8.7401 134.3569,27.5311 C134.6729,30.6741 134.7139,33.8451 134.9199,37.7321" id="Fill-1" fill="#FFFFFF" mask="url(#mask-2)"></path>
            </g>
            <path d="M223.8926,57.1904 L211.1156,57.1904 C210.8816,60.5194 210.6636,63.6224 210.4316,66.9164 L222.9866,66.9164 C223.2896,63.6624 223.5626,60.7294 223.8926,57.1904 M182.9716,73.2614 C190.4086,73.2894 197.1446,67.6064 197.1836,61.2704 C197.2196,55.5174 192.2966,51.0074 185.9296,50.9604 C178.6446,50.9054 172.5056,56.7214 172.5616,63.6234 C172.6086,69.4404 176.7096,73.2364 182.9716,73.2614 M221.7726,77.1144 C215.7476,77.1144 210.4376,76.9724 205.1426,77.2054 C203.6576,77.2704 202.0946,78.2494 200.7826,79.1284 C192.6356,84.5864 183.8116,86.7664 174.2056,84.3714 C159.0246,80.5844 152.9446,65.1864 161.2076,51.8294 C170.1866,37.3134 191.3646,34.0254 204.4126,45.0194 C205.6786,46.0864 207.5316,46.9334 209.1546,47.0134 C214.2856,47.2664 219.4366,47.1074 224.9306,47.1074 C225.3586,44.0884 225.7446,41.3644 226.1656,38.3964 L241.8956,38.3964 C239.8136,57.6614 237.7516,76.7384 235.6766,95.9394 L219.8966,95.9394 C220.5236,89.6514 221.1156,83.7124 221.7726,77.1144" id="Fill-4" fill="#FFFFFF"></path>
            <path d="M410.0369,119.9455 L394.3209,119.9455 C395.2219,110.8025 396.1059,101.8445 397.0219,92.5605 L378.6389,92.5605 C377.5639,101.6195 376.4929,110.6375 375.3989,119.8545 L359.6329,119.8545 C360.6369,110.6925 361.6099,101.8095 362.6509,92.2985 L346.6679,92.2985 C347.0609,88.5815 347.3879,85.4915 347.7569,82.0075 L429.5489,82.0075 C429.2009,85.2945 428.8609,88.5145 428.4629,92.2775 C424.4819,92.2775 420.6799,92.4435 416.9009,92.2245 C413.8929,92.0505 412.8339,93.2115 412.5789,96.1495 C411.9039,103.9215 410.9419,111.6695 410.0369,119.9455" id="Fill-6" fill="#FFFFFF"></path>
            <path d="M278.6736,73.18 C284.9976,73.067 290.6666,67.101 290.4296,60.807 C290.2346,55.664 285.7996,51.304 280.7686,51.313 C274.6436,51.323 268.6506,57.446 268.7376,63.604 C268.8156,69.077 273.1746,73.278 278.6736,73.18 M253.0646,42.27 L273.4766,42.27 C273.9606,40.139 274.3916,38.245 274.9066,35.979 L290.1086,35.979 L290.1086,42.063 L309.8286,42.063 C309.6146,45.645 309.4336,48.683 309.2456,51.837 C307.4426,52.124 306.0046,52.353 304.2856,52.626 C308.2796,63.96 304.7126,72.768 294.9596,78.826 C284.2726,85.464 272.9266,86.288 261.9256,79.656 C252.3886,73.906 250.9976,65.122 256.9996,52.35 C255.5176,52.193 254.1366,52.048 252.3306,51.858 C252.5686,48.752 252.7906,45.846 253.0646,42.27" id="Fill-8" fill="#FFFFFF"></path>
            <path d="M276.3434,110.5329 L309.4164,110.5329 C309.6094,108.0449 309.7714,105.9519 309.9474,103.6769 L276.7484,103.6769 C276.6014,106.1649 276.4774,108.2639 276.3434,110.5329 M327.5274,86.9429 C327.5274,88.6689 327.6194,89.6669 327.5124,90.6429 C326.4824,100.0569 325.4194,109.4669 324.3334,119.1679 C322.9334,119.3259 321.6634,119.5909 320.3924,119.5929 C302.0814,119.6209 283.7694,119.6359 265.4584,119.6009 C259.7264,119.5899 259.2194,118.8549 259.9004,113.0789 C260.8924,104.6569 261.7834,96.2239 262.7644,87.3709 L278.2014,87.3709 L278.2014,94.5289 C288.6614,94.5289 298.9274,94.6119 309.1854,94.3709 C310.0004,94.3519 311.3604,92.1229 311.4294,90.8629 C311.5924,87.9109 312.6284,86.7169 315.6734,86.8909 C319.4594,87.1079 323.2664,86.9429 327.5274,86.9429" id="Fill-10" fill="#FFFFFF"></path>
            <path d="M482.1476,61.2036 C473.2936,77.9246 458.5036,83.7326 440.2736,85.2656 C440.6666,81.3146 441.0016,77.9436 441.3456,74.4746 C462.2956,71.4246 470.0726,56.3966 475.0816,38.3896 L492.7286,38.3896 C495.0796,55.6466 500.9876,70.5996 520.7096,75.3996 C520.3976,78.7166 520.0936,81.9466 519.7966,85.1086 C505.4706,85.4426 493.6836,77.9156 482.1476,61.2036" id="Fill-12" fill="#FFFFFF"></path>
            <path d="M357.6815,39.5034 L373.3595,39.5034 C372.6635,46.9514 371.9925,54.1414 371.2715,61.8714 L426.6375,61.8714 C426.2575,65.4824 425.9365,68.5404 425.5735,71.9894 C424.0085,72.0904 422.5715,72.2624 421.1345,72.2634 C400.8285,72.2804 380.5215,72.1464 360.2185,72.3704 C355.4285,72.4234 354.0415,70.7904 354.6385,66.2494 C355.7865,57.5194 356.6465,48.7514 357.6815,39.5034" id="Fill-14" fill="#FFFFFF"></path>
            <path d="M171.9677,90.4613 L187.5637,90.4613 C187.0427,96.8753 186.5397,103.0653 185.9917,109.8133 L235.5717,109.8133 C235.1727,113.2773 234.8417,116.1523 234.4837,119.2623 C232.9807,119.3923 231.7007,119.5963 230.4207,119.5983 C212.1047,119.6193 193.7877,119.6313 175.4707,119.6043 C169.7007,119.5963 169.0987,119.0113 169.6077,113.2053 C170.2587,105.7703 171.1377,98.3563 171.9677,90.4613" id="Fill-16" fill="#FFFFFF"></path>
            <path d="M436.0929,102.2444 L520.8329,102.2444 C520.5619,105.6534 520.3169,108.7224 520.0549,112.0134 L435.2669,112.0134 C435.5489,108.6774 435.8189,105.4824 436.0929,102.2444" id="Fill-18" fill="#FFFFFF"></path>
            <path d="M343.8297,52.0126 C343.5667,61.2926 343.5667,61.2926 330.7527,62.2186 C329.9287,68.9256 329.0887,75.7546 328.2187,82.8286 L312.4857,82.8286 C314.0657,68.0126 315.6367,53.2796 317.2277,38.3496 L332.9717,38.3496 C332.5927,42.8676 332.2257,47.2346 331.8247,52.0126 L343.8297,52.0126 Z" id="Fill-20" fill="#FFFFFF"></path>
        </g>
    </g>
</svg>