<?xml version="1.0" encoding="UTF-8"?>
<svg viewBox="0 0 121 33" version="1.1" xmlns="http://www.w3.org/2000/svg" xmlns:xlink="http://www.w3.org/1999/xlink">
    <defs>
        <polygon id="path-1" points="0.325914894 0.427707116 8.42553191 0.427707116 8.42553191 11.2053987 0.325914894 11.2053987"></polygon>
    </defs>
    <g id="2" stroke="none" stroke-width="1" fill="none" fill-rule="evenodd">
        <g id="Crypto-Economy" transform="translate(0.750000, 0.000000)">
            <path d="M51.8102044,13.4756219 C51.963913,13.2624616 51.963174,13.258735 51.7459128,13.1037092 C50.9906712,12.5626098 50.2339517,12.0237463 49.4794491,11.4826469 C49.2067641,11.2866288 49.2385404,11.3306025 49.0803978,11.5422722 C48.2519969,12.6527931 47.144999,13.1961284 45.7712279,13.1230875 C44.4787451,13.0545184 43.4552524,12.4836063 42.7872109,11.336565 C42.4842275,10.8155891 42.3342138,10.2431864 42.2839629,9.64544297 C42.1938069,8.58187703 42.3918545,7.58538953 43.0236858,6.70889791 C44.0021005,5.35093214 45.6973295,4.98274604 47.1834262,5.44260601 C47.9859627,5.69079624 48.6022753,6.19910176 49.0604453,6.90118944 C49.1542962,7.04429011 49.2237607,7.06664959 49.3686016,6.97646635 C49.7218359,6.75883408 50.084677,6.55685344 50.4430842,6.34891028 C50.9803254,6.0381135 51.5183057,5.72657141 52.0851064,5.39863237 C51.4577091,4.28363962 50.5982708,3.46379202 49.5053136,2.89586122 C47.8167354,2.02011491 46.0313503,1.84123907 44.1986702,2.25488945 C41.9617659,2.76021371 40.3241776,4.05333698 39.4011867,6.19462986 C38.8070436,7.57271916 38.6843723,9.02235879 38.9230641,10.4936126 C39.2785154,12.685587 40.3884692,14.376709 42.3438206,15.4425109 C44.0464395,16.369684 45.8702518,16.5336535 47.739881,16.140872 C49.4269813,15.7861015 50.7911456,14.8879958 51.8102044,13.4756219" id="Fill-1" fill="#FFFFFF"></path>
            <path d="M74.5061065,15.6149086 C74.5000642,15.549259 74.5053512,15.4828634 74.5053512,15.4172138 C74.5053512,14.074381 74.5295206,12.7315483 74.4940218,11.3894616 C74.4789159,10.791155 74.6352618,10.296545 74.9532406,9.7892526 C76.500838,7.32142445 78.0159579,4.83345381 79.5401412,2.35070529 C79.5930118,2.2649132 79.6957318,2.18881935 79.6466377,2.04782191 C78.4532731,2.04782191 77.2614191,2.05005996 76.0703204,2.04483784 C75.9343675,2.04483784 75.8731887,2.10601133 75.8165417,2.21119989 C75.6798334,2.46335404 75.5355723,2.71103207 75.3943323,2.96020215 C74.5514241,4.44701639 73.708516,5.93383063 72.8542785,7.44153338 C72.7296549,7.34753509 72.6911349,7.22817218 72.632222,7.12447565 C71.7145398,5.51531443 70.7968575,3.90540719 69.8874835,2.29102384 C69.7908059,2.11869364 69.6873306,2.04036173 69.4773588,2.04259978 C68.3519707,2.05379005 67.2265826,2.04707589 66.1011945,2.04931395 C66.0294416,2.04931395 65.9486251,2.02171127 65.8723404,2.09780513 C65.9169028,2.24178664 66.0158463,2.36189556 66.0951522,2.49021069 C67.718279,5.09306813 69.3414059,7.6966716 70.9705751,10.2957989 C71.0876457,10.4823035 71.1367398,10.6650779 71.1352292,10.8829153 C71.1276763,12.0929568 71.1314528,13.3037443 71.1314528,14.5145318 C71.1314528,14.8882869 71.1359845,15.262788 71.1291869,15.6365431 C71.126921,15.7790326 71.1805469,15.8297618 71.3240527,15.8290158 C72.3157538,15.8260317 73.3066996,15.8252857 74.2984006,15.8297618 C74.4622995,15.8312539 74.5197018,15.7670963 74.5061065,15.6149086" id="Fill-3" fill="#FFFFFF"></path>
            <path d="M100.515987,15.4199136 C100.515987,12.1610699 100.515987,8.90147999 100.515987,5.64263631 C100.515987,5.55457963 100.522105,5.46577669 100.515223,5.37846625 C100.502222,5.21653149 100.551166,5.12474359 100.739294,5.14862337 C100.816534,5.15907077 100.896833,5.1508621 100.975602,5.1508621 C102.12655,5.1508621 103.277499,5.14936961 104.428447,5.15160834 C104.576809,5.15235459 104.683109,5.15235459 104.680815,4.94863022 C104.670108,4.04642229 104.674697,3.14346812 104.67852,2.24051395 C104.67852,2.10544395 104.641048,2.03007339 104.487333,2.04425201 C104.409328,2.0509682 104.329794,2.04499826 104.250261,2.04499826 C102.43398,2.04499826 100.616934,2.04499826 98.8006537,2.04499826 C96.9499593,2.04499826 95.0992649,2.04499826 93.2485705,2.0457445 C92.9403763,2.0457445 92.9380821,2.04798323 92.9373173,2.35394291 C92.9357878,3.19048144 92.9357878,4.02701997 92.9373173,4.86430474 C92.9380821,5.14713088 92.9411411,5.15011586 93.2340402,5.15011586 C94.3849886,5.1508621 95.535937,5.14862337 96.6868854,5.15160834 C97.1602655,5.15235459 97.097556,5.09116265 97.0983208,5.55383338 C97.0998503,8.84551176 97.0983208,12.1379364 97.0998503,15.430361 C97.0998503,15.832586 97.0279638,15.8303473 97.4914022,15.8296011 C98.3601579,15.8288548 99.2289136,15.8296011 100.097669,15.8288548 C100.549636,15.8288548 100.515987,15.869152 100.515987,15.4199136" id="Fill-5" fill="#FFFFFF"></path>
            <path d="M109.170286,22.8477841 C109.035762,21.9239199 108.901238,21.0000557 108.768225,20.0761915 C108.756888,19.997216 108.752354,19.9234559 108.643525,19.9167504 C108.55359,19.911535 108.493886,19.9450624 108.45761,20.0240379 C108.434181,20.0739563 108.408485,20.1223847 108.383546,20.1715581 C107.412401,22.1221037 106.442012,24.0726493 105.469355,26.0224498 C105.047644,26.8695737 104.622154,27.7144624 104.189107,28.5787225 C104.143006,28.5027272 104.105974,28.4498285 104.076499,28.3917145 C103.007862,26.2683169 101.93998,24.1449193 100.871343,22.0207767 C100.544857,21.3725816 100.214592,20.7251316 99.8903736,20.0754464 C99.842761,19.9793348 99.7989272,19.9048296 99.6719604,19.9160054 C99.5434821,19.9271811 99.5502839,20.0203126 99.5381919,20.1059936 C99.3386726,21.4865745 99.1383976,22.8671555 98.9388783,24.2477365 C98.6985483,25.910692 98.4536838,27.5729026 98.2209113,29.2373483 C98.1574279,29.6903398 98.0622028,30.1410961 98.0425532,30.6156941 L99.1399091,30.6156941 C99.4845333,28.1264761 99.8276459,25.6424734 100.171514,23.1592158 C100.191164,23.1584707 100.210058,23.1569806 100.228952,23.1562356 C100.280343,23.2501121 100.334757,23.3432436 100.383126,23.4386102 C101.551523,25.7587015 102.718408,28.0787928 103.88756,30.398139 C103.944242,30.5106418 103.972205,30.6313402 104.158876,30.6380456 C104.362174,30.6447511 104.396183,30.5166022 104.458911,30.3914335 C105.544175,28.2270581 106.629439,26.0626826 107.715458,23.8990522 C107.831845,23.6665961 107.953521,23.4378652 108.07293,23.2068991 C108.09258,23.2091343 108.11223,23.2106244 108.131123,23.2128595 C108.477259,25.6819611 108.822639,28.1510628 109.16953,30.6253798 C109.568569,30.62836 109.928308,30.6350654 110.297872,30.6231446 C110.108934,29.3133436 109.928308,28.0527159 109.745416,26.7928334 C109.554965,25.4770719 109.361492,24.1628006 109.170286,22.8477841" id="Fill-7" fill="#FFFFFF"></path>
            <path d="M17.6427771,12.8311781 C18.4839535,13.266328 19.1396091,13.8779512 19.5434334,14.7640884 C19.7080923,15.1238224 19.9733348,15.4307652 20.3503368,15.6042219 C20.4568809,15.7120667 20.6021682,15.7301665 20.7370246,15.7671203 C21.4321686,15.9586768 22.168291,15.7022626 22.6093685,15.1185433 C22.9647636,14.6479479 23.1659307,13.8613597 22.7323039,13.1230377 C22.7323039,13.1230377 22.7323039,13.1230377 22.7323039,13.1230377 C22.4380039,12.4201612 22.0043771,11.8092922 21.5051848,11.2459352 C21.0872043,10.7738314 20.6327158,10.3424523 20.0910548,10.014393 C19.8906328,9.82057404 19.6402916,9.70141686 19.4011263,9.5747181 C17.91249,8.78435913 16.3307208,8.4826954 14.6774256,8.81301718 C11.5548657,9.43519862 9.58119326,11.3394509 8.72064525,14.4345208 C8.69754829,14.5174783 8.65358956,14.6004358 8.70425386,14.700739 C8.97247662,14.6886725 9.24442469,14.6645394 9.51637276,14.6668019 C10.0870912,14.6713268 10.6578096,14.6886725 11.2292731,14.7014932 C11.2292731,14.7014932 11.2292731,14.7014932 11.2292731,14.7014932 C11.582433,14.776155 11.9430436,14.7806799 12.301419,14.8116004 C12.4638428,14.8643916 12.5703868,14.8146171 12.6344623,14.6479479 C12.6739506,14.5461364 12.7357909,14.4518664 12.796141,14.3591048 C13.4756386,13.3145942 14.4099479,12.679592 15.6534584,12.5438434 C15.8486649,12.5219727 16.0446166,12.5099062 16.2405682,12.4933147 C16.3046436,12.5378101 16.3754246,12.5430892 16.4491859,12.5249894 C16.8582256,12.5815513 17.2501288,12.7067418 17.6427771,12.8311781 C17.6427771,12.8311781 17.6427771,12.8311781 17.6427771,12.8311781" id="Fill-9" fill="#FFFFFF"></path>
            <path d="M82.1353645,20.0019031 C81.9760018,19.8421673 81.6671888,19.9521249 81.4247134,19.9476672 C80.9656877,19.9402376 81.0396503,19.9142341 81.0388878,20.3384626 C81.0366003,22.7501012 81.0381253,25.1617399 81.0381253,27.5733785 L81.0381253,27.9894345 C80.9039251,27.8482726 80.8208125,27.7658044 80.7430374,27.6788784 C78.5203464,25.1907152 76.298418,22.701809 74.0757271,20.2136458 C74.0093895,20.1393501 73.9453394,20.0620826 73.8713768,19.9952165 C73.7882641,19.9201778 73.6807515,19.9290933 73.5869638,19.9662411 C73.5114762,19.9959594 73.5419763,20.0799136 73.5389263,20.141579 C73.5351138,20.2181036 73.5374013,20.2946281 73.5374013,20.3711527 C73.5374013,23.5279773 73.5366388,26.6848019 73.5389263,29.8416264 C73.5396888,30.092003 73.5122387,30.3431224 73.5610388,30.5912701 C73.8233392,30.6744813 74.0925021,30.6209884 74.3578525,30.6254461 C74.7924782,30.6328757 74.7406281,30.6774531 74.7406281,30.2665979 C74.7421531,27.8772479 74.7413906,25.487898 74.7413906,23.0978052 L74.7413906,22.6802633 C74.8664408,22.8102808 74.9411659,22.8838335 75.011316,22.961844 C77.2301945,25.4388629 79.4483104,27.9166247 81.6671888,30.3936435 C81.7114139,30.4434216 81.7586889,30.4909709 81.798339,30.5437208 C81.8799266,30.6507067 81.9965893,30.6425341 82.104102,30.6202454 C82.2322022,30.592756 82.1666271,30.4775977 82.1773021,30.4010731 C82.1879771,30.3260344 82.1795896,30.2480239 82.1795896,30.1714994 C82.1795896,27.0035304 82.1803521,23.8355615 82.1773021,20.6683356 C82.1773021,20.4402477 82.2802397,20.1467797 82.1353645,20.0019031" id="Fill-11" fill="#FFFFFF"></path>
            <path d="M4.11606861,24.6811202 C4.11682006,24.6811202 4.11682006,24.6803726 4.11757151,24.6803726 C4.11757151,24.6811202 4.11757151,24.6811202 4.11757151,24.6818678 C4.11682006,24.6818678 4.11682006,24.6811202 4.11606861,24.6811202 Z M7.79441746,4.81188483 C7.78840586,4.81861332 7.78239426,4.82534181 7.7756312,4.83281791 C7.7756312,4.82534181 7.7756312,4.81861332 7.7756312,4.81113722 C7.78164281,4.81188483 7.78840586,4.81188483 7.79441746,4.81188483 Z M10.096861,9.98459957 C10.0976124,9.98459957 10.0976124,9.98459957 10.0983639,9.98534718 C10.0976124,9.98534718 10.0976124,9.98534718 10.096861,9.98609479 C10.096861,9.98534718 10.096861,9.98459957 10.096861,9.98459957 Z M6.10816315,4.55620215 C6.10816315,4.55171649 6.10816315,4.54797844 6.10816315,4.54424039 C6.1104175,4.54424039 6.1119204,4.544988 6.11417476,4.54573561 C6.1119204,4.54872605 6.1104175,4.5524641 6.10816315,4.55620215 Z M8.22950714,12.4367609 C8.23025859,12.4375085 8.23101004,12.4375085 8.23176149,12.4375085 C8.23101004,12.4390037 8.23025859,12.4397514 8.22950714,12.440499 C8.22950714,12.4390037 8.23025859,12.4382561 8.22950714,12.4367609 Z M6.43880125,6.93360248 C6.44030415,6.93584531 6.4410556,6.93883575 6.4425585,6.94182619 C6.44030415,6.94107858 6.4380498,6.94033097 6.435044,6.93958336 C6.4365469,6.93734053 6.4380498,6.93584531 6.43880125,6.93360248 Z M28.3773906,6.5523213 C28.371379,6.54035953 28.3646159,6.52839777 28.3586043,6.51643601 C28.3683732,6.52540733 28.3788935,6.53512626 28.3886623,6.54409758 C28.3849051,6.54708803 28.3811478,6.54933086 28.3773906,6.5523213 Z M28.7816708,11.2906745 C28.7831737,11.2944126 28.7854281,11.2988982 28.7876824,11.3026363 C28.7824223,11.3018887 28.7771621,11.3018887 28.7726534,11.3011411 C28.7756592,11.297403 28.778665,11.2944126 28.7816708,11.2906745 Z M25.3700868,11.1142385 C25.3640752,11.1351716 25.3603179,11.1561047 25.3573121,11.1770378 C25.343786,11.1755426 25.3302599,11.1732997 25.3167338,11.1703093 C25.3347686,11.151619 25.3528034,11.1329288 25.3700868,11.1142385 Z M16.0250518,6.31831931 C16.0265547,6.32504781 16.028809,6.33252391 16.0310634,6.34000001 C16.0227974,6.34000001 16.01378,6.34000001 16.0055141,6.3392524 C16.0115257,6.33252391 16.0182887,6.32504781 16.0250518,6.31831931 Z M19.5508562,6.37887574 C19.5523591,6.38859467 19.5553649,6.39906121 19.5583707,6.40952775 C19.5486019,6.40803253 19.5380816,6.40653731 19.5283127,6.40429448 C19.5358272,6.39607077 19.5433417,6.38709945 19.5508562,6.37887574 Z M21.8112185,7.07938646 C21.8112185,7.07938646 21.81197,7.07938646 21.81197,7.07863885 C21.81197,7.07863885 21.81197,7.07938646 21.81197,7.07938646 C21.81197,7.07938646 21.81197,7.07938646 21.8112185,7.07938646 C21.8112185,7.07938646 21.8112185,7.07938646 21.8112185,7.07938646 Z M20.0152525,7.08088168 C20.0152525,7.07863885 20.0152525,7.07564841 20.0152525,7.07265797 C20.022767,7.0749008 20.0302815,7.07714363 20.0370445,7.07863885 C20.0302815,7.08013407 20.022767,7.08088168 20.0152525,7.08088168 C20.0152525,7.08088168 20.0152525,7.08088168 20.0152525,7.08088168 C20.0152525,7.08088168 20.0152525,7.08088168 20.0152525,7.08088168 Z M25.8705526,11.7818544 C25.8705526,11.7781164 25.8705526,11.7743783 25.8705526,11.7698926 C25.8803215,11.7728831 25.8900903,11.7751259 25.8991078,11.7773688 C25.8900903,11.7796116 25.8810729,11.7811068 25.8705526,11.7818544 Z M10.8250162,6.27794837 C10.8257677,6.27869598 10.8265191,6.27944359 10.8272706,6.2801912 C10.8250162,6.28168642 10.8235133,6.28243403 10.8220104,6.28318164 C10.8227619,6.28168642 10.8242648,6.27944359 10.8250162,6.27794837 Z M12.8937587,6.87454128 C12.8937587,6.87528889 12.8937587,6.8760365 12.8937587,6.87678411 C12.8937587,6.8760365 12.8930072,6.8760365 12.8930072,6.87528889 C12.8930072,6.87528889 12.8930072,6.87528889 12.8937587,6.87454128 Z M11.3585459,23.2449611 C11.3562915,23.2442135 11.3547886,23.2427183 11.3525343,23.2419707 C11.3547886,23.2427183 11.3562915,23.2434659 11.3585459,23.2442135 C11.3585459,23.2442135 11.3585459,23.2449611 11.3585459,23.2449611 Z M6.90319749,24.7611145 C6.90094314,24.7603669 6.89944024,24.7588717 6.89718589,24.7573765 C6.89944024,24.7566289 6.90169459,24.7558812 6.90319749,24.7551336 C6.90319749,24.7573765 6.90319749,24.7596193 6.90319749,24.7611145 Z M10.2193473,24.5151508 C10.2155901,24.5121603 10.2118328,24.5084223 10.208827,24.5046842 C10.2125843,24.5016938 10.217093,24.4979557 10.2208502,24.4949653 C10.2200988,24.5016938 10.2193473,24.5084223 10.2193473,24.5151508 Z M19.2127036,26.3325911 C19.2134551,26.3340863 19.2142065,26.3355815 19.214958,26.3370767 C19.2134551,26.3370767 19.2119522,26.3363291 19.2104493,26.3363291 C19.2112007,26.3348339 19.2119522,26.3340863 19.2127036,26.3325911 Z M27.9122429,17.4629441 C26.1733871,17.1863283 24.4615835,18.0999079 23.7447,19.6751225 C23.5109989,20.1887307 23.2111703,20.6627156 22.8790293,21.1180102 C22.5656745,21.5471384 22.1861922,21.9157102 21.8239932,22.3014771 C21.8239932,22.3014771 21.8239932,22.3014771 21.8239932,22.3014771 C21.7375764,22.3695096 21.6504082,22.4352993 21.5654943,22.504827 C20.0009749,23.7989402 18.2005002,24.4568372 16.1670759,24.4800131 C15.025623,24.4934701 13.9330144,24.2460111 12.8727181,23.841554 C12.3677435,23.6486706 11.892827,23.3997164 11.4547315,23.0834773 C11.4547315,23.0834773 11.4547315,23.0834773 11.4547315,23.0834773 C11.4547315,23.0834773 11.4547315,23.0834773 11.4547315,23.0834773 C11.4231706,23.0535729 11.3946155,23.0199304 11.3600488,22.9952593 C9.64899662,21.7968402 8.52632998,20.190226 7.98979452,18.1806498 C7.9432046,18.0042138 7.84100737,17.8958104 7.70649778,17.798621 C7.68320283,17.720122 7.65690207,17.6438657 7.5795027,17.5997567 C7.39239159,17.3455693 7.27892261,17.0607298 7.23233269,16.749724 C7.23082979,16.6144065 7.15793912,16.488808 7.17822828,16.3505001 C7.27215955,15.9669761 7.35932778,15.575976 7.62458971,15.2657178 C7.76135365,15.1057292 7.80794356,14.9300408 7.84326172,14.7311765 C7.96950536,14.0179564 8.14158746,13.3166981 8.44517336,12.6543155 C8.52257273,12.5847877 8.54436479,12.484608 8.5879489,12.3978852 C9.03656468,11.500753 9.62194441,10.7045482 10.3500997,10.0122611 C10.4695803,9.8986244 10.5875579,9.78424005 10.7062871,9.66985569 C10.7062871,9.66985569 10.7062871,9.66985569 10.7062871,9.66985569 C10.7062871,9.66985569 10.7062871,9.66985569 10.7062871,9.66985569 C11.741034,8.86019388 12.8734695,8.24042505 14.1607038,7.92568117 C14.2350973,7.93465249 14.3049822,7.92343834 14.3635953,7.87260085 C14.4071794,7.86736758 14.4507636,7.8613867 14.4943477,7.85615343 C14.5687412,7.86512475 14.6386261,7.85615343 14.700245,7.80755877 C14.7423262,7.80307311 14.7844075,7.79858744 14.8264887,7.79410178 C14.9286859,7.80157788 15.0293802,7.80382072 15.1203057,7.7440119 C15.1203057,7.7440119 15.1203057,7.7440119 15.1203057,7.7440119 C15.2240058,7.76195455 15.3247002,7.74475951 15.4253945,7.72532165 C15.9123342,7.72606926 16.399274,7.72606926 16.8862137,7.72681687 C16.9703762,7.73279775 17.0545386,7.73803102 17.1379496,7.7440119 C17.2243663,7.79933505 17.3213034,7.79783983 17.4182405,7.79111134 C17.4783565,7.79783983 17.539224,7.80456833 17.59934,7.81054921 C17.6639647,7.86437714 17.7398612,7.86811519 17.818012,7.85989148 C17.8901512,7.88531022 17.9600361,7.91745746 18.0336782,7.9354001 C19.5718968,8.29724343 20.9117326,9.0156968 22.0419137,10.119917 C22.4213961,10.489984 22.7415139,10.9093933 23.0729035,11.3198313 C23.380998,11.8349347 23.6507687,12.3717188 23.9385741,12.8972888 C24.3007731,13.5574286 24.8455745,14.0486084 25.5218797,14.3805474 C27.0788846,15.1461002 28.907163,14.822385 30.0922,13.5671475 C30.6174637,13.0101779 30.975154,12.3597571 31.0638252,11.5852329 C31.0811085,11.5336478 31.1081607,11.483558 31.1141723,11.4312252 C31.1998376,10.6350204 31.0863687,9.87320566 30.7136493,9.15774273 C30.5663651,8.87439847 30.4183294,8.59180183 30.2605249,8.31443846 C29.8690193,7.6258895 29.4632362,6.94556424 28.9462384,6.34000001 C28.9462384,6.34000001 28.9462384,6.34000001 28.9462384,6.34000001 C28.9462384,6.34000001 28.9462384,6.34000001 28.9462384,6.34000001 C28.9176833,6.24056786 28.8402839,6.17403055 28.7794165,6.09702671 C25.3204911,1.72649767 19.8266385,-0.537265913 14.2726699,0.108669271 C11.9619604,0.377061321 9.81206132,1.10747645 7.82222112,2.3021575 C7.16845942,2.69465284 6.53122963,3.11181931 5.96538761,3.62767033 C5.96538761,3.62767033 5.96538761,3.62767033 5.96538761,3.62767033 C5.96538761,3.62767033 5.96538761,3.62767033 5.96538761,3.62767033 C5.46642466,3.97605666 5.03584368,4.40219446 4.6127772,4.83506074 C3.82600882,5.6409845 3.10987675,6.50297903 2.53201153,7.4718818 C2.46362956,7.57206156 2.39073889,7.66850328 2.32761707,7.77167348 C1.73697719,8.74580953 1.25078889,9.76854023 0.884081184,10.8458465 C0.707490381,11.3654355 0.523385075,11.884277 0.447488603,12.4315276 C0.390378386,12.4890936 0.387372585,12.5601166 0.395638537,12.63413 C0.389626935,12.6707629 0.384366784,12.7073958 0.378355182,12.7440287 C0.318239164,12.8083232 0.319742064,12.8860746 0.328008017,12.9653213 C0.321996415,13.0019542 0.316736263,13.0385871 0.311476112,13.07522 C0.254365895,13.1395145 0.255117345,13.2172659 0.263383297,13.295765 C0.258874596,13.3376312 0.254365895,13.3787497 0.249857193,13.4206159 C0.244597042,13.428092 0.240839791,13.4355681 0.23783399,13.4430442 C0.185232474,13.5424764 0.182978123,13.6501322 0.191995526,13.7600309 C0.17320927,13.8347919 0.148411413,13.9080577 0.13864256,13.9835664 C-0.0154047364,15.2081518 -0.0492199966,16.4349801 0.0785265418,17.6633036 C0.101821499,17.8890819 0.0860410441,18.1245791 0.182226673,18.341386 C0.182226673,18.341386 0.182226673,18.341386 0.182226673,18.341386 C0.185983924,18.381757 0.189741175,18.4213803 0.194249877,18.4617512 C0.184481024,18.5634262 0.182226673,18.663606 0.245348492,18.751824 C0.245348492,18.751824 0.245348492,18.751824 0.245348492,18.751824 C0.249857193,18.7877093 0.254365895,18.8235946 0.258874596,18.8587322 C0.249105743,18.9574168 0.250608644,19.0538585 0.314481913,19.1383385 C0.314481913,19.1383385 0.314481913,19.1383385 0.314481913,19.1383385 C0.319742064,19.1779618 0.325002216,19.2175851 0.329510917,19.2564609 C0.320493515,19.3334647 0.324250766,19.4074781 0.380609533,19.4687821 C0.380609533,19.4687821 0.380609533,19.4687821 0.380609533,19.4687821 C0.364829078,19.6055948 0.396389987,19.7326885 0.461766157,19.8523062 C0.451245854,19.9278148 0.464771958,19.9973425 0.516622023,20.0564037 C0.523385075,20.1206982 0.519627824,20.1879831 0.53691118,20.2500348 C0.748068693,20.9856832 0.989284215,21.7116126 1.29813026,22.4143662 C1.61073355,23.1268387 1.94137165,23.8303399 2.38547873,24.4747798 C2.79652201,25.2186519 3.31427121,25.887763 3.86583568,26.5307078 C4.75855855,27.5713811 5.7572359,28.4976701 6.90169459,29.2632229 C7.43823005,29.7102938 8.05817649,30.0287757 8.66534827,30.3607147 C9.4167985,30.7719003 10.2163415,31.0844013 11.0256534,31.3617647 C11.3705691,31.4798871 11.7207449,31.6099712 12.0927128,31.639128 C12.149823,31.6944512 12.2204593,31.7026749 12.2956043,31.6944512 C12.3173964,31.6974416 12.338437,31.7011797 12.360229,31.7049177 C12.4180907,31.7579981 12.4864727,31.767717 12.5608662,31.7579981 C12.8126021,31.8492065 13.069598,31.9127534 13.3401201,31.9075201 C13.4047448,31.9598528 13.4806413,31.961348 13.5587921,31.9531243 C13.6189082,31.9755526 13.6805271,31.9860192 13.7444003,31.9725622 C13.8308171,32.0286329 13.9270028,32.0293806 14.0246913,32.0204092 C14.1035936,32.0428375 14.1824958,32.0585373 14.2644039,32.0390995 C14.3778729,32.1011511 14.5003593,32.0966655 14.6235971,32.0869465 C14.7445806,32.1041416 14.8655641,32.1362888 14.9888019,32.1026463 C15.2172428,32.1833882 15.4531982,32.1572219 15.6876506,32.1527362 C15.9777104,32.1759121 16.2670188,32.1759121 16.5570785,32.1534838 C16.8125716,32.1624552 17.0688161,32.178155 17.3190491,32.1041416 C17.3182976,32.1041416 17.3182976,32.1041416 17.3182976,32.1041416 C17.3182976,32.1041416 17.3190491,32.103394 17.3190491,32.103394 C17.6970285,32.1325508 18.0689964,32.0660134 18.4387099,32.0091951 C20.2451963,31.7295889 21.9795434,31.2339233 23.5831382,30.3285674 C24.0640663,30.0571849 24.5495031,29.7955214 25.0071363,29.4860108 C25.1724554,29.3746169 25.3633237,29.2968654 25.4828043,29.1249151 C25.4828043,29.1249151 25.4828043,29.1249151 25.4828043,29.1249151 C25.4828043,29.1249151 25.4828043,29.1249151 25.4828043,29.1249151 C25.5399145,29.134634 25.5782385,29.1137009 25.6233255,29.0725823 C25.8510149,28.8647467 26.1019993,28.680087 26.3499779,28.5014082 C27.1036825,27.9586432 27.7379065,27.3014939 28.3308007,26.5972451 C28.4307436,26.5419219 28.484848,26.4432374 28.5547328,26.3602527 C29.503063,25.2313613 30.2695423,23.991076 30.8661937,22.6453777 C31.1577564,22.0375707 31.1953289,21.3901403 31.1066578,20.7427099 C30.8759626,19.0650727 29.5301152,17.7208696 27.9122429,17.4629441 Z" id="Fill-13" fill="#D3D3D3"></path>
            <path d="M57.1659496,27.9200414 C55.8175468,29.3647936 54.1424888,29.8097891 52.2235787,29.4018765 C50.2887157,28.989514 48.8749818,27.3697303 48.7329248,25.4339997 C48.6296105,24.0322638 49.0345112,22.7907263 50.0950015,21.8050612 C50.9739322,20.989236 52.0329031,20.5679736 53.2476051,20.5323739 C54.647665,20.4923243 55.8684443,20.9083952 56.8651229,21.8896103 C57.0140169,22.0364588 57.151516,22.1936906 57.3087664,22.3620472 C57.6073141,22.1261996 57.9248535,21.9289182 58.1930147,21.6745291 C57.709109,20.9929443 57.0421245,20.4292833 56.2649887,20.0458455 C54.9993892,19.4213684 53.6547848,19.2804532 52.2759955,19.5036926 C50.2476938,19.8329893 48.7990155,20.9380615 47.9451537,22.7573516 C47.470364,23.7697164 47.4012346,24.8510556 47.5789959,25.9398113 C47.8752646,27.7487181 48.8218054,29.1489707 50.5074988,29.9774041 C52.1901535,30.8050958 53.9578905,30.8184456 55.7263872,30.2228933 C56.7230658,29.8876633 57.5412234,29.2913693 58.212766,28.4555194 C57.9020636,28.225605 57.6035158,28.0038489 57.2973714,27.7776428 C57.2411563,27.8392006 57.2039328,27.8799918 57.1659496,27.9200414" id="Fill-15" fill="#FFFFFF"></path>
            <path d="M45.4467972,20.0395047 C45.4467972,19.9582426 45.4098233,19.9187298 45.3306991,19.9179843 C45.2545328,19.9164932 45.177627,19.9164932 45.1014607,19.9164932 C43.2912171,19.9164932 41.480234,19.9157477 39.669251,19.9164932 C39.2995117,19.9172387 39.3194776,19.8672886 39.3194776,20.2721082 C39.3187381,21.9323901 39.3194776,23.5934176 39.3194776,25.2536995 C39.3194776,26.9139814 39.3194776,28.5750089 39.3194776,30.2352908 C39.3194776,30.3232627 39.3209566,30.4112345 39.3202171,30.4992063 C39.3194776,30.5923968 39.357191,30.6423469 39.4562811,30.6371283 C39.5213552,30.6334006 39.5871688,30.6371283 39.6529824,30.6371283 C41.463226,30.6371283 43.2742091,30.6371283 45.0844527,30.6371283 C45.1391741,30.6371283 45.1938955,30.6334006 45.2478775,30.6371283 C45.3558413,30.6460745 45.4098233,30.6043252 45.4090838,30.49026 C45.4068654,30.2151617 45.4076048,29.9400633 45.4083443,29.6657105 C45.4083443,29.5516453 45.3499255,29.5121325 45.2427011,29.5195878 C45.1672743,29.5248065 45.0903685,29.5203333 45.0142022,29.5203333 C43.5744374,29.5203333 42.1346726,29.5203333 40.6949078,29.5203333 C40.4405271,29.5203333 40.444964,29.542699 40.4457035,29.2720738 C40.446443,28.0620884 40.444964,26.8528485 40.446443,25.642863 C40.4471824,25.4162237 40.4516193,25.4124961 40.6801182,25.4124961 C41.705775,25.4110051 42.7306923,25.4117506 43.7563491,25.4117506 C44.2362707,25.4117506 44.7161924,25.4065319 45.196114,25.4139872 C45.3454886,25.4162237 45.4179575,25.3804386 45.4113022,25.2141867 C45.401689,24.9726369 45.4009495,24.7303417 45.4120417,24.4887919 C45.4194365,24.3195579 45.3417912,24.2792996 45.1953745,24.2934646 C45.1199477,24.3016654 45.0430419,24.2949556 44.9668756,24.2949556 C43.5374635,24.2949556 42.1087908,24.2942101 40.6801182,24.2964467 C40.5351804,24.2971922 40.4390482,24.2949556 40.4412666,24.0951552 C40.4516193,23.1386479 40.4457035,22.1813951 40.4457035,21.2248878 C40.4457035,21.2032676 40.4471824,21.1809019 40.446443,21.1592817 C40.444964,21.0616181 40.4945091,21.0213598 40.5876834,21.0235964 C40.6645892,21.0258329 40.7407554,21.0235964 40.8169217,21.0235964 C42.2352417,21.0235964 43.6528221,21.0235964 45.0711421,21.0235964 C45.1584005,21.0235964 45.245659,21.0235964 45.3329175,21.0221053 C45.4120417,21.0198687 45.4475367,20.9773739 45.4467972,20.8968573 C45.4453182,20.6113216 45.4453182,20.3250404 45.4467972,20.0395047" id="Fill-17" fill="#FFFFFF"></path>
            <g id="Group-21" transform="translate(111.319149, 19.404255)">
                <mask id="mask-2" fill="white">
                    <use xlink:href="#path-1"></use>
                </mask>
                <g id="Clip-20"></g>
                <path d="M8.41978723,0.434083404 C8.03910638,0.434083404 7.66761702,0.437828085 7.29689362,0.431836596 C7.17817021,0.430338723 7.11153191,0.482015319 7.05638298,0.577130213 C6.97365957,0.720925957 6.88174468,0.860228085 6.79365957,1.00177702 C6.01314894,2.25474723 5.23340426,3.50846638 4.4207234,4.81386213 C4.26676596,4.57644936 4.14038298,4.38397277 4.01706383,4.18924936 C3.27561702,3.01641532 2.53110638,1.84507915 1.79655319,0.667002553 C1.69085106,0.496994043 1.57748936,0.413862128 1.36914894,0.429589787 C1.1447234,0.447564255 0.918,0.429589787 0.692042553,0.435581277 C0.577148936,0.438577021 0.45306383,0.407121702 0.325914894,0.482015319 C0.400978723,0.604091915 0.462255319,0.70669617 0.526595745,0.808551489 C1.57595745,2.47044085 2.62302128,4.13307915 3.67851064,5.79122383 C3.80259574,5.98594723 3.86617021,6.17467915 3.8646383,6.4075983 C3.85544681,7.87626213 3.86004255,9.34492596 3.86004255,10.8143387 C3.86004255,10.8914791 3.8646383,10.9693685 3.8592766,11.04576 C3.85238298,11.1528579 3.88378723,11.2082791 4.00787234,11.2052834 C4.28974468,11.198543 4.57238298,11.2015387 4.85502128,11.2037855 C4.95076596,11.2045345 5.00438298,11.1693345 5.00361702,11.0704749 C5.00208511,10.9925855 5.00361702,10.9154451 5.00361702,10.8383047 C5.00361702,9.34717277 5.00668085,7.85604085 5.00055319,6.36490894 C4.99978723,6.15820255 5.04804255,5.98370043 5.15910638,5.80620255 C6.20617021,4.1300834 7.24557447,2.44947064 8.28421277,0.768857872 C8.34242553,0.673742979 8.45195745,0.590611064 8.41978723,0.434083404" id="Fill-19" fill="#FFFFFF" mask="url(#mask-2)"></path>
            </g>
            <path d="M8.13312492,16.9435439 C8.53001476,17.2483586 9.00340435,17.3959818 9.52905616,17.3549754 C11.1643332,17.2271719 12.7988528,17.0932174 14.4333724,16.9619968 C14.6765053,16.942177 14.8938858,16.8710991 15.0514298,16.6975051 C15.3294042,16.3913235 15.4112059,16.0578043 15.1998848,15.6914799 C15.1998848,15.6914799 15.1998848,15.6914799 15.1998848,15.6914799 C15.0582467,15.3169542 14.7726981,15.1214901 14.3296054,15.1098716 C14.0629924,15.1023537 13.7971368,15.076383 13.5297663,15.0668148 C12.929887,15.0442612 12.3337948,14.9670324 11.7316433,14.9779675 C11.7005889,14.9683993 11.6695346,14.9513133 11.6377228,14.9492629 C10.8909034,14.9000552 10.1455988,14.8364952 9.39802192,14.809841 C8.97916681,14.7948053 8.57848985,14.907573 8.23083253,15.1303748 C7.51279519,15.5910141 7.46204783,16.4282293 8.13312492,16.9435439" id="Fill-22" fill="#FFFFFF"></path>
            <path d="M14.9967208,23.3700673 C15.8384398,23.5401138 16.6930615,23.4983613 17.5400934,23.4285208 C17.9704403,23.3936005 18.4015461,23.3032633 18.8007744,23.1142384 C18.8554216,23.1036105 18.9123458,23.1005739 18.963957,23.0815955 C20.9494726,22.3535839 22.3938289,21.0266137 23.3106878,19.1257365 C23.5285177,18.6740505 23.5528054,18.2018677 23.3524322,17.7304441 C23.3524322,17.7304441 23.3524322,17.7304441 23.3524322,17.7304441 C23.3304215,17.5748212 23.2628715,17.4412132 23.1535771,17.328861 C23.1535771,17.328861 23.1535771,17.3296202 23.1535771,17.3296202 C23.1535771,17.328861 23.1535771,17.328861 23.1535771,17.328861 C23.0328978,17.0047098 22.7566258,16.8316268 22.4902206,16.6486749 C22.4902206,16.6486749 22.4902206,16.6486749 22.4902206,16.6486749 C22.1069311,16.3746267 21.6826561,16.2880852 21.2219497,16.3700719 C20.5806039,16.4847015 20.1449441,16.8513643 19.8504563,17.4313444 C19.1567403,18.7962714 18.0326774,19.5705904 16.5071092,19.663205 C15.1872271,19.7429143 14.0798619,19.2449209 13.2616716,18.1828893 C13.1387154,18.0242298 13.0180361,17.9824773 12.8396737,18.0037331 C12.606664,18.0325803 12.3706184,18.0371351 12.1406447,18.0781285 C11.7550782,18.1464508 11.3588859,18.097866 10.9771143,18.1927581 L9.20942863,18.1927581 C9.20032076,18.2337514 9.18741794,18.2580438 9.19273087,18.2762631 C9.22309043,18.3726734 9.25496798,18.4683245 9.29215844,18.5609392 C9.6306676,19.4111718 10.1141437,20.1733446 10.7091912,20.8649177 C10.9710424,21.1685722 11.2328937,21.4745041 11.5714028,21.7007267 C11.5714028,21.7007267 11.5714028,21.7007267 11.5714028,21.7007267 C12.5527758,22.5866387 13.7125112,23.1112019 14.9967208,23.3700673" id="Fill-24" fill="#FFFFFF"></path>
            <path d="M109.00504,7.69680004 C109.56,6.17544474 110.893879,5.27798673 112.596719,5.27724134 C114.512129,5.24220768 116.098815,6.50640101 116.388062,8.49213866 C116.502698,9.2800233 116.455629,10.053 116.15879,10.7939246 C115.576499,12.2504304 114.455191,13.0189347 112.885207,13.1329805 C111.702405,13.2187011 110.650182,12.8825271 109.80977,12.0223389 C109.222924,11.4215489 108.909383,10.6888237 108.799302,9.87559552 C108.698331,9.13765247 108.746919,8.40492721 109.00504,7.69680004 M109.012632,15.5376312 C110.130903,16.0989152 111.325852,16.3411692 112.576221,16.3404238 C113.148642,16.3396784 113.718027,16.3024086 114.278302,16.183145 C116.697808,15.6680757 118.457586,14.341269 119.42554,12.0819707 C120.013904,10.7089494 120.133855,9.27107854 119.86055,7.81084579 C119.460462,5.67677414 118.334599,4.01677499 116.372879,2.98365473 C114.230474,1.85586904 111.981024,1.7671668 109.715632,2.58114034 C107.768336,3.28106813 106.414719,4.62203736 105.693498,6.53248991 C105.010236,8.34305926 105.026179,10.1744997 105.730698,11.9798513 C106.353225,13.5757463 107.461627,14.7594368 109.012632,15.5376312" id="Fill-26" fill="#FFFFFF"></path>
            <path d="M60.2815829,7.85414097 C59.8448943,7.86160108 59.4082057,7.856379 58.9722586,7.856379 L58.9722586,7.86234709 C58.5466911,7.86234709 58.1203822,7.86458512 57.6948147,7.86160108 C57.4412536,7.86010905 57.4368051,7.85712501 57.4360637,7.61616359 C57.4345809,6.84702667 57.4338395,6.07863575 57.4368051,5.30949883 C57.4375465,5.08420363 57.4427364,5.07898156 57.6777623,5.07898156 C58.5177762,5.07823555 59.3585315,5.07823555 60.1985454,5.08420363 C60.5284714,5.08718767 60.8509833,5.14761453 61.1527359,5.28562649 C61.6539269,5.51315972 61.8904356,5.91675146 61.8904356,6.46283121 C61.8904356,7.0044349 61.6680136,7.41697876 61.1690468,7.65271811 C60.8887951,7.78476198 60.5892667,7.8489189 60.2815829,7.85414097 M61.7488269,15.8297402 C62.8424019,15.8170581 63.9359769,15.8252642 65.0295519,15.8222801 C65.1333488,15.8215341 65.2490083,15.8618187 65.3617021,15.7529011 C64.0849997,14.0422989 62.8068144,12.3309505 61.5049041,10.5867778 C61.9000739,10.4994945 62.2403796,10.4219094 62.5688228,10.3003097 C63.7965924,9.84449724 64.687022,9.04850393 65.0888644,7.76238167 C65.2653192,7.19765165 65.2905271,6.61576338 65.2482669,6.03163709 C65.1326074,4.43890447 64.3889764,3.26468379 62.9313707,2.58730617 C62.062442,2.18371444 61.1342007,2.04868652 60.1866829,2.04570248 C58.2834917,2.04048041 56.3810419,2.04346445 54.4778507,2.04495647 C54.1101129,2.04495647 54.1293895,1.9904977 54.1286481,2.40005751 C54.1279067,2.46645246 54.1286481,2.53210139 54.1286481,2.59849633 C54.1286481,6.82315433 54.1286481,11.0485583 54.1286481,15.2739623 C54.1286481,15.3731818 54.1264239,15.4724012 54.1286481,15.5708746 C54.1345794,15.8178041 54.1353208,15.8222801 54.3903647,15.8230261 C55.3193474,15.8252642 56.2490715,15.8237722 57.1787956,15.8237722 C57.2114175,15.8237722 57.2440394,15.8222801 57.2766613,15.8230261 C57.3841653,15.8267562 57.4390294,15.7782655 57.4353223,15.6663639 C57.4330981,15.5895248 57.4353223,15.5119397 57.4353223,15.4351006 C57.4353223,13.982618 57.4353223,12.5301354 57.4353223,11.0776527 C57.4353223,10.9896235 57.4368051,10.9015942 57.4368051,10.813565 C57.4368051,10.7367259 57.4686856,10.6956953 57.5509818,10.6882352 C57.7467132,10.6688389 57.8875805,10.7106155 58.0165852,10.8971182 C59.0945907,12.4607564 60.1889071,14.0124584 61.2698781,15.5731126 C61.3959173,15.7543932 61.5241807,15.8319783 61.7488269,15.8297402" id="Fill-28" fill="#FFFFFF"></path>
            <path d="M84.2957115,8.20145163 C84.06512,8.20070533 84.0613522,8.19548121 84.0590915,7.96263469 C84.0560772,7.52306225 84.0583379,7.08348981 84.0583379,6.64391738 C84.0583379,6.20434494 84.0568308,5.7647725 84.0590915,5.32520006 C84.0605986,5.08563682 84.0643665,5.0804127 84.2889294,5.0804127 C85.1095637,5.07892009 85.9309517,5.0804127 86.751586,5.08489051 C87.0085523,5.08638312 87.2594901,5.13713172 87.5006315,5.22295656 C88.1441777,5.45057896 88.486297,5.96254278 88.4787614,6.6752621 C88.4719793,7.37007015 88.1268456,7.84919664 87.4765174,8.07383383 C87.2112618,8.16562909 86.9377171,8.19921272 86.6588973,8.19995903 C85.8714199,8.20145163 85.0831889,8.20294424 84.2957115,8.20145163 M86.7538467,11.1866634 C87.4682282,11.1874097 88.1728132,11.1075553 88.8562984,10.8926201 C90.2081974,10.4664811 91.1855737,9.64032372 91.6595673,8.28802277 C91.91578,7.55664588 91.9587333,6.79840209 91.8781017,6.03791938 C91.7077955,4.43933846 90.9248395,3.24823895 89.4222271,2.56910327 C88.5684358,2.18401095 87.6603877,2.04743751 86.7297326,2.0451986 C84.8397868,2.04072078 82.9505946,2.04295969 81.0614023,2.0444523 C80.6507084,2.0444523 80.6816046,1.9951963 80.6816046,2.41088704 C80.6808511,4.59009166 80.6808511,6.77004257 80.6808511,8.94924719 C80.6808511,11.1396463 80.6808511,13.3300455 80.6816046,15.521191 C80.6816046,15.8256826 80.6838653,15.8279215 80.9928278,15.8286678 C81.9151936,15.8301604 82.8375595,15.8301604 83.7599254,15.8286678 C84.0538165,15.8279215 84.0538165,15.8249363 84.0583379,15.5376096 C84.0590915,15.4823832 84.0583379,15.4279031 84.0583379,15.3726767 C84.0583379,14.0733632 84.0575844,12.7747961 84.0583379,11.476229 C84.0590915,11.1903949 84.0621058,11.188156 84.3529826,11.1874097 C85.1532706,11.1859171 85.9535587,11.1866634 86.7538467,11.1866634" id="Fill-30" fill="#FFFFFF"></path>
            <path d="M90.3109865,29.5230163 C88.03627,29.5215313 85.8800282,27.6214837 85.9222349,25.0331421 C85.9414871,22.2807089 88.1132786,20.5061431 90.3709644,20.5172805 C92.7056589,20.5291605 94.8544959,22.354216 94.8263582,25.0546745 C94.7982204,27.7684979 92.6604903,29.5245013 90.3109865,29.5230163 M90.3391243,19.4042788 C87.2069462,19.4139313 84.7308225,21.966633 84.7678459,25.0695244 C84.6863944,28.040994 87.2506338,30.6241381 90.3650407,30.6382455 C93.4290957,30.6516104 95.9985184,28.1055911 95.9999993,25.0197772 C96.0014803,21.9213408 93.4831499,19.3953689 90.3391243,19.4042788" id="Fill-32" fill="#FFFFFF"></path>
            <path d="M65.3151897,29.5183103 C63.0312491,29.5257413 60.891534,27.6226694 60.9115037,25.042636 C60.9336922,22.2604801 63.1222221,20.4867072 65.3736195,20.5060277 C67.6886241,20.5260913 69.8379542,22.3385054 69.8046714,25.0300033 C69.7780451,27.6011196 67.8409854,29.5093931 65.3151897,29.5183103 M65.3248047,19.4055008 C64.9320675,19.3973267 64.5082663,19.4285368 64.0918614,19.5243963 C60.6933163,20.3046484 58.9825797,23.8365893 60.0705579,26.9301028 C61.0705215,29.7739357 64.1340196,31.3775394 67.2759172,30.3015347 C69.9710854,29.378608 71.7261991,26.4158796 70.6648472,23.1076109 C70.1175298,21.4022029 68.2914128,19.3787493 65.3248047,19.4055008" id="Fill-34" fill="#FFFFFF"></path>
        </g>
    </g>
</svg>