<?xml version="1.0" encoding="UTF-8"?>
<svg viewBox="0 0 130 20" version="1.1" xmlns="http://www.w3.org/2000/svg" xmlns:xlink="http://www.w3.org/1999/xlink">

    <defs>
        <polygon id="path-1" points="9.13496185e-05 0.0303651884 129.983721 0.0303651884 129.983721 19.9192675 9.13496185e-05 19.9192675"></polygon>
        <polygon id="path-3" points="0 0.0325673136 17.1548864 0.0325673136 17.1548864 19.9138108 0 19.9138108"></polygon>
        <polygon id="path-5" points="0.155046408 0.0342858656 17.2822268 0.0342858656 17.2822268 19.9135353 0.155046408 19.9135353"></polygon>
        <polygon id="path-7" points="0.0591575476 0.0885494217 19.3793085 0.0885494217 19.3793085 19.3951613 0.0591575476 19.3951613"></polygon>
    </defs>
    <g id="2" stroke="none" stroke-width="1" fill="none" fill-rule="evenodd">
        <g id="Hacket">
            <g id="Group-3">
                <mask id="mask-2" fill="white">
                    <use xlink:href="#path-1"></use>
                </mask>
                <g id="Clip-2"></g>
                <path d="M79.4128959,19.9124757 C79.4128959,19.9140971 79.4128959,19.9154868 79.4128959,19.9171081 C80.0759647,19.9171081 80.7390335,19.9224354 81.401873,19.9117809 C81.5162822,19.9099279 81.6293157,19.8399785 81.743037,19.8015295 C81.6898448,19.6845612 81.6630194,19.5414198 81.5788748,19.4547938 C80.8009383,18.6536188 80.012455,17.8626351 79.2280988,17.0677139 C77.0048007,14.814279 74.7819612,12.5603808 72.5586631,10.3069459 C72.2777989,10.0220528 72.2748183,9.85574934 72.540321,9.58614319 C74.6985044,7.39362444 76.8546243,5.1990211 79.0139541,3.00789207 C79.8184868,2.19166176 80.634254,1.38678085 81.4335132,0.565454895 C81.5373757,0.458677888 81.572455,0.283804482 81.6394039,0.140663072 C81.5059647,0.104067048 81.3725256,0.0368971305 81.2386279,0.0362022693 C79.9808148,0.0294852776 78.7230018,0.0403714366 77.465418,0.0304117592 C77.1609383,0.0280955551 76.9211146,0.111942142 76.7083457,0.334529351 C76.2750123,0.787810484 75.8258589,1.22580467 75.385418,1.67260043 C72.785418,4.31122009 70.1861058,6.95076622 67.5858765,9.58938588 C67.3352769,9.8439367 67.3313792,10.0032915 67.58794,10.2643277 C70.6600212,13.3877289 73.7337072,16.5092771 76.8034956,19.6345312 C76.9960882,19.8304821 77.2116085,19.9180346 77.4821552,19.9147919 C78.1257354,19.9073801 78.7693157,19.9124757 79.4128959,19.9124757 M40.434448,19.9134022 C40.434448,19.9140971 40.434448,19.9147919 40.434448,19.9154868 C40.8829136,19.9154868 41.3318377,19.9256781 41.7798448,19.9090014 C41.9112205,19.9041374 42.1038131,19.8578133 42.1521905,19.7670181 C42.2033192,19.6715905 42.1416437,19.4872206 42.0829489,19.3644618 C41.9135132,19.0103142 41.7106032,18.6726117 41.5386455,18.3196222 C40.798769,16.8006556 40.0698977,15.2758984 39.3279577,13.7578583 C38.5731781,12.2138767 37.8053298,10.6763804 37.0473404,9.13402016 C36.4065115,7.82976566 35.7721023,6.52250009 35.1337954,5.21708749 C34.7412734,4.41452279 34.3453122,3.61357943 33.9539365,2.81031986 C33.5884691,2.06033299 33.2326314,1.30548209 32.8575344,0.560359246 C32.8031958,0.452424137 32.6663175,0.32271671 32.5661235,0.321558608 C32.4780811,0.320400506 32.3574815,0.469564047 32.3036014,0.578657258 C31.9000741,1.39789863 31.5139718,2.22570996 31.1136543,3.04657267 C30.7392451,3.81462594 30.349933,4.57503573 29.974836,5.34262575 C29.2413792,6.84329435 28.5182399,8.34859537 27.782261,9.84764263 C26.9424198,11.5581593 26.0906561,13.2624223 25.2492099,14.9720125 C24.5251534,16.4432653 23.8102681,17.9191505 23.0871287,19.3908666 C22.8954533,19.7806837 22.9653827,19.9085382 23.4016966,19.9099279 C24.2793686,19.9127073 25.1572698,19.8939461 26.034254,19.9187295 C26.4139365,19.9296156 26.6422963,19.7753564 26.7991217,19.4527092 C27.2840423,18.4551201 27.7696508,17.4577627 28.2570935,16.4611001 C28.6626843,15.631899 29.0703386,14.8036244 29.4786808,13.9755815 C29.8475873,13.2269843 30.2245185,12.4823247 30.5874638,11.7309481 C31.1769347,10.5103086 31.7563175,9.28503667 32.343037,8.06323903 C32.4397919,7.8619609 32.6172522,7.84111506 32.762843,8.0106612 C32.8190159,8.07644139 32.8577637,8.15912988 32.8962822,8.23834405 C33.4229312,9.32464375 33.9431605,10.4144178 34.4748536,11.4984013 C35.7771464,14.153466 37.0890688,16.8036666 38.3837954,19.4622056 C38.5456649,19.7950442 38.7657707,19.9277627 39.1181693,19.9166449 C39.5565467,19.9029793 39.995612,19.9134022 40.434448,19.9134022 M117.052138,19.9117809 L117.052138,19.9101595 C118.19279,19.9101595 119.333672,19.9189611 120.474095,19.9080749 C122.047164,19.8930196 123.5166,19.4603527 124.887905,18.7015642 C125.991644,18.0907812 126.939933,17.2819628 127.742631,16.2957231 C128.680832,15.1434116 129.331291,13.8507381 129.686212,12.4038054 C130.093407,10.7440136 130.083319,9.08236881 129.652279,7.43346315 C129.060744,5.17122665 127.802702,3.35555429 125.942808,1.96814807 C124.111573,0.602282539 122.045559,0.00887106152 119.777323,0.0352757877 C117.613407,0.0602907914 115.448804,0.0368971305 113.28466,0.0350441673 C112.835506,0.0345809265 112.731414,0.140431452 112.732102,0.589543417 C112.733478,1.46622665 112.734854,2.34267826 112.733707,3.21912988 C112.733019,3.67472721 112.831838,3.77965126 113.279157,3.77918802 C115.385065,3.77733505 117.490744,3.77432399 119.596653,3.77339751 C120.329651,3.77293426 121.054166,3.82944964 121.766988,4.02841157 C123.492984,4.51064526 124.757905,5.58629042 125.577799,7.15876135 C126.397464,8.73100066 126.510497,10.3882447 125.902455,12.0783788 C125.473249,13.2714555 124.738416,14.2322169 123.73831,14.9842884 C122.628152,15.8190483 121.364148,16.1822291 119.986423,16.1782915 C117.763584,16.1718062 115.540974,16.1734275 113.318134,16.1701848 C112.830462,16.16949 112.727517,16.2813626 112.731185,16.7849054 C112.737146,17.6319412 112.737376,18.4787454 112.733707,19.3257812 C112.731644,19.8205224 112.81533,19.9117809 113.308504,19.9117809 C114.556459,19.9120125 115.804413,19.9117809 117.052138,19.9117809 M58.588134,19.9103911 L58.588134,19.9122441 C59.8750653,19.9122441 61.1619965,19.9134022 62.4489277,19.9115492 C62.8013263,19.911086 62.9327019,19.7973604 62.9340776,19.4712388 C62.9382046,18.535724 62.9382046,17.5999776 62.9301799,16.6644628 C62.9271993,16.2959547 62.788716,16.16949 62.4273757,16.1697216 C60.2338836,16.1715745 58.0401623,16.1729643 55.8466702,16.1775967 C54.7197743,16.1801445 53.6403386,16.004113 52.6372522,15.4368746 C51.2040423,14.6264348 50.1704621,13.4597628 49.6910441,11.8815014 C49.0178871,9.66535737 49.4358589,7.63335156 50.9623845,5.87488944 C51.7513263,4.96624259 52.7271287,4.34688963 53.8923139,4.02540051 C54.6553474,3.81485756 55.4277813,3.77177616 56.209157,3.77293426 C58.2857178,3.77594533 60.3622787,3.77826153 62.4388395,3.77988288 C62.7997213,3.7801145 62.9308677,3.66268295 62.9327019,3.3147891 C62.9370582,2.38900234 62.9372875,1.46321559 62.9308677,0.537428826 C62.9281164,0.149233027 62.7974286,0.0331912041 62.4108677,0.0336544449 C60.1100741,0.0364338897 57.8092804,0.0299485184 55.5084868,0.0436141223 C52.829157,0.0598275506 50.5196508,1.02360006 48.6074815,2.91014826 C47.4173051,4.08423209 46.5804444,5.4873885 46.0968995,7.1105843 C45.4329136,9.33946746 45.5340247,11.5356921 46.3745538,13.6804971 C47.1167231,15.5746888 48.3426667,17.1043099 50.0340423,18.2417977 C51.6171993,19.3063251 53.3505326,19.8828283 55.2539894,19.9076117 C56.3652945,19.9222038 57.4768289,19.9103911 58.588134,19.9103911 M0.00169664903,9.98592001 L0.00490652557,9.98592001 C0.00490652557,10.8134997 0.00536507937,11.6408478 0.00490652557,12.4681959 C0.0033015873,14.7827786 0.00100881834,17.0975929 9.17107584e-05,19.4124073 C-0.000137566138,19.7730402 0.108768959,19.9085382 0.426776014,19.9101595 C1.38217284,19.9150235 2.33779894,19.9154868 3.29319577,19.9078433 C3.6293157,19.9050639 3.74418342,19.7718821 3.74372487,19.4300104 C3.73982716,17.0857803 3.73524162,14.7415502 3.72973898,12.39732 C3.72882187,11.9783187 3.84277249,11.8650564 4.27656437,11.865288 C7.17233157,11.8655196 10.0680988,11.8655196 12.963866,11.8659828 C13.4469524,11.8659828 13.5574638,11.992216 13.5556296,12.4825564 C13.546,14.8168268 13.5423316,17.1510972 13.5363704,19.4853677 C13.5356825,19.7459406 13.6608677,19.9057587 13.9201799,19.9076117 C14.9049242,19.9138654 15.8896684,19.9152552 16.8744127,19.9041374 C17.1467937,19.9008947 17.2735838,19.7392236 17.2738131,19.4605843 C17.2740423,19.2539789 17.2609735,19.0471419 17.2609735,18.8405365 C17.2598272,13.2360175 17.2593686,7.63126697 17.2600564,2.02674803 C17.2602857,1.57393014 17.2639541,1.12088063 17.2793157,0.668294355 C17.2960529,0.177722337 17.1559647,0.0294852776 16.6737954,0.0324963428 C15.8257002,0.0378236122 14.9773757,0.0399081958 14.1292804,0.0336544449 C13.6516966,0.0299485184 13.546,0.126302607 13.5466878,0.617801107 C13.5503563,2.92242414 13.554254,5.22727879 13.5586102,7.53213344 C13.5595273,7.99004698 13.4104974,8.12461844 12.9618025,8.12392357 C10.0761235,8.11859631 7.19067372,8.11766982 4.30499471,8.12160737 C3.88473016,8.12230223 3.73271958,7.99722721 3.73294885,7.57058243 C3.73455379,5.26572778 3.73753439,2.96087312 3.74395414,0.656018473 C3.74555908,0.139041729 3.64192593,0.0311066204 3.13270194,0.0341176857 C2.29446561,0.0389817142 1.45577072,0.0419927794 0.617534392,0.0350441673 C0.106934744,0.0306433796 0.00169664903,0.126070986 0.00169664903,0.648375 C0.00192592593,3.76089 0.00169664903,6.87340501 0.00169664903,9.98592001 M88.7421728,9.96808524 C88.7442363,9.96808524 88.7460705,9.96808524 88.748134,9.96808524 C88.748134,11.3865286 88.7488219,12.804972 88.7479048,14.2234153 C88.7469877,15.9471344 88.7446949,17.6708534 88.7428607,19.3945725 C88.7426314,19.7871691 88.8545185,19.9036741 89.2470406,19.9115492 C89.4029489,19.9145603 89.5590864,19.9090014 89.7149947,19.9090014 C94.9606208,19.9099279 100.206476,19.911086 105.452102,19.9120125 C105.880621,19.9120125 105.966141,19.8216805 105.965453,19.3929511 C105.963848,18.4968118 105.967287,17.6004408 105.966141,16.7040699 C105.965683,16.287848 105.849439,16.1720378 105.447746,16.1722694 C101.479422,16.1736591 97.511097,16.1748172 93.5425432,16.176207 C93.3183104,16.1764386 93.093619,16.1875564 92.8700741,16.1759753 C92.6107619,16.1623097 92.4447654,16.0258853 92.4438483,15.7497938 C92.4399506,14.5974823 92.4415556,13.4449391 92.4424727,12.2926276 C92.4427019,12.0431724 92.5855414,11.9130018 92.8150476,11.8771006 C92.9296861,11.8592658 93.0484515,11.8673726 93.1651534,11.8673726 C97.2799859,11.870152 101.394589,11.8738579 105.509192,11.8759425 C105.835683,11.8759425 105.960638,11.7643015 105.96316,11.4374851 C105.970039,10.4623632 105.968892,9.48724128 105.963619,8.51235099 C105.962014,8.22282549 105.839122,8.10562556 105.546794,8.09682399 C105.303302,8.08941213 105.059351,8.09775047 104.81563,8.09821371 C100.876882,8.10678366 96.938134,8.11465876 92.999157,8.12438682 C92.5873757,8.12554492 92.4417848,7.98240351 92.4417848,7.55344252 C92.4420141,6.48984162 92.4420141,5.4260091 92.4431605,4.36217658 C92.443619,3.89291363 92.5768289,3.76343783 93.0333192,3.76413269 C97.1868995,3.77015482 101.34048,3.77478723 105.49406,3.7789564 C105.855171,3.77941964 105.962702,3.6700948 105.964078,3.2988073 C105.966829,2.38298021 105.967058,1.46692151 105.965453,0.550862809 C105.964765,0.140431452 105.848522,0.0341176857 105.436053,0.0341176857 C100.063637,0.0343493061 94.6912205,0.0341176857 89.3188042,0.0324963428 C88.8586455,0.0322647224 88.7419436,0.143674137 88.7419436,0.600892817 C88.7424021,3.72313588 88.7421728,6.84561056 88.7421728,9.96808524" id="Fill-1" fill="#FFFFFF" mask="url(#mask-2)"></path>
            </g>
            <path d="M88.5889399,9.69346967 C88.5889399,6.64715723 88.5891702,3.6008448 88.5887097,0.554532358 C88.5887097,0.108691958 88.7059022,0 89.1679952,0 C94.5629949,0.00158179564 99.9577644,0.00203373725 105.352764,0.00180776645 C105.766967,0.00158179564 105.883929,0.105528366 105.88462,0.505948635 C105.886232,1.39966317 105.886002,2.29315174 105.883008,3.18686628 C105.881857,3.54909748 105.773644,3.65552973 105.411245,3.65530376 C101.240205,3.65123629 97.0691648,3.64671687 92.8981246,3.64084163 C92.4397154,3.64016372 92.3059455,3.7664814 92.305485,4.22429825 C92.3043338,5.26218216 92.3043338,6.2998401 92.3041036,7.33772402 C92.3041036,7.75599598 92.4503064,7.89587191 92.8638187,7.89474205 C96.8191234,7.88525128 100.774658,7.87756827 104.729963,7.86920735 C104.974709,7.86875541 105.219685,7.86062046 105.464201,7.86785153 C105.757757,7.87643842 105.881166,7.99077965 105.882778,8.27324315 C105.888074,9.22435428 105.889225,10.1756914 105.882087,11.1270285 C105.879785,11.4456473 105.754304,11.5547912 105.426441,11.5547912 C101.294542,11.5527575 97.1626425,11.5491419 93.030513,11.5464303 C92.9133204,11.5464303 92.7938255,11.5385213 92.6789354,11.5559211 C92.4484645,11.5909465 92.3050246,11.7177162 92.3047943,11.9613127 C92.3038734,13.0855174 92.3022617,14.2099482 92.3061758,15.3341529 C92.3070967,15.6035101 92.473791,15.7366069 92.7341932,15.7499392 C92.9586779,15.7612378 93.1843137,15.7501652 93.4094891,15.7501652 C97.3944949,15.7488094 101.379731,15.7476795 105.364737,15.7460977 C105.767888,15.7460977 105.88485,15.8590831 105.885311,16.2651527 C105.886462,17.1396597 105.883008,18.0141667 105.88462,18.8884477 C105.885081,19.3067197 105.799431,19.3948483 105.369111,19.3948483 C100.101204,19.3939444 94.8335277,19.3928146 89.5658511,19.3919107 C89.4090572,19.3919107 89.2524936,19.397334 89.0959299,19.3941704 C88.7017579,19.3867134 88.5894004,19.2730501 88.5896306,18.8900295 C88.5914726,17.2083548 88.593775,15.5266801 88.5946959,13.8450053 C88.5956169,12.4611601 88.5949262,11.0773149 88.5949262,9.69346967 C88.592854,9.69346967 88.5910121,9.69346967 88.5889399,9.69346967" id="Fill-4" fill="#FFFFFF"></path>
            <g id="Group-8">
                <mask id="mask-4" fill="white">
                    <use xlink:href="#path-3"></use>
                </mask>
                <g id="Clip-7"></g>
                <path d="M0.00177536078,9.98603582 C0.00177536078,6.87352082 0.00177536078,3.76100581 0.00177536078,0.64849081 C0.00177536078,0.126186797 0.106248514,0.0307591898 0.612909168,0.0349283571 C1.44528024,0.0421085896 2.27765132,0.038865904 3.11002239,0.0340018755 C3.61554499,0.0309908102 3.71819726,0.139157539 3.7168316,0.656134284 C3.7102309,2.96098893 3.70727197,5.26561197 3.7059063,7.57046662 C3.70545108,7.9971114 3.85658436,8.12218642 4.27379414,8.12172318 C7.13827048,8.11778563 10.0029744,8.11871212 12.8674508,8.12380776 C13.3131118,8.12473425 13.460831,7.99016279 13.4601481,7.53224925 C13.4558235,5.2273946 13.4519542,2.92253995 13.4483124,0.617685296 C13.447402,0.126418417 13.5523303,0.0300643286 14.0266703,0.0335386347 C14.868601,0.0397923856 15.7105317,0.0379394224 16.55269,0.032612153 C17.0313546,0.0296010878 17.1701969,0.177606527 17.1535814,0.668178545 C17.1383315,1.12076482 17.1346897,1.57404595 17.1346897,2.02686384 C17.1337793,7.63138278 17.1344621,13.2359017 17.1353726,18.8404207 C17.1353726,19.0472577 17.1483463,19.2540947 17.1483463,19.4607001 C17.1481187,19.7393395 17.0220226,19.9010105 16.7516215,19.9040216 C15.7742626,19.915371 14.7966761,19.9139812 13.8190897,19.9074959 C13.5616624,19.9058745 13.4371595,19.7460565 13.4378423,19.4852519 C13.4437602,17.1509814 13.4476296,14.816711 13.4569616,12.4826722 C13.4590101,11.9921002 13.3493019,11.8660986 12.8697269,11.865867 C9.99500806,11.8656354 7.12028926,11.8654038 4.24557046,11.8651722 C3.81493166,11.8651722 3.70180932,11.9784345 3.70271976,12.3974359 C3.70818241,14.741666 3.712507,17.0858961 3.71637638,19.4301262 C3.71705921,19.7719979 3.60279881,19.9051797 3.26934964,19.9077275 C2.32089728,19.9156026 1.37221732,19.9151393 0.423764962,19.9102753 C0.108069397,19.908654 -4.55220713e-05,19.773156 -4.55220713e-05,19.4122914 C0.00109252971,17.0977087 0.00336863328,14.7828944 0.00496190577,12.4683117 C0.00541712649,11.640732 0.00496190577,10.8133839 0.00496190577,9.98603582 L0.00177536078,9.98603582 Z" id="Fill-6" fill="#FFFFFF" mask="url(#mask-4)"></path>
            </g>
            <path d="M58.5485478,19.3907036 C57.4356899,19.3907036 56.3223727,19.4022274 55.2097444,19.3882181 C53.3033983,19.3640407 51.567643,18.8014085 49.9825035,17.7629114 C48.2887644,16.6534639 47.0611079,15.1610197 46.3176719,13.3131456 C45.476198,11.2210123 45.374716,9.07849062 46.0398592,6.90388311 C46.5240799,5.32060434 47.3621099,3.95153254 48.5539493,2.80615791 C50.4687905,0.965966344 52.7815237,0.0255344563 55.4645974,0.00994344234 C57.7686059,-0.00361396113 60.0726145,0.00271282716 62.376623,1.34646188e-06 C62.763724,-0.000450566987 62.8945944,0.112753752 62.8973496,0.491683179 C62.9037783,1.39460625 62.9033191,2.29775528 62.8989568,3.20090431 C62.8973496,3.54029131 62.76602,3.65485137 62.4046339,3.65462541 C60.3251714,3.65304371 58.245709,3.65078414 56.1662466,3.64784671 C55.3837791,3.64671692 54.6102659,3.68897083 53.8461662,3.89413954 C52.6793529,4.20776747 51.7019574,4.81197575 50.9121428,5.69862994 C49.3834842,7.41386743 48.9649284,9.39618578 49.639026,11.5581397 C50.1191138,13.0978088 51.1541383,14.2359529 52.5893508,15.0265754 C53.5936092,15.5799435 54.6747828,15.7516706 55.8032533,15.749411 C57.9998103,15.7446659 60.1963674,15.7433102 62.393154,15.7417285 C62.7549993,15.7412766 62.893676,15.8648749 62.8966608,16.224372 C62.9044671,17.1370112 62.9046967,18.0496505 62.900564,18.9622897 C62.8989568,19.2804367 62.7676271,19.3913815 62.4145066,19.3918334 C61.1260067,19.3936411 59.8372773,19.3925113 58.5485478,19.3925113 L58.5485478,19.3907036 Z" id="Fill-9" fill="#FFFFFF"></path>
            <g id="Group-13" transform="translate(112.701613, 0.000000)">
                <mask id="mask-6" fill="white">
                    <use xlink:href="#path-5"></use>
                </mask>
                <g id="Clip-12"></g>
                <path d="M4.444684,19.9118503 C3.20580083,19.9118503 1.96714527,19.9118503 0.728262097,19.9118503 C0.23867222,19.9118503 0.15559444,19.8205919 0.157642933,19.3256191 C0.161284699,18.4788149 0.161057088,17.6317791 0.155139219,16.7849749 C0.151497453,16.2814321 0.253466893,16.1695595 0.737821732,16.1702543 C2.94427653,16.173497 5.15095893,16.171644 7.35764134,16.1781294 C8.72535197,16.1822986 9.97994026,15.8191178 11.0822572,14.9843578 C12.0750936,14.2322864 12.8043572,13.2715249 13.2306714,12.0784482 C13.834294,10.3883141 13.7218545,8.73107014 12.9083751,7.15883083 C12.0944405,5.58612828 10.8387141,4.51048312 9.12526337,4.02848106 C8.41762277,3.82951913 7.69814643,3.77300375 6.97047612,3.77323537 C4.88010261,3.77416185 2.7897291,3.77740454 0.699127971,3.7792575 C0.255060166,3.77972074 0.156960102,3.6747967 0.157415323,3.21896774 C0.158553374,2.34251613 0.157415323,1.46606452 0.15604966,0.589612903 C0.155366829,0.140500938 0.258701931,0.0346504126 0.70459062,0.0351136534 C2.85300478,0.0369666167 5.00187415,0.0601286572 7.1500607,0.0351136534 C9.40180995,0.00894054764 11.4528069,0.602352026 13.2707308,1.96821755 C15.117106,3.35539216 16.3657764,5.17129614 16.9530111,7.43353263 C17.3811462,9.0824383 17.3909335,10.7438515 16.9869251,12.4038749 C16.6345843,13.8508076 15.9888537,15.1434811 15.0574721,16.2957926 C14.2603806,17.2820323 13.3192118,18.0908507 12.2234955,18.7016337 C10.862158,19.4604222 9.40340323,19.8930891 7.84176857,19.9079128 C6.70940705,19.9190306 5.57704552,19.910229 4.444684,19.910229 L4.444684,19.9118503 Z" id="Fill-11" fill="#FFFFFF" mask="url(#mask-6)"></path>
            </g>
            <g id="Group-16" transform="translate(23.064516, 0.524194)">
                <mask id="mask-8" fill="white">
                    <use xlink:href="#path-7"></use>
                </mask>
                <g id="Clip-15"></g>
                <path d="M17.6302709,19.3892515 C17.1883383,19.3892515 16.7461748,19.3789834 16.304704,19.392446 C15.9498187,19.4033985 15.7281597,19.2726523 15.565148,18.9449882 C14.2612852,16.3257287 12.9401053,13.7149118 11.6286229,11.0993032 C11.0931779,10.0314284 10.5692777,8.95807737 10.0389124,7.88769265 C10.0001221,7.80965565 9.96110085,7.72819597 9.90453163,7.66339331 C9.75791345,7.49636675 9.57920089,7.5169028 9.4817633,7.7151898 C8.89090356,8.91883069 8.30743246,10.1258943 7.71380199,11.3283943 C7.34829555,12.0688331 6.96893544,12.8024265 6.59719484,13.5396708 C6.18597125,14.3554085 5.77544033,15.1713743 5.36698747,15.9882529 C4.87610517,16.9701044 4.38707004,17.9526405 3.89872758,18.9356329 C3.74079555,19.2532572 3.51082436,19.405224 3.12846261,19.3947278 C2.24529008,19.3700845 1.36119398,19.3885669 0.477328773,19.3858288 C0.0379360119,19.3844597 -0.0324868952,19.2585053 0.160541139,18.8744811 C0.888783266,17.4246357 1.60871318,15.9706832 2.33787889,14.5212942 C3.18526272,12.8371096 4.04303682,11.1581732 4.88880439,9.47330413 C5.62997662,7.99630555 6.35821875,6.51337434 7.09685114,5.03523487 C7.474595,4.27905176 7.86665433,3.52971399 8.2437055,2.77307453 C8.64684778,1.96463857 9.03567459,1.1489009 9.4420494,0.342062192 C9.49630967,0.234362002 9.61776032,0.0874151328 9.70642392,0.0885560247 C9.80732493,0.0899250949 9.94516911,0.217476803 9.99989118,0.324036101 C10.377635,1.05785773 10.7359837,1.80171921 11.10403,2.54056077 C11.4981674,3.33165517 11.8969227,4.12069597 12.2922145,4.91133401 C12.9350256,6.1973473 13.5739114,7.48518601 14.2192623,8.7700584 C14.9826005,10.2894981 15.7558671,11.8041462 16.5159727,13.3254113 C17.2631482,14.8208924 17.9971627,16.3227624 18.7422601,17.8193843 C18.9154312,18.1671281 19.1197731,18.4998122 19.2904043,18.8484687 C19.3495134,18.9696315 19.4116241,19.1510333 19.3601346,19.2450427 C19.3114158,19.3344887 19.1174641,19.3803525 18.9851614,19.3851443 C18.533993,19.4013449 18.0819011,19.3913051 17.6302709,19.3913051 C17.6302709,19.3906205 17.6302709,19.389936 17.6302709,19.3892515" id="Fill-14" fill="#FFFFFF" mask="url(#mask-8)"></path>
            </g>
            <path d="M79.4754141,19.9133812 C78.8404959,19.9133812 78.2055777,19.9082776 77.5706594,19.9157011 C77.303754,19.9189489 77.0911344,19.8312586 76.901134,19.6349996 C73.8726623,16.50483 70.8403453,13.3783723 67.8096117,10.2500586 C67.5565039,9.98861183 67.5603492,9.82900636 67.807576,9.57405518 C70.3728084,6.93128548 72.9371362,4.28758785 75.5021424,1.64481816 C75.9366554,1.19731968 76.3797636,0.75863661 76.8072647,0.304642554 C77.01717,0.0817052581 77.2537658,-0.00227320297 77.5541475,4.66440195e-05 C78.7948053,0.0100219861 80.0356893,-0.000881294777 81.2765733,0.0058462615 C81.4086688,0.0065422156 81.540312,0.0738177783 81.6719552,0.110471361 C81.6059074,0.253837905 81.5713002,0.428986353 81.4688357,0.535931299 C80.6803337,1.35854904 79.875546,2.16469587 79.0818417,2.98220995 C76.9515746,5.17678521 74.8244741,7.37484023 72.6953379,9.57080739 C72.4334087,9.84083758 72.4363492,10.0074026 72.7134332,10.2927438 C74.9068077,12.5497229 77.0997297,14.807166 79.2931041,17.0641452 C80.0669036,17.8603166 80.8447746,18.6525444 81.6122408,19.4549795 C81.6952529,19.5417417 81.7217172,19.6851083 81.7741935,19.8022606 C81.6620028,19.84077 81.5504906,19.9108294 81.4376213,19.9126853 C80.783703,19.9233566 80.1295586,19.9180209 79.4754141,19.9180209 C79.4754141,19.916397 79.4754141,19.9150051 79.4754141,19.9133812" id="Fill-17" fill="#FFFFFF"></path>
        </g>
    </g>
</svg>