<?xml version="1.0" encoding="UTF-8"?>
<svg  viewBox="0 0 150 25" version="1.1" xmlns="http://www.w3.org/2000/svg" xmlns:xlink="http://www.w3.org/1999/xlink">
    <defs>
        <polygon id="path-1" points="0.0185625 0.251181889 8.8059375 0.251181889 8.8059375 13.8862031 0.0185625 13.8862031"></polygon>
        <polygon id="path-3" points="0 24.144 149.899687 24.144 149.899687 9.375e-05 0 9.375e-05"></polygon>
    </defs>
    <g id="Custom-Preset-2" stroke="none" stroke-width="1" fill="none" fill-rule="evenodd" transform="translate(-782.000000, -411.000000)">
        <g id="Coinspeaker" transform="translate(782.000000, 411.000000)">
            <path d="M77.2243594,13.1737969 C77.1671719,12.2995781 77.1760781,11.7516094 77.0884219,11.2191094 C76.8292031,9.65020312 75.9338906,8.83364062 74.6734219,8.96301562 C73.1209219,9.12239062 72.3863906,9.96895312 72.3817031,11.6114531 C72.3788906,12.5981719 72.4332656,13.5886406 72.3676406,14.5711406 C72.2902969,15.7312969 72.4974844,16.6378594 73.8310781,16.8703594 C75.3151406,17.1291094 76.3154531,16.6575469 76.7921719,15.3061406 C77.0659219,14.5303594 77.1273281,13.6800469 77.2243594,13.1737969 M72.2368594,7.74004687 C72.6821719,7.42317187 73.0276406,7.14614062 73.4012344,6.91598437 C76.3449844,5.10426562 79.7190469,6.13082812 80.6987344,9.42754687 C81.2251406,11.1998906 81.3807656,13.2712969 81.0315469,15.0778594 C80.2112344,19.3200469 76.8113906,20.8270781 72.4304531,19.0800469 L72.4304531,24.1439531 L68.5074844,24.1439531 L68.5074844,6.37176562 C71.1179531,5.93676562 71.3874844,6.02910937 72.2368594,7.74004687" id="Fill-1" fill="#FFFFFF"></path>
            <path d="M116.263781,14.0220469 L116.263781,19.6854844 L112.321594,19.6854844 L112.321594,0.095484375 L116.202844,0.095484375 L116.202844,11.5006406 C116.994563,11.0843906 117.588938,10.8959531 118.009406,10.5157969 C118.435031,10.1309531 118.777219,9.59329688 119.002219,9.05798438 C120.198,6.21314063 122.413313,5.73360937 125.331281,6.39501562 C123.887531,8.37642187 122.483625,10.3029844 121.072688,12.2403281 C122.50425,14.6192344 123.985031,17.0797031 125.614406,19.7876719 C124.165969,19.7876719 122.990344,19.8997031 121.853625,19.7375156 C121.331906,19.6629844 120.744563,19.1412656 120.436125,18.6617344 C119.666438,17.4631406 118.998938,16.1928281 118.368,14.9126719 C117.926906,14.0173594 117.340031,13.6451719 116.263781,14.0220469" id="Fill-3" fill="#FFFFFF"></path>
            <path d="M16.1828438,17.0298281 C13.6126875,20.4718594 6.916125,20.9457656 3.3358125,17.9396719 C-0.73246875,14.5238906 -1.153875,7.40920312 2.48175,3.53170312 C6.076125,-0.301265625 12.9705,-0.637359375 16.4608125,2.95373437 C16.16925,3.36435937 15.8340938,3.77967187 15.56175,4.23248437 C14.896125,5.33920312 14.1301875,5.54639062 13.0047188,4.78232812 C11.5844063,3.81810937 9.98596875,3.65264062 8.333625,4.15139062 C5.3026875,5.06639062 3.75628125,8.63545312 4.7664375,12.3788906 C5.6214375,15.5467031 8.17425,17.0687344 11.3158125,16.2751406 C11.5994063,16.2034219 11.8806563,16.1007656 12.1426875,15.9709219 C14.47425,14.8177969 14.4733125,14.8149844 16.1828438,17.0298281" id="Fill-5" fill="#FFFFFF"></path>
            <path d="M45.4078594,19.7138437 L41.5181719,19.7138437 L41.5181719,6.30571875 C42.9272344,6.33478125 44.5270781,5.48821875 45.0952031,7.27509375 C46.4170781,6.8743125 47.6409844,6.2724375 48.9066094,6.16696875 C51.5428594,5.94759375 53.4675469,7.53384375 53.6217656,10.1738437 C53.8045781,13.3097812 53.6648906,16.4644687 53.6648906,19.6993125 L49.8656719,19.6993125 C49.8220781,19.274625 49.7302031,18.77775 49.7264531,18.2799375 C49.7091094,15.9615 49.7437969,13.6425937 49.7058281,11.324625 C49.6786406,9.678375 49.1517656,9.12009375 47.7914531,9.1215 C46.1644219,9.12290625 45.4144219,9.82978125 45.4097344,11.395875 C45.4022344,14.144625 45.4078594,16.893375 45.4078594,19.7138437" id="Fill-7" fill="#FFFFFF"></path>
            <path d="M27.2015156,12.9845156 C27.0712031,12.2354531 27.0079219,11.4967031 26.8063594,10.7977969 C26.4397969,9.52654687 25.5233906,9.08685937 24.2230781,9.09810937 C22.9368281,9.10889062 22.0138594,9.70139062 21.8432344,10.8563906 C21.6332344,12.2795156 21.6379219,13.7856094 21.8652656,15.2054531 C22.0513594,16.3646719 23.0062031,16.9149844 24.2840156,16.9107656 C25.5252656,16.9070156 26.4093281,16.4748281 26.7777656,15.2879531 C27.0074531,14.5492031 27.0655781,13.7570156 27.2015156,12.9845156 M31.2416719,13.0468594 C31.2097969,17.3040469 28.5271406,19.9248281 24.2385469,19.8892031 C20.0319844,19.8545156 17.3104219,17.0748281 17.3676094,12.8724844 C17.4243281,8.70389062 20.1852656,6.08592187 24.4912031,6.11826562 C28.6532344,6.14967187 31.2730781,8.83889062 31.2416719,13.0468594" id="Fill-9" fill="#FFFFFF"></path>
            <path d="M134.934422,11.2500469 C134.835047,9.69520312 134.179734,9.02442187 132.788484,8.94707812 C131.281922,8.86317187 130.347234,9.63192187 130.096453,11.2500469 L133.624734,11.2500469 L134.934422,11.2500469 Z M129.963328,13.5722344 C130.336453,16.5591094 132.339891,17.6864531 134.954109,16.5478594 C137.116922,15.6061406 137.116922,15.6061406 138.453328,17.5997344 C136.229578,20.4567656 130.707703,20.7581719 127.949578,18.1734844 C125.651766,16.0200469 125.160516,11.7389531 126.898641,9.01785937 C128.564109,6.41020312 132.096141,5.34754687 135.157547,6.53395312 C137.479266,7.43348437 138.985359,9.99473437 138.696609,12.4570781 C138.593484,13.3350469 138.166453,13.5994219 137.324109,13.5858281 C134.912391,13.5469219 132.499734,13.5722344 129.963328,13.5722344 Z" id="Fill-11" fill="#FFFFFF"></path>
            <path d="M91.6837969,11.1901406 C91.5520781,9.64232812 90.8077031,8.94014062 89.3625469,8.94435937 C87.8827031,8.94904687 87.0577031,9.67795312 86.8594219,11.1901406 L91.6837969,11.1901406 Z M86.7258281,13.7359219 C87.0492656,16.5404531 89.0625469,17.6856094 91.6767656,16.5531094 C93.8447344,15.6137344 93.8447344,15.6137344 95.1877031,17.5857656 C93.0333281,20.4479531 87.4669219,20.7652969 84.6975469,18.1834219 C82.3959844,16.0379531 81.8953594,11.7559219 83.6273906,9.03060937 C85.2877031,6.41779687 88.8136406,5.34951562 91.8797344,6.52935937 C94.2084844,7.42514062 95.7131719,9.96670312 95.4342656,12.4417031 C95.3362969,13.3102969 94.9294219,13.5981094 94.0758281,13.5868594 C91.7095781,13.5549844 89.3423906,13.5920156 86.9756719,13.6093594 C86.8917656,13.6098281 86.8087969,13.6913906 86.7258281,13.7359219 Z" id="Fill-13" fill="#FFFFFF"></path>
            <path d="M105.161203,13.9817344 C104.054484,14.2456406 102.995578,14.3384531 102.106359,14.7767344 C101.658234,14.9975156 101.254641,15.8806406 101.326359,16.3948594 C101.378859,16.7740781 102.216984,17.2751719 102.736828,17.3154844 C104.559797,17.4575156 105.453234,16.3015781 105.161203,13.9817344 M109.112766,19.7647031 C107.704172,19.7553281 106.266516,20.2611094 105.904172,18.7039219 C104.259797,19.1150156 102.706828,19.7323594 101.117766,19.8434531 C99.0740156,19.9864219 97.8397969,18.8947031 97.4352656,17.1336094 C97.0288594,15.3650156 97.8051094,13.8232969 99.6688594,12.9537656 C100.506047,12.5632969 101.421984,12.3073594 102.328078,12.1104844 C103.232766,11.9136094 104.170266,11.8672031 105.101203,11.7542344 C105.546047,9.87735937 104.923547,9.04954687 103.041984,9.14517187 C102.468703,9.17423437 101.875266,9.33079687 101.342766,9.55345312 C99.4185469,10.3587656 98.9924531,10.1914219 98.1154219,8.05439062 C100.521984,6.20610937 103.199016,5.55923437 106.126359,6.49298437 C107.793703,7.02501562 108.970734,8.33376562 109.064016,10.0648594 C109.235578,13.2453281 109.112766,16.4422031 109.112766,19.7647031" id="Fill-15" fill="#FFFFFF"></path>
            <path d="M55.3485,18.278625 C56.2344375,16.5475312 56.77725,15.7469062 58.800375,16.9483125 C59.4280313,17.3209687 60.4035,17.2131562 61.20225,17.1390938 C61.5008437,17.1109687 61.939125,16.568625 61.969125,16.2306562 C61.9986562,15.8940937 61.6789688,15.35175 61.3649062,15.1951875 C60.5342812,14.7808125 59.6192813,14.5394062 58.7464687,14.2056562 C56.355375,13.291125 55.4788125,11.9856562 55.7399062,9.758625 C55.9588125,7.89253125 57.4789687,6.499875 59.7036562,6.1989375 C61.8842812,5.90409375 63.9181875,6.19940625 65.5752187,7.803 C64.762875,9.95925 64.611,10.036125 62.6075625,9.346125 C62.5611562,9.3301875 62.5185,9.29315625 62.4720937,9.2889375 C61.4464687,9.19659375 60.0627188,8.54690625 59.644125,9.90346875 C59.2292812,11.2469062 60.7424062,11.2290937 61.5795937,11.5900312 C62.1650625,11.8422187 62.7917812,11.997375 63.3805312,12.2425312 C64.6789687,12.7834687 65.6970937,13.6009687 65.7988125,15.1281562 C65.9052187,16.7200312 65.3249062,18.0156562 63.979125,18.931125 C61.7080312,20.4751875 57.5849063,20.1897187 55.3485,18.278625" id="Fill-17" fill="#FFFFFF"></path>
            <g id="Group-21" transform="translate(141.093750, 5.862750)">
                <mask id="mask-2" fill="white">
                    <use xlink:href="#path-1"></use>
                </mask>
                <g id="Clip-20"></g>
                <path d="M3.8866875,13.8862031 L0.01903125,13.8862031 C0.01903125,9.42370313 0.01903125,4.98276563 0.0185625,0.540890625 C2.7279375,-0.023015625 3.05090625,0.132140625 3.74934375,2.50542187 C5.05621875,0.865734375 6.52246875,-0.289265625 8.80621875,0.511359375 C8.732625,1.11792188 8.661375,1.68792187 8.5948125,2.25839062 C8.455125,3.45276563 8.3285625,4.40198438 6.5716875,4.03729688 C5.10309375,3.73214063 3.90403125,5.10557813 3.89184375,6.66792187 C3.872625,9.02432813 3.8866875,11.3812031 3.8866875,13.8862031" id="Fill-19" fill="#FFFFFF" mask="url(#mask-2)"></path>
            </g>
            <mask id="mask-4" fill="white">
                <use xlink:href="#path-3"></use>
            </mask>
            <g id="Clip-23"></g>
            <polygon id="Fill-22" fill="#FFFFFF" mask="url(#mask-4)" points="33.9604687 19.709625 37.7746875 19.709625 37.7746875 6.3286875 33.9604687 6.3286875"></polygon>
            <path d="M38.292,2.29828125 C38.3116875,3.5390625 37.2480937,4.6246875 35.9665313,4.67203125 C34.6793438,4.719375 33.5641875,3.70734375 33.5112188,2.443125 C33.4549687,1.09546875 34.53825,-0.0159375 35.8929375,-1.2490009e-15 C37.197,0.01546875 38.2718437,1.0453125 38.292,2.29828125" id="Fill-24" fill="#FFFFFF" mask="url(#mask-4)"></path>
        </g>
    </g>
</svg>