<?xml version="1.0" encoding="UTF-8"?>
<svg viewBox="0 0 247 76" version="1.1" xmlns="http://www.w3.org/2000/svg" xmlns:xlink="http://www.w3.org/1999/xlink">
    <defs>
        <polygon id="path-1" points="0 0.23732608 57.4782 0.23732608 57.4782 56.7609 0 56.7609"></polygon>
    </defs>
    <g id="Page-1" stroke="none" stroke-width="1" fill="none" fill-rule="evenodd">
        <g transform="translate(0.000000, -1.000000)">
            <g id="Group-3" transform="translate(0.000000, 0.762800)">
                <mask id="mask-2" fill="white">
                    <use xlink:href="#path-1"></use>
                </mask>
                <g id="Clip-2"></g>
                <path d="M39.0002,22.4869 L39.0002,37.9999 C45.5462,28.8259 51.3682,20.6669 57.4782,12.1049 C49.9472,8.0669 43.1562,4.2249 36.1512,0.8219 C34.5292,0.0339 31.7882,0.0309 30.2282,0.8839 C20.9052,5.9809 11.7492,11.3859 2.6212,16.8289 C1.4962,17.4999 0.1422,18.9979 0.1252,20.1309 C-0.0568,32.0059 0.0132,43.8849 0.0132,56.7609 C1.5622,54.8059 2.5972,53.6089 3.5132,52.3269 C9.2242,44.3429 14.8962,36.3309 20.6062,28.3459 C25.9432,20.8839 29.1642,19.8299 39.0002,22.4869" id="Fill-1" fill="#FFFFFF" mask="url(#mask-2)"></path>
            </g>
            <path d="M47.4132,47.2224 C43.5672,53.4624 38.9582,55.7214 31.9202,54.8554 C29.0022,54.4964 27.6462,53.7914 27.7402,50.7954 C27.8372,47.7114 27.7622,44.6204 27.7622,41.5334 L26.5462,41.1774 C21.0222,48.8814 15.4992,56.5854 9.6672,64.7204 C17.0322,68.8204 23.7712,72.7254 30.6862,76.2884 C32.0132,76.9714 34.3592,76.9024 35.6802,76.1744 C45.2872,70.8824 54.7902,65.3974 64.2142,59.7854 C65.4272,59.0634 66.7292,57.2774 66.7522,55.9624 C66.9502,44.5384 66.8662,33.1084 66.8662,21.6804 C59.5942,29.9124 52.9552,38.2294 47.4132,47.2224" id="Fill-4" fill="#FFFFFF"></path>
            <polygon id="Fill-6" fill="#FFFFFF" points="106.9032 48.1248 90.2972 29.0958 88.8622 29.0958 88.8622 50.8678 90.5552 50.8678 90.5552 31.8378 107.2032 50.8678 108.5962 50.8678 108.5962 29.0958 106.9032 29.0958"></polygon>
            <polygon id="Fill-8" fill="#FFFFFF" points="115.8485 40.6282 125.8325 40.6282 125.8325 39.2102 115.8485 39.2102 115.8485 30.4982 126.0995 30.4982 126.0995 29.0952 114.1555 29.0952 114.1555 50.8682 126.3495 50.8682 126.3495 49.4652 115.8485 49.4652"></polygon>
            <polygon id="Fill-10" fill="#FFFFFF" points="151.9491 47.1585 144.6361 29.0955 144.1101 29.0955 136.7611 47.1585 129.5101 29.0955 127.7721 29.0955 136.5831 51.0865 137.0391 51.0865 144.3791 32.7115 151.7171 51.0865 152.1251 51.0865 160.9541 29.0955 159.2171 29.0955"></polygon>
            <path d="M172.3754,40.3011 C171.6124,39.8851 170.4004,39.3661 168.7394,38.7421 C167.0774,38.1191 165.9854,37.4701 165.4634,36.7941 C164.9404,36.1191 164.6794,35.3611 164.6794,34.5191 C164.6794,33.3451 165.1214,32.3611 166.0044,31.5661 C166.8874,30.7711 167.9864,30.3731 169.3034,30.3731 C170.6724,30.3731 172.3074,30.9291 174.2094,32.0411 L174.2094,30.1861 C172.5374,29.2721 170.8494,28.8151 169.1464,28.8151 C167.4124,28.8151 165.9284,29.3781 164.6954,30.5051 C163.4624,31.6321 162.8454,32.9941 162.8454,34.5931 C162.8454,35.7461 163.0994,36.6891 163.6064,37.4211 C164.1134,38.1531 164.7304,38.7161 165.4574,39.1111 C166.1844,39.5051 167.3934,40.0261 169.0854,40.6721 C170.7774,41.3181 171.9004,42.0121 172.4544,42.7551 C173.0074,43.4981 173.2844,44.3321 173.2844,45.2571 C173.2844,46.4721 172.8374,47.4991 171.9444,48.3351 C171.0514,49.1721 169.9564,49.5901 168.6614,49.5901 C167.1044,49.5901 165.2644,48.8161 163.1434,47.2681 L163.1434,49.2471 C165.0664,50.5151 166.9374,51.1491 168.7544,51.1491 C170.5314,51.1491 172.0364,50.5721 173.2694,49.4191 C174.5014,48.2651 175.1184,46.8521 175.1184,45.1791 C175.1184,43.9221 174.8524,42.8991 174.3194,42.1091 C173.7864,41.3201 173.1384,40.7171 172.3754,40.3011" id="Fill-12" fill="#FFFFFF"></path>
            <path d="M199.9135,46.4573 C199.5425,47.0183 199.0515,47.4313 198.4395,47.6963 C197.8285,47.9613 196.6665,48.0933 194.9525,48.0933 L191.8645,48.0933 L191.8645,41.1893 L194.7955,41.1893 C196.3525,41.1893 197.4915,41.3243 198.2125,41.5943 C198.9345,41.8653 199.4905,42.2753 199.8825,42.8263 C200.2735,43.3763 200.4695,43.9843 200.4695,44.6493 C200.4695,45.2933 200.2845,45.8963 199.9135,46.4573 Z M191.8645,31.8693 L194.5605,31.8693 C197.2355,31.8693 198.5735,32.9143 198.5735,35.0023 C198.5735,36.0103 198.2205,36.8313 197.5155,37.4643 C196.8095,38.0983 195.6215,38.4153 193.9495,38.4153 L191.8645,38.4153 L191.8645,31.8693 Z M198.4795,39.3503 C200.7055,38.4253 201.8175,36.8933 201.8175,34.7523 C201.8175,33.6413 201.5515,32.6623 201.0185,31.8143 C200.4855,30.9683 199.7115,30.3033 198.6985,29.8203 C197.6845,29.3363 196.2745,29.0953 194.4665,29.0953 L188.7295,29.0953 L188.7295,50.8683 L196.1435,50.8683 C197.8155,50.8683 199.2075,50.5923 200.3205,50.0413 C201.4335,49.4913 202.2775,48.7793 202.8525,47.9063 C203.4265,47.0343 203.7145,46.0413 203.7145,44.9303 C203.7145,43.5273 203.2415,42.3223 202.2955,41.3143 C201.3505,40.3063 200.0785,39.6513 198.4795,39.3503 Z" id="Fill-14" fill="#FFFFFF"></path>
            <polygon id="Fill-16" fill="#FFFFFF" points="205.4183 31.8382 212.9253 31.8382 212.9253 50.8682 216.0763 50.8682 216.0763 31.8382 223.7093 31.8382 223.7093 29.0642 205.4183 29.0642"></polygon>
            <path d="M238.2499,48.2498 C235.7109,48.2498 233.6269,47.4808 231.9959,45.9428 C230.3669,44.4058 229.5519,42.4418 229.5519,40.0518 C229.5519,37.6828 230.3789,35.7108 232.0349,34.1368 C233.6909,32.5628 235.7729,31.7758 238.2809,31.7758 C240.7269,31.7758 243.2289,32.5028 245.7889,33.9578 L245.7889,30.6068 C242.9789,29.4128 240.4239,28.8148 238.1249,28.8148 C234.7909,28.8148 231.9879,29.8948 229.7159,32.0568 C227.4429,34.2178 226.3069,36.8828 226.3069,40.0518 C226.3069,42.0468 226.8029,43.9008 227.7959,45.6158 C228.7889,47.3298 230.1369,48.6758 231.8399,49.6518 C233.5429,50.6288 235.6169,51.1178 238.0629,51.1178 C241.0719,51.1178 243.7269,50.4938 246.0249,49.2468 L246.0249,45.8178 C243.4959,47.4388 240.9039,48.2498 238.2499,48.2498" id="Fill-18" fill="#FFFFFF"></path>
        </g>
    </g>
</svg>