<?xml version="1.0" encoding="UTF-8"?>
<svg width="200px" height="79px" viewBox="0 0 200 79" version="1.1" xmlns="http://www.w3.org/2000/svg" xmlns:xlink="http://www.w3.org/1999/xlink">
    <defs>
        <polygon id="path-1" points="0 0.38303724 48.8244886 0.38303724 48.8244886 39.3424321 0 39.3424321"></polygon>
    </defs>
    <g id="Menu-plus-Events" stroke="none" stroke-width="1" fill="none" fill-rule="evenodd" transform="translate(-515.000000, -16004.000000)">
        <g id="Page-1" transform="translate(515.000000, 16004.000000)">
            <path d="M0,53.9 C0.262,53.963 0.392,53.77 0.543,53.619 C5.181,49.012 9.818,44.405 14.455,39.797 C14.904,39.351 14.905,39.164 14.466,38.726 C12.794,37.055 11.141,35.364 9.441,33.722 C6.447,30.832 3.546,27.849 0.579,24.931 C0.416,24.771 0.277,24.564 0,24.6 L0,23.7 C1.131,22.914 2.005,21.851 2.983,20.902 C4.836,19.103 6.64,17.254 8.473,15.434 C8.927,14.984 9.189,14.999 9.651,15.454 C10.767,16.553 11.861,17.674 12.988,18.762 C16.572,22.222 20.052,25.787 23.598,29.285 C24.307,29.985 24.223,30.09 25.014,29.292 C26.305,27.99 27.583,26.675 28.906,25.406 C31.995,22.44 34.993,19.383 38.04,16.374 C38.406,16.013 38.781,15.657 39.166,15.314 C39.469,15.044 39.756,15.04 40.044,15.329 C40.091,15.377 40.141,15.422 40.188,15.469 C42.864,18.165 45.627,20.774 48.286,23.488 C48.846,24.059 48.866,24.194 48.307,24.739 C43.635,29.303 39.061,33.966 34.428,38.568 C34.357,38.639 34.281,38.704 34.206,38.77 C33.831,39.101 33.817,39.431 34.185,39.778 C36.01,41.498 37.772,43.282 39.547,45.053 C42.485,47.982 45.414,50.92 48.352,53.85 C48.825,54.364 48.826,54.469 48.339,54.957 C46.738,56.56 45.163,58.189 43.526,59.753 C42.382,60.846 41.275,61.975 40.141,63.076 C39.673,63.53 39.432,63.526 38.961,63.056 C36.484,60.588 34.036,58.09 31.527,55.654 C29.258,53.45 27.021,51.213 24.781,48.98 C24.382,48.582 24.323,48.595 23.89,49.005 C20.805,51.923 17.857,54.98 14.83,57.957 C14.658,58.062 14.516,58.203 14.375,58.344 C12.774,59.946 11.179,61.553 9.537,63.112 C9.131,63.498 8.921,63.513 8.53,63.124 C6.711,61.316 4.916,59.482 3.079,57.692 C2.054,56.693 1.1,55.622 0,54.7 L0,53.9 Z" id="Fill-1" fill="#FFFFFF"></path>
            <g id="Group-5" transform="translate(0.000000, 14.600000)">
                <mask id="mask-2" fill="white">
                    <use xlink:href="#path-1"></use>
                </mask>
                <g id="Clip-4"></g>
                <path d="M48.3176,39.2988 C48.1316,39.1338 47.9376,38.9778 47.7626,38.8028 C43.5746,34.6258 39.3896,30.4448 35.2016,26.2688 C34.8366,25.9048 34.4426,25.5708 34.0736,25.2098 C33.6606,24.8058 33.6836,24.4428 34.1176,24.0878 C34.2466,23.9828 34.3666,23.8678 34.4846,23.7498 C38.5426,19.7028 42.5986,15.6528 46.6596,11.6078 C47.2136,11.0558 47.7836,10.5208 48.3566,9.9878 C48.6836,9.6828 48.6736,9.4138 48.3566,9.1008 C45.5696,6.3538 42.7856,3.6018 40.0066,0.8448 C39.7256,0.5658 39.4916,0.5368 39.2016,0.8278 C38.8276,1.2038 38.4216,1.5478 38.0446,1.9218 C33.6186,6.3068 29.1956,10.6948 24.7726,15.0828 C24.3426,15.5088 24.2726,15.5088 23.8446,15.0818 C21.1426,12.3878 18.4456,9.6888 15.7376,6.9998 C13.7646,5.0408 11.7746,3.0968 9.7956,1.1428 C9.0706,0.4278 9.0396,0.4228 8.3316,1.1288 C5.8766,3.5758 3.4256,6.0258 0.9626,8.4638 C0.6906,8.7338 0.4536,9.0908 -0.0004,9.0998 L-0.0004,8.7998 C0.2336,8.8418 0.3656,8.6868 0.5096,8.5448 C3.1016,5.9828 5.6956,3.4228 8.2876,0.8608 C8.9226,0.2328 9.1716,0.2428 9.8146,0.8548 C13.6406,4.4958 17.3026,8.3028 21.0676,12.0068 C22.0706,12.9928 23.1416,13.9108 24.0606,14.9828 C24.2046,15.1518 24.3826,15.1418 24.5446,14.9988 C24.6696,14.8888 24.7826,14.7658 24.9006,14.6478 C27.4706,12.0808 30.0046,9.4748 32.6216,6.9558 C34.7346,4.9228 36.7776,2.8208 38.8766,0.7738 C39.4126,0.2508 39.7946,0.2508 40.3306,0.7858 C43.0316,3.4818 45.7316,6.1798 48.4316,8.8768 C48.9666,9.4108 48.9526,9.6268 48.4056,10.1708 C45.9026,12.6588 43.4046,15.1518 40.9056,17.6458 C38.8176,19.7288 36.7386,21.8208 34.6426,23.8978 C33.8036,24.7298 33.9426,24.7708 34.6426,25.4678 C36.4126,27.2288 38.2036,28.9678 39.9586,30.7448 C42.6386,33.4608 45.3646,36.1308 48.0706,38.8208 C48.2236,38.9728 48.3626,39.1378 48.5086,39.2968 C48.4456,39.3598 48.3816,39.3548 48.3176,39.2988" id="Fill-3" fill="#FFFFFF" mask="url(#mask-2)"></path>
            </g>
            <path d="M24.8,-1.42108547e-14 C24.762,0.302 24.999,0.441 25.171,0.612 C29.486,4.896 33.803,9.179 38.121,13.461 C38.669,14.004 38.673,14.186 38.128,14.73 C35.959,16.897 33.789,19.063 31.619,21.229 C31.211,21.637 30.889,21.638 30.468,21.217 C28.595,19.343 26.725,17.467 24.853,15.591 C24.316,15.053 24.298,15.053 23.747,15.606 C21.91,17.446 20.074,19.286 18.238,21.126 C17.691,21.674 17.512,21.667 16.967,21.127 C14.835,19.019 12.699,16.915 10.566,14.808 C9.933,14.182 9.932,14.007 10.565,13.393 C14.902,9.178 19.158,4.881 23.443,0.613 C23.613,0.444 23.861,0.309 23.8,-1.42108547e-14 L24.8,-1.42108547e-14 Z" id="Fill-6" fill="#FFFFFF"></path>
            <path d="M23.8,78.6 C23.829,78.37 23.682,78.233 23.536,78.092 C19.2,73.876 14.938,69.586 10.659,65.313 C10.426,65.08 10.037,64.973 10.084,64.51 C10.117,64.178 10.288,63.961 10.505,63.748 C12.511,61.775 14.515,59.802 16.519,57.827 C16.685,57.664 16.856,57.503 17.008,57.327 C17.387,56.886 17.86,56.875 18.261,57.319 C20.058,59.312 22.039,61.124 23.899,63.055 C24.208,63.376 24.433,63.336 24.728,63.038 C26.592,61.155 28.468,59.284 30.34,57.408 C30.931,56.816 31.164,56.815 31.741,57.392 C33.873,59.525 36.008,61.656 38.142,63.787 C38.763,64.408 38.762,64.593 38.142,65.208 C37.527,65.819 36.917,66.434 36.302,67.044 C32.623,70.692 28.942,74.338 25.265,77.987 C25.093,78.157 24.853,78.296 24.9,78.6 L24.6,78.6 C24.443,78.408 24.563,78.258 24.681,78.114 C24.796,77.972 24.933,77.849 25.063,77.72 C28.714,74.068 32.37,70.421 36.012,66.761 C36.612,66.159 37.284,65.635 37.866,65.016 C38.283,64.573 38.286,64.415 37.855,63.975 C35.772,61.843 33.557,59.845 31.481,57.704 C31.115,57.326 30.879,57.354 30.525,57.734 C28.72,59.672 26.801,61.499 24.932,63.374 C24.48,63.828 24.194,63.808 23.741,63.357 C21.888,61.511 20.042,59.659 18.191,57.811 C17.659,57.28 17.542,57.279 17.011,57.809 C14.925,59.892 12.84,61.977 10.757,64.063 C10.357,64.463 10.346,64.526 10.694,64.872 C13.351,67.514 15.955,70.212 18.666,72.799 C20.438,74.49 22.139,76.251 23.881,77.97 C24.048,78.135 24.297,78.298 24.1,78.6 L23.8,78.6 Z" id="Fill-8" fill="#FFFFFF"></path>
            <path d="M24.1,78.6 C24.14,78.32 23.929,78.184 23.766,78.023 C19.404,73.693 15.042,69.364 10.678,65.035 C10.165,64.526 10.163,64.474 10.678,63.96 C12.803,61.844 14.927,59.727 17.052,57.61 C17.509,57.155 17.706,57.155 18.171,57.621 C20.055,59.507 21.937,61.394 23.822,63.279 C24.248,63.705 24.414,63.724 24.814,63.319 C26.698,61.41 28.644,59.563 30.472,57.601 C30.838,57.208 31.145,57.193 31.526,57.569 C33.672,59.686 35.818,61.803 37.963,63.922 C38.459,64.412 38.463,64.59 37.969,65.067 C33.559,69.326 29.274,73.711 24.916,78.023 C24.756,78.181 24.531,78.312 24.6,78.6 L24.1,78.6 Z" id="Fill-10" fill="#FFFFFF"></path>
            <path d="M188.582,41.1928 C188.616,40.7778 188.955,40.5288 189.166,40.2318 C190.494,38.3558 191.777,36.4498 193.047,34.5338 C193.848,33.3248 194.696,32.1458 195.523,30.9538 C195.727,30.6598 196.039,30.6048 196.36,30.5998 C197.109,30.5898 197.859,30.5988 198.609,30.5928 C198.838,30.5908 199.053,30.6158 199.156,30.8498 C199.251,31.0658 199.203,31.2908 199.061,31.4638 C198.053,32.6948 197.266,34.0808 196.319,35.3558 C195.563,36.3738 194.91,37.4668 194.188,38.5098 C193.277,39.8278 192.334,41.1228 191.422,42.4398 C190.858,43.2548 190.355,44.1138 189.771,44.9138 C189.332,45.5138 188.929,46.1368 188.497,46.7408 C188.203,47.1508 188.244,47.5058 188.538,47.9038 C189.148,48.7278 189.716,49.5808 190.308,50.4178 C190.919,51.2818 191.506,52.1608 192.138,53.0108 C192.877,54.0058 193.536,55.0598 194.243,56.0778 C194.826,56.9178 195.437,57.7388 196.022,58.5778 C196.57,59.3638 197.092,60.1668 197.638,60.9538 C198.318,61.9328 199.012,62.9008 199.695,63.8768 C199.778,63.9958 199.885,63.9938 200,63.9998 L200,64.2998 C199.723,64.4828 199.628,64.2568 199.508,64.0818 C199.202,63.6388 198.944,63.1608 198.537,62.7928 C198.143,62.2578 197.709,61.7498 197.392,61.1598 C197.253,60.8278 197.066,60.5278 196.804,60.2778 C196.087,59.4298 195.495,58.4928 194.893,57.5638 C194.726,57.1658 194.481,56.8178 194.194,56.4978 C194.164,56.4628 194.138,56.4248 194.115,56.3858 C194.006,56.1298 193.834,55.9238 193.609,55.7608 C193.161,55.1348 192.649,54.5518 192.312,53.8498 C192.103,53.3608 191.779,52.9518 191.414,52.5728 C191.052,52.1688 190.761,51.7168 190.488,51.2508 C190.266,50.8408 190.096,50.3908 189.637,50.1658 C189.061,49.4498 188.495,48.7268 188.093,47.8928 C187.892,47.4288 188.045,46.9768 188.14,46.5228 C188.231,46.1638 188.524,45.9358 188.71,45.6378 C188.897,45.5008 188.964,45.2658 189.136,45.1158 C189.464,44.8858 189.619,44.5428 189.736,44.1778 C190.108,43.4998 190.564,42.8798 191.049,42.2808 C191.419,42.0368 191.62,41.6648 191.797,41.2768 C191.84,41.1708 191.886,41.0668 191.936,40.9648 C192.118,40.6378 192.336,40.3368 192.577,40.0518 C193.173,39.5518 193.513,38.8558 193.936,38.2298 C194.735,37.0498 195.567,35.8928 196.367,34.7138 C196.962,33.8378 197.563,32.9648 198.174,32.0988 C198.244,31.9998 198.265,31.8868 198.307,31.7798 C198.326,31.7338 198.351,31.6918 198.381,31.6528 C198.403,31.6278 198.429,31.6068 198.453,31.5848 C198.584,31.4648 198.8,31.3668 198.716,31.1538 C198.642,30.9668 198.425,31.0328 198.268,31.0298 C197.67,31.0198 197.071,31.0428 196.473,31.0198 C196.08,31.0048 195.808,31.1498 195.6,31.4738 C194.693,32.8828 193.709,34.2398 192.766,35.6238 C192.009,36.7328 191.272,37.8558 190.487,38.9458 C190.226,39.3088 189.994,39.6928 189.713,40.0418 C189.338,40.2888 189.19,40.7188 188.915,41.0458 C188.889,41.0838 188.86,41.1188 188.827,41.1508 C188.753,41.2058 188.678,41.2628 188.582,41.1928" id="Fill-12" fill="#FFFFFF"></path>
            <path d="M200,65 C199.017,65 198.033,64.984 197.05,65.007 C196.615,65.018 196.304,64.833 196.074,64.508 C195.539,63.753 195.025,62.982 194.506,62.215 C193.774,61.136 193.057,60.047 192.311,58.978 C191.687,58.085 191.06,57.196 190.472,56.278 C189.974,55.499 189.373,54.786 188.873,54.008 C188.114,52.827 187.208,51.746 186.509,50.525 C186.283,50.129 186.081,50.095 185.844,50.432 C185,51.634 184.173,52.847 183.339,54.055 C182.607,55.117 181.86,56.172 181.118,57.229 C180.198,58.538 179.313,59.873 178.403,61.189 C177.594,62.358 176.773,63.518 175.955,64.679 C175.788,64.916 175.544,65 175.259,64.999 C174.459,64.997 173.659,64.997 172.859,65.004 C172.645,65.005 172.444,64.973 172.352,64.764 C172.263,64.561 172.245,64.33 172.41,64.153 C172.579,63.973 172.651,63.707 172.901,63.601 C173.041,63.819 172.877,63.972 172.779,64.132 C172.643,64.353 172.587,64.554 172.855,64.718 C173.692,64.791 174.525,64.817 175.357,64.669 C175.529,64.639 175.675,64.592 175.754,64.423 C176.229,63.541 176.894,62.789 177.445,61.958 C177.747,61.501 178.08,61.064 178.334,60.577 C179.318,59.198 180.298,57.817 181.258,56.422 C181.455,56.135 181.632,55.834 181.851,55.561 C182.257,55.248 182.491,54.813 182.704,54.362 C182.854,54.013 183.1,53.728 183.321,53.427 C183.833,52.904 184.236,52.305 184.582,51.664 C184.657,51.407 184.838,51.224 185.012,51.035 C185.263,50.798 185.457,50.518 185.615,50.212 C185.639,50.171 185.668,50.133 185.7,50.096 C186.12,49.826 186.337,49.849 186.615,50.23 C186.79,50.468 186.929,50.734 187.152,50.935 C187.372,51.24 187.586,51.55 187.772,51.877 C188.169,52.577 188.654,53.216 189.143,53.852 C189.195,53.928 189.237,54.01 189.282,54.09 C189.702,54.766 190.152,55.422 190.641,56.051 C190.693,56.126 190.735,56.208 190.779,56.287 C191.115,56.799 191.463,57.301 191.816,57.8 C191.844,57.836 191.87,57.874 191.894,57.912 C192.147,58.257 192.342,58.643 192.641,58.955 C192.692,59.029 192.733,59.109 192.776,59.188 C193.027,59.524 193.209,59.909 193.511,60.208 C193.54,60.243 193.566,60.28 193.589,60.319 C193.721,60.633 193.91,60.909 194.142,61.157 C194.194,61.232 194.235,61.313 194.28,61.393 C194.528,61.724 194.708,62.104 195.004,62.4 C195.035,62.435 195.06,62.473 195.084,62.513 C195.227,62.829 195.466,63.08 195.664,63.36 C195.695,63.399 195.722,63.441 195.747,63.484 C196.194,64.402 196.881,64.846 197.939,64.679 C198.375,64.609 198.831,64.673 199.279,64.661 C199.334,64.656 199.388,64.657 199.443,64.661 C199.639,64.668 199.84,64.653 200,64.8 L200,65 Z" id="Fill-14" fill="#FFFFFF"></path>
            <path d="M0,54.7 C0.274,54.673 0.415,54.877 0.577,55.039 C3.218,57.672 5.858,60.306 8.498,62.94 C9.015,63.456 9.098,63.454 9.625,62.928 C11.192,61.363 12.758,59.798 14.328,58.237 C14.466,58.099 14.578,57.917 14.798,57.886 C14.853,57.978 14.798,58.044 14.74,58.101 C13.459,59.368 12.222,60.679 10.899,61.904 C10.435,62.356 9.964,62.803 9.507,63.263 C9.17,63.603 8.866,63.612 8.497,63.244 C7.292,62.047 6.098,60.839 4.889,59.646 C3.435,58.21 1.969,56.786 0.51,55.355 C0.365,55.213 0.232,55.062 0,55.1 L0,54.7 Z" id="Fill-16" fill="#FFFFFF"></path>
            <path d="M200,64.8 C199.796,64.792 199.592,64.785 199.388,64.777 C199.512,64.363 199.361,64.039 199.106,63.707 C198.882,63.413 198.542,63.157 198.587,62.713 C199.06,63.018 199.257,63.542 199.576,63.968 C199.694,64.126 199.744,64.333 200,64.3 L200,64.8 Z" id="Fill-18" fill="#FFFFFF"></path>
            <path d="M142.5869,41.8493 C142.5869,34.5003 142.5899,27.1503 142.5799,19.8013 C142.5789,19.3483 142.7339,19.1633 143.1839,19.1683 C144.2999,19.1793 145.4169,19.1693 146.5329,19.1693 C152.9989,19.1683 159.4659,19.1673 165.9319,19.1673 C166.0979,19.1673 166.2649,19.1743 166.4309,19.1773 C166.7819,19.1833 166.9389,19.3533 166.9299,19.7113 C166.9149,20.3103 166.9119,20.9113 166.9259,21.5103 C166.9349,21.8943 166.7439,22.0583 166.3909,22.0843 C166.2419,22.0953 166.0909,22.0943 165.9409,22.0943 C159.4919,22.0923 153.0419,22.0903 146.5929,22.0883 C145.7619,22.0883 145.7069,22.1503 145.7069,22.9563 C145.7099,28.1393 145.7089,33.3223 145.7059,38.5053 C145.7059,39.2013 145.7949,39.3023 146.5169,39.3023 C152.6169,39.3013 158.7159,39.2993 164.8159,39.2943 C165.6649,39.2943 165.6969,39.3183 165.6939,40.1523 C165.6929,40.6363 165.6979,41.1193 165.6949,41.6023 C165.6909,42.1193 165.5249,42.2713 164.9969,42.2673 C163.3639,42.2543 161.7309,42.2363 160.0989,42.2343 C155.6159,42.2283 151.1329,42.2303 146.6499,42.2293 C145.8079,42.2293 145.7079,42.3383 145.7079,43.1663 C145.7109,48.9663 145.7099,54.7663 145.7099,60.5653 C145.7099,60.7483 145.7059,60.9323 145.7129,61.1153 C145.7309,61.6243 145.8989,61.7873 146.4209,61.7983 C146.6709,61.8043 146.9209,61.7963 147.1709,61.7963 C153.4369,61.7953 159.7029,61.7943 165.9699,61.7933 C166.8839,61.7933 166.9299,61.8423 166.9189,62.7583 C166.9139,63.2083 166.9109,63.6583 166.9159,64.1083 C166.9199,64.4873 166.7599,64.6783 166.3669,64.7343 C165.9949,64.7873 165.6359,64.7223 165.2709,64.7223 C158.2549,64.7273 151.2389,64.7273 144.2229,64.7243 C143.8739,64.7243 143.5289,64.7623 143.1769,64.7353 C142.7489,64.7023 142.5869,64.5013 142.5959,64.0973 C142.6039,63.7313 142.5959,63.3643 142.5959,62.9973 C142.5949,55.9483 142.5949,48.8983 142.5949,41.8493 L142.5869,41.8493 Z" id="Fill-20" fill="#FFFFFF"></path>
            <path d="M178.4189,60.6147 C177.9629,61.6157 177.2239,62.4297 176.6179,63.3327 C176.3789,63.6887 176.1399,64.0447 175.9009,64.4007 C175.7229,64.8377 175.2729,64.8167 174.9649,64.8057 C174.2089,64.7777 173.4539,64.9017 172.6999,64.7997 C172.4649,64.5677 172.4169,64.3347 172.6719,64.0777 C172.7999,63.9487 172.8929,63.7927 172.9009,63.6007 C172.9009,63.6007 172.9009,63.6007 172.9009,63.6007 C173.0499,63.4017 173.2149,63.2137 173.3649,63.0147 C174.4289,61.5947 175.3799,60.0947 176.3989,58.6437 C176.9889,57.8037 177.5779,56.9607 178.1569,56.1147 C179.0449,54.8177 179.9439,53.5267 180.8279,52.2277 C181.5819,51.1197 182.3399,50.0147 183.1129,48.9197 C183.4179,48.4857 183.7039,48.0377 184.0069,47.6007 C184.1509,47.3927 184.1519,47.1647 183.9979,46.9507 C183.7079,46.5487 183.4429,46.1297 183.1209,45.7517 C182.3369,44.6867 181.6199,43.5747 180.8579,42.4947 C180.0829,41.3967 179.2989,40.3067 178.5419,39.1967 C177.8049,38.1167 177.0559,37.0437 176.3019,35.9757 C175.2789,34.5257 174.2769,33.0607 173.2219,31.6337 C173.0609,31.4147 172.9419,31.2127 173.0389,30.9527 C173.1539,30.6457 173.4359,30.7037 173.6809,30.7017 C174.2469,30.6987 174.8179,30.7467 175.3779,30.6897 C176.1319,30.6127 176.5549,31.0247 176.9149,31.5787 C177.6299,32.6767 178.4129,33.7277 179.1329,34.8227 C179.4239,35.2647 179.7559,35.6797 180.0379,36.1277 C180.4879,36.6417 180.8189,37.2377 181.1949,37.8037 C181.4339,38.1657 181.6729,38.5277 181.9109,38.8897 C182.0619,39.1517 182.4729,39.2777 182.3309,39.6937 C182.2899,39.7257 182.2439,39.7387 182.1929,39.7347 C181.7019,39.4597 181.4799,38.9497 181.1919,38.5157 C179.9759,36.6867 178.6889,34.9077 177.4519,33.0937 C177.1059,32.5857 176.7639,32.0737 176.4039,31.5737 C176.1829,31.2647 175.9109,31.1047 175.5199,31.1197 C175.0209,31.1387 174.5209,31.1217 174.0209,31.1257 C173.8739,31.1267 173.6859,31.0747 173.5989,31.2097 C173.4909,31.3767 173.6439,31.5277 173.7379,31.6557 C174.2769,32.3947 174.8029,33.1427 175.3309,33.8897 C176.4059,35.4107 177.4359,36.9637 178.5239,38.4757 C179.9609,40.4747 181.3289,42.5227 182.7609,44.5247 C183.2929,45.2687 183.8089,46.0237 184.3419,46.7657 C184.6009,47.1267 184.5809,47.5507 184.3289,47.8817 C183.3499,49.1657 182.4859,50.5297 181.5639,51.8537 C180.1379,53.9007 178.7179,55.9537 177.3179,58.0187 C176.2339,59.6147 175.1029,61.1787 174.0539,62.7987 C173.8009,63.1877 173.5189,63.5607 173.2459,63.9377 C173.0139,64.2577 173.0779,64.3657 173.4769,64.3727 C173.9929,64.3827 174.5099,64.3707 175.0259,64.3767 C175.3179,64.3807 175.5389,64.2647 175.7119,64.0377 C176.4179,63.1107 177.0719,62.1487 177.7199,61.1817 C177.8779,60.9447 178.0129,60.6957 178.2859,60.5687 C178.3369,60.5627 178.3819,60.5777 178.4189,60.6147" id="Fill-22" fill="#FFFFFF"></path>
            <path d="M10.8992,61.904 C12.0182,60.662 13.2522,59.534 14.4142,58.334 C14.5502,58.193 14.7232,58.081 14.7982,57.887 C14.9072,57.762 15.0102,57.631 15.1262,57.515 C17.7202,54.926 20.3132,52.339 22.9112,49.754 C23.2172,49.45 23.5482,49.171 23.8602,48.873 C24.2632,48.488 24.4262,48.479 24.8172,48.868 C26.3052,50.348 27.7662,51.856 29.2802,53.308 C32.5982,56.489 35.8012,59.784 39.0712,63.013 C39.4812,63.417 39.6322,63.422 40.0232,63.036 C42.7582,60.332 45.4862,57.621 48.2352,54.932 C48.6062,54.569 48.6992,54.277 48.3172,53.899 C48.3812,53.898 48.4452,53.898 48.5092,53.897 C48.9062,54.261 48.9282,54.525 48.5592,54.894 C45.7692,57.686 42.9772,60.474 40.1822,63.261 C39.8192,63.623 39.3762,63.614 39.0032,63.25 C38.6692,62.924 38.3432,62.591 38.0122,62.262 C33.5812,57.865 29.1472,53.471 24.7242,49.066 C24.4202,48.763 24.2372,48.789 23.9572,49.079 C23.1122,49.953 22.2602,50.821 21.3802,51.659 C17.9682,54.908 14.6922,58.294 11.3392,61.603 C11.2122,61.728 11.1092,61.896 10.8992,61.904" id="Fill-24" fill="#FFFFFF"></path>
            <path d="M90.6051,41.5999 C91.1131,42.1809 91.1731,42.9599 91.4861,43.6309 C91.8361,44.3829 92.1011,45.1809 92.3931,45.9599 C92.6161,46.5559 92.8331,47.1669 93.0631,47.7609 C93.3201,48.4259 93.5861,49.0979 93.8351,49.7629 C94.0631,50.3709 94.3681,50.9559 94.5191,51.6009 C94.6611,52.2039 94.9231,52.7909 95.1811,53.3419 C95.4521,53.9239 95.6711,54.5349 95.8821,55.1229 C96.2651,56.1869 96.7151,57.2279 97.0621,58.3099 C97.3451,59.1919 97.7271,60.0539 98.0581,60.9279 C98.3761,61.7639 98.7821,62.5649 99.0171,63.4379 C99.1111,63.7899 99.4631,64.0439 99.4101,64.4799 C99.3681,64.8249 99.2351,65.0009 98.8841,65.0009 C97.9841,64.9989 97.0851,65.0089 96.1851,64.9949 C95.7581,64.9879 95.3991,64.5789 95.2081,63.9959 C94.9551,63.2199 94.6251,62.4679 94.3581,61.7039 C94.1361,61.0709 93.8841,60.4379 93.6491,59.8129 C93.4101,59.1739 93.2511,58.4929 92.8781,57.8969 C92.6181,57.4819 92.5291,56.9719 92.3651,56.5139 C92.1451,55.8969 91.9021,55.2749 91.6641,54.6679 C91.4271,54.0629 91.2591,53.4269 90.9481,52.8419 C90.6721,52.3239 90.4921,51.7399 90.3301,51.1809 C90.1421,50.5289 89.7151,49.9789 89.6431,49.2729 C89.6081,48.9299 89.2181,48.7939 88.8151,48.7959 C85.9161,48.8119 83.0181,48.8069 80.1201,48.8069 C77.5541,48.8069 74.9891,48.8059 72.4241,48.8049 C71.8251,48.8049 71.5641,49.0329 71.4121,49.6079 C71.2231,50.3219 70.9071,50.9899 70.6241,51.6709 C70.3541,52.3229 70.1551,53.0049 69.8971,53.6629 C69.6821,54.2139 69.4511,54.7579 69.2751,55.3249 C69.2401,55.4349 69.0961,55.5119 69.0021,55.6039 C68.9371,55.5499 68.9111,55.4769 68.9031,55.3949 C68.9511,55.0569 69.0861,54.7469 69.2101,54.4319 C69.8021,53.1759 70.2591,51.8679 70.7451,50.5699 C70.9191,50.1039 71.1161,49.6489 71.2701,49.1739 C71.4741,48.5449 72.0241,48.5629 72.5491,48.5599 C77.9041,48.5579 83.2581,48.5589 88.6111,48.5579 C88.8491,48.5639 89.0871,48.5519 89.3231,48.5809 C89.6271,48.6509 89.8201,48.8529 89.9191,49.1339 C90.4361,50.5889 91.0271,52.0169 91.5681,53.4629 C91.9441,54.4709 92.3601,55.4689 92.7411,56.4759 C93.1461,57.5459 93.5581,58.6149 93.9661,59.6849 C94.3691,60.7389 94.7361,61.8079 95.1881,62.8429 C95.2681,63.0279 95.3411,63.2129 95.3851,63.4069 C95.4871,63.8589 95.7071,64.2429 96.0221,64.5759 C96.1161,64.6639 96.2341,64.6629 96.3501,64.6639 C97.1151,64.6689 97.8791,64.6749 98.6431,64.6619 C99.0261,64.6549 99.1741,64.4619 99.0171,64.1179 C98.5821,63.1689 98.2441,62.1799 97.8861,61.2039 C97.4991,60.1479 97.0011,59.1329 96.7071,58.0459 C96.6181,57.7179 96.4141,57.4509 96.3171,57.1339 C95.8471,55.9469 95.4091,54.7489 94.9381,53.5629 C94.5481,52.5779 94.1751,51.5829 93.8181,50.5839 C93.4381,49.5229 93.0031,48.4839 92.6131,47.4269 C92.1761,46.2449 91.7211,45.0699 91.2541,43.8999 C91.0081,43.2829 90.8411,42.6369 90.5421,42.0419 C90.4741,41.9079 90.4001,41.7749 90.4691,41.6169 C90.5091,41.5689 90.5551,41.5639 90.6051,41.5999" id="Fill-26" fill="#FFFFFF"></path>
            <path d="M68.9832,55.3786 C68.9892,55.4536 68.9962,55.5286 69.0022,55.6036 C68.8422,56.4356 68.4802,57.1936 68.1312,57.9556 C67.9042,58.4506 67.7372,58.9786 67.5662,59.4836 C67.2122,60.5296 66.7642,61.5386 66.3892,62.5746 C66.1512,63.2316 66.0002,63.9396 65.5892,64.5376 C65.3722,64.8536 65.0712,65.0016 64.7442,64.9636 C63.9622,64.8726 63.1822,64.9436 62.4012,64.9136 C61.8602,64.8926 61.6552,64.6606 61.9062,64.1866 C62.2002,63.6276 62.3152,63.0096 62.6222,62.4516 C62.8582,62.0216 63.0232,61.5136 63.1682,61.0366 C63.4982,59.9446 63.9712,58.9076 64.3762,57.8506 C64.7632,56.8426 65.1692,55.8266 65.5852,54.8256 C65.8262,54.2466 66.0432,53.6216 66.2812,53.0366 C66.5252,52.4326 66.6562,51.7796 67.0072,51.2076 C67.2802,50.7636 67.3482,50.2196 67.5742,49.7356 C67.7652,49.3266 67.9552,48.8916 68.0842,48.4576 C68.4032,47.3786 68.8682,46.3546 69.2792,45.3166 C69.8422,43.8956 70.3962,42.4676 70.9672,41.0496 C71.3902,39.9996 71.8182,38.9416 72.1952,37.8676 C72.4032,37.2716 72.5892,36.6476 72.9232,36.0826 C73.1792,35.6506 73.3022,35.1316 73.4612,34.6566 C73.6702,34.0326 73.9232,33.4106 74.1652,32.8106 C74.3962,32.2386 74.5532,31.6246 74.8622,31.0736 C75.1342,30.5896 75.2622,30.0316 75.4722,29.5126 C75.8112,28.6736 76.0902,27.8106 76.4982,26.9986 C76.5452,26.9636 76.5892,26.9666 76.6322,27.0066 C76.6922,27.0976 76.6942,27.1956 76.6692,27.2966 C76.5392,27.6016 76.3072,27.8626 76.2792,28.2116 C76.1972,28.6716 75.9222,29.0576 75.7862,29.4966 C75.6812,29.8196 75.5182,30.1186 75.3892,30.4326 C75.2592,30.9826 75.0112,31.4866 74.7892,32.0016 C74.7242,32.3716 74.5022,32.6806 74.3852,33.0306 C74.1312,33.7776 73.8762,34.5236 73.5812,35.2566 C73.2922,35.6376 73.1922,36.1066 73.0482,36.5406 C72.6932,37.6126 72.2652,38.6566 71.8672,39.7116 C71.4822,40.7346 71.0552,41.7436 70.6602,42.7636 C70.2302,43.8766 69.8152,44.9956 69.3662,46.1006 C68.9432,47.1436 68.5962,48.2176 68.1132,49.2386 C67.8942,49.7006 67.7302,50.1946 67.5602,50.6766 C67.0352,52.1626 66.4322,53.6176 65.8572,55.0826 C65.4712,56.0666 65.0762,57.0536 64.6812,58.0346 C64.2612,59.0766 63.8552,60.1306 63.4672,61.1886 C63.1992,61.9166 62.9692,62.6666 62.6032,63.3586 C62.5592,63.4706 62.5202,63.5846 62.4712,63.6946 C62.3872,63.8536 62.2772,63.9976 62.2032,64.1626 C62.1072,64.3776 62.1352,64.5446 62.3722,64.6396 C63.2542,64.6686 64.1352,64.6966 65.0132,64.6226 C65.1242,64.5556 65.1782,64.4426 65.2382,64.3356 C65.6732,63.7156 65.8202,62.9716 66.0952,62.2866 C66.6722,60.8496 67.2292,59.4026 67.7862,57.9566 C68.0062,57.6926 68.2102,57.4216 68.1712,57.0466 C68.2312,56.4926 68.5902,56.0426 68.7072,55.5066 C68.7322,55.3896 68.8442,55.3206 68.9832,55.3786" id="Fill-28" fill="#FFFFFF"></path>
            <path d="M76.5957,26.9982 L76.5467,27.0002 C76.5467,27.0002 76.4987,26.9992 76.4977,26.9992 C76.4717,26.6372 76.5977,26.3472 76.7837,26.0262 C77.0517,25.5632 77.2227,25.0232 77.3707,24.5162 C77.5567,23.8802 77.9287,23.3292 78.0617,22.6652 C78.1497,22.2202 78.3717,21.7582 78.5747,21.3422 C78.9227,20.6282 79.0947,19.8482 79.4867,19.1572 C79.5987,18.9592 79.7117,18.7352 79.9277,18.7232 C80.5057,18.6912 81.0907,18.6142 81.6627,18.7742 C81.9777,18.8612 82.1207,19.0672 82.2207,19.3942 C82.4267,20.0642 82.7547,20.6972 82.9677,21.3652 C83.1887,22.0542 83.5727,22.6812 83.7077,23.3992 C83.7257,23.4962 83.7487,23.5972 83.7967,23.6822 C84.2307,24.4452 84.3927,25.3202 84.7707,26.0982 C85.0747,26.7252 85.2637,27.3932 85.5097,28.0332 C85.7487,28.6542 86.0807,29.2492 86.2267,29.9222 C86.3357,30.4242 86.5837,30.9102 86.7757,31.3982 C87.0987,32.2192 87.3577,33.0712 87.7317,33.8612 C88.0217,34.4752 88.2327,35.1242 88.4617,35.7442 C88.6797,36.3332 88.9357,36.9252 89.1547,37.5182 C89.3927,38.1632 89.6477,38.8162 89.8767,39.4632 C90.1277,40.1702 90.5907,40.8132 90.6047,41.6002 C90.6047,41.6002 90.5567,41.6002 90.5567,41.6002 L90.5077,41.6002 C90.2277,41.4002 90.1747,41.0582 90.0747,40.7812 C89.6837,39.6922 89.2277,38.6282 88.8367,37.5392 C88.6147,36.9202 88.4127,36.2852 88.1117,35.6942 C87.8707,35.2202 87.7357,34.7022 87.5517,34.2092 C87.1467,33.1252 86.6977,32.0572 86.3177,30.9622 C86.0107,30.0742 85.6397,29.2062 85.3037,28.3262 C84.9787,27.5112 84.6867,26.6812 84.3607,25.8672 C83.9547,24.8542 83.6117,23.8172 83.1837,22.8122 C82.9247,22.2042 82.6747,21.5862 82.4827,20.9522 C82.3237,20.4272 82.0117,19.9622 81.8957,19.4222 C81.8827,19.3592 81.9117,19.4332 81.8757,19.3772 C81.5117,18.8182 80.9427,19.0942 80.4577,19.0342 C80.1397,18.9952 79.8547,19.0672 79.7137,19.3982 C79.3307,20.2972 78.9527,21.1982 78.6367,22.1232 C78.4237,22.7162 78.2077,23.3072 77.9697,23.8912 C77.6077,24.7822 77.3097,25.6982 76.9117,26.5752 C76.8377,26.7362 76.8027,26.9342 76.5957,26.9982" id="Fill-30" fill="#FFFFFF"></path>
            <path d="M182.1979,39.7013 C182.2359,39.6983 182.2729,39.6953 182.3109,39.6913 C182.5359,39.6553 182.6549,39.8223 182.7329,39.9693 C182.9269,40.3333 183.2109,40.6383 183.3909,41.0083 C183.5639,41.2703 183.7359,41.5323 183.9089,41.7943 C184.1409,42.0193 184.3279,42.2763 184.4639,42.5703 C184.7249,42.9343 184.9349,43.3333 185.2469,43.6613 C185.2929,43.7403 185.3269,43.8253 185.3839,43.8973 C185.4749,44.0553 185.5709,44.2113 185.6619,44.3693 C185.9399,44.8483 186.1979,44.8583 186.5179,44.4053 C186.7289,44.1073 186.9209,43.7953 187.1059,43.4793 C187.1419,43.3973 187.1609,43.3053 187.2349,43.2433 C187.5739,42.9443 187.7749,42.5453 188.0099,42.1703 C188.0449,42.0883 188.0639,41.9973 188.1399,41.9383 C188.4229,41.7083 188.5839,41.3813 188.8059,41.1033 L188.8039,41.1043 C189.1129,40.7673 189.2859,40.3303 189.6099,40.0033 C190.7259,38.3903 191.8469,36.7813 192.9559,35.1633 C193.8149,33.9113 194.6659,32.6533 195.5059,31.3883 C195.7389,31.0383 196.0109,30.8583 196.4479,30.8803 C197.0449,30.9093 197.6439,30.8773 198.2419,30.8903 C198.4719,30.8953 198.7989,30.7693 198.8759,31.1093 C198.9499,31.4363 198.7009,31.6103 198.4189,31.7183 C198.3909,31.2993 198.1749,31.1433 197.7589,31.2203 C197.5819,31.2523 197.3939,31.2253 197.2109,31.2253 C196.0789,31.2253 196.0609,31.2133 195.4349,32.1263 C194.2419,33.8673 193.0639,35.6173 191.8709,37.3583 C190.8479,38.8503 189.8269,40.3443 188.7979,41.8333 C188.1649,42.7483 187.4859,43.6343 186.9319,44.6023 C186.7959,44.8393 186.6079,45.0233 186.3739,45.1613 C185.9869,45.3883 185.7409,45.3133 185.5039,44.9273 C184.6619,43.5513 183.6879,42.2643 182.7909,40.9253 C182.6159,40.6633 182.4489,40.3943 182.2459,40.1503 C182.1379,40.0193 182.0579,39.8673 182.1979,39.7013" id="Fill-32" fill="#FFFFFF"></path>
            <path d="M179.9951,36.2074 C178.8391,34.5534 177.6761,32.9044 176.5341,31.2414 C176.3161,30.9244 176.0371,30.8134 175.6931,30.8084 C174.9761,30.7994 174.2601,30.8044 173.5441,30.8054 C173.3761,30.8054 173.1941,30.7924 173.1241,30.9914 C173.0661,31.1564 173.0981,31.3064 173.2071,31.4594 C174.3831,33.1004 175.5621,34.7394 176.7211,36.3924 C177.4701,37.4614 178.1801,38.5574 178.9231,39.6314 C179.5731,40.5694 180.2521,41.4874 180.9051,42.4234 C181.6031,43.4244 182.2871,44.4354 182.9731,45.4454 C183.0391,45.5424 183.0881,45.6474 183.1991,45.7024 C183.2571,45.7704 183.2581,45.8384 183.1981,45.9054 C182.7561,45.6014 182.5701,45.0954 182.2731,44.6844 C180.7731,42.6064 179.3201,40.4954 177.8531,38.3924 C176.3521,36.2394 174.8541,34.0844 173.3581,31.9274 C173.1861,31.6784 172.8611,31.5314 172.8821,31.1454 C172.9011,30.8044 173.0241,30.6034 173.3811,30.6024 C174.1961,30.6004 175.0121,30.5924 175.8271,30.6094 C176.4071,30.6214 176.6861,31.0894 176.9681,31.4834 C177.7571,32.5834 178.5241,33.6994 179.2631,34.8334 C179.5131,35.2174 179.8881,35.5264 180.0021,35.9964 C180.0551,36.0684 180.0641,36.1394 179.9951,36.2074" id="Fill-34" fill="#FFFFFF"></path>
            <path d="M183.1977,45.9058 C183.1987,45.8378 183.1987,45.7698 183.1997,45.7018 C183.4987,46.1178 183.7997,46.5318 184.0957,46.9498 C184.2567,47.1768 184.2587,47.4168 184.0997,47.6448 C182.7997,49.4998 181.5137,51.3638 180.2577,53.2498 C179.3787,54.5708 178.4207,55.8398 177.5167,57.1438 C176.8017,58.1748 176.1427,59.2468 175.4047,60.2608 C174.7237,61.1968 174.1667,62.2218 173.3947,63.0938 C173.3387,63.0278 173.3427,62.9618 173.3967,62.8958 C173.9567,62.0608 174.5127,61.2218 175.0787,60.3898 C175.8427,59.2688 176.6107,58.1518 177.3817,57.0358 C177.9077,56.2768 178.4497,55.5278 178.9707,54.7658 C179.7447,53.6348 180.5007,52.4918 181.2757,51.3618 C181.8177,50.5718 182.3807,49.7968 182.9297,49.0108 C183.2627,48.5358 183.5897,48.0558 183.9107,47.5728 C184.0547,47.3578 184.0387,47.1518 183.8757,46.9308 C183.6327,46.6018 183.4217,46.2488 183.1977,45.9058" id="Fill-36" fill="#FFFFFF"></path>
            <path d="M183.3909,41.0084 C183.0509,40.7784 182.8819,40.4224 182.6819,40.0824 C182.5939,39.9314 182.4369,39.8204 182.3109,39.6914 C182.3729,39.3274 181.8819,39.2384 181.9109,38.8904 C182.4659,39.0664 182.5679,39.6464 182.8809,40.0304 C183.0989,40.2984 183.4619,40.5614 183.3909,41.0084" id="Fill-38" fill="#FFFFFF"></path>
            <path d="M187.1975,43.4999 C186.9565,43.8869 186.7465,44.2969 186.4665,44.6529 C186.1895,45.0049 185.9255,44.9549 185.6905,44.5729 C185.5545,44.3509 185.4175,44.1289 185.2805,43.9069 C185.5295,43.8489 185.5785,44.0749 185.6985,44.1999 C185.7315,44.2679 185.7655,44.3359 185.7995,44.4029 C186.1275,44.7539 186.1515,44.7509 186.4955,44.2929 C186.5915,44.1259 186.6875,43.9599 186.7835,43.7929 C186.9265,43.7029 186.9575,43.4529 187.1975,43.4999" id="Fill-40" fill="#FFFFFF"></path>
            <path d="M179.9951,36.2074 C179.9971,36.1374 180.0001,36.0664 180.0021,35.9964 C180.5291,36.5134 180.9821,37.0794 181.1951,37.8034 C180.6491,37.3814 180.4391,36.7064 179.9951,36.2074" id="Fill-42" fill="#FFFFFF"></path>
            <path d="M187.1975,43.4999 C187.0595,43.5979 186.9215,43.6949 186.7835,43.7929 C187.3155,42.9649 187.8035,42.1039 188.4925,41.3869 C188.6405,41.7089 188.2625,41.7769 188.1995,41.9969 C188.1655,42.0649 188.1325,42.1319 188.0995,42.1999 C187.7825,42.5279 187.6145,42.9649 187.2985,43.2929 C187.2645,43.3619 187.2315,43.4309 187.1975,43.4999" id="Fill-44" fill="#FFFFFF"></path>
            <path d="M184.3765,42.6103 C184.2595,42.3163 183.9495,42.1323 183.9085,41.7943 C184.4565,42.0613 184.6575,42.5973 184.9115,43.0913 C184.8935,43.1023 184.8745,43.1133 184.8555,43.1243 C184.6755,42.9723 184.5565,42.7633 184.3765,42.6103" id="Fill-46" fill="#FFFFFF"></path>
            <path d="M185.698,44.2001 C185.559,44.1021 185.42,44.0041 185.281,43.9061 C185.204,43.8641 185.193,43.7921 185.191,43.7151 C185.154,43.4811 184.774,43.4151 184.892,43.1051 C184.892,43.1051 184.912,43.0911 184.912,43.0911 C185.307,43.3661 185.461,43.8121 185.698,44.2001" id="Fill-48" fill="#FFFFFF"></path>
            <path d="M188.1991,41.9969 C188.1811,41.7379 188.5291,41.6559 188.4921,41.3869 C188.4951,41.3099 188.5051,41.2359 188.5821,41.1929 C188.6561,41.1629 188.7311,41.1329 188.8061,41.1029 C188.7091,41.4729 188.5331,41.7879 188.1991,41.9969" id="Fill-50" fill="#FFFFFF"></path>
            <path d="M186.4959,44.2931 C186.4809,44.5261 186.3499,44.6641 186.1269,44.6911 C185.9279,44.7151 185.8149,44.6051 185.7989,44.4031 C186.0829,44.6911 186.2879,44.4841 186.4959,44.2931" id="Fill-52" fill="#FFFFFF"></path>
            <path d="M173.3965,62.8961 C173.3965,62.9621 173.3955,63.0281 173.3955,63.0941 C173.2355,63.2671 173.1315,63.4951 172.9015,63.6011 C172.9675,63.2961 173.1965,63.1061 173.3965,62.8961" id="Fill-54" fill="#FFFFFF"></path>
            <path d="M9.0319,63.088 C8.8859,63.067 8.8079,62.951 8.7149,62.859 C5.9939,60.141 3.2759,57.42 0.5479,54.709 C0.3239,54.486 0.2849,54.314 0.5059,54.09 C1.0769,53.507 1.6379,52.915 2.2189,52.343 C2.8429,51.729 3.4959,51.143 4.1159,50.526 C7.4559,47.197 10.7889,43.86 14.1279,40.53 C14.3749,40.285 14.6619,40.081 14.9079,39.835 C15.3199,39.422 15.3109,39.034 14.8849,38.638 C11.9319,35.893 9.1869,32.936 6.2779,30.146 C4.3899,28.336 2.5529,26.477 0.6919,24.641 C0.1979,24.153 0.1989,24.148 0.6789,23.674 C3.3309,21.052 5.9849,18.432 8.6379,15.811 C9.0759,15.377 9.1199,15.376 9.5599,15.814 C12.7549,19.006 15.9249,22.222 19.1539,25.379 C20.7019,26.892 22.2389,28.416 23.7819,29.933 C24.1859,30.33 24.5219,30.325 24.9359,29.911 C27.5309,27.321 30.0879,24.693 32.7279,22.15 C34.9109,20.046 37.0319,17.882 39.1869,15.751 C39.4989,15.442 39.7109,15.455 40.0129,15.758 C42.6819,18.439 45.3559,21.114 48.0429,23.777 C48.3239,24.055 48.3049,24.25 48.0879,24.534 C47.8609,24.832 47.5349,25.008 47.2769,25.268 C44.8909,27.667 42.5259,30.086 40.0919,32.435 C38.0429,34.413 36.0409,36.438 34.0129,38.437 C33.9299,38.518 33.8429,38.596 33.7519,38.669 C33.3169,39.02 33.2909,39.347 33.6909,39.742 C35.9189,41.942 38.1569,44.131 40.3779,46.337 C42.9089,48.85 45.4259,51.376 47.9479,53.897 C48.4269,54.376 48.4129,54.533 47.8769,54.954 C47.6949,55.097 47.5139,55.245 47.3499,55.408 C44.8959,57.856 42.4369,60.299 40.0019,62.766 C39.6359,63.137 39.4399,63.102 39.0909,62.752 C34.5079,58.149 29.9099,53.562 25.3149,48.971 C24.4129,48.069 24.2819,48.069 23.3939,48.956 C21.2969,51.05 19.2309,53.179 17.0919,55.23 C14.4859,57.73 11.9719,60.322 9.3969,62.853 C9.2929,62.955 9.2079,63.094 9.0319,63.088" id="Fill-56" fill="#FFFFFF"></path>
            <path d="M38.1987,14.0899 C38.2097,14.2869 38.0607,14.3849 37.9447,14.4999 C35.7647,16.6529 33.5787,18.8019 31.4057,20.9619 C31.0987,21.2679 30.8627,21.2019 30.6007,20.9389 C29.9547,20.2899 29.3037,19.6439 28.6597,18.9919 C27.4317,17.7479 26.2067,16.4999 24.9817,15.2529 C24.3987,14.6589 24.2927,14.6549 23.7047,15.2439 C21.8317,17.1189 19.9607,18.9949 18.0887,20.8689 C17.6487,21.3099 17.5717,21.3089 17.1207,20.8599 C14.9957,18.7439 12.8757,16.6209 10.7387,14.5169 C10.4087,14.1919 10.3507,13.9869 10.7187,13.6339 C15.1417,9.3859 19.4207,4.9939 23.7817,0.6839 C24.3117,0.1599 24.3107,0.1589 24.8477,0.6919 C29.1757,4.9869 33.5047,9.2819 37.8307,13.5799 C37.9787,13.7279 38.1877,13.8399 38.1987,14.0899" id="Fill-58" fill="#FFFFFF"></path>
            <path d="M17.6643,57.5179 C17.8123,57.5319 17.8923,57.6469 17.9853,57.7399 C19.8633,59.6309 21.7393,61.5239 23.6173,63.4149 C23.6993,63.4969 23.8053,63.5559 23.8803,63.6429 C24.2143,64.0279 24.5043,63.9569 24.8403,63.6179 C26.7403,61.6999 28.6533,59.7949 30.5593,57.8849 C31.0433,57.4009 31.0413,57.3979 31.5303,57.8869 C33.5233,59.8769 35.5153,61.8669 37.5093,63.8559 C38.1593,64.5039 38.1593,64.4989 37.5033,65.1539 C33.5533,69.0969 29.6043,73.0419 25.6543,76.9869 C25.3963,77.2449 25.1383,77.5029 24.8773,77.7589 C24.4203,78.2069 24.2583,78.2069 23.8103,77.7589 C21.4993,75.4519 19.2183,73.1139 16.8703,70.8439 C14.8693,68.9119 12.9153,66.9339 10.9343,64.9819 C10.4673,64.5209 10.4673,64.4799 10.9273,64.0269 C13.0493,61.9339 15.1733,59.8429 17.2983,57.7519 C17.4023,57.6489 17.4903,57.5139 17.6643,57.5179" id="Fill-60" fill="#FFFFFF"></path>
            <path d="M182.1979,39.7013 C182.2069,40.1443 182.5799,40.3893 182.7899,40.7073 C183.6479,42.0023 184.5639,43.2593 185.4579,44.5303 C185.4769,44.5573 185.4919,44.5873 185.5079,44.6163 C185.8979,45.3273 186.3599,45.3183 186.8019,44.5953 C187.6909,43.1403 188.6949,41.7653 189.6689,40.3683 C190.2419,39.5473 190.7369,38.6683 191.3399,37.8713 C192.1079,36.8553 192.7469,35.7553 193.5019,34.7323 C194.1089,33.9103 194.6439,33.0373 195.2209,32.1933 C195.4239,31.8953 195.6759,31.6333 195.8479,31.3093 C195.9499,31.1143 196.1629,31.0943 196.3749,31.0973 C196.9579,31.1043 197.5409,31.1093 198.1239,31.0953 C198.5159,31.0863 198.7539,31.1373 198.4269,31.5723 C198.4019,31.6043 198.4209,31.6693 198.4189,31.7183 C198.4109,31.7443 198.4019,31.7703 198.3899,31.7943 C197.6969,32.8013 196.9909,33.7993 196.2989,34.8063 C195.7179,35.6533 195.1439,36.5053 194.5479,37.3423 C193.8949,38.2593 193.3279,39.2383 192.6119,40.1113 C192.4989,40.4683 192.1939,40.6993 192.0209,41.0163 C191.8179,41.2173 191.6579,41.4473 191.5619,41.7183 C191.4669,41.9583 191.2649,42.1153 191.1099,42.3103 C190.6789,42.9443 190.2469,43.5793 189.8159,44.2143 C189.6799,44.3333 189.6339,44.5103 189.5359,44.6543 C189.2509,44.9723 188.9829,45.3033 188.7919,45.6893 C188.6019,45.9593 188.4119,46.2293 188.2229,46.4993 C188.2429,46.6573 188.1349,46.7533 188.0529,46.8633 C187.8779,47.0423 187.7379,47.2313 187.8949,47.4933 C188.0179,47.6173 188.1269,47.7513 188.1869,47.9183 C188.6859,48.6483 189.1859,49.3793 189.6849,50.1093 C189.8209,50.2133 189.9409,50.3313 190.0079,50.4943 C190.3889,51.1943 190.8379,51.8573 191.3199,52.4833 C191.8979,53.2343 192.3739,54.0503 192.9399,54.8073 C193.9229,56.1243 194.8159,57.5053 195.7609,58.8493 C196.8459,60.3933 197.9479,61.9243 198.9759,63.5083 C199.0849,63.6773 199.2309,63.8163 199.3399,63.9843 C199.5529,64.3113 199.4779,64.5643 199.1089,64.5943 C198.3799,64.6543 197.6439,64.6603 196.9149,64.5873 C196.5989,64.5563 196.3839,64.3313 196.2109,64.0723 C195.0079,62.2773 193.7739,60.5033 192.5439,58.7273 C191.2289,56.8283 189.9259,54.9213 188.6129,53.0213 C187.9529,52.0653 187.2469,51.1393 186.6629,50.1323 C186.5499,49.9373 186.3649,49.8253 186.1669,49.7283 C185.9879,49.6413 185.8559,49.6633 185.7449,49.8403 C184.8389,51.2903 183.8339,52.6733 182.8529,54.0733 C181.8149,55.5553 180.8339,57.0773 179.7709,58.5413 C179.2749,59.2243 178.8889,59.9853 178.2989,60.5993 C177.4979,61.7353 176.6899,62.8663 175.9009,64.0093 C175.6629,64.3543 175.3949,64.5413 174.9539,64.5143 C174.3889,64.4803 173.8209,64.5003 173.2549,64.5113 C172.8999,64.5173 172.8279,64.3663 173.0099,64.0903 C173.4459,63.4283 173.8929,62.7743 174.3389,62.1193 C175.0849,61.0253 175.8309,59.9323 176.5799,58.8403 C177.2909,57.8043 178.0079,56.7723 178.7189,55.7373 C179.4789,54.6323 180.2309,53.5223 180.9939,52.4203 C181.7379,51.3453 182.4959,50.2803 183.2399,49.2043 C183.5869,48.7033 183.9129,48.1893 184.2999,47.7123 C184.5109,47.4523 184.4519,47.1033 184.2539,46.8243 C183.2209,45.3673 182.1699,43.9233 181.1449,42.4613 C180.0729,40.9303 179.0299,39.3773 177.9599,37.8443 C177.1939,36.7463 176.3979,35.6693 175.6279,34.5743 C174.8959,33.5343 174.1859,32.4793 173.4549,31.4383 C173.2419,31.1333 173.3329,31.0153 173.6659,31.0133 C174.3989,31.0073 175.1329,30.9913 175.8649,31.0173 C176.3609,31.0343 176.5159,31.5093 176.7439,31.8283 C177.7259,33.2003 178.6739,34.5963 179.6269,35.9883 C180.3559,37.0533 181.0709,38.1273 181.7979,39.1933 C181.9189,39.3713 182.0639,39.5323 182.1979,39.7013" id="Fill-62" fill="#FFFFFF"></path>
            <path d="M178.2989,60.5993 C178.5989,59.9513 179.0539,59.4013 179.4469,58.8133 C180.0169,57.9643 180.6129,57.1323 181.1999,56.2933 C181.7859,55.4563 182.3789,54.6243 182.9599,53.7833 C183.5259,52.9653 184.0909,52.1463 184.6359,51.3143 C184.9869,50.7793 185.4269,50.3023 185.6769,49.6993 C185.7559,49.5113 185.9429,49.4733 186.1469,49.5683 C186.4259,49.6983 186.6479,49.8733 186.8209,50.1363 C187.5769,51.2803 188.3439,52.4173 189.1129,53.5523 C190.0039,54.8653 190.8969,56.1763 191.7989,57.4813 C192.5519,58.5703 193.3239,59.6453 194.0779,60.7333 C194.6429,61.5503 195.1919,62.3783 195.7499,63.2003 C195.9629,63.5143 196.1699,63.8343 196.3999,64.1373 C196.5779,64.3713 196.8169,64.5043 197.1309,64.4993 C197.7469,64.4893 198.3629,64.4963 198.9789,64.4963 C199.1299,64.4963 199.2919,64.5073 199.3639,64.3353 C199.4259,64.1873 199.3169,64.0923 199.2399,63.9823 C198.4549,62.8573 197.6819,61.7253 196.8929,60.6023 C196.1809,59.5883 195.4499,58.5873 194.7349,57.5743 C194.1429,56.7373 193.5659,55.8893 192.9779,55.0493 C192.3999,54.2233 191.7789,53.4253 191.2459,52.5713 C190.8099,51.8723 190.2219,51.2713 189.9089,50.4953 C190.3029,50.5713 190.3349,50.9983 190.5949,51.2043 C190.8549,51.6653 191.1659,52.0913 191.4929,52.5043 C191.7879,52.9423 192.1219,53.3523 192.3949,53.8053 C192.8259,54.4393 193.2569,55.0743 193.6889,55.7093 C193.8879,55.9183 194.0589,56.1483 194.1969,56.4023 C194.5089,56.7363 194.6919,57.1643 194.9929,57.5063 C195.5979,58.4253 196.1799,59.3613 196.8889,60.2083 C197.0839,60.5113 197.2469,60.8363 197.4989,61.1013 C197.8609,61.6383 198.2239,62.1763 198.5869,62.7133 C198.7969,63.0673 199.0169,63.4133 199.2729,63.7393 C199.5099,64.0423 199.8189,64.3813 199.3879,64.7773 C199.3619,64.7793 199.3359,64.7803 199.3089,64.7813 C198.6619,64.7063 198.0089,64.7123 197.3669,64.7643 C196.7359,64.8153 196.3699,64.5123 196.0569,64.0533 C195.9069,63.8333 195.7629,63.6103 195.5989,63.4013 L195.5979,63.4013 C195.4349,63.0773 195.1689,62.8203 195.0039,62.4973 C194.6829,62.1713 194.5259,61.7233 194.1939,61.4063 C194.1609,61.3393 194.1269,61.2713 194.0929,61.2043 C193.8549,60.9293 193.6839,60.6103 193.4999,60.2993 L193.5009,60.2993 C193.1839,59.9723 193.0339,59.5193 192.6889,59.2123 C192.6559,59.1433 192.6239,59.0743 192.5919,59.0053 C192.2999,58.6563 192.1089,58.2363 191.8009,57.8993 C191.4469,57.3583 191.1169,56.8003 190.6919,56.3083 C190.6599,56.2393 190.6279,56.1713 190.5969,56.1023 C190.1009,55.4563 189.6959,54.7473 189.1929,54.1073 C189.1599,54.0393 189.1269,53.9713 189.0939,53.9033 C188.6179,53.2453 188.1569,52.5753 187.6909,51.9103 C187.4919,51.6083 187.2929,51.3063 187.0939,51.0043 C186.8689,50.7453 186.7269,50.4273 186.5099,50.1653 C186.1999,49.7933 186.0329,49.8093 185.6999,50.1993 C185.5189,50.5123 185.2819,50.7863 185.0909,51.0923 C184.9769,51.3053 184.7269,51.4283 184.6919,51.6943 C184.2429,52.2823 183.8629,52.9203 183.3909,53.4923 C183.1929,53.7933 182.9939,54.0953 182.7959,54.3963 C182.4939,54.7953 182.2979,55.2713 181.9169,55.6143 C181.1939,56.7513 180.4409,57.8673 179.6199,58.9363 C179.2009,59.4823 178.9289,60.1333 178.4189,60.6143 C178.3789,60.6093 178.3389,60.6043 178.2989,60.5993" id="Fill-64" fill="#FFFFFF"></path>
            <path d="M192.6123,40.1118 C192.8533,39.4358 193.3603,38.9248 193.7393,38.3358 C194.4333,37.2568 195.1883,36.2158 195.9213,35.1618 C196.4923,34.3398 197.0603,33.5168 197.6463,32.7058 C197.8753,32.3888 198.0073,31.9868 198.3893,31.7948 C198.4413,32.1778 198.1203,32.3938 197.9483,32.6488 C196.7543,34.4148 195.5183,36.1518 194.3023,37.9018 C193.8883,38.4978 193.4943,39.1078 193.0893,39.7098 C192.9693,39.8878 192.8573,40.0798 192.6123,40.1118" id="Fill-66" fill="#FFFFFF"></path>
            <path d="M188.1872,47.9182 C188.0622,47.8082 187.9372,47.6982 187.8122,47.5872 C187.6242,47.2662 187.8292,47.0352 187.9952,46.7962 C188.0712,46.6972 188.1472,46.5982 188.2222,46.5002 C188.2452,46.5582 188.3052,46.6412 188.2852,46.6722 C188.0252,47.0722 188.1152,47.4952 188.1872,47.9182" id="Fill-68" fill="#FFFFFF"></path>
            <path d="M190.5949,51.2047 C190.2749,51.0567 190.2149,50.6567 189.9089,50.4947 C189.8379,50.3647 189.6819,50.2837 189.6849,50.1097 C190.2559,50.2517 190.3149,50.8197 190.5949,51.2047" id="Fill-70" fill="#FFFFFF"></path>
            <path d="M191.1103,42.31 C191.0833,42.015 191.3803,41.914 191.4783,41.694 C191.6173,41.56 191.5973,41.254 191.9033,41.3 C191.6873,41.674 191.5953,42.147 191.1103,42.31" id="Fill-72" fill="#FFFFFF"></path>
            <path d="M192.3947,53.8049 C192.0337,53.4129 191.6987,53.0039 191.4937,52.5049 C191.8767,52.8809 192.2157,53.2869 192.3947,53.8049" id="Fill-74" fill="#FFFFFF"></path>
            <path d="M194.9932,57.506 C194.5832,57.242 194.4462,56.782 194.1962,56.403 C194.6152,56.66 194.7772,57.102 194.9932,57.506" id="Fill-76" fill="#FFFFFF"></path>
            <path d="M189.4961,44.591 C189.5131,44.389 189.6151,44.26 189.8161,44.214 C189.7411,44.623 189.5651,44.967 189.1991,45.193 C189.0711,44.881 189.4511,44.818 189.4961,44.591" id="Fill-78" fill="#FFFFFF"></path>
            <path d="M189.4961,44.591 C189.5251,44.855 189.1871,44.938 189.1991,45.194 C189.0331,45.334 189.0681,45.639 188.7921,45.689 C188.9291,45.261 189.1051,44.857 189.4961,44.591" id="Fill-80" fill="#FFFFFF"></path>
            <path d="M189.6103,40.0037 C189.3573,40.3827 189.2113,40.8387 188.8043,41.1047 C189.0283,40.7047 189.1813,40.2527 189.6103,40.0037" id="Fill-82" fill="#FFFFFF"></path>
            <path d="M197.4985,61.1015 C197.1645,60.8935 197.0005,60.5685 196.8885,60.2085 C197.1705,60.4525 197.3505,60.7655 197.4985,61.1015" id="Fill-84" fill="#FFFFFF"></path>
            <path d="M194.1966,56.4027 C193.9926,56.1967 193.7926,55.9877 193.6886,55.7087 C193.9766,55.8527 194.1486,56.0827 194.1966,56.4027" id="Fill-86" fill="#FFFFFF"></path>
            <path d="M191.9036,41.2995 C191.6966,41.3605 191.6556,41.6005 191.4786,41.6945 C191.5226,41.3595 191.7306,41.1555 192.0206,41.0165 C191.9816,41.1105 191.9426,41.2055 191.9036,41.2995" id="Fill-88" fill="#FFFFFF"></path>
            <path d="M195.5984,63.4014 C195.9864,63.6304 196.0904,64.0914 196.4114,64.3834 C196.6474,64.5994 196.8754,64.7014 197.1984,64.7074 C197.9024,64.7204 198.6114,64.5974 199.3094,64.7814 C198.5144,64.7894 197.7204,64.7924 196.9264,64.8084 C196.7044,64.8134 196.5544,64.7114 196.4074,64.5664 C196.0664,64.2264 195.7814,63.8504 195.5984,63.4014" id="Fill-90" fill="#FFFFFF"></path>
            <path d="M172.7,64.7998 C173.532,64.6958 174.369,64.7108 175.203,64.7178 C175.508,64.7198 175.688,64.5468 175.9,64.4008 C175.838,64.8428 175.482,64.7898 175.181,64.8238 C174.353,64.9178 173.525,64.9758 172.7,64.7998" id="Fill-92" fill="#FFFFFF"></path>
            <path d="M187.6907,51.9098 C188.2597,52.5028 188.7027,53.1858 189.0937,53.9038 C188.5127,53.3188 188.0687,52.6378 187.6907,51.9098" id="Fill-94" fill="#FFFFFF"></path>
            <path d="M189.1926,54.1076 C189.6596,54.4496 189.8716,54.9886 190.1956,55.4376 C190.3426,55.6406 190.5826,55.8116 190.5966,56.1026 C190.0156,55.5166 189.5956,54.8186 189.1926,54.1076" id="Fill-96" fill="#FFFFFF"></path>
            <path d="M183.3911,53.4922 C183.7751,52.8572 184.1501,52.2152 184.6921,51.6942 C184.3341,52.3482 183.9611,52.9912 183.3911,53.4922" id="Fill-98" fill="#FFFFFF"></path>
            <path d="M185.6996,50.1997 C185.9056,49.7277 186.1086,49.6627 186.4376,49.9957 C186.7216,50.2847 186.9376,50.6267 187.0936,51.0037 C186.8506,50.8697 186.7316,50.6367 186.5986,50.4077 C186.3266,49.9377 186.1516,49.9037 185.6996,50.1997" id="Fill-100" fill="#FFFFFF"></path>
            <path d="M190.6919,56.3085 C191.2009,56.7415 191.5359,57.2955 191.8009,57.8995 C191.3549,57.4225 191.0149,56.8715 190.6919,56.3085" id="Fill-102" fill="#FFFFFF"></path>
            <path d="M181.9171,55.6139 C182.2301,55.2229 182.3731,54.7089 182.7961,54.3969 C182.5941,54.8679 182.3841,55.3339 181.9171,55.6139" id="Fill-104" fill="#FFFFFF"></path>
            <path d="M192.6886,59.2127 C193.1276,59.4497 193.2636,59.9117 193.5006,60.2997 C193.0756,60.0527 192.9546,59.5777 192.6886,59.2127" id="Fill-106" fill="#FFFFFF"></path>
            <path d="M191.8012,57.899 C192.1972,58.173 192.3942,58.589 192.5922,59.005 C192.1892,58.736 192.0332,58.29 191.8012,57.899" id="Fill-108" fill="#FFFFFF"></path>
            <path d="M194.1939,61.4062 C194.6259,61.6502 194.7579,62.1162 195.0039,62.4972 C194.5739,62.2522 194.4539,61.7772 194.1939,61.4062" id="Fill-110" fill="#FFFFFF"></path>
            <path d="M193.5004,60.2997 C193.7494,60.5677 193.9714,60.8527 194.0934,61.2037 C193.7764,60.9807 193.5774,60.6797 193.5004,60.2997" id="Fill-112" fill="#FFFFFF"></path>
            <path d="M195.0036,62.4974 C195.2456,62.7704 195.5376,63.0094 195.5986,63.4014 C195.3496,63.1334 195.0616,62.8904 195.0036,62.4974" id="Fill-114" fill="#FFFFFF"></path>
            <path d="M185.091,51.0922 C185.192,50.7252 185.433,50.4532 185.7,50.2002 C185.633,50.5902 185.344,50.8292 185.091,51.0922" id="Fill-116" fill="#FFFFFF"></path>
            <path d="M76.5957,26.9982 C76.9957,26.1002 77.3537,25.1862 77.6877,24.2612 C77.9487,23.5392 78.2377,22.8282 78.5137,22.1122 C78.9457,21.2932 79.2127,20.4072 79.5597,19.5542 C79.7047,19.1992 79.9027,18.9602 80.3337,18.9962 C80.6307,19.0212 80.9317,18.9952 81.2307,19.0022 C81.6727,19.0132 81.9007,19.2302 82.0527,19.6482 C82.4677,20.7932 82.9107,21.9272 83.3487,23.0642 C83.5907,23.6922 83.9017,24.3012 84.0487,24.9652 C84.1557,25.4502 84.4127,25.8822 84.5897,26.3382 C84.8567,27.0262 85.0197,27.7652 85.4267,28.3972 C85.6397,29.1952 85.9977,29.9392 86.2937,30.7072 C86.4777,31.1842 86.6557,31.6662 86.8247,32.1462 C87.2197,33.2662 87.6677,34.3672 88.0887,35.4762 C88.4737,36.4912 88.8727,37.5082 89.2687,38.5212 C89.5187,39.1622 89.7797,39.8082 90.0097,40.4622 C90.2217,41.0652 90.4357,41.6732 90.6987,42.2622 C90.9607,42.8472 91.1317,43.4712 91.3697,44.0672 C91.6457,44.7582 91.9177,45.4502 92.1877,46.1422 C92.4147,46.7242 92.6307,47.3122 92.8497,47.8982 C93.1107,48.5942 93.3517,49.2982 93.6647,49.9722 C93.8747,50.4242 94.0047,50.9072 94.1777,51.3702 C94.4077,51.9862 94.6977,52.5822 94.8677,53.2262 C95.0097,53.7632 95.2827,54.2632 95.4787,54.7882 C95.7957,55.6382 96.1297,56.4842 96.4477,57.3352 C96.8117,58.0442 96.9807,58.8292 97.3127,59.5492 C97.6167,60.2082 97.8207,60.9052 98.0957,61.5762 C98.3317,62.1522 98.5617,62.7372 98.7557,63.3312 C98.8437,63.6002 98.9617,63.8532 99.0837,64.1082 C99.2337,64.4212 99.1207,64.7252 98.8307,64.7282 C97.8587,64.7382 96.8827,64.8272 95.9127,64.6812 C95.2737,63.9302 95.1177,62.9632 94.7577,62.0882 C94.3177,61.0162 93.8757,59.9422 93.5057,58.8442 C93.2907,58.2062 93.0197,57.5912 92.7797,56.9662 C92.5337,56.3272 92.3547,55.6632 92.0417,55.0462 C91.8127,54.5952 91.6787,54.0972 91.4877,53.6242 C90.9037,52.1802 90.3707,50.7152 89.8397,49.2502 C89.7477,48.9972 89.6047,48.8222 89.4007,48.6742 C89.3447,48.5992 89.3507,48.5292 89.4147,48.4622 C89.8637,48.4022 90.0757,48.5412 90.1957,48.9972 C90.3887,49.7382 90.7727,50.4072 90.9977,51.1342 C91.2097,51.8172 91.5527,52.4492 91.7457,53.1412 C91.8877,53.6512 92.1307,54.1302 92.3227,54.6252 C92.9767,56.3132 93.6027,58.0122 94.2657,59.6962 C94.6717,60.7292 95.0077,61.7902 95.4957,62.7922 C95.6967,63.2052 95.7067,63.6992 96.0247,64.0732 C96.1627,64.2362 96.2967,64.3782 96.5227,64.3362 C97.0857,64.2312 97.6527,64.2722 98.2177,64.2692 C98.5007,64.2682 98.5987,64.1902 98.5287,63.8812 C98.3757,63.2112 98.0467,62.6092 97.8217,61.9682 C97.5527,61.2042 97.2527,60.4482 96.9567,59.6932 C96.5687,58.7032 96.1957,57.7072 95.8117,56.7152 C95.5367,56.0032 95.2887,55.2772 94.9887,54.5782 C94.7197,53.9522 94.5137,53.3052 94.2657,52.6742 C94.0177,52.0432 93.7287,51.4242 93.5437,50.7672 C93.3987,50.2552 93.1617,49.7732 92.9597,49.2872 C92.5257,48.2462 92.1437,47.1842 91.7447,46.1332 C91.3397,45.0642 90.9237,43.9952 90.5277,42.9212 C90.1327,41.8492 89.7187,40.7802 89.2977,39.7152 C88.8897,38.6842 88.4927,37.6452 88.1137,36.6012 C87.8947,35.9952 87.6527,35.3932 87.4157,34.7922 C87.1497,34.1142 86.8467,33.4502 86.6517,32.7442 C86.5187,32.2642 86.2957,31.8132 86.1107,31.3562 C85.6927,30.3272 85.3017,29.2872 84.9117,28.2492 C84.5137,27.1942 84.0807,26.1522 83.7087,25.0862 C83.4857,24.4482 83.2337,23.8132 82.9767,23.1842 C82.7267,22.5712 82.4417,21.9672 82.2687,21.3272 C82.1207,20.7792 81.7607,20.3162 81.6837,19.7422 C81.6597,19.5712 81.4887,19.4802 81.3107,19.4512 C81.1627,19.4272 81.0097,19.4502 80.8627,19.4302 C80.2977,19.3542 79.9907,19.5202 79.7727,20.1272 C79.3247,21.3712 78.8207,22.5992 78.3237,23.8272 C77.9057,24.8562 77.5007,25.8912 77.0927,26.9232 C76.6857,27.9542 76.3027,28.9982 75.8967,30.0302 C75.5017,31.0342 75.1197,32.0442 74.7147,33.0442 C74.4607,33.6732 74.1757,34.2932 73.9877,34.9492 C73.9147,35.2052 73.8797,35.5332 73.4767,35.4982 C73.4097,35.3922 73.4347,35.2922 73.4967,35.1942 C73.7627,34.4592 74.0287,33.7242 74.2947,32.9892 C74.4787,32.6792 74.6697,32.3722 74.7057,32.0002 C74.9037,31.4662 75.1007,30.9312 75.2987,30.3972 C75.4967,30.1272 75.6277,29.8272 75.6977,29.5002 C75.7647,29.0262 76.0947,28.6512 76.1957,28.1902 C76.2547,27.8592 76.4707,27.5992 76.5987,27.3002 L76.5957,26.9982 Z" id="Fill-118" fill="#FFFFFF"></path>
            <path d="M89.4,48.4944 C89.4,48.5544 89.4,48.6144 89.4,48.6744 C89.171,48.6774 88.941,48.6814 88.712,48.6844 C88.534,48.6174 88.349,48.6504 88.168,48.6504 C82.965,48.6484 77.762,48.6484 72.56,48.6484 C72.396,48.6484 72.23,48.6474 72.065,48.6484 C71.67,48.6524 71.433,48.8354 71.304,49.2224 C70.893,50.4504 70.405,51.6494 69.918,52.8504 C69.699,53.3914 69.488,53.9434 69.299,54.4994 C69.194,54.7924 69.089,55.0854 68.983,55.3784 C68.952,55.3894 68.899,55.3934 68.893,55.4114 C68.726,55.9824 68.366,56.4834 68.292,57.0874 C68.263,57.4394 68.04,57.7014 67.876,57.9904 C67.376,59.2724 66.839,60.5424 66.392,61.8434 C66.19,62.4314 65.864,62.9714 65.752,63.5924 C65.696,63.9054 65.516,64.1644 65.314,64.4054 C65.165,64.6414 64.95,64.7104 64.677,64.7034 C64.079,64.6904 63.48,64.7024 62.881,64.6984 C62.206,64.6944 62.083,64.5144 62.315,63.8784 C62.338,63.8154 62.365,63.7544 62.399,63.6974 C62.411,63.5904 62.378,63.4714 62.479,63.3874 C62.529,63.3544 62.577,63.3564 62.625,63.3924 C62.691,63.4744 62.707,63.5714 62.709,63.6734 C62.719,64.2964 62.719,64.2924 63.317,64.2744 C63.7,64.2624 64.085,64.2344 64.463,64.3094 C64.811,64.3794 65.028,64.2484 65.201,63.9504 C65.551,63.3424 65.721,62.6604 65.985,62.0194 C66.466,60.8544 66.936,59.6804 67.35,58.4904 C67.721,57.4234 68.156,56.3824 68.558,55.3294 C68.971,54.2474 69.356,53.1514 69.825,52.0894 C70.019,51.6524 70.183,51.1934 70.325,50.7424 C70.516,50.1374 70.845,49.5914 70.991,48.9724 C71.107,48.4814 71.489,48.3454 71.95,48.3594 C77.462,48.3584 82.974,48.3584 88.485,48.3594 C88.734,48.3594 88.985,48.3394 89.232,48.3904 C89.297,48.4104 89.353,48.4454 89.4,48.4944" id="Fill-120" fill="#FFFFFF"></path>
            <path d="M96.3933,57.3144 C96.0073,56.2994 95.6303,55.2814 95.2343,54.2704 C94.8203,53.2104 94.3513,52.1694 93.9803,51.0954 C93.7913,50.5484 93.5653,50.0174 93.3633,49.4774 C93.0863,48.7374 92.8553,47.9794 92.4993,47.2674 C92.2863,46.8424 92.1703,46.3694 92.0053,45.9244 C91.7773,45.3064 91.5313,44.6894 91.3013,44.0714 C90.9043,43.0064 90.5343,41.9304 90.0683,40.8904 C89.8463,40.3944 89.6713,39.8724 89.4953,39.3604 C88.9783,37.8624 88.3843,36.3924 87.8213,34.9134 C87.2573,33.4304 86.6833,31.9464 86.1063,30.4674 C85.8453,29.7974 85.4423,29.1604 85.3943,28.4124 C85.3513,28.3644 85.3563,28.3214 85.4083,28.2844 C85.7873,29.2814 86.1363,30.2914 86.5513,31.2724 C87.0073,32.3494 87.3513,33.4694 87.8423,34.5334 C88.0623,35.0084 88.2343,35.5164 88.3963,36.0124 C88.7443,37.0784 89.1963,38.1044 89.5683,39.1594 C89.8563,39.9774 90.1913,40.7874 90.5073,41.5994 C90.9283,42.6764 91.3543,43.7504 91.7673,44.8294 C92.1623,45.8634 92.5103,46.9154 92.9393,47.9334 C93.2153,48.5874 93.4263,49.2644 93.7223,49.9114 C93.9753,50.4644 94.1473,51.0584 94.3783,51.6274 C94.8363,52.7544 95.2743,53.8914 95.6633,55.0444 C95.8953,55.7334 96.2783,56.3684 96.4023,57.0954 C96.4583,57.1704 96.4573,57.2434 96.3933,57.3144" id="Fill-122" fill="#FFFFFF"></path>
            <path d="M72.4,48.6014 C77.696,48.5994 82.991,48.5974 88.287,48.5964 C88.433,48.5964 88.591,48.5564 88.711,48.6844 C86.583,48.6894 84.455,48.6994 82.327,48.6994 C79.018,48.7004 75.709,48.6944 72.4,48.6924 C72.367,48.6724 72.356,48.6524 72.367,48.6314 C72.378,48.6114 72.389,48.6014 72.4,48.6014" id="Fill-124" fill="#FFFFFF"></path>
            <path d="M96.3933,57.3144 C96.3963,57.2414 96.3993,57.1684 96.4023,57.0954 C96.8513,57.8904 97.0703,58.7764 97.4003,59.6194 C97.7963,60.6304 98.1633,61.6544 98.5913,62.6514 C98.8003,63.1374 98.9113,63.6544 99.1683,64.1294 C99.3863,64.5324 99.1613,64.8004 98.7063,64.8044 C97.9073,64.8114 97.1083,64.8094 96.3093,64.8044 C96.1703,64.8034 96.0013,64.8604 95.9123,64.6814 C96.8093,64.6854 97.7063,64.7004 98.6033,64.6914 C99.0443,64.6874 99.1433,64.4864 98.9913,64.0794 C98.5553,62.9094 98.1053,61.7424 97.6453,60.5844 C97.2393,59.5604 96.9473,58.4864 96.4213,57.5094 C96.3923,57.4554 96.4023,57.3804 96.3933,57.3144" id="Fill-126" fill="#FFFFFF"></path>
            <path d="M72.4,48.6014 C72.4,48.6314 72.4,48.6614 72.4,48.6924 C71.57,48.7174 71.536,48.7854 71.278,49.5794 C71.029,50.3434 70.684,51.0754 70.397,51.8274 C70.054,52.7274 69.78,53.6554 69.299,54.4994 C69.251,53.9694 69.625,53.5754 69.776,53.1094 C69.988,52.4584 70.239,51.8104 70.527,51.1784 C70.771,50.6434 70.966,50.0784 71.161,49.5214 C71.469,48.6414 71.484,48.5854 72.4,48.6014" id="Fill-128" fill="#FFFFFF"></path>
            <path d="M62.6033,63.4011 C62.5623,63.3971 62.5203,63.3921 62.4793,63.3881 C62.7843,62.7831 62.8923,62.1021 63.2253,61.5041 C63.4663,61.0721 63.5653,60.5761 63.7503,60.1161 C64.1323,59.1691 64.4883,58.2081 64.8673,57.2581 C65.3073,56.1551 65.7473,55.0511 66.1773,53.9451 C66.4283,53.2991 66.6493,52.6421 66.9023,51.9971 C67.2983,50.9841 67.7083,49.9761 68.1163,48.9681 C68.3263,48.4471 68.5333,47.9241 68.7313,47.4001 C69.3463,45.7801 69.9743,44.1661 70.6203,42.5571 C71.3153,40.8251 72.0233,39.0951 72.6503,37.3381 C72.8553,36.7651 73.0903,36.1961 73.2543,35.6061 C73.2963,35.4541 73.3093,35.2681 73.4963,35.1941 C73.4983,35.2971 73.5003,35.4001 73.5023,35.5031 C73.6453,35.9221 73.4313,36.2761 73.2923,36.6411 C73.0323,37.3211 72.7763,38.0041 72.4953,38.6731 C72.2393,39.2831 72.0393,39.9141 71.7593,40.5151 C71.5023,41.0681 71.3103,41.6511 71.0863,42.2171 C70.8013,42.9381 70.5083,43.6581 70.2283,44.3821 C70.0073,44.9541 69.8123,45.5351 69.5773,46.1031 C69.2863,46.8031 69.0513,47.5271 68.7313,48.2171 C68.5363,48.6391 68.3763,49.0831 68.2363,49.5171 C67.8923,50.5761 67.4143,51.5801 67.0463,52.6291 C66.8393,53.2151 66.5893,53.8021 66.3623,54.3861 C66.1103,55.0321 65.7593,55.6421 65.6163,56.3311 C65.5203,56.7901 65.2373,57.1731 65.0733,57.6111 C64.8433,58.2301 64.6093,58.8531 64.3653,59.4691 C64.1083,60.1141 63.8183,60.7471 63.6113,61.4151 C63.4453,61.9501 63.1523,62.4401 63.0063,62.9901 C62.9573,63.1731 62.8223,63.3471 62.6033,63.4011" id="Fill-130" fill="#FFFFFF"></path>
            <path d="M62.3986,63.6974 C62.3436,64.5994 62.3436,64.5994 63.2916,64.5994 C63.7196,64.5994 64.1476,64.5874 64.5746,64.6044 C64.8486,64.6154 65.0956,64.5774 65.3136,64.4054 C65.2736,64.4974 65.2326,64.5884 65.1926,64.6804 C64.7096,64.8254 64.2146,64.7364 63.7266,64.7414 C63.2186,64.7464 62.7056,64.8044 62.1996,64.7004 C61.7646,64.2664 62.1836,64.0024 62.3986,63.6974" id="Fill-132" fill="#FFFFFF"></path>
            <path d="M62.2,64.7003 C63.198,64.6943 64.195,64.6873 65.192,64.6813 C65.14,64.7863 65.044,64.7993 64.942,64.7993 C64.1,64.7993 63.258,64.8013 62.416,64.7943 C62.344,64.7933 62.272,64.7333 62.2,64.7003" id="Fill-134" fill="#FFFFFF"></path>
            <path d="M74.7059,32.0007 C74.7449,32.4037 74.5789,32.7207 74.2949,32.9897 C74.4319,32.6597 74.5689,32.3307 74.7059,32.0007" id="Fill-136" fill="#FFFFFF"></path>
            <path d="M67.8756,57.9906 C67.9316,57.6516 68.1856,57.4036 68.2926,57.0876 C68.3386,57.4736 68.1506,57.7526 67.8756,57.9906" id="Fill-138" fill="#FFFFFF"></path>
            <path d="M75.6976,29.4998 C75.7056,29.8618 75.5976,30.1718 75.2986,30.3968 C75.4316,30.0978 75.5646,29.7988 75.6976,29.4998" id="Fill-140" fill="#FFFFFF"></path>
            <path d="M76.5989,27.2999 C76.5949,27.6559 76.3229,27.8909 76.1949,28.1899 C76.1659,27.8189 76.3729,27.5549 76.5989,27.2999" id="Fill-142" fill="#FFFFFF"></path>
            <path d="M85.4085,28.2845 C85.4035,28.3265 85.3995,28.3695 85.3945,28.4115 C84.9245,27.8665 84.8475,27.1455 84.5805,26.5135 C84.0635,25.2865 83.5935,24.0355 83.1355,22.7855 C82.7555,21.7505 82.3005,20.7425 81.9935,19.6795 C81.8885,19.3155 81.6455,19.1055 81.2335,19.0905 C79.7945,19.0395 79.7825,19.0285 79.2815,20.4405 C79.1055,20.9395 78.9125,21.4285 78.7115,21.9165 C78.6695,22.0195 78.6225,22.0895 78.5145,22.1115 C78.7795,21.4025 79.0455,20.6925 79.3115,19.9825 C79.3235,19.9525 79.3465,19.9265 79.3645,19.8985 C79.5615,19.5845 79.5225,19.0935 79.9405,18.9575 C80.4015,18.8075 80.8965,18.8975 81.3765,18.9065 C81.6805,18.9125 81.9185,19.0805 82.0295,19.3705 C82.3825,20.2915 82.7085,21.2245 83.0735,22.1415 C83.5375,23.3025 83.9745,24.4745 84.4285,25.6385 C84.7695,26.5125 85.1065,27.3935 85.4085,28.2845" id="Fill-144" fill="#FFFFFF"></path>
            <path d="M187.2981,43.2932 C187.5501,42.9172 187.6751,42.4492 188.0991,42.2002 C187.8561,42.5822 187.7231,43.0442 187.2981,43.2932" id="Fill-146" fill="#FFFFFF"></path>
            <path d="M184.8921,43.1056 C184.8881,43.3596 185.2301,43.4436 185.1911,43.7146 C184.7941,43.4396 184.6571,42.9716 184.3771,42.6106 C184.6381,42.6816 184.7271,42.9336 184.8921,43.1056" id="Fill-148" fill="#FFFFFF"></path>
            <path d="M187.9954,46.7963 C187.9564,47.0653 187.7154,47.2873 187.8124,47.5873 C187.5794,47.2553 187.6804,47.0013 187.9954,46.7963" id="Fill-150" fill="#FFFFFF"></path>
            <path d="M71.7909,48.4964 C71.9469,48.3544 72.1389,48.4084 72.3159,48.4084 C77.8059,48.4054 83.2969,48.4054 88.7869,48.4084 C88.9639,48.4084 89.1559,48.3564 89.3129,48.4944 C83.4729,48.4954 77.6319,48.4954 71.7909,48.4964" id="Fill-152" fill="#FFFFFF"></path>
            <path d="M87.8889,45.6103 C83.0769,45.6103 78.2649,45.6103 73.4529,45.6083 C73.2759,45.6083 73.0679,45.6623 72.9529,45.4683 C72.8239,45.2503 72.9949,45.1123 73.0989,44.9393 C73.3549,44.5143 73.4789,44.0173 73.6309,43.5593 C73.9929,42.4623 74.4619,41.4063 74.8509,40.3213 C75.0689,39.7133 75.2519,39.0723 75.5779,38.4863 C75.8209,38.0493 75.9199,37.5273 76.1089,37.0483 C76.6869,35.5913 77.1479,34.0873 77.7569,32.6453 C78.2069,31.5813 78.5509,30.4793 79.0119,29.4193 C79.2659,28.8373 79.4639,28.2183 79.6829,27.6143 C79.9649,26.8353 80.1819,26.0383 80.4059,25.2433 C80.4409,25.1173 80.5079,24.9973 80.5799,24.8873 C80.6309,24.8063 80.7039,24.7193 80.8199,24.7403 C80.9359,24.7613 80.9729,24.8563 80.9909,24.9593 C81.2019,26.1723 81.6739,27.3103 82.1009,28.4493 C82.5059,29.5303 82.8749,30.6273 83.3129,31.6993 C83.5729,32.3343 83.8009,32.9983 84.0209,33.6563 C84.3909,34.7653 84.8399,35.8483 85.2619,36.9403 C85.4529,37.4343 85.6309,37.9393 85.7929,38.4373 C86.1499,39.5383 86.6099,40.5993 86.9789,41.6953 C87.2029,42.3603 87.3989,43.0493 87.7359,43.6793 C87.9899,44.1563 87.9739,44.7363 88.3519,45.1853 C88.5339,45.4013 88.2509,45.6893 87.8889,45.6103 M98.7629,64.1573 C98.4989,63.3993 98.2359,62.6403 97.9519,61.8893 C97.6869,61.1843 97.3579,60.5013 97.1289,59.7863 C96.9429,59.2063 96.7209,58.6323 96.4869,58.0843 C96.0399,57.0363 95.7019,55.9473 95.2459,54.9023 C95.0589,54.4743 94.8019,54.0443 94.7189,53.5853 C94.5909,52.8743 94.2149,52.2653 93.9969,51.5923 C93.7619,50.8653 93.4749,50.1433 93.1769,49.4343 C92.9329,48.8543 92.7779,48.2353 92.4979,47.6823 C92.2069,47.1073 92.0369,46.4893 91.8189,45.9003 C91.5749,45.2393 91.2629,44.5993 91.0569,43.9163 C90.9329,43.5043 90.8179,43.0483 90.5969,42.6763 C90.2439,42.0843 90.1139,41.4123 89.8489,40.7923 C89.5159,40.0123 89.2109,39.2093 88.9169,38.4093 C88.7349,37.9133 88.4739,37.4293 88.3629,36.9353 C88.2159,36.2783 87.8669,35.7143 87.6679,35.0853 C87.5049,34.5683 87.3149,34.0293 87.0869,33.5183 C86.7999,32.8753 86.5269,32.2193 86.3209,31.5473 C86.1379,30.9483 85.8949,30.3623 85.6509,29.8033 C85.3949,29.2163 85.2099,28.5983 84.9539,28.0123 C84.6089,27.2203 84.2899,26.4023 84.0149,25.5793 C83.8319,25.0303 83.5429,24.5213 83.4119,23.9653 C83.2539,23.3003 82.9419,22.6933 82.6799,22.0833 C82.4139,21.4643 82.2339,20.8123 81.9549,20.1943 C81.5709,19.3413 81.6749,19.2943 80.7519,19.2953 C80.5519,19.2953 80.3519,19.2943 80.1529,19.2963 C79.9879,19.2973 79.8659,19.3563 79.8119,19.5283 C79.5659,20.3243 79.1949,21.0753 78.9229,21.8553 C78.5499,22.9253 78.0109,23.9323 77.7329,25.0373 C77.7049,25.1463 77.6379,25.2463 77.5939,25.3523 C77.3319,25.9893 77.0329,26.6133 76.8209,27.2663 C76.6279,27.8603 76.3819,28.4383 76.1529,29.0113 C75.8969,29.6493 75.6659,30.3033 75.3999,30.9393 C75.2349,31.3323 74.9809,31.7043 74.9119,32.1223 C74.8009,32.7883 74.3749,33.3213 74.2199,33.9743 C74.1369,34.3203 73.9019,34.6533 73.8339,35.0333 C73.7969,35.2393 73.6979,35.4073 73.5019,35.5033 C73.3779,35.8613 73.3759,36.2543 73.1739,36.5913 C72.8419,37.1443 72.6619,37.7753 72.4659,38.3703 C72.2659,38.9783 71.9659,39.5443 71.7739,40.1583 C71.5139,40.9903 71.0809,41.7763 70.8369,42.6273 C70.8049,42.7373 70.7479,42.8403 70.6979,42.9443 C70.3879,43.5783 70.1169,44.2303 69.9139,44.9043 C69.7369,45.4883 69.5069,46.0653 69.2519,46.5983 C68.9749,47.1753 68.8819,47.8153 68.5319,48.3713 C68.3349,48.6843 68.1929,49.0983 68.1059,49.4623 C67.9489,50.1163 67.5979,50.6793 67.4009,51.3103 C67.2309,51.8543 67.0449,52.4083 66.7959,52.9203 C66.4929,53.5443 66.2849,54.2013 66.0319,54.8393 C65.7979,55.4263 65.5689,56.0253 65.3509,56.6213 C65.0759,57.3713 64.7549,58.1093 64.4749,58.8643 C64.2759,59.4023 64.0449,59.9303 63.8479,60.4723 C63.6139,61.1163 63.2829,61.7273 63.0789,62.3793 C62.9619,62.7503 62.8219,63.0883 62.6029,63.4013 C62.5859,63.5653 62.5799,63.7323 62.5479,63.8943 C62.4539,64.3763 62.5559,64.4783 63.0539,64.4363 C63.5659,64.3923 64.0819,64.3463 64.5909,64.4773 C64.8489,64.5443 65.0779,64.4683 65.1929,64.2423 C65.3499,63.9343 65.5639,63.6563 65.6499,63.3093 C65.8319,62.5743 66.1969,61.9073 66.4539,61.1993 C66.6619,60.6273 66.9029,60.0663 67.1159,59.4953 C67.3459,58.8793 67.5099,58.2333 67.7959,57.6443 C68.0169,57.1913 68.1069,56.7003 68.3229,56.2513 C68.6419,55.5863 68.8699,54.8843 69.1259,54.1943 C69.3499,53.5923 69.5409,52.9653 69.8349,52.4073 C70.0439,52.0113 70.0649,51.5873 70.2469,51.1983 C70.5649,50.5143 70.8549,49.8123 71.0809,49.0943 C71.2049,48.6983 71.3679,48.4773 71.7909,48.4963 C71.9299,48.4143 72.0839,48.4503 72.2309,48.4503 C77.7779,48.4483 83.3249,48.4483 88.8719,48.4503 C89.0199,48.4503 89.1729,48.4153 89.3129,48.4943 L89.3569,48.4913 C89.3569,48.4913 89.3999,48.4943 89.3999,48.4943 C89.8739,48.4623 90.0589,48.7443 90.0949,49.1593 C90.1119,49.3463 90.1579,49.5143 90.2459,49.6793 C90.6189,50.3783 90.8299,51.1413 91.1139,51.8763 C91.3279,52.4283 91.5009,53.0023 91.7479,53.5333 C92.0549,54.1933 92.2929,54.8783 92.5419,55.5543 C92.7509,56.1213 92.9469,56.7133 93.1799,57.2593 C93.6269,58.3033 94.0329,59.3683 94.4229,60.4283 C94.8119,61.4873 95.3139,62.5073 95.6099,63.6063 C95.7019,63.9493 95.8859,64.4873 96.3119,64.4663 C97.0589,64.4283 97.8049,64.4243 98.5519,64.4013 C98.7089,64.3973 98.8259,64.3363 98.7629,64.1573" id="Fill-154" fill="#FFFFFF"></path>
            <path d="M127.576,49.7873 C127.518,50.9253 127.218,52.0523 127.178,53.1903 C127.143,54.1783 126.82,55.0893 126.55,55.9913 C126.038,57.6993 125.199,59.2683 123.722,60.3843 C122.187,61.5443 120.444,62.0773 118.53,62.2293 C117.26,62.3293 115.991,62.3393 114.752,62.1613 C113.865,62.0343 112.967,61.7953 112.122,61.3593 C111.21,60.8873 110.38,60.3503 109.668,59.6203 C108.795,58.7243 108.218,57.6563 107.68,56.5293 C107.347,55.8313 107.353,55.0513 106.935,54.3933 C106.684,53.9983 106.826,53.4813 106.733,53.0233 C106.407,51.4083 106.179,49.7813 106.33,48.1933 C106.205,46.4023 106.515,44.7223 106.729,43.0243 C106.847,42.0893 107.173,41.2263 107.37,40.3293 C107.501,39.7353 107.798,39.1043 108.108,38.5173 C108.447,37.8753 108.758,37.2153 109.23,36.6713 C109.974,35.8123 110.768,35.0363 111.797,34.4523 C113.544,33.4633 115.42,33.2383 117.337,33.2303 C118.421,33.2253 119.538,33.3613 120.584,33.6433 C122.411,34.1363 124.014,35.0763 125.107,36.6823 C125.573,37.3673 125.932,38.1193 126.263,38.8983 C126.585,39.6573 126.589,40.4853 126.975,41.2113 C127.214,41.6603 127.079,42.1933 127.167,42.6853 C127.587,45.0353 127.696,47.4093 127.576,49.7873 M130.697,40.4513 C130.697,33.4513 130.697,26.4523 130.697,19.4523 C130.697,18.5693 130.684,17.6853 130.703,16.8033 C130.712,16.4053 130.552,16.2683 130.17,16.2813 C129.638,16.3003 129.104,16.2893 128.571,16.2883 C127.856,16.2873 127.804,16.3373 127.81,17.0563 C127.85,21.7533 127.729,26.4513 127.89,31.1483 C127.927,32.2283 127.838,33.3113 127.986,34.3893 C128.033,34.7333 128,35.0883 128.004,35.4383 C128.006,35.5803 127.975,35.7123 127.832,35.7703 C127.68,35.8333 127.534,35.7983 127.424,35.6723 C127.337,35.5733 127.255,35.4683 127.183,35.3583 C126.444,34.2373 125.542,33.2563 124.472,32.4583 C122.535,31.0143 120.3,30.3903 117.915,30.3093 C116.053,30.2453 114.208,30.3383 112.391,30.8813 C111.065,31.2763 109.876,31.8863 108.767,32.6793 C107.577,33.5313 106.629,34.6223 105.845,35.8453 C105.194,36.8623 104.672,37.9573 104.294,39.1023 C104.004,39.9793 103.791,40.8823 103.577,41.7843 C103.185,43.4333 103.111,45.1053 103.021,46.7743 C102.952,48.0663 102.996,49.3653 103.079,50.6643 C103.232,53.0493 103.663,55.3483 104.589,57.5673 C105.126,58.8543 105.839,60.0093 106.703,61.0833 C107.874,62.5403 109.402,63.5243 111.101,64.2333 C111.89,64.5633 112.731,64.7623 113.581,64.9373 C114.548,65.1363 115.516,65.2453 116.493,65.2823 C117.825,65.3333 119.131,65.1163 120.439,64.8543 C121.498,64.6413 122.469,64.2143 123.387,63.7113 C124.719,62.9813 125.851,61.9693 126.794,60.7623 C127.028,60.4623 127.257,60.1583 127.497,59.8613 C127.624,59.7043 127.801,59.6603 127.993,59.7133 C128.2,59.7703 128.201,59.9483 128.211,60.1163 C128.288,61.4953 128.657,62.8323 128.795,64.2013 C128.819,64.4423 128.894,64.6563 129.144,64.6773 C129.541,64.7113 129.943,64.7043 130.342,64.6823 C130.583,64.6683 130.656,64.4503 130.682,64.2483 C130.708,64.0513 130.696,63.8493 130.697,63.6493 C130.697,55.9173 130.697,48.1843 130.697,40.4513" id="Fill-156" fill="#FFFFFF"></path>
        </g>
    </g>
</svg>