<svg xmlns="http://www.w3.org/2000/svg" width="287" height="257" viewBox="0 0 287 257">
    <g fill="none" fill-rule="evenodd">
        <path fill="#166DB1" d="M87.019 84.533c10.492 13.863 11.625 15.206 23.36 30.275 10.225-1.837 32.394-9.389 67.375 0 7.267-9.536 10.147-13.951 22.625-29.748-38.539-12.834-91.05-8.109-113.36-.527z"/>
        <path fill="#166DB1" d="M105.073 26.485h75.073v59.242h-75.073z"/>
        <path fill="#5296D1" d="M87 7.667h23.634V115L87 84.333zM201 7.667h-23.634V115L201 84.333z"/>
        <path fill="#75BBE7" d="M87.019 7.867C97.51 21.73 98.644 23.073 110.379 38.14c10.225-1.837 32.394-9.388 67.375 0 7.267-9.536 10.147-13.95 22.625-29.748C161.84-4.44 109.329.285 87.019 7.867z"/>
        <path fill="#52AC62" d="M211.041 204.997c-13.287 8.534-30.801 17.052-64.663 18.614v33.126c32.033.744 73.103-7.516 105.943-30.664-13.565-7.206-25.955-13.033-41.28-21.076z"/>
        <path fill="#52AC62" d="M239.013 216.136h13.288V226h-13.288z"/>
        <path fill="#508463" d="M211.041 195.133c-13.287 8.534-30.801 17.052-64.663 18.614v33.126c32.033.745 73.103-7.516 105.943-30.663-13.565-7.207-25.955-13.034-41.28-21.077z"/>
        <g>
            <path fill="#BD202E" d="M185.674 118.735c6.739 2.167 32.024 9.727 43.856 33.33 19.167-2.405 31.744-4.149 53.212-7.334-6.784-21.158-38.877-46.92-73.636-56.372-7.049 8.826-16.135 20.801-23.432 30.376z"/>
            <path fill="#BD202E" d="M185.705 97.311h23.971v21.148h-23.971z"/>
            <path fill="#E80A89" d="M185.674 97.587c6.739 2.167 32.024 9.728 43.856 33.33 19.167-2.404 31.744-4.148 53.212-7.334-6.784-21.158-38.877-46.919-73.636-56.372-7.049 8.826-16.135 20.802-23.432 30.376z"/>
            <path fill="#F07791" d="M229.417 131.148L283 123.393v21.148l-53.583 7.754z"/>
        </g>
        <g>
            <path fill="#5492BA" d="M216.602 200.934c5.293-5.497 21.287-20 15.204-41.416 22.639-3.187 40.359-6.026 52.396-7.687 5.567 17.766 4.085 44.579-26.229 70.447-22.108-11.59-20.254-11.255-41.37-21.344z"/>
            <path fill="#5492BA" d="M232.01 138.455h12.529v28.182H232.01z"/>
            <path fill="#5C73A0" d="M216.696 179.767l41.542 20.53v22.563l-41.542-21.7z"/>
            <path fill="#5492BA" d="M275.359 146.361h11.296v23.795l-2.73 5.054z"/>
            <path fill="#496896" d="M216.602 179.798c5.293-5.497 21.287-20 15.204-41.416 22.639-3.187 40.359-6.027 52.396-7.688 5.567 17.767 4.085 44.58-26.229 70.447-22.108-11.59-20.254-11.255-41.37-21.343z"/>
        </g>
        <path fill="#F05A29" d="M76.302 206c13.295 8.405 30.818 16.793 64.698 18.331v32.624c-32.05.733-73.142-7.402-106-30.198C48.572 219.66 60.97 213.92 76.302 206z"/>
        <g>
            <path fill="#BE383B" d="M103.742 118.004c-6.74 2.13-32.024 9.564-43.857 32.77-19.166-2.365-31.743-4.08-53.211-7.211 6.783-20.802 38.876-46.13 73.636-55.425 7.048 8.678 16.135 20.452 23.432 29.866z"/>
            <path fill="#BE383B" d="M103.64 118.12v-6.927l-4.11-2.98-3.23 2.98.791 5.074zM6.814 136.552v6.272l52.982 7.903v-6.922z"/>
            <path fill="#F17580" d="M103.742 111.073c-6.74 2.13-32.024 9.564-43.857 32.77-19.166-2.364-31.743-4.079-53.211-7.21C13.457 115.83 45.55 90.501 80.31 81.206c7.048 8.678 16.135 20.453 23.432 29.866z"/>
        </g>
        <g>
            <path fill="#F59120" d="M70.742 199.13c-5.293-5.447-21.286-19.821-15.203-41.047-22.639-3.159-40.359-5.973-52.396-7.619-5.567 17.609-4.085 44.183 26.229 69.82 22.107-11.487 20.254-11.155 41.37-21.153z"/>
            <path fill="#F59120" d="M55.565 158.157v-9.792h-3.9l2.265 10.082z"/>
            <path fill="#F9AE41" d="M70.742 189.355c-5.293-5.448-21.286-19.822-15.203-41.048-22.639-3.159-40.359-5.973-52.396-7.619-5.567 17.609-4.085 44.183 26.229 69.82 19.597-9.904 35.68-17.943 41.37-21.153z"/>
            <path fill="#F9AE41" d="M70.784 199.221v-9.852l-41.397 21.006v9.978z"/>
        </g>
    </g>
</svg>
