<svg xmlns="http://www.w3.org/2000/svg" width="916" height="327" viewBox="0 0 916 327">
  <defs>
    <linearGradient id="a" x1="76.27%" x2="25.476%" y1="0%" y2="92.15%">
      <stop stop-color="#BF2F9E" offset="0%"/>
      <stop stop-color="#D73A5D" offset="50.46%"/>
      <stop stop-color="#FFAE4D" offset="100%"/>
    </linearGradient>
  </defs>
  <g fill="none" fill-rule="evenodd" transform="translate(0 1)">
    <g transform="translate(439 97)">
      <polyline stroke="#FFB51B" points="348.742 .523 305.494 74.628 .383 74.628" stroke-linecap="square" stroke-linejoin="bevel" stroke-dasharray="1"/>
      <polyline stroke="#FFB51B" points="340.707 8.339 348.742 .523 345.889 11.363" stroke-linecap="square" stroke-linejoin="bevel" stroke-dasharray="1"/>
      <circle cx="45" cy="76" r="15" fill="#E7A51B" fill-rule="nonzero"/>
      <text fill="#0E1221" transform="translate(40 65)" font-family="Helvetica-Bold, Helvetica" font-size="18" font-weight="bold">
        <tspan x=".495" y="18">5</tspan>
      </text>
    </g>
    <g transform="translate(420 254)">
      <polyline stroke="#FFB51B" points="337.845 56.628 47.472 56.628 .962 .115" stroke-linecap="square" stroke-linejoin="bevel" stroke-dasharray="1"/>
      <polyline stroke="#FFB51B" points="10.141 6.548 .961 .115 5.508 10.361" stroke-linecap="square" stroke-linejoin="bevel" stroke-dasharray="1"/>
      <circle cx="49" cy="57" r="15" fill="#E7A51B" fill-rule="nonzero"/>
      <text fill="#0E1221" transform="translate(44 46)" font-family="Helvetica-Bold, Helvetica" font-size="18" font-weight="bold">
        <tspan x=".495" y="18">4</tspan>
      </text>
    </g>
    <g transform="matrix(1 0 0 -1 806 231)">
      <path stroke="#C573ED" d="M15.508,120.5 L15.508,0.5 M12.508,11.3 L15.508,0.5 L18.508,11.3" stroke-linecap="square" stroke-linejoin="bevel" stroke-dasharray="1"/>
      <circle cx="15" cy="62" r="15" fill="#C573ED" fill-rule="nonzero"/>
      <text fill="#0E1221" transform="translate(10 51)" font-family="Helvetica-Bold, Helvetica" font-size="18" font-weight="bold">
        <tspan x=".495" y="18">3</tspan>
      </text>
    </g>
    <g transform="translate(418 21)">
      <polyline stroke="#FFB51B" points="334.997 13.627 49.472 13.627 .77 82.45" stroke-linecap="square" stroke-linejoin="bevel" stroke-dasharray="1"/>
      <polyline stroke="#FFB51B" points="324.197 10.627 334.997 13.627 324.197 16.627" stroke-linecap="square" stroke-linejoin="bevel" stroke-dasharray="1"/>
      <circle cx="51" cy="15" r="15" fill="#E7A51B" fill-rule="nonzero"/>
      <text fill="#0E1221" transform="translate(46 4)" font-family="Helvetica-Bold, Helvetica" font-size="18" font-weight="bold">
        <tspan x=".495" y="18">2</tspan>
      </text>
    </g>
    <g transform="translate(103 162)">
      <path stroke="#75BBE7" d="M199,13 L0,13 M188.2,10 L199,13 L188.2,16" stroke-linecap="square" stroke-linejoin="bevel" stroke-dasharray="1"/>
      <circle cx="26" cy="15" r="15" fill="#75BBE7" fill-rule="nonzero"/>
      <text fill="#0E1221" transform="translate(21 4)" font-family="Helvetica-Bold, Helvetica" font-size="18" font-weight="bold">
        <tspan x=".495" y="18">1</tspan>
      </text>
    </g>
    <g fill="#75BBE7" fill-rule="nonzero" transform="translate(0 138)">
      <path d="M26,33.68 L43.78,47.56 C44.78,48.362 46.72,48.542 47.9,47.98 C49.16,47.38 50,46.122 50,44.84 L50,5.98 C50,4.782 49.06,3.48 47.72,2.84 C46.52,2.262 44.72,2.46 43.72,3.262 L26,17.14 L26,33.68 Z M46.24,50.32 C44.84,50.32 43.48,49.88 42.54,49.122 L24.38,34.942 C24.1395248,34.7538755 23.9993047,34.4653173 24,34.16 L24,16.66 C24,16.362 24.14,16.06 24.38,15.88 L42.48,1.702 C44.04,0.442 46.72,0.14 48.58,1.042 C50.28,1.862 52,3.702 52,5.98 L52,44.84 C52,46.9 50.72,48.84 48.76,49.782 C48.02,50.14 47.16,50.32 46.24,50.32 Z"/>
      <path d="M51.98,32.66 C51.42,32.66 50.98,32.22 50.98,31.66 C50.98,31.102 51.42,30.66 51.98,30.66 C54.88,30.66 57.22,28.3 57.22,25.422 C57.22,22.52 54.88,20.16 51.98,20.16 C51.42,20.16 50.98,19.72 50.98,19.16 C50.98,18.602 51.42,18.16 51.98,18.16 C55.98,18.16 59.22,21.422 59.22,25.422 C59.22,29.4 55.98,32.66 51.98,32.66 Z M16.5,54.16 L24.44,54.16 L19.76,35.4 C19.6765617,35.1017571 19.7437351,34.7815639 19.94,34.542 C20.1265,34.3003612 20.4147609,34.1591873 20.72,34.16 L24,34.16 L24,18.16 L4.48,18.16 C3.56,18.16 2,18.46 2,20.42 L2,30.422 C2,32.102 3.14,34.16 4.48,34.16 L10.72,34.16 C11.18,34.16 11.58,34.48 11.7,34.922 L16.5,54.16 Z M25.76,56.16 L15.72,56.16 C15.26,56.16 14.86,55.84 14.76,55.4 L9.94,36.16 L4.48,36.16 C1.84,36.16 0,33.14 0,30.422 L0,20.42 C0,17.862 1.8,16.16 4.48,16.16 L25,16.16 C25.56,16.16 26,16.602 26,17.16 L26,35.16 C26,35.72 25.56,36.16 25,36.16 L22,36.16 L26.64,54.66 C26.72,54.8 26.76,54.98 26.76,55.16 C26.76,55.72 26.32,56.16 25.76,56.16 Z"/>
      <path d="M5,31.16 C4.44,31.16 4,30.72 4,30.16 L4,22.16 C4,21.602 4.44,21.16 5,21.16 C5.56,21.16 6,21.602 6,22.16 L6,30.16 C6,30.72 5.56,31.16 5,31.16 M11,31.16 C10.44,31.16 10,30.72 10,30.16 L10,22.16 C10,21.602 10.44,21.16 11,21.16 C11.56,21.16 12,21.602 12,22.16 L12,30.16 C12,30.72 11.56,31.16 11,31.16"/>
    </g>
    <g stroke="#C573ED" stroke-width="2" transform="translate(781)">
      <circle cx="7.5" cy="21.5" r="4.5"/>
      <path d="M10.654,55.9499992 L10.654,42.0799996 C10.654,42.0289996 10.644,41.9819996 10.64,41.9359996 L11.308,41.9359996 C12.795,41.9359996 14,40.7439996 14,39.2739997 L14,29.6609999 C14,28.192 12.794,27 11.308,27 L2.695,27 C1.205,27 0,28.192 0,29.6619999 L0,39.2739997 C0,40.7439996 1.206,41.9339996 2.694,41.9339996 L3.362,41.9339996 C3.358,41.9829996 3.346,42.0299996 3.346,42.0789996 L3.346,55.9489992 C3.346,57.0819992 4.276,57.9999992 5.421,57.9999992 L8.578,57.9999992 C9.726,58.0009992 10.654,57.0819992 10.654,55.9499992 Z"/>
      <circle cx="25.5" cy="21.5" r="4.5"/>
      <path d="M28.655,55.9499992 L28.655,42.0799996 C28.655,42.0289996 28.643,41.9819996 28.639,41.9359996 L29.307,41.9359996 C30.795,41.9359996 32,40.7439996 32,39.2739997 L32,29.6609999 C32,28.192 30.795,27 29.308,27 L20.694,27 C19.206,27 18,28.192 18,29.6619999 L18,39.2739997 C18,40.7439996 19.206,41.9339996 20.693,41.9339996 L21.361,41.9339996 C21.358,41.9829996 21.345,42.0299996 21.345,42.0789996 L21.345,55.9489992 C21.345,57.0819992 22.275,57.9999992 23.421,57.9999992 L26.577,57.9999992 C27.726,58.0009992 28.655,57.0819992 28.655,55.9499992 Z"/>
      <circle cx="44.5" cy="21.5" r="4.5"/>
      <path d="M47.657,55.9499992 L47.657,42.0799996 C47.657,42.0289996 47.645,41.9819996 47.641,41.9359996 L48.307,41.9359996 C49.793,41.9359996 51,40.7439996 51,39.2739997 L51,29.6609999 C51,28.192 49.795,27 48.309,27 L39.693,27 C38.205,27 37,28.192 37,29.6619999 L37,39.2739997 C37,40.7439996 38.205,41.9339996 39.693,41.9339996 L40.361,41.9339996 C40.356,41.9829996 40.345,42.0299996 40.345,42.0789996 L40.345,55.9489992 C40.345,57.0819992 41.275,57.9999992 42.422,57.9999992 L45.577,57.9999992 C46.729,58.0009992 47.657,57.0819992 47.657,55.9499992 Z"/>
      <circle cx="62.5" cy="21.5" r="4.5"/>
      <path d="M65.656,55.9499992 L65.656,42.0799996 C65.656,42.0289996 65.642,41.9819996 65.642,41.9359996 L66.308,41.9359996 C67.795,41.9359996 68.998,40.7439996 68.998,39.2739997 L69,39.2739997 L69,29.6609999 C69,28.192 67.795,27 66.308,27 L57.692,27 C56.205,27 55,28.192 55,29.6619999 L55,39.2739997 C55,40.7439996 56.205,41.9339996 57.69,41.9339996 L58.36,41.9339996 C58.356,41.9829996 58.342,42.0299996 58.342,42.0789996 L58.342,55.9489992 C58.342,57.0819992 59.274,57.9999992 60.42,57.9999992 L63.575,57.9999992 C64.726,58.0009992 65.655,57.0819992 65.655,55.9499992 L65.656,55.9499992 Z"/>
      <circle cx="80.5" cy="21.5" r="4.5"/>
      <path d="M84.314,27 L75.694,27 C74.205,27 73,28.192 73,29.662 L73,39.273 C73,40.743 74.205,41.936 75.694,41.936 L76.361,41.936 C76.358,41.984 76.344,42.031 76.344,42.08 L76.344,55.95 C76.344,57.083 77.274,58 78.419,58 L81.577,58 C82.725,58 83.656,57.081 83.656,55.95 L83.656,42.079 C83.656,42.029 83.644,41.982 83.641,41.934 L84.306,41.934 C85.793,41.934 87,40.741 87,39.274 L87,29.66 C87.006,28.19 85.8,27 84.314,27 Z"/>
      <circle cx="25.5" cy="4.5" r="4.5"/>
      <circle cx="44.5" cy="4.5" r="4.5"/>
      <circle cx="62.5" cy="4.5" r="4.5"/>
      <circle cx="16.5" cy="13.5" r="4.5"/>
      <circle cx="35.5" cy="13.5" r="4.5"/>
      <circle cx="53.5" cy="13.5" r="4.5"/>
      <circle cx="71.5" cy="13.5" r="4.5"/>
    </g>
    <g transform="translate(774 263)">
      <path fill="#FF0000" fill-rule="nonzero" d="M41.538,2 L8.462,2 C3.78856645,2 0,5.78856645 0,10.462 L0,28.154 C0.000552238603,32.827043 3.78895694,36.615 8.462,36.615 L41.538,36.615 C46.2110431,36.615 49.9994478,32.827043 50,28.154 L50,10.462 C50,5.78856645 46.2114336,2 41.538,2 Z M27.115,23.154 L19.615,27 L19.615,11.615 L27.115,15.462 L34.615,19.308 L27.115,23.154 Z"/>
      <path stroke="url(#a)" stroke-width="3" d="M68.882,0.549 C66.2595128,0.543142632 63.7427345,1.58226047 61.8882575,3.43654977 C60.0337806,5.29083907 58.994408,7.80751219 59,10.43 L59,28 C58.9941417,30.6226609 60.0333966,33.1395915 61.8879025,34.9940975 C63.7424085,36.8486034 66.2593391,37.8878583 68.882,37.882 L86.451,37.882 C89.0736609,37.8878583 91.5905915,36.8486034 93.4450975,34.9940975 C95.2996034,33.1395915 96.3388583,30.6226609 96.333,28 L96.333,10.43 C96.3383256,7.80768529 95.2988355,5.29126965 93.4443876,3.43719698 C91.5899396,1.58312431 89.0733136,0.544143574 86.451,0.55 L68.882,0.55 L68.882,0.549 Z M87.942,8.549 C88.4616999,8.549 88.883,8.97030005 88.883,9.49 C88.883,10.0096999 88.4616999,10.431 87.942,10.431 C87.4223001,10.431 87.001,10.0096999 87.001,9.49 C87.001,8.97030005 87.4223001,8.549 87.942,8.549 Z M77.667,11.215 C82.075,11.215 85.667,14.807 85.667,19.215 C85.667,23.624 82.075,27.215 77.667,27.215 C73.258,27.215 69.667,23.624 69.667,19.215 C69.667,14.807 73.258,11.215 77.667,11.215 Z"/>
    </g>
    <g fill-rule="nonzero" transform="translate(340 131)">
      <polygon fill="#171B29" stroke="#FFB51B" points="0 14.25 0 42.75 24.5 57 49 42.75 49 14.25 24.5 0"/>
      <g fill="#FFB51B" transform="translate(8 14)">
        <path d="M19.142,2.19 C18.6342925,3.02144315 18.4824037,4.02217384 18.7205402,4.96681961 C18.9586767,5.91146537 19.5668159,6.72060001 20.408,7.212 C22.167,8.255 24.448,7.696 25.508,5.965 C26.0155394,5.13331225 26.1671219,4.13239857 25.928602,3.18772454 C25.6900822,2.2430505 25.08152,1.43406503 24.24,0.943 C22.482,-0.099 20.2,0.46 19.142,2.191 L19.142,2.19 Z M14.324,25.76 L6.596,21.177 C6.68010918,20.1734417 6.923841,19.1897374 7.318,18.263 L16.601,23.767 C15.9509165,24.5460628 15.1825636,25.2182451 14.324,25.759 L14.324,25.76 Z M18.671,19.285 C18.4755542,20.2900176 18.1364073,21.2616549 17.664,22.17 L8.254,16.59 C8.86,15.726 9.587,14.99 10.37,14.363 L18.671,19.285 Z M12.124,13.175 C14.777,11.646 17.489,11.123 18.019,11.032 L18.051,10.979 L18.066,11.024 L18.113,11.016 L18.081,11.068 C18.247,11.572 19.047,14.178 18.917,17.202 L12.124,13.175 Z M12.294,26.784 C11.038,27.284 9.558,27.659 7.814,27.867 L7.784,27.917 L7.767,27.873 L7.721,27.879 L7.751,27.83 C7.121,26.214 6.766,24.75 6.626,23.423 L12.294,26.784 Z"/>
        <path d="M4.734,14.133 C0.548,11.651 -1.133,6.81 0.988,3.34 C3.108,-0.13 8.24,-0.933 12.426,1.55 C12.426,1.55 14.959,2.956 16.123,5.092 C17.207,6.874 18.133,10.929 18.133,10.929 C18.057,10.884 15.03,7.856 12.963,5.564 C11.943,4.433 10.673,3.746 10.635,3.726 C8.092,2.416 5.11,2.964 3.845,5.034 C2.522,7.198 3.57,10.218 6.182,11.766 L4.734,14.133 Z"/>
        <path d="M4.76,14.14 L4.754,14.137 C4.754,14.137 2.168,12.864 0.69,9.77 C-1.094,4.98 1.285,2.184 3.543,0.952 C5.679,-0.214 7.879,0.126 7.879,0.126 C7.912,0.145 2.549,-0.187 2.042,5.128 C1.972,7.003 3.472,9.015 4.285,10.051 C5.195,11.211 6.475,11.921 6.513,11.941 C7.309,12.357 8.566,12.851 9.352,12.765 L9.455,12.754 L9.562,12.755 C10.722,12.775 13.208,12.288 16.049,11.483 L16.756,11.283 L16.791,11.303 C18.648,10.786 21.077,10.149 23.888,9.975 C26.224,9.778 28.888,11.307 29.218,11.502 L29.224,11.505 L28.498,12.689 L27.776,13.872 C27.035,13.436 25.523,12.78 24.626,12.877 L24.522,12.888 L24.416,12.886 C23.192,12.866 20.46,13.418 17.456,14.294 L16.745,14.502 L16.695,14.473 C14.775,14.993 11.919,15.671 10.09,15.667 C7.754,15.865 5.09,14.335 4.76,14.14"/>
        <path d="M21.528,24.091 L22.975,21.724 C25.586,23.272 28.786,22.771 30.109,20.607 C31.432,18.443 30.384,15.422 27.773,13.875 C27.773,13.875 27.054,13.442 25.899,13.057 C25.647,12.973 24.488,12.706 22.159,13.215 C19.366,13.605 15.542,14.355 12.607,14.151 C7.957,13.829 5.837,11.505 5.837,11.505 C5.837,11.505 6.94,12.296 8.437,12.704 C9.756,12.882 11.77,12.657 14.187,11.979 C17.309,10.989 23.111,9.834 24.732,9.973 C27.286,10.183 29.285,11.546 29.304,11.558 C33.428,14.054 35.072,18.855 32.966,22.301 C30.846,25.771 25.714,26.573 21.528,24.091"/>
        <path d="M21.529,24.082 C21.4464748,24.0334159 21.364796,23.9834085 21.284,23.932 C20.531,23.45 18.457,22 17.664,20.158 C16.725,18.423 15.349,12.628 15.349,12.628 C14.741,9.78 14.015,7.388 13.454,6.387 L13.404,6.295 L13.364,6.2 C13.015,5.333 11.629,4.298 11.006,3.929 L11.001,3.926 L12.444,1.556 L12.449,1.559 C12.779,1.754 15.398,3.359 16.314,5.484 C17.174,7.074 17.902,9.877 18.334,11.793 L18.529,12.538 C19.149,15.562 19.932,18.199 20.523,19.255 L20.575,19.347 L20.613,19.442 C20.963,20.309 22.349,21.344 22.971,21.712 L22.977,21.716 C22.977,21.716 26.523,23.629 29.171,22.903 C35.081,20.5 33.258,16.013 33.258,16.013 C33.257,16.013 34.23,17.985 33.756,20.283 C33.268,22.65 31.562,25.533 26.291,25.59 C23.784,25.581 21.529,24.083 21.529,24.082"/>
        <path d="M10.635,3.726 C10.555,3.686 10.475,3.646 10.393,3.608 L11.847,1.23 C12.042,1.33 12.235,1.436 12.427,1.55 C12.427,1.55 14.974,2.932 16.138,5.067 C17.461,7.649 18.133,10.928 18.133,10.928 C18.528,12.348 19.301,16.647 20.22,18.618 C21.16,21.273 24.523,22.39 24.523,22.39 C24.493,22.372 20.82,21.918 17.783,16.552 C15.299,12.337 14.21,6.946 12.963,5.564 C11.943,4.433 10.673,3.746 10.635,3.726"/>
      </g>
    </g>
  </g>
</svg>
