<svg xmlns="http://www.w3.org/2000/svg" width="20" height="20" viewBox="0 0 20 20">
    <g fill="#0FF" fill-rule="evenodd">
        <path d="M1.167.666c-.276 0-.5.227-.5.5v17.667c0 .273.224.5.5.5h17.666c.276 0 .5-.227.5-.5V1.166c0-.273-.224-.5-.5-.5H1.167zM18.833 20H1.167A1.17 1.17 0 0 1 0 18.833V1.166C0 .526.523 0 1.167 0h17.666A1.17 1.17 0 0 1 20 1.166v17.667A1.17 1.17 0 0 1 18.833 20z"/>
        <path d="M2.667 16.333h2.666V7.667H2.667v8.666zm3 .667H2.333A.332.332 0 0 1 2 16.667V7.333C2 7.147 2.15 7 2.333 7h3.334C5.85 7 6 7.147 6 7.333v9.334c0 .186-.15.333-.333.333zM4 2.667a1.332 1.332 0 1 0 0 2.666c.735 0 1.333-.599 1.333-1.333 0-.74-.598-1.333-1.333-1.333zM4 6a2 2 0 1 1 0-4 2 2 0 0 1 0 4zM13.667 16.333h2.666v-5.5c0-1.653-1.346-3-3-3-2.107 0-3.113.788-3.124.794a.333.333 0 1 1-.543-.26v-.7h-2v8.666h2v-4.666c0-1.1.898-2 2-2 1.103 0 2 .9 2 2v4.666zm3 .667h-3.334a.332.332 0 0 1-.333-.333v-5c0-.734-.597-1.334-1.333-1.334s-1.334.6-1.334 1.334v5c0 .186-.149.333-.333.333H7.333A.332.332 0 0 1 7 16.667V7.333C7 7.147 7.15 7 7.333 7H10c.184 0 .333.147.333.333v.447c.556-.273 1.544-.613 3-.613A3.672 3.672 0 0 1 17 10.833v5.834c0 .186-.15.333-.333.333z"/>
    </g>
</svg>
