<?xml version="1.0" encoding="UTF-8"?>
<svg viewBox="0 0 65 100" version="1.1" xmlns="http://www.w3.org/2000/svg" xmlns:xlink="http://www.w3.org/1999/xlink">
    <defs>
        <polygon id="path-1" points="0 0 65 0 65 100 0 100"></polygon>
    </defs>
    <g id="Custom-Preset-2" stroke="none" stroke-width="1" fill="none" fill-rule="evenodd" transform="translate(-838.000000, -396.000000)">
        <g id="Page-1" transform="translate(838.000000, 396.000000)">
            <mask id="mask-2" fill="white">
                <use xlink:href="#path-1"></use>
            </mask>
            <g id="Clip-2"></g>
            <path d="M31.7200592,100 C29.0762772,100 26.7688474,99.1297552 24.7974741,97.3907685 C22.8252133,95.6520824 21.8398225,93.2193047 21.8398225,90.0924353 C21.8398225,87.3181729 22.7923768,84.9848947 24.6998521,83.0910977 C26.606144,81.1982024 28.9461145,80.2510033 31.7197633,80.2510033 C34.449926,80.2510033 36.7461145,81.1982024 38.6098077,83.0910977 C40.4723177,84.9848947 41.4047559,87.3181729 41.4047559,90.0924353 C41.4047559,93.1751161 40.429719,95.5970721 38.479645,97.3580028 C36.5295711,99.1189335 34.276573,100 31.7200592,100 M0,27.6088558 C0,23.4259691 1.32144726,19.1874709 3.96493344,14.894263 C6.60753214,10.6010551 10.4650814,7.04552628 15.5349186,4.22707529 C20.6050518,1.4095261 26.5200592,0 33.2799408,0 C39.5626579,0 45.1099556,1.17866322 49.9200592,3.53358484 C54.7301627,5.88970887 58.4451246,9.09323193 61.0676072,13.1438534 C63.6889066,17.1956773 65,21.5983046 65,26.3538394 C65,30.0969444 64.2524519,33.3780229 62.7573558,36.1952715 C61.2622596,39.0137225 59.4849471,41.4465002 57.4271931,43.4936047 C55.3685516,45.5413103 51.6745932,48.9871192 46.3447264,53.8307306 C44.8712254,55.1960681 43.689703,56.3963747 42.8022301,57.4307487 C41.9135738,58.4657238 41.2524064,59.4123217 40.8196154,60.2705424 C40.385937,61.1293644 40.0495847,61.9878857 39.8120378,62.8467076 C39.5733075,63.7049284 39.2159518,65.213954 38.7396746,67.371079 C37.9160997,71.9510619 35.337399,74.2404521 31.0047559,74.2404521 C28.7511662,74.2404521 26.8549323,73.492252 25.3172375,71.9946493 C23.7786551,70.4979484 23.0098077,68.2740895 23.0098077,65.323674 C23.0098077,61.6247576 23.5724656,58.4212346 24.6998521,55.7134054 C25.8263511,53.004975 27.3211514,50.6272076 29.1848447,48.5801031 C31.0473546,46.5323975 33.5612698,44.0999203 36.7248151,41.2814693 C39.4975765,38.8159259 41.502378,36.9551952 42.7374445,35.7001789 C43.9725111,34.4451626 45.0123336,33.0479612 45.8575037,31.5058693 C46.702378,29.9649798 47.1251109,28.2921257 47.1251109,26.4861046 C47.1251109,22.9636421 45.8353169,19.9915831 43.2575037,17.5693265 C40.678803,15.1482723 37.3525543,13.9365428 33.2799408,13.9365428 C28.512436,13.9365428 25.0024804,15.1584928 22.7497781,17.6023928 C20.4961884,20.0462928 18.5898965,23.6460103 17.029719,28.4015451 C15.556218,33.3780229 12.7609739,35.8652097 8.64457845,35.8652097 C6.21704403,35.8652097 4.16964387,34.9961673 2.50208215,33.2562788 C0.833928775,31.5169916 0,29.6346174 0,27.6088558" id="Fill-1" fill="#FFFFFF" mask="url(#mask-2)"></path>
        </g>
    </g>
</svg>