<svg xmlns="http://www.w3.org/2000/svg" width="24" height="12" viewBox="0 0 24 12">
    <g fill="#0FF" fill-rule="evenodd">
        <path d="M19.018 11.852a.437.437 0 0 0 .327-.153l4.565-5.526a.389.389 0 0 0 0-.498L19.345.15a.435.435 0 0 0-.587-.065.398.398 0 0 0-.067.57l4.357 5.269-4.357 5.27a.399.399 0 0 0 .067.57.45.45 0 0 0 .26.088"/>
        <path d="M1.003 5.926h22.594c.222 0 .403-.13.403-.296 0-.166-.18-.297-.403-.297H1.003c-.222 0-.403.131-.403.297 0 .166.18.296.403.296"/>
    </g>
</svg>
