<?xml version="1.0" encoding="UTF-8"?>
<svg width="1440px" height="2000px" viewBox="0 0 1440 2000" version="1.1" xmlns="http://www.w3.org/2000/svg" xmlns:xlink="http://www.w3.org/1999/xlink">
    <!-- Generator: Sketch 47 (45396) - http://www.bohemiancoding.com/sketch -->
    <title>Polygons</title>
    <desc>Created with Sketch.</desc>
    <defs>
        <linearGradient x1="-17.1573629%" y1="-57.0122622%" x2="78.5128293%" y2="87.9505761%" id="linearGradient-1">
            <stop stop-color="#8A0C58" offset="0%"></stop>
            <stop stop-color="#BE0356" offset="30.0322864%"></stop>
            <stop stop-color="#FE5433" offset="100%"></stop>
        </linearGradient>
        <linearGradient x1="50%" y1="0%" x2="50%" y2="100%" id="linearGradient-2">
            <stop stop-color="#00FFFF" offset="0%"></stop>
            <stop stop-color="#00FFFF" offset="100%"></stop>
        </linearGradient>
        <linearGradient x1="0%" y1="24.8645174%" x2="78.5128293%" y2="87.9505761%" id="linearGradient-3">
            <stop stop-color="#8A0C58" offset="0%"></stop>
            <stop stop-color="#BE0356" offset="30.0322864%"></stop>
            <stop stop-color="#FE5433" offset="100%"></stop>
        </linearGradient>
        <linearGradient x1="6.66389635%" y1="6.66389635%" x2="93.474853%" y2="93.474853%" id="linearGradient-4">
            <stop stop-color="#85FF00" offset="0%"></stop>
            <stop stop-color="#32E364" offset="100%"></stop>
        </linearGradient>
        <linearGradient x1="50%" y1="7.44784718%" x2="100%" y2="100%" id="linearGradient-5">
            <stop stop-color="#39A0ED" offset="0%"></stop>
            <stop stop-color="#6BC0FF" offset="100%"></stop>
        </linearGradient>
        <linearGradient x1="50%" y1="13.9885287%" x2="100%" y2="100%" id="linearGradient-6">
            <stop stop-color="#FF8900" offset="0%"></stop>
            <stop stop-color="#F00356" offset="100%"></stop>
        </linearGradient>
        <linearGradient x1="19.8476828%" y1="17.8977692%" x2="50%" y2="100%" id="linearGradient-7">
            <stop stop-color="#009247" offset="0%"></stop>
            <stop stop-color="#8AC440" offset="100%"></stop>
        </linearGradient>
    </defs>
    <g stroke="none" stroke-width="1" fill="none" fill-rule="evenodd" transform="translate(158 0)">
                    <path d="M211.469952,907.515279 L146.920673,944.845805 L146.920673,1019.50978 L211.469952,1056.84031 L276.019231,1019.50978 L276.019231,944.845805 L211.469952,907.515279 Z" id="Polygon-Copy-11" stroke="#00FFFF" stroke-width="2" opacity="1.49011614e-09"></path>
                    <path d="M209.469952,906.167192 L144.920673,943.497718 L144.920673,1018.1617 L209.469952,1055.49222 L274.019231,1018.1617 L274.019231,943.497718 L209.469952,906.167192 Z" id="Polygon-Copy-43" stroke="#00FFFF" stroke-width="2" opacity="0"></path>
                    <path d="M717.638221,776.403501 L653.088942,813.734027 L653.088942,888.398006 L717.638221,925.728532 L782.1875,888.398006 L782.1875,813.734027 L717.638221,776.403501 Z" id="Polygon-Copy-15" stroke="url(#linearGradient-1)" stroke-width="2"></path>
                    <path d="M642.638221,648.403501 L578.088942,685.734027 L578.088942,760.398006 L642.638221,797.728532 L707.1875,760.398006 L707.1875,685.734027 L642.638221,648.403501 Z" id="Polygon-Copy-41" stroke="url(#linearGradient-1)" stroke-width="2"></path>
                    <path d="M571.222356,520.713878 L508.673077,556.887752 L508.673077,629.244281 L571.222356,665.418155 L633.771635,629.244281 L633.771635,556.887752 L571.222356,520.713878 Z" id="Polygon-Copy-5" stroke="url(#linearGradient-1)" stroke-width="6"></path>
                    <path d="M787.549279,904.155189 L723,941.485715 L723,1016.14969 L787.549279,1053.48022 L852.098558,1016.14969 L852.098558,941.485715 L787.549279,904.155189 Z" id="Polygon-Copy-53" stroke="url(#linearGradient-1)" stroke-width="2"></path>
                    <path d="M861.352163,1035.50328 L796.802885,1072.8338 L796.802885,1147.49778 L861.352163,1184.82831 L925.901442,1147.49778 L925.901442,1072.8338 L861.352163,1035.50328 Z" id="Polygon-Copy-54" stroke="url(#linearGradient-1)" stroke-width="2"></path>
                    <path d="M137.549279,515.155189 L73,552.485715 L73,627.149694 L137.549279,664.48022 L202.098558,627.149694 L202.098558,552.485715 L137.549279,515.155189 Z" id="Polygon-Copy-12" stroke="url(#linearGradient-2)" stroke-width="2"></path>
                    <path d="M137.549279,256.465566 L75,292.63944 L75,364.995969 L137.549279,401.169843 L200.098558,364.995969 L200.098558,292.63944 L137.549279,256.465566 Z" id="Polygon-Copy-46" stroke="#00FFFF" stroke-width="6"></path>
                    <path d="M210.549279,385.155189 L146,422.485715 L146,497.149694 L210.549279,534.48022 L275.098558,497.149694 L275.098558,422.485715 L210.549279,385.155189 Z" id="Polygon-Copy-40" stroke="url(#linearGradient-2)" stroke-width="2"></path>
                    <path d="M209.469952,649.403501 L144.920673,686.734027 L144.920673,761.398006 L209.469952,798.728532 L274.019231,761.398006 L274.019231,686.734027 L209.469952,649.403501 Z" id="Polygon-Copy-7" stroke="#00FFFF" stroke-width="2" opacity="0.1"></path>
                    <path d="M495.222356,650.55869 L431.673077,687.31089 L431.673077,760.821143 L495.222356,797.573344 L558.771635,760.821143 L558.771635,687.31089 L495.222356,650.55869 Z" id="Polygon-Copy-4" stroke="url(#linearGradient-3)" stroke-width="4" opacity="0.1"></path>
                    <path d="M137.469952,262.515279 L72.9206731,299.845805 L72.9206731,374.509784 L137.469952,411.84031 L202.019231,374.509784 L202.019231,299.845805 L137.469952,262.515279 Z" id="Polygon-Copy-11" stroke="#00FFFF" stroke-width="2" opacity="1.49011614e-09"></path>
                    <polygon id="Polygon-Copy-10" fill="url(#linearGradient-4)" opacity="0.1" points="1071.54928 133 1137.09856 170.908852 1137.09856 246.726557 1071.54928 284.635409 1006 246.726557 1006 170.908852"></polygon>
                    <path d="M424.638221,262.515279 L360.088942,299.845805 L360.088942,374.509784 L424.638221,411.84031 L489.1875,374.509784 L489.1875,299.845805 L424.638221,262.515279 Z" id="Polygon-Copy-9" stroke="#00FFFF" stroke-width="2" opacity="0.2"></path>
                    <polygon id="Polygon-Copy-18" fill="url(#linearGradient-5)" opacity="0.1" points="859.549279 262 925.098558 299.908852 925.098558 375.726557 859.549279 413.635409 794 375.726557 794 299.908852"></polygon>
                    <polygon id="Polygon-Copy-135" fill="url(#linearGradient-5)" opacity="0.1" points="498.549279 390 564.098558 427.908852 564.098558 503.726557 498.549279 541.635409 433 503.726557 433 427.908852"></polygon>
                    <polygon id="Polygon-Copy-17" fill="url(#linearGradient-3)" opacity="0.2" points="713.549279 517 779.098558 554.908852 779.098558 630.726557 713.549279 668.635409 648 630.726557 648 554.908852"></polygon>
                    <polygon id="Polygon-Copy-151" fill="url(#linearGradient-3)" opacity="0.2" points="931.549279 393 997.098558 430.908852 997.098558 506.726557 931.549279 544.635409 866 506.726557 866 430.908852"></polygon>
                    <polygon id="Polygon-Copy-105" fill="url(#linearGradient-3)" opacity="0.2" points="569.549279 776 635.098558 813.908852 635.098558 889.726557 569.549279 927.635409 504 889.726557 504 813.908852"></polygon>
                    <path d="M1143.45072,262.515279 L1078.90144,299.845805 L1078.90144,374.509784 L1143.45072,411.84031 L1208,374.509784 L1208,299.845805 L1143.45072,262.515279 Z" id="Polygon-Copy-16" stroke="#00FFFF" stroke-width="2" opacity="0.2"></path>
                    <path d="M783.450721,132.515279 L718.901442,169.845805 L718.901442,244.509784 L783.450721,281.84031 L848,244.509784 L848,169.845805 L783.450721,132.515279 Z" id="Polygon-Copy-100" stroke="#00FFFF" stroke-width="2" opacity="0.2"></path>
                    <path d="M137.469952,1.16719171 L72.9206731,38.4977179 L72.9206731,113.161697 L137.469952,150.492223 L202.019231,113.161697 L202.019231,38.4977179 L137.469952,1.16719171 Z" id="Polygon-Copy-43" stroke="#00FFFF" stroke-width="2" opacity="0"></path>
                    <path d="M65.9939904,647.403501 L1.44471154,684.734027 L1.44471154,759.398006 L65.9939904,796.728532 L130.543269,759.398006 L130.543269,684.734027 L65.9939904,647.403501 Z" id="Polygon-Copy-57" stroke="url(#linearGradient-6)" stroke-width="2" opacity="0.3"></path>
                    <path d="M1073.53005,646.15969 L1008.98077,683.490216 L1008.98077,758.154195 L1073.53005,795.484721 L1138.07933,758.154195 L1138.07933,683.490216 L1073.53005,646.15969 Z" id="Polygon-Copy-11" stroke="url(#linearGradient-6)" stroke-width="2" opacity="0.1" transform="translate(1073.530048, 720.822206) rotate(-180) translate(-1073.530048, -720.822206) "></path>
                    <polygon id="Polygon-Copy-25" transform="translate(354.371394, 723.834209) rotate(-180) translate(-354.371394, -723.834209) " points="354.371394 648.016504 419.920673 685.925356 419.920673 761.743061 354.371394 799.651913 288.822115 761.743061 288.822115 685.925356"></polygon>
                    <polygon id="Polygon-Copy-49" transform="translate(285.371394, 845.834209) rotate(-180) translate(-285.371394, -845.834209) " points="285.371394 770.016504 350.920673 807.925356 350.920673 883.743061 285.371394 921.651913 219.822115 883.743061 219.822115 807.925356"></polygon>
                    <polygon id="Polygon-Copy-18" fill="url(#linearGradient-5)" opacity="0.3" transform="translate(353.825721, 720.822206) rotate(-180) translate(-353.825721, -720.822206) " points="353.825721 645.004501 419.375 682.913353 419.375 758.731058 353.825721 796.63991 288.276442 758.731058 288.276442 682.913353"></polygon>
                    <path d="M211.133413,646.15969 L146.584135,683.490216 L146.584135,758.154195 L211.133413,795.484721 L275.682692,758.154195 L275.682692,683.490216 L211.133413,646.15969 Z" id="Polygon-Copy-17" stroke="#00FFFF" stroke-width="2" opacity="0.3" transform="translate(211.133413, 720.822206) rotate(-180) translate(-211.133413, -720.822206) "></path>
                    <path d="M283.371394,778.51978 L218.822115,815.850306 L218.822115,890.514285 L283.371394,927.844811 L347.920673,890.514285 L347.920673,815.850306 L283.371394,778.51978 Z" id="Polygon-Copy-37" stroke="url(#linearGradient-7)" stroke-width="2" transform="translate(283.371394, 853.182296) rotate(-180) translate(-283.371394, -853.182296) "></path>
                    <path d="M139.78726,780.830157 L77.2379808,817.004031 L77.2379808,889.36056 L139.78726,925.534434 L202.336538,889.36056 L202.336538,817.004031 L139.78726,780.830157 Z" id="Polygon-Copy-36" stroke="url(#linearGradient-7)" stroke-width="6" transform="translate(139.787260, 853.182296) rotate(-180) translate(-139.787260, -853.182296) "></path>
                    <path d="M286.371394,1032.51978 L221.822115,1069.85031 L221.822115,1144.51429 L286.371394,1181.84481 L350.920673,1144.51429 L350.920673,1069.85031 L286.371394,1032.51978 Z" id="Polygon-Copy-48" stroke="url(#linearGradient-7)" stroke-width="2" transform="translate(286.371394, 1107.182296) rotate(-180) translate(-286.371394, -1107.182296) "></path>
                    <path d="M212.133413,906.507777 L147.584135,943.838303 L147.584135,1018.50228 L212.133413,1055.83281 L276.682692,1018.50228 L276.682692,943.838303 L212.133413,906.507777 Z" id="Polygon-Copy-42" stroke="url(#linearGradient-7)" stroke-width="2" transform="translate(212.133413, 981.170293) rotate(-180) translate(-212.133413, -981.170293) "></path>
                    <polygon id="Polygon-Copy-32" transform="translate(138.549279, 853.170293) rotate(-180) translate(-138.549279, -853.170293) " points="138.549279 777.352588 204.098558 815.26144 204.098558 891.079145 138.549279 928.987997 73 891.079145 73 815.26144"></polygon>
                    <polygon id="Polygon-Copy-15" fill="url(#linearGradient-5)" opacity="0.1" transform="translate(570.361779, 1108.933983) rotate(-180) translate(-570.361779, -1108.933983) " points="570.361779 1033.11628 635.911058 1071.02513 635.911058 1146.84284 570.361779 1184.75169 504.8125 1146.84284 504.8125 1071.02513"></polygon>
                    <polygon id="Polygon-Copy-113" fill="url(#linearGradient-5)" opacity="0.1" transform="translate(500.361779, 1239.933983) rotate(-180) translate(-500.361779, -1239.933983) " points="500.361779 1164.11628 565.911058 1202.02513 565.911058 1277.84284 500.361779 1315.75169 434.8125 1277.84284 434.8125 1202.02513"></polygon>
                    <polygon id="Polygon-Copy-119" fill="url(#linearGradient-5)" opacity="0.1" transform="translate(212.450721, 1240.182296) rotate(-180) translate(-212.450721, -1240.182296) " points="212.450721 1164.36459 278 1202.27344 278 1278.09115 212.450721 1316 146.901442 1278.09115 146.901442 1202.27344"></polygon>
                    <polygon id="Polygon-Copy-150" fill="url(#linearGradient-5)" opacity="0.1" transform="translate(931.450721, 1503.182296) rotate(-180) translate(-931.450721, -1503.182296) " points="931.450721 1427.36459 997 1465.27344 997 1541.09115 931.450721 1579 865.901442 1541.09115 865.901442 1465.27344"></polygon>
                    <path d="M716.777644,1034.27147 L652.228365,1071.60199 L652.228365,1146.26597 L716.777644,1183.5965 L781.326923,1146.26597 L781.326923,1071.60199 L716.777644,1034.27147 Z" id="Polygon-Copy-4" stroke="#00FFFF" stroke-width="2" opacity="0.1" transform="translate(716.777644, 1108.933983) rotate(-180) translate(-716.777644, -1108.933983) "></path>
                    <path d="M642.777644,903.271468 L578.228365,940.601994 L578.228365,1015.26597 L642.777644,1052.5965 L707.326923,1015.26597 L707.326923,940.601994 L642.777644,903.271468 Z" id="Polygon-Copy-107" stroke="#00FFFF" stroke-width="2" opacity="0.1" transform="translate(642.777644, 977.933983) rotate(-180) translate(-642.777644, -977.933983) "></path>
                    <path d="M642.777644,393.271468 L578.228365,430.601994 L578.228365,505.265973 L642.777644,542.596499 L707.326923,505.265973 L707.326923,430.601994 L642.777644,393.271468 Z" id="Polygon-Copy-123" stroke="#00FFFF" stroke-width="2" opacity="0.1" transform="translate(642.777644, 467.933983) rotate(-180) translate(-642.777644, -467.933983) "></path>
                    <path d="M714.777644,263.271468 L650.228365,300.601994 L650.228365,375.265973 L714.777644,412.596499 L779.326923,375.265973 L779.326923,300.601994 L714.777644,263.271468 Z" id="Polygon-Copy-148" stroke="#00FFFF" stroke-width="2" opacity="0.1" transform="translate(714.777644, 337.933983) rotate(-180) translate(-714.777644, -337.933983) "></path>
                    <path d="M787.777644,393.271468 L723.228365,430.601994 L723.228365,505.265973 L787.777644,542.596499 L852.326923,505.265973 L852.326923,430.601994 L787.777644,393.271468 Z" id="Polygon-Copy-134" stroke="#00FFFF" stroke-width="2" opacity="0.1" transform="translate(787.777644, 467.933983) rotate(-180) translate(-787.777644, -467.933983) "></path>
                    <path d="M859.777644,775.271468 L795.228365,812.601994 L795.228365,887.265973 L859.777644,924.596499 L924.326923,887.265973 L924.326923,812.601994 L859.777644,775.271468 Z" id="Polygon-Copy-108" stroke="#00FFFF" stroke-width="2" opacity="0.1" transform="translate(859.777644, 849.933983) rotate(-180) translate(-859.777644, -849.933983) "></path>
                    <path d="M427.371394,1300.93163 L362.822115,1338.26216 L362.822115,1412.92614 L427.371394,1450.25666 L491.920673,1412.92614 L491.920673,1338.26216 L427.371394,1300.93163 Z" id="Polygon-Copy-29" stroke="url(#linearGradient-6)" stroke-width="2" transform="translate(427.371394, 1375.594149) rotate(-180) translate(-427.371394, -1375.594149) "></path>
                    <path d="M285.78726,1303.24201 L223.237981,1339.41588 L223.237981,1411.77241 L285.78726,1447.94629 L348.336538,1411.77241 L348.336538,1339.41588 L285.78726,1303.24201 Z" id="Polygon-Copy-28" stroke="url(#linearGradient-6)" stroke-width="6" transform="translate(285.787260, 1375.594149) rotate(-180) translate(-285.787260, -1375.594149) "></path>
                    <polygon id="Polygon-Copy-58" fill="url(#linearGradient-4)" opacity="0.1" transform="translate(283.450721, 592.182296) rotate(-180) translate(-283.450721, -592.182296) " points="283.450721 516.364591 349 554.273443 349 630.091148 283.450721 668 217.901442 630.091148 217.901442 554.273443"></polygon>
                    <polygon id="Polygon-Copy-26" fill="url(#linearGradient-6)" opacity="0.200000018" transform="translate(714.450721, 1377.182296) rotate(-180) translate(-714.450721, -1377.182296) " points="714.450721 1301.36459 780 1339.27344 780 1415.09115 714.450721 1453 648.901442 1415.09115 648.901442 1339.27344"></polygon>
                    <path d="M283.371394,1561.17169 L218.822115,1598.50222 L218.822115,1673.1662 L283.371394,1710.49672 L347.920673,1673.1662 L347.920673,1598.50222 L283.371394,1561.17169 Z" id="Polygon-Copy-25" stroke="url(#linearGradient-6)" stroke-width="2" transform="translate(283.371394, 1635.834209) rotate(-180) translate(-283.371394, -1635.834209) "></path>
                    <path d="M356.450721,1166.51978 L291.901442,1203.85031 L291.901442,1278.51429 L356.450721,1315.84481 L421,1278.51429 L421,1203.85031 L356.450721,1166.51978 Z" id="Polygon-Copy-22" stroke="url(#linearGradient-7)" stroke-width="2" transform="translate(356.450721, 1241.182296) rotate(-180) translate(-356.450721, -1241.182296) "></path>
                    <polygon id="Polygon-Copy-20" fill="url(#linearGradient-6)" opacity="0.200000018" transform="translate(141.549279, 1108.933983) rotate(-180) translate(-141.549279, -1108.933983) " points="141.549279 1033.11628 207.098558 1071.02513 207.098558 1146.84284 141.549279 1184.75169 76 1146.84284 76 1071.02513"></polygon>
                    <path d="M142.450721,1810.51978 L77.9014423,1847.85031 L77.9014423,1922.51429 L142.450721,1959.84481 L207,1922.51429 L207,1847.85031 L142.450721,1810.51978 Z" id="Polygon-Copy-19" stroke="url(#linearGradient-6)" stroke-width="2" opacity="0.1" transform="translate(142.450721, 1885.182296) rotate(-180) translate(-142.450721, -1885.182296) "></path>
                    <path d="M357.133413,1431.15969 L292.584135,1468.49022 L292.584135,1543.1542 L357.133413,1580.48472 L421.682692,1543.1542 L421.682692,1468.49022 L357.133413,1431.15969 Z" id="Polygon-Copy-17" stroke="url(#linearGradient-6)" stroke-width="2" transform="translate(357.133413, 1505.822206) rotate(-180) translate(-357.133413, -1505.822206) "></path>
                    <path d="M213.549279,1431.15969 L149,1468.49022 L149,1543.1542 L213.549279,1580.48472 L278.098558,1543.1542 L278.098558,1468.49022 L213.549279,1431.15969 Z" id="Polygon-Copy-16" stroke="#00FFFF" stroke-width="2" opacity="0.200000018" transform="translate(213.549279, 1505.822206) rotate(-180) translate(-213.549279, -1505.822206) "></path>
                    <path d="M1148.45072,1822.51978 L1083.90144,1859.85031 L1083.90144,1934.51429 L1148.45072,1971.84481 L1213,1934.51429 L1213,1859.85031 L1148.45072,1822.51978 Z" id="Polygon-Copy-43" stroke="#00FFFF" stroke-width="2" opacity="0" transform="translate(1148.450721, 1897.182296) rotate(-180) translate(-1148.450721, -1897.182296) "></path>
                    <path d="M210.133413,1692.50778 L145.584135,1729.8383 L145.584135,1804.50228 L210.133413,1841.83281 L274.682692,1804.50228 L274.682692,1729.8383 L210.133413,1692.50778 Z" id="Polygon-Copy-33" stroke="url(#linearGradient-6)" stroke-width="2" transform="translate(210.133413, 1767.170293) rotate(-180) translate(-210.133413, -1767.170293) "></path>
                    <path d="M644.450721,1683.51978 L579.901442,1720.85031 L579.901442,1795.51429 L644.450721,1832.84481 L709,1795.51429 L709,1720.85031 L644.450721,1683.51978 Z" id="Polygon-Copy-15" stroke="url(#linearGradient-5)" stroke-width="2" opacity="0.2" transform="translate(644.450721, 1758.182296) rotate(-180) translate(-644.450721, -1758.182296) "></path>
                    <path d="M786.450721,1688.51978 L721.901442,1725.85031 L721.901442,1800.51429 L786.450721,1837.84481 L851,1800.51429 L851,1725.85031 L786.450721,1688.51978 Z" id="Polygon-Copy-29" stroke="url(#linearGradient-5)" stroke-width="2" transform="translate(786.450721, 1763.182296) rotate(-180) translate(-786.450721, -1763.182296) "></path>
                    <path d="M860.450721,1559.83016 L797.901442,1596.00403 L797.901442,1668.36056 L860.450721,1704.53443 L923,1668.36056 L923,1596.00403 L860.450721,1559.83016 Z" id="Polygon-Copy-28" stroke="url(#linearGradient-5)" stroke-width="6" opacity="0.1" transform="translate(860.450721, 1632.182296) rotate(-180) translate(-860.450721, -1632.182296) "></path>
                    <path d="M1004.45072,1821.83016 L941.901442,1858.00403 L941.901442,1930.36056 L1004.45072,1966.53443 L1067,1930.36056 L1067,1858.00403 L1004.45072,1821.83016 Z" id="Polygon-Copy-26" stroke="url(#linearGradient-6)" stroke-width="6" opacity="0.200000018" transform="translate(1004.450721, 1894.182296) rotate(-180) translate(-1004.450721, -1894.182296) "></path>
                    <path d="M716.450721,1556.51978 L651.901442,1593.85031 L651.901442,1668.51429 L716.450721,1705.84481 L781,1668.51429 L781,1593.85031 L716.450721,1556.51978 Z" id="Polygon-Copy-22" stroke="url(#linearGradient-5)" stroke-width="2" transform="translate(716.450721, 1631.182296) rotate(-180) translate(-716.450721, -1631.182296) "></path>
                    <path d="M788.450721,1428.83016 L725.901442,1465.00403 L725.901442,1537.36056 L788.450721,1573.53443 L851,1537.36056 L851,1465.00403 L788.450721,1428.83016 Z" id="Polygon-Copy-21" stroke="url(#linearGradient-5)" stroke-width="6" transform="translate(788.450721, 1501.182296) rotate(-180) translate(-788.450721, -1501.182296) "></path>
                    <polygon id="Polygon-Copy-20" fill="url(#linearGradient-5)" opacity="0.1" transform="translate(357.450721, 1758.182296) rotate(-180) translate(-357.450721, -1758.182296) " points="357.450721 1682.36459 423 1720.27344 423 1796.09115 357.450721 1834 291.901442 1796.09115 291.901442 1720.27344"></polygon>
                    <polygon id="Polygon-Copy-19" fill="url(#linearGradient-5)" opacity="0.1" transform="translate(1077.450721, 1766.182296) rotate(-180) translate(-1077.450721, -1766.182296) " points="1077.45072 1690.36459 1143 1728.27344 1143 1804.09115 1077.45072 1842 1011.90144 1804.09115 1011.90144 1728.27344"></polygon>
                    <path d="M932.450721,1691.51978 L867.901442,1728.85031 L867.901442,1803.51429 L932.450721,1840.84481 L997,1803.51429 L997,1728.85031 L932.450721,1691.51978 Z" id="Polygon-Copy-18" stroke="url(#linearGradient-5)" stroke-width="2" opacity="0.1" transform="translate(932.450721, 1766.182296) rotate(-180) translate(-932.450721, -1766.182296) "></path>
                    <path d="M714.450721,1817.51978 L649.901442,1854.85031 L649.901442,1929.51429 L714.450721,1966.84481 L779,1929.51429 L779,1854.85031 L714.450721,1817.51978 Z" id="Polygon-Copy-17" stroke="url(#linearGradient-5)" stroke-width="2" transform="translate(714.450721, 1892.182296) rotate(-180) translate(-714.450721, -1892.182296) "></path>
                    <polygon id="Polygon-Copy-50" fill="url(#linearGradient-6)" opacity="0.200000018" transform="translate(429.450721, 1633.182296) rotate(-180) translate(-429.450721, -1633.182296) " points="429.450721 1557.36459 495 1595.27344 495 1671.09115 429.450721 1709 363.901442 1671.09115 363.901442 1595.27344"></polygon>
                    <path d="M573.450721,1559.67497 L509.901442,1596.42717 L509.901442,1669.93742 L573.450721,1706.68962 L637,1669.93742 L637,1596.42717 L573.450721,1559.67497 Z" id="Polygon-Copy-30" stroke="url(#linearGradient-6)" stroke-width="4" opacity="0.200000018" transform="translate(573.450721, 1633.182296) rotate(-180) translate(-573.450721, -1633.182296) "></path>
                    <path d="M643.450721,1428.67497 L579.901442,1465.42717 L579.901442,1538.93742 L643.450721,1575.68962 L707,1538.93742 L707,1465.42717 L643.450721,1428.67497 Z" id="Polygon-Copy-112" stroke="url(#linearGradient-6)" stroke-width="4" opacity="0.200000018" transform="translate(643.450721, 1502.182296) rotate(-180) translate(-643.450721, -1502.182296) "></path>
    </g>
</svg>