<svg width="42" height="31" viewBox="0 0 42 31" xmlns="http://www.w3.org/2000/svg"><title>“</title><path d="M25.925 18.93c0-5.442 1.316-9.703 3.948-12.783C32.504 3.068 36.2 1.045 40.963.078v5.586c-3.616 1.11-6.05 3.115-7.304 6.016-.716 1.54-1.002 3.025-.86 4.458h8.433v14.126H25.925V18.93zm-25.46 0c0-5.37 1.28-9.614 3.841-12.729C6.866 3.086 10.6 1.045 15.505.078v5.586C11.853 6.81 9.4 8.78 8.146 11.572a9.579 9.579 0 0 0-.805 4.566h8.432v14.126H.466V18.93z" fill="#FFF" fill-rule="evenodd"/></svg>