<svg id="Слой_1" data-name="Слой 1" xmlns="http://www.w3.org/2000/svg" xmlns:xlink="http://www.w3.org/1999/xlink" viewBox="0 0 250 250"><defs><style>.cls-1{fill:#ffb51b;}.cls-2{fill:#deb848;}.cls-3{fill:url(#Безымянный_градиент_121);}.cls-4{fill:url(#Безымянный_градиент_120);}.cls-5{fill:url(#Безымянный_градиент_120-2);}.cls-6{fill:url(#Безымянный_градиент_121-2);}.cls-7{fill:url(#Безымянный_градиент_120-3);}.cls-8{fill:#fff;}</style><linearGradient id="Безымянный_градиент_121" x1="80.09" y1="-321.49" x2="122.29" y2="-321.49" gradientTransform="matrix(0.91, 0.41, -0.41, 0.91, -75.12, 386.32)" gradientUnits="userSpaceOnUse"><stop offset="0" stop-color="#f2e94d"/><stop offset="1" stop-color="#d69046"/></linearGradient><linearGradient id="Безымянный_градиент_120" x1="57.93" y1="-321.48" x2="122.3" y2="-321.48" gradientTransform="matrix(0.91, 0.41, -0.41, 0.91, -75.12, 386.32)" gradientUnits="userSpaceOnUse"><stop offset="0" stop-color="#d69046"/><stop offset="1" stop-color="#f2e94d"/></linearGradient><linearGradient id="Безымянный_градиент_120-2" x1="37.92" y1="-321.49" x2="103.19" y2="-321.49" xlink:href="#Безымянный_градиент_120"/><linearGradient id="Безымянный_градиент_121-2" x1="37.78" y1="-321.47" x2="102.16" y2="-321.47" xlink:href="#Безымянный_градиент_121"/><linearGradient id="Безымянный_градиент_120-3" x1="120.51" y1="-326.1" x2="82.42" y2="-324.65" xlink:href="#Безымянный_градиент_120"/></defs><title>ikonki_otdelno</title><path class="cls-1" d="M128.26,216a82.23,82.23,0,1,1,82.23-82.23A82.32,82.32,0,0,1,128.26,216Zm0-159.15a76.92,76.92,0,1,0,76.92,76.92A77,77,0,0,0,128.26,56.84Z"/><path class="cls-2" d="M147,108.05A8.38,8.38,0,1,1,142.73,97,8.4,8.4,0,0,1,147,108.05Z"/><path class="cls-2" d="M108.73,147.78l18.6,8.35a22.17,22.17,0,0,0,4.58-5.13l-22.3-10.06A21.59,21.59,0,0,0,108.73,147.78Z"/><path class="cls-2" d="M115.36,131.23a27,27,0,0,0-4.18,5.61L133.82,147a23.9,23.9,0,0,0,1.44-6.84Z"/><path class="cls-2" d="M135.34,135.4a42.25,42.25,0,0,0-3.57-13.75l.08-.13h-.13a.08.08,0,0,0-.08-.08l-.08.13a42.67,42.67,0,0,0-12.66,6.5Z"/><path class="cls-2" d="M109.42,152.91a37.31,37.31,0,0,0,3.75,9.71l-.07.14h.07a.07.07,0,0,0,.08.07l.08-.13a40.19,40.19,0,0,0,9.79-3.7Z"/><path class="cls-3" d="M143,150.38c10.06,4.52,21.34,1.31,25.17-7.18s-1.3-19-11.36-23.6c0,0-5.88-2.87-11.42-2.26-4.71.35-13.62,3.91-13.62,3.91.22.08,9.79,1.7,16.76,2.6a20.45,20.45,0,0,1,6.44,1.92c5.75,3,8.54,9.23,6.28,14.29-2.39,5.27-9.44,7.32-15.66,4.44Z"/><path class="cls-4" d="M143,150.31h0a22.53,22.53,0,0,0,13.47,1.84c11.35-3,13.54-11,12.92-16.82a16.66,16.66,0,0,0-4-9.1c-.07-.08,7.45,9.5-1.91,17.37-3.43,2.61-9.16,2.4-12.19,2.26a21.21,21.21,0,0,1-6.43-1.64c-1.78-1-4.39-2.61-5.19-4.18l-.14-.21-.13-.21c-1.51-2.13-3.83-7.4-6-13.68l-.55-1.57-.08-.08a78.41,78.41,0,0,0-6.63-14.9c-2.66-4.58-9-7.53-9.71-7.87h0l-1.3,2.87-1.3,2.88c1.78.82,4.92,2.73,6,4.52l.14.21.13.21c1.65,2.26,4.1,8.06,6.28,14.77l.56,1.57.13.07c1.52,4.24,3.91,10.46,6.23,13.81C135.89,147,142.18,150,143,150.31Z"/><path class="cls-5" d="M102.64,132.26l2.6-5.8c-6.28-2.8-9.44-9.44-7-14.71s9.44-7.32,15.66-4.45a23.61,23.61,0,0,1,4,2.4c.48.34,2.47,2.18,4.52,7.1,2.87,5.67,6.36,13.76,10.54,19,6.57,8.2,13.67,9.1,13.67,9.1a20.24,20.24,0,0,1-5.61-3.28c-2-2.18-4.18-6.22-6-11.63-2.18-7.1-7.45-19.34-9.78-22.16a24.81,24.81,0,0,0-8.89-6.43c-10-4.39-21.21-1.17-25,7.24S92.58,127.67,102.64,132.26Z"/><path class="cls-6" d="M102.64,132.19c.13.07.34.13.61.26,1.84.75,7.24,2.74,11.76,1.79,4.45-.56,17.17-5.54,17.17-5.54,6.15-2.61,11.62-4.39,14.23-4.65h.21l.21-.08c2-.48,5.8.75,7.32,1.44h0l2.6-5.75h0c-.82-.35-7.18-3.14-12.37-2-4.1.48-10.33,2.8-14.5,4.52l-1.65.61c-6.49,2.8-12.45,4.79-15.25,5.06h-.28l-.21.08c-2,.48-5.81-.75-7.32-1.44h0S97,122.34,95,116.52c-3.09-14.1,7.72-16.63,7.72-16.63A16.56,16.56,0,0,0,94,104.55c-3.83,4-7,10.93-.4,20.78C96.89,130,102.64,132.19,102.64,132.19Z"/><path class="cls-7" d="M155,125.83c.21.07.34.21.55.26l2.61-5.8c-.4-.21-.88-.48-1.36-.69,0,0-5.88-2.95-11.42-2.32a59.65,59.65,0,0,0-13.62,4c-3.21,1.09-12.31,5.34-17.16,6.15-6.22,1.7-12.66-3.09-12.66-3.09s5.67,6.23,19.69,4.87c11.15-.88,22.7-6,26.87-5.4A22.24,22.24,0,0,1,155,125.83Z"/><path class="cls-8" d="M128.26,201a67.25,67.25,0,1,1,67.25-67.25A67.33,67.33,0,0,1,128.26,201Zm0-131.5a64.25,64.25,0,1,0,64.25,64.25A64.32,64.32,0,0,0,128.26,69.51Z"/></svg>