<svg id="Слой_1" data-name="Слой 1" xmlns="http://www.w3.org/2000/svg" xmlns:xlink="http://www.w3.org/1999/xlink" viewBox="0 0 250 250"><defs><style>.cls-1{fill:#fff;}.cls-2{fill:#deb848;}.cls-3{fill:url(#Безымянный_градиент_121);}.cls-4{fill:url(#Безымянный_градиент_120);}.cls-5{fill:url(#Безымянный_градиент_120-2);}.cls-6{fill:url(#Безымянный_градиент_121-2);}.cls-7{fill:url(#Безымянный_градиент_120-3);}</style><linearGradient id="Безымянный_градиент_121" x1="166.27" y1="-510.32" x2="208.54" y2="-510.32" gradientTransform="matrix(0.91, 0.41, -0.41, 0.91, -209.55, 473.28)" gradientUnits="userSpaceOnUse"><stop offset="0" stop-color="#f2e94d"/><stop offset="1" stop-color="#d69046"/></linearGradient><linearGradient id="Безымянный_градиент_120" x1="144.06" y1="-510.31" x2="208.56" y2="-510.31" gradientTransform="matrix(0.91, 0.41, -0.41, 0.91, -209.55, 473.28)" gradientUnits="userSpaceOnUse"><stop offset="0" stop-color="#d69046"/><stop offset="1" stop-color="#f2e94d"/></linearGradient><linearGradient id="Безымянный_градиент_120-2" x1="124.02" y1="-510.32" x2="189.41" y2="-510.32" xlink:href="#Безымянный_градиент_120"/><linearGradient id="Безымянный_градиент_121-2" x1="123.87" y1="-510.29" x2="188.38" y2="-510.29" xlink:href="#Безымянный_градиент_121"/><linearGradient id="Безымянный_градиент_120-3" x1="206.76" y1="-514.94" x2="168.6" y2="-513.48" xlink:href="#Безымянный_градиент_120"/></defs><title>ikonki_otdelno</title><g id="icon"><path id="Fill-1882" class="cls-1" d="M38.25,172.5H76.14V111.25H38.25Zm41.05,6.13H35.09a3.1,3.1,0,0,1-3.16-3.06V108.19a3.1,3.1,0,0,1,3.16-3.06H79.3a3.1,3.1,0,0,1,3.16,3.06v67.38a3.1,3.1,0,0,1-3.16,3.06Z"/><path id="Fill-1883" class="cls-1" d="M140.43,187.82c-13,0-29.28-7.46-42.34-13.42-8.22-3.76-16-7.34-19.42-7.34a3,3,0,1,1,0-6c4.82,0,12.42,3.46,22,7.88,12.51,5.73,28.07,12.89,39.72,12.89,21.73,0,71.42-27,71.42-36.21,0-6.86-3.15-10-9.9-10-2.27,0-7.45,4.12-11.61,7.4-8.29,6.56-17.66,14-26.49,11.58a3,3,0,0,1-2.18-3.41c.48-2.56.08-4.53-1.22-6-4.31-4.84-17.68-4.3-24.86-4.06-1.56.06-3,.06-4.06.06-3.92,0-7.27-2.09-11.52-4.71-7.65-4.78-18.13-11.28-39.94-11.57a3,3,0,0,1-3-3,3.11,3.11,0,0,1,3.12-2.92c23.58.29,35.38,7.69,43.18,12.53,3.53,2.2,6.09,3.76,8.2,3.76,1.05,0,2.36,0,3.84-.07,9.35-.36,23.49-.83,29.74,6.15A11.47,11.47,0,0,1,168,149c5.5-.41,12.58-6,18.43-10.68,6.16-4.88,11-8.71,15.5-8.71,10.2,0,16.05,5.85,16.05,16,0,14.49-55,42.17-77.57,42.17"/><path id="Fill-1884" class="cls-1" d="M162.09,155.67h-49c-1.7,0-3.07-1-3.07-2.3s1.37-2.3,3.07-2.3h49c1.69,0,3.06,1,3.06,2.3s-1.37,2.3-3.06,2.3"/></g><path class="cls-2" d="M168.58,58.08A8.4,8.4,0,1,1,164.34,47,8.42,8.42,0,0,1,168.58,58.08Z"/><path class="cls-2" d="M130.28,97.89l18.63,8.36a22.06,22.06,0,0,0,4.59-5.14L131.16,91A21.62,21.62,0,0,0,130.28,97.89Z"/><path class="cls-2" d="M136.92,81.31a27.07,27.07,0,0,0-4.19,5.62l22.69,10.21a24.74,24.74,0,0,0,1.44-6.85Z"/><path class="cls-2" d="M156.93,85.49a42.45,42.45,0,0,0-3.56-13.78l.07-.13h-.13a.08.08,0,0,0-.08-.08l-.08.13a42.69,42.69,0,0,0-12.68,6.51Z"/><path class="cls-2" d="M131,103a37.26,37.26,0,0,0,3.76,9.73l-.08.13h.08a.08.08,0,0,0,.08.08l.07-.13a40.2,40.2,0,0,0,9.81-3.71Z"/><path class="cls-3" d="M164.61,100.5c10.08,4.53,21.38,1.3,25.22-7.2s-1.31-19.06-11.38-23.64c0,0-5.89-2.88-11.44-2.27-4.72.35-13.64,3.92-13.64,3.92.21.07,9.8,1.71,16.79,2.61a20.27,20.27,0,0,1,6.45,1.92c5.75,3,8.55,9.25,6.29,14.31-2.4,5.28-9.46,7.33-15.7,4.46Z"/><path class="cls-4" d="M164.61,100.42h0a22.51,22.51,0,0,0,13.49,1.84c11.38-3,13.57-11,13-16.85A16.72,16.72,0,0,0,187,76.3c-.08-.08,7.46,9.52-1.92,17.4-3.44,2.61-9.18,2.4-12.21,2.27a21.18,21.18,0,0,1-6.45-1.65c-1.78-1-4.39-2.61-5.2-4.19l-.13-.21-.14-.21c-1.51-2.13-3.83-7.41-6-13.7l-.56-1.57-.08-.08a78.42,78.42,0,0,0-6.64-14.93c-2.66-4.59-9-7.54-9.73-7.89h0l-1.3,2.88-1.31,2.88c1.79.82,4.94,2.74,6,4.53l.14.21.13.21c1.65,2.26,4.11,8.08,6.29,14.8l.56,1.57.14.08c1.51,4.24,3.91,10.47,6.23,13.83C157.49,97.14,163.79,100.07,164.61,100.42Z"/><path class="cls-5" d="M124.18,82.34l2.61-5.81c-6.3-2.8-9.47-9.46-7.07-14.74s9.46-7.33,15.7-4.45a22.79,22.79,0,0,1,4,2.4c.48.34,2.48,2.18,4.53,7.12,2.88,5.68,6.37,13.77,10.56,19,6.58,8.22,13.7,9.12,13.7,9.12a20.37,20.37,0,0,1-5.62-3.28c-2.06-2.19-4.19-6.24-6-11.65-2.19-7.12-7.46-19.38-9.8-22.2a24.79,24.79,0,0,0-8.91-6.45c-10-4.4-21.24-1.17-25,7.25S114.1,77.74,124.18,82.34Z"/><path class="cls-6" d="M124.18,82.27c.13.07.34.13.61.26,1.84.75,7.25,2.75,11.78,1.79,4.46-.56,17.2-5.55,17.2-5.55,6.16-2.61,11.65-4.39,14.26-4.66h.21l.21-.08c2.05-.48,5.81.75,7.33,1.44h0l2.61-5.76h0c-.82-.34-7.2-3.14-12.4-2-4.1.48-10.34,2.8-14.52,4.53l-1.66.61c-6.5,2.81-12.47,4.8-15.27,5.07h-.29L134,78c-2,.48-5.82-.75-7.33-1.44h0s-8.16-4.11-10.21-9.94c-3.09-14.13,7.73-16.66,7.73-16.66a16.57,16.57,0,0,0-8.69,4.66c-3.84,4-7.06,11-.4,20.83C118.42,80.08,124.18,82.27,124.18,82.27Z"/><path class="cls-7" d="M176.66,75.89a4.77,4.77,0,0,0,.56.27l2.61-5.81c-.4-.21-.88-.48-1.36-.69,0,0-5.89-3-11.44-2.33a60.29,60.29,0,0,0-13.65,4c-3.22,1.09-12.34,5.35-17.19,6.16-6.24,1.71-12.69-3.09-12.69-3.09s5.68,6.23,19.73,4.87c11.17-.88,22.74-6,26.93-5.41A22.81,22.81,0,0,1,176.66,75.89Z"/></svg>