<svg xmlns="http://www.w3.org/2000/svg" viewBox="0 0 4320 2880">
  <g fill="none">
    <rect width="4320" height="1440" fill="#ED2939"/>
    <rect width="4320" height="1440" y="1440" fill="#FFFFFF"/>
    <path fill="#FFFFFF" d="M1481.678,720 C1481.678,1019.0622 1239.24019,1261.50001 940.17799,1261.50001 C641.115792,1261.50001 398.67798,1019.0622 398.67798,720 C398.67798,526.540679 501.887299,347.776895 669.427985,251.047235 C836.968671,154.317575 1043.38731,154.317575 1210.92799,251.047235 C1378.46868,347.776895 1481.678,526.540679 1481.678,720 Z"/>
    <path fill="#ED2939" d="M1651.835,720 C1651.835,1002.62344 1422.72343,1231.735 1140.1,1231.735 C857.476556,1231.735 628.36499,1002.62344 628.36499,720 C628.36499,437.376561 857.476556,208.264995 1140.1,208.264995 C1422.72343,208.264995 1651.835,437.376561 1651.835,720 Z"/>
    <polygon fill="#FFFFFF" points="1007.195 733.064 933.635 676.634 860.093 733.091 888.406 642.097 814.611 586.005 905.67 586.198 933.605 495.075 961.569 586.188 1052.628 585.962 978.852 642.081"/>
    <polygon fill="#FFFFFF" points="193.195 238.064 119.635 181.634 46.093 238.091 74.406 147.097 .611 91.005 91.67 91.198 119.605 .075 147.569 91.188 238.628 90.962 164.852 147.081" transform="translate(1391.189 495)"/>
    <polygon fill="#FFFFFF" points="193.195 238.064 119.635 181.634 46.093 238.091 74.406 147.097 .611 91.005 91.67 91.198 119.605 .075 147.569 91.188 238.628 90.962 164.852 147.081" transform="translate(1102.889 280.789)"/>
    <polygon fill="#FFFFFF" points="193.195 238.064 119.635 181.634 46.093 238.091 74.406 147.097 .611 91.005 91.67 91.198 119.605 .075 147.569 91.188 238.628 90.962 164.852 147.081" transform="translate(922 837.749)"/>
    <polygon fill="#FFFFFF" points="193.195 238.064 119.635 181.634 46.093 238.091 74.406 147.097 .611 91.005 91.67 91.198 119.605 .075 147.569 91.188 238.628 90.962 164.852 147.081" transform="translate(1283.189 837.749)"/>
  </g>
</svg>
