<?xml version="1.0" encoding="UTF-8"?>
<svg width="40px" height="34px" viewBox="0 0 40 34" version="1.1" xmlns="http://www.w3.org/2000/svg" xmlns:xlink="http://www.w3.org/1999/xlink">
    <!-- Generator: sketchtool 48.2 (47327) - http://www.bohemiancoding.com/sketch -->
    <title>06BC9419-3F58-4043-AC45-A443C6113FD8</title>
    <desc>Created with sketchtool.</desc>
    <defs></defs>
    <g id="Adhive-ICO-20.04" stroke="none" stroke-width="1" fill="none" fill-rule="evenodd" transform="translate(-1099.000000, -284.000000)">
        <g id="Group-18" transform="translate(1039.000000, 232.000000)" fill="#FFFFFF" fill-rule="nonzero">
            <g id="noun_980709_cc" transform="translate(60.000000, 52.000000)">
                <g id="Group">
                    <path d="M36.932459,0.209720455 C36.8535005,0.239329906 36.7745419,0.273874264 36.7005183,0.303483714 C29.2537416,3.17066548 21.8069648,6.03784724 14.3601881,8.90996391 C10.1161669,10.5483535 5.87214572,12.1768733 1.64292925,13.8448723 C0.892823176,14.1409668 -0.074418865,14.4666707 0.00453966893,15.5030015 C0.0785632945,16.499853 1.05074024,16.6330955 1.80578122,16.8699711 C4.43608739,17.7039706 7.08119827,18.5132956 9.72137425,19.3226206 C10.165516,19.4558631 10.4122614,19.6927387 10.5504389,20.1516852 C11.5472903,23.4926181 12.5737513,26.8236813 13.5854075,30.1646143 C13.9505907,31.3736668 14.8388742,31.7487199 15.9541635,31.1170516 C16.3144118,30.9147203 16.6351809,30.6284957 16.9362103,30.342271 C18.1205883,29.1973722 19.3049663,28.0574084 20.4449301,26.8680955 C20.9532257,26.3400603 21.3381486,26.3055159 21.9254027,26.7545926 C23.9191056,28.2794793 25.9374832,29.7698216 27.9706654,31.2453592 C28.8244046,31.8671577 29.6189248,32.5876543 30.576297,33.0614055 C31.9037874,33.7226832 32.9203785,33.3081509 33.433609,31.9165067 C33.5865911,31.4970395 33.6852893,31.0627676 33.7790526,30.6235607 C35.4519865,22.7375772 37.1199855,14.8466587 38.7879846,6.96067511 C39.1235583,5.38150443 39.4492623,3.79739884 39.7009426,2.60315102 C39.7453568,0.372572432 38.6399373,-0.421947816 36.932459,0.209720455 Z M15.2780811,21.992406 C15.2780811,21.992406 15.549501,32.3557136 14.3848627,30.9295251 C14.0098096,30.4705786 14.3207089,31.0775723 13.126461,26.7990068 C11.8729943,22.3033052 10.7527701,19.3719697 10.7527701,19.3719697 L30.3690309,6.6645806 C30.3690309,6.6645806 32.6144142,4.94723249 32.5749349,6.28952757 L15.2780811,21.992406 Z" id="Shape-Copy-5"></path>
                </g>
            </g>
        </g>
    </g>
</svg>