<svg xmlns="http://www.w3.org/2000/svg" width="184" height="40" viewBox="0 0 184 40" xmlns:xlink="http://www.w3.org/1999/xlink">
    <defs>
        <polygon id="a" points=".175 .942 34.217 .942 34.217 40 .175 40"/>
    </defs>
    <g fill="none" fill-rule="evenodd">
        <path fill="#CECECE" fill-rule="nonzero" d="M81,2.12557083 C87.7835193,2.12557083 94.3762522,1.77243855 100.90438,2.25055585 C105.193543,2.56500229 108.336977,5.21051857 109.440309,9.64451099 C110.508309,13.9356634 109.188955,17.3291059 105.578144,19.9071699 C110.192351,22.8978829 111.759021,26.2179216 110.666793,31.3452833 C109.685606,35.9439385 106.438198,38.674762 101.908785,39.0943546 C95.016245,39.7331669 88.0621282,39.7262233 81,40 L81,2.12557083 Z M90.5685982,30.8453432 C93.4314049,30.8453432 96.0913116,30.9405699 98.7411239,30.8136009 C100.673216,30.7203582 101.905757,29.5171293 101.925946,27.6185474 C101.945125,25.708062 100.668168,24.4750749 98.7905871,24.3520737 C96.0822266,24.1735237 93.3526676,24.3064443 90.5685982,24.3064443 L90.5685982,30.8453432 Z M90.6120046,16.1179415 C93.3001761,16.1179415 95.7390128,16.2101924 98.1667455,16.0852074 C99.74351,16.0038679 100.621733,14.9831569 100.6288,13.3940616 C100.636875,11.8069502 99.7838881,10.7763198 98.1919819,10.6999401 C95.7067103,10.5818986 93.2123537,10.6691898 90.6120046,10.6691898 L90.6120046,16.1179415 Z"/>
        <polygon fill="#FFFFFF" fill-rule="nonzero" points="30 39 20.748 39 20.748 24.592 9.29 24.592 9.29 38.98 0 38.98 0 1 9.199 1 9.199 15.295 20.625 15.295 20.625 1.053 30 1.053"/>
        <g transform="translate(149)">
            <mask id="b" fill="white">
                <use xlink:href="#a"/>
            </mask>
            <path fill="#CECECE" fill-rule="nonzero" d="M34.217,7.4258 C32.196,9.2908 30.25,11.0878 28.193,12.9858 C25.105,10.4878 21.581,9.1508 17.823,10.0958 C15.691,10.6328 13.44,11.9948 11.98,13.6388 C8.508,17.5478 8.99,24.3098 12.429,28.0788 C15.574,31.5238 22.608,32.4578 28.199,28.0308 C30.157,29.8318 32.143,31.6598 34.119,33.4778 C28.462,41.2228 15.248,42.2328 7.304,35.6318 C-1.566,28.2618 -2.262,14.9798 5.792,6.7458 C13.567,-1.2042 26.597,-0.9962 34.217,7.4258" mask="url(#b)"/>
        </g>
        <polygon fill="#CECECE" fill-rule="nonzero" points="135.367 9.757 135.367 39 125.831 39 125.831 9.934 116 9.934 116 1 145 1 145 9.757"/>
        <path fill="#FFFFFF" fill-rule="nonzero" d="M60.043501 20.5230278C58.9127218 20.4417144 58.0406304 20.379242 57 20.30487L57 12.074372C57.9005079 11.9950419 58.830412 11.9127369 60.0082254 11.8086161L60.0082254 3 68.4929887 3 68.4929887 11.7639929C69.7521319 11.8839797 70.7476879 11.9781842 71.9842939 12.0961877 71.9842939 14.5008814 72.0440665 16.8202953 71.9304006 19.1317761 71.9088433 19.5730498 71.2738824 20.1630674 70.7927623 20.3554429 70.2116947 20.5874835 69.4934441 20.4684883 68.6291918 20.5121199L68.6291918 39 60.043501 39 60.043501 20.5230278zM41 14C43.7706946 16.6590927 46.3073264 16.6216823 49 14.1368433L49 39 41 39 41 14zM44.9786566 10.9999038C42.0160775 11.0153241 39.9890498 9.17516576 40.0000445 6.47969354 40.0100397 3.89216357 41.9920891 2.04069696 44.7937453 2.00060412 47.6093948 1.96051128 49.9242845 3.92094817 49.998249 6.40773204 50.0722135 8.89965601 47.7933066 10.9844835 44.9786566 10.9999038"/>
    </g>
</svg>
