<?xml version="1.0" encoding="UTF-8"?>
<svg width="794px" height="434px" viewBox="0 0 794 434" version="1.1" xmlns="http://www.w3.org/2000/svg" xmlns:xlink="http://www.w3.org/1999/xlink">
    <!-- Generator: Sketch 47 (45396) - http://www.bohemiancoding.com/sketch -->
    <title>Pie chart and lines</title>
    <desc>Created with Sketch.</desc>
    <defs></defs>
    <g transform="translate(5 0)" stroke="none" stroke-width="1" fill="none" fill-rule="evenodd">
        <g id="Desktop" transform="translate(-328, -8766)">
            <g id="Distribution" transform="translate(225, 8540)">
                <g id="Pie-chart" transform="translate(0, 212)">
                    <g id="Pie-chart-and-lines" transform="translate(103, 15)">
                        <g id="Lines" stroke-linecap="square">
                            <polyline id="Line-3-Copy-3" stroke="#F17580" points="0.5 137.5 161.5 137.5 189.898025 156.065575"></polyline>
                            <polyline id="Line-3-Copy-2" stroke="#E80A89" points="588 190.318375 663.606595 138 793.129216 138"></polyline>
                            <polyline id="Line-3-Copy-8" stroke="#75BBE7" points="485 52.3183747 560.606595 0 793.129216 0"></polyline>
                            <path d="M0.5,307.5 L171.5,307.5" id="Line-3-Copy-5" stroke="#F9AE41"></path>
                            <path d="M611.5,267.5 L793.022621,267.5" id="Line-3-Copy-4" stroke="#4C6ED6"></path>
                            <polyline id="Line-3-Copy-7" stroke="#F05A29" points="0.5 432.5 217.5 432.5 249.994344 409.263403"></polyline>
                            <polyline id="Line-3-Copy-6" stroke="#52AC62" points="537.60809 412.244197 565.5 432.5 793.022621 432.5"></polyline>
                        </g>
                        <g id="Pie-Chart" transform="translate(187, 54)">
                            <g id="Group-9" transform="translate(124, 0)">
                                <path d="M0.0272516359,121.286723 C15.1214893,141.177457 16.7509521,143.104304 33.6331127,164.724352 C48.3431386,162.088413 80.2341565,151.253788 130.558653,164.724352 C141.012684,151.042508 145.156527,144.707718 163.105942,122.042122 C107.665135,103.628903 32.1230536,110.408304 0.0272516359,121.286723 Z" id="Path-5" fill="#166DB1"></path>
                                <rect id="Rectangle-4" fill="#166DB1" x="26" y="38" width="108" height="85"></rect>
                                <polygon id="Rectangle-3" fill="#5296D1" points="0 11 34 11 34 165 0 121"></polygon>
                                <polygon id="Rectangle-3-Copy-2" fill="#5296D1" transform="translate(146.500000, 88.500000) scale(-1, 1) translate(-146.500000, -88.500000) " points="130 12 163 12 163 165 130 121.285714"></polygon>
                                <path d="M0.0272516359,11.2867231 C15.1214893,31.1774567 16.7509521,33.1043036 33.6331127,54.7243516 C48.3431386,52.0884134 80.2341565,41.2537883 130.558653,54.7243516 C141.012684,41.042508 145.156527,34.7077182 163.105942,12.0421224 C107.665135,-6.37109653 32.1230536,0.408304402 0.0272516359,11.2867231 Z" id="Path-5-Copy" fill="#75BBE7"></path>
                            </g>
                            <g id="Group-16" transform="translate(210, 279)">
                                <path d="M59.5671728,14.1889454 C78.5666081,26.301818 103.609848,38.3914491 152.029003,40.6084878 C152.029003,62.5949633 152.029003,62.7637169 152.029003,87.6260776 C106.225069,88.6829223 47.4987622,76.9582211 0.540791902,44.1038099 C19.937354,33.8755212 37.6544638,25.6045725 59.5671728,14.1889454 Z" id="Path-2-Copy-3" fill="#52AC62" transform="translate(76.284897, 50.939992) scale(-1, 1) translate(-76.284897, -50.939992) "></path>
                                <rect id="Rectangle-11" fill="#52AC62" x="133" y="30" width="19" height="14"></rect>
                                <path d="M59.5671728,0.188945393 C78.5666081,12.301818 103.609848,24.3914491 152.029003,26.6084878 C152.029003,48.5949633 152.029003,48.7637169 152.029003,73.6260776 C106.225069,74.6829223 47.4987622,62.9582211 0.540791902,30.1038099 C19.937354,19.8755212 37.6544638,11.6045725 59.5671728,0.188945393 Z" id="Path-2-Copy-4" fill="#508463" transform="translate(76.284897, 36.939992) scale(-1, 1) translate(-76.284897, -36.939992) "></path>
                            </g>
                            <g id="Group-10" transform="translate(263, 95)">
                                <g id="Group-15">
                                    <path d="M138.63357,73.391091 C129.075244,76.4650343 93.211561,87.1904894 76.4291644,120.673432 C49.2436624,117.261982 31.4052925,114.788276 0.955873109,110.269316 C10.5769648,80.2545843 56.0968786,43.7096522 105.3982,30.2992966 C115.396095,42.8204115 128.284021,59.8089503 138.63357,73.391091 Z" id="Path-4-Copy" fill="#BD202E" transform="translate(69.794722, 75.486364) scale(-1, 1) translate(-69.794722, -75.486364) "></path>
                                    <rect id="Rectangle-9" fill="#BD202E" x="1" y="43" width="34" height="30"></rect>
                                    <path d="M138.63357,43.391091 C129.075244,46.4650343 93.211561,57.1904894 76.4291644,90.6734321 C49.2436624,87.2619815 31.4052925,84.7882756 0.955873109,80.2693162 C10.5769648,50.2545843 56.0968786,13.7096522 105.3982,0.299296573 C115.396095,12.8204115 128.284021,29.8089503 138.63357,43.391091 Z" id="Path-4-Copy-3" fill="#E80A89" transform="translate(69.794722, 45.486364) scale(-1, 1) translate(-69.794722, -45.486364) "></path>
                                    <polygon id="Rectangle-10" fill="#F07791" points="63 91 139 80 139 110 63 121"></polygon>
                                </g>
                            </g>
                            <g id="Group-20" transform="translate(308, 185)">
                                <path d="M101.629908,100.680925 C94.0258901,92.8788484 71.0491238,72.2939374 79.7889449,41.897064 C47.2649674,37.3730521 21.8084323,33.3431751 4.51573277,30.9856768 C-3.48238075,56.2027233 -1.35325565,94.2591924 42.1962956,130.974727 C73.9563345,114.524785 71.293665,114.999721 101.629908,100.680925 Z" id="Path-3-Copy" fill="#5492BA" transform="translate(51.247732, 80.980202) scale(-1, 1) translate(-51.247732, -80.980202) "></path>
                                <rect id="Rectangle-12" fill="#5492BA" x="23" y="12" width="18" height="40"></rect>
                                <polygon id="Rectangle-10" fill="#5C73A0" points="1 70.6377405 60.6803901 99.7762707 60.6803901 131.801158 1 101"></polygon>
                                <polygon id="Path-10" fill="#5492BA" points="85.2760267 23.2220736 101.504223 23.2220736 101.504223 56.9949893 97.5819106 64.1686793"></polygon>
                                <path d="M101.629908,70.6809247 C94.0258901,62.8788484 71.0491238,42.2939374 79.7889449,11.897064 C47.2649674,7.37305211 21.8084323,3.34317508 4.51573277,0.985676806 C-3.48238075,26.2027233 -1.35325565,64.2591924 42.1962956,100.974727 C73.9563345,84.5247852 71.293665,84.9997205 101.629908,70.6809247 Z" id="Path-3-Copy-2" fill="#496896" transform="translate(51.247732, 50.980202) scale(-1, 1) translate(-51.247732, -50.980202) "></path>
                            </g>
                            <path d="M107.567173,293.188945 C126.566608,305.301818 151.609848,317.391449 200.029003,319.608488 C200.029003,341.594963 200.029003,341.763717 200.029003,366.626078 C154.225069,367.682922 95.4987622,355.958221 48.5407919,323.10381 C67.937354,312.875521 85.6544638,304.604572 107.567173,293.188945 Z" id="Path-2" fill="#F05A29"></path>
                            <g id="Group-19" transform="translate(8, 115)">
                                <path d="M138.63357,53.391091 C129.075244,56.4650343 93.211561,67.1904894 76.4291644,100.673432 C49.2436624,97.2619815 31.4052925,94.7882756 0.955873109,90.2693162 C10.5769648,60.2545843 56.0968786,23.7096522 105.3982,10.2992966 C115.396095,22.8204115 128.284021,39.8089503 138.63357,53.391091 Z" id="Path-4" fill="#BE383B"></path>
                                <polygon id="Path-8" fill="#BE383B" points="138.488111 53.5587739 138.488111 43.5637935 132.660303 39.2638214 128.077249 43.5637935 129.201087 50.8847879"></polygon>
                                <polygon id="Path-9" fill="#BE383B" points="1.15460054 80.1541321 1.15460054 89.2026733 76.3026547 100.6064 76.3026547 90.6180107"></polygon>
                                <path d="M138.63357,43.391091 C129.075244,46.4650343 93.211561,57.1904894 76.4291644,90.6734321 C49.2436624,87.2619815 31.4052925,84.7882756 0.955873109,80.2693162 C10.5769648,50.2545843 56.0968786,13.7096522 105.3982,0.299296573 C115.396095,12.8204115 128.284021,29.8089503 138.63357,43.391091 Z" id="Path-4-Copy-2" fill="#F17580"></path>
                            </g>
                            <g id="Group-17" transform="translate(0, 201)">
                                <path d="M101.629908,84.6809247 C94.0258901,76.8788484 71.0491238,56.2939374 79.7889449,25.897064 C47.2649674,21.3730521 21.8084323,17.3431751 4.51573277,14.9856768 C-3.48238075,40.2027233 -1.35325565,78.2591924 42.1962956,114.974727 C73.9563345,98.5247852 71.293665,98.9997205 101.629908,84.6809247 Z" id="Path-3" fill="#F59120"></path>
                                <polygon id="Path-7" fill="#F59120" points="79.8260944 26.0028676 79.8260944 11.9800575 74.2219154 11.9800575 77.476446 26.4174671"></polygon>
                                <path d="M101.629908,70.6809247 C94.0258901,62.8788484 71.0491238,42.2939374 79.7889449,11.897064 C47.2649674,7.37305211 21.8084323,3.34317508 4.51573277,0.985676806 C-3.48238075,26.2027233 -1.35325565,64.2591924 42.1962956,100.974727 C70.3504947,86.7915122 93.4547919,75.2781583 101.629908,70.6809247 Z" id="Path-3-Copy-3" fill="#F9AE41"></path>
                                <polygon id="Path-6" fill="#F9AE41" points="101.689772 84.8106347 101.689772 70.7010304 42.2181941 100.784317 42.2181941 115.074117"></polygon>
                            </g>
                        </g>
                    </g>
                </g>
            </g>
        </g>
    </g>
</svg>