<svg id="Слой_1" data-name="Слой 1" xmlns="http://www.w3.org/2000/svg" viewBox="0 0 250 250"><defs><style>.cls-1{fill:#ffb51b;}.cls-2{fill:#fff;}</style></defs><title>ikonki_otdelno</title><path class="cls-1" d="M112.22,181.34a21.64,21.64,0,0,0-4,5.6l5.24,3a15.36,15.36,0,0,1,3-4.4,15.7,15.7,0,0,1,22.19,0,16,16,0,0,1,3,4.42l5.23-3a21.66,21.66,0,0,0-34.71-5.6Z"/><path class="cls-1" d="M138.7,207.73A15.62,15.62,0,0,1,112,195.28l-5.6-3.24a21.67,21.67,0,1,0,42.32,0l-5.59,3.23A15.57,15.57,0,0,1,138.7,207.73Z"/><path class="cls-1" d="M180.21,152.17a15.5,15.5,0,0,1,9.76-4.48v-6a21.49,21.49,0,0,0-14,6.3,21.72,21.72,0,0,0-4.2,24.65l5.21-3A15.72,15.72,0,0,1,180.21,152.17Z"/><path class="cls-1" d="M195.29,142v6.18a15.68,15.68,0,1,1-15.06,26.25c-.12-.11-.19-.25-.3-.37l-5.32,3.07a20.26,20.26,0,0,0,1.4,1.54A21.68,21.68,0,1,0,195.29,142Z"/><path class="cls-1" d="M202.4,79.29a15.6,15.6,0,0,1-7.11,26.24v6.17A21.67,21.67,0,1,0,176,75.09c-.15.15-.28.31-.42.47L181,78.69A15.65,15.65,0,0,1,202.4,79.29Z"/><path class="cls-1" d="M176,105.77A21.55,21.55,0,0,0,190,112v-6a15.51,15.51,0,0,1-12.35-23.08l-5.23-3A21.72,21.72,0,0,0,176,105.77Z"/><path class="cls-1" d="M116.46,42.88A15.7,15.7,0,0,1,143,56.77l5.41,3.12a21.68,21.68,0,1,0-41.7,0l5.42-3.13A15.7,15.7,0,0,1,116.46,42.88Z"/><path class="cls-1" d="M142.94,69.27a21.76,21.76,0,0,0,3.39-4.45l-5.22-3a15.49,15.49,0,0,1-2.41,3.24,15.73,15.73,0,0,1-22.22.06A15.3,15.3,0,0,1,114,61.8l-5.22,3a21.62,21.62,0,0,0,34.14,4.46Z"/><path class="cls-1" d="M82.74,79.86l-5.23,3A15.52,15.52,0,0,1,65.15,106v6A21.61,21.61,0,0,0,82.74,79.86Z"/><path class="cls-1" d="M52.73,101.54A15.67,15.67,0,0,1,74.15,78.69l5.42-3.13c-.15-.17-.29-.35-.45-.51a21.69,21.69,0,1,0-19.28,36.66v-6.18A15.58,15.58,0,0,1,52.73,101.54Z"/><path class="cls-1" d="M79.12,147.91a21.61,21.61,0,0,0-14-6.26v6a15.58,15.58,0,0,1,13,21.9l5.22,3A21.69,21.69,0,0,0,79.12,147.91Z"/><path class="cls-1" d="M75,174.34A15.7,15.7,0,1,1,52.7,152.17a15.53,15.53,0,0,1,7.14-4V142a21.47,21.47,0,0,0-11.37,6,21.68,21.68,0,1,0,30.72,30.61c.47-.47.9-1,1.32-1.47L75.2,174C75.11,174.13,75.05,174.24,75,174.34Z"/><path class="cls-1" d="M83.37,172.61a21.78,21.78,0,0,1-2.86,4.48L106.41,192a21.65,21.65,0,0,1,1.79-5.1Z"/><path class="cls-1" d="M146.93,186.94a21.45,21.45,0,0,1,1.8,5.09l25.88-14.94a21.08,21.08,0,0,1-2.84-4.49Z"/><path class="cls-1" d="M65.15,141.65V112a22,22,0,0,1-5.31-.3V142A21.47,21.47,0,0,1,65.15,141.65Z"/><path class="cls-1" d="M172.39,79.87a21.78,21.78,0,0,1,3.16-4.31L148.42,59.89a21.74,21.74,0,0,1-2.09,4.93Z"/><path class="cls-1" d="M190,112v29.63a21.58,21.58,0,0,1,5.32.31V111.7A22.08,22.08,0,0,1,190,112Z"/><path class="cls-1" d="M108.8,64.81a21.7,21.7,0,0,1-2.08-4.93L79.57,75.56a21.67,21.67,0,0,1,3.17,4.3Z"/><path id="Fill-6036" class="cls-2" d="M138.65,42.86a15.7,15.7,0,1,0,0,22.19,15.69,15.69,0,0,0,0-22.19ZM112.26,69.34a21.68,21.68,0,1,1,30.68-.07,21.72,21.72,0,0,1-30.68.07Z"/><path id="Fill-6036-2" data-name="Fill-6036" class="cls-2" d="M202.4,79.29a15.7,15.7,0,1,0,0,22.19,15.69,15.69,0,0,0,0-22.19ZM176,105.77a21.68,21.68,0,1,1,30.68-.07,21.72,21.72,0,0,1-30.68.07Z"/><path id="Fill-6036-3" data-name="Fill-6036" class="cls-2" d="M202.4,152.15a15.7,15.7,0,1,0,0,22.19,15.69,15.69,0,0,0,0-22.19ZM176,178.63a21.68,21.68,0,1,1,30.68-.07,21.72,21.72,0,0,1-30.68.07Z"/><path id="Fill-6036-4" data-name="Fill-6036" class="cls-2" d="M138.65,185.54a15.7,15.7,0,1,0,0,22.19,15.7,15.7,0,0,0,0-22.19ZM112.26,212a21.68,21.68,0,1,1,30.68-.07,21.74,21.74,0,0,1-30.68.07Z"/><path id="Fill-6036-5" data-name="Fill-6036" class="cls-2" d="M74.89,152.15A15.7,15.7,0,1,0,75,174.34a15.69,15.69,0,0,0-.06-22.19ZM48.5,178.63a21.69,21.69,0,1,1,30.69-.07,21.72,21.72,0,0,1-30.69.07Z"/><path id="Fill-6036-6" data-name="Fill-6036" class="cls-2" d="M74.89,79.29A15.7,15.7,0,1,0,75,101.48a15.69,15.69,0,0,0-.06-22.19ZM48.5,105.77a21.69,21.69,0,1,1,30.69-.07,21.72,21.72,0,0,1-30.69.07Z"/></svg>