<svg id="Слой_1" data-name="Слой 1" xmlns="http://www.w3.org/2000/svg" viewBox="0 0 250 250"><defs><style>.cls-1{fill:#ffb51b;}.cls-2{fill:#fff;}</style></defs><title>ikonki_otdelno</title><g id="icon"><path id="Fill-6782" class="cls-1" d="M115.6,60.52c-6.68,0-14.94,3.11-22.91,6.11-2.65,1-5.23,2-7.71,2.8a2.92,2.92,0,0,1-1,.2c-9.6,0-13,8.58-13,16.66v13.86a3.29,3.29,0,0,1-3.26,3.26c-3.19,0-3.25.07-3.25,4.88v8.13c0,1,0,2.16-.07,3.26-.1,2.86-.23,6.77.75,7.74a1.73,1.73,0,0,0,1.32.4,3.24,3.24,0,0,1,3.25,3.25c0,13.34,16.81,25.2,30.07,25.2h1.21c12.94,0,29.33-11.86,29.33-25.2a3.24,3.24,0,0,1,3.26-3.25c1.06,0,1.37-.32,1.46-.45,1.17-1.18,1.1-5.41,1-8.54l0-10.54c0-1.69-2.82-4.16-4.85-5.33a3.23,3.23,0,0,1-1.66-2.81V83.88c0-20.7-7.43-23.36-13.9-23.36ZM100.94,162.77H99.73c-15.57,0-34.39-13.08-36.4-29A7,7,0,0,1,60.42,132c-2.91-3-2.75-7.88-2.59-12.49,0-1,.07-2.09.07-3.07v-8.13c0-3.78,0-9.69,6.51-11.13V86.29c0-13.67,7.59-22.92,19-23.17,2.26-.79,4.62-1.7,7-2.6C98.92,57.32,107.73,54,115.6,54,129.14,54,136,64,136,83.88V98.33c2.42,1.69,6.51,5.27,6.51,10l0,10.41c.09,5,.18,10.09-2.91,13.22a6.9,6.9,0,0,1-3,1.88c-1.92,16.28-20.31,29-35.68,29Z"/><path id="Fill-6783" class="cls-1" d="M170.49,208.34H31.78a3.24,3.24,0,0,1-3.25-3.25c0-26.37,18.22-44.73,44.32-44.73a3.23,3.23,0,0,1,3.25,3.26,3.28,3.28,0,0,1-3.25,3.25c-21.18,0-36.28,14.2-37.7,35h132c-1.41-21.22-16.51-35.8-37.71-35.8a3.26,3.26,0,0,1,0-6.51c25.69,0,44.32,19.13,44.32,45.57a3.24,3.24,0,0,1-3.25,3.25"/><path id="Fill-6786" class="cls-1" d="M115.6,60.52c-6.68,0-14.94,3.11-22.91,6.11-2.65,1-5.23,2-7.71,2.8a2.92,2.92,0,0,1-1,.2c-9.6,0-13,8.58-13,16.66v13.86a3.29,3.29,0,0,1-3.26,3.26c-3.19,0-3.25.07-3.25,4.88v8.13c0,6.32.17,11.13,2.36,11.4a3.25,3.25,0,0,1,2.89,3.25c0,13.34,16.81,25.2,30.07,25.2h1.21c12.94,0,29.33-11.86,29.33-25.2a3.22,3.22,0,0,1,3.15-3.25c2.39-.13,2.59-5.15,2.59-11.27v-8.26c0-1.69-2.82-4.16-4.85-5.33a3.23,3.23,0,0,1-1.66-2.81V83.88c0-20.7-7.43-23.36-13.9-23.36ZM100.94,162.77H99.73c-15.67,0-34.63-13.27-36.44-29.23-5.4-2.6-5.39-10.61-5.39-16.65v-8.6c0-3.78,0-9.69,6.51-11.13V86.29c0-13.67,7.59-22.92,19-23.17,2.26-.79,4.62-1.7,7-2.6C98.92,57.32,107.73,54,115.6,54,129.14,54,136,64,136,83.88V98.33c2.42,1.69,6.51,5.27,6.51,10v8.13c0,6.19,0,14.91-5.89,17.25-1.84,16.35-20.28,29.1-35.69,29.1Z"/><path id="Fill-6787" class="cls-1" d="M170.49,208.34H31.78a3.24,3.24,0,0,1-3.25-3.25c0-26.37,18.22-44.73,44.32-44.73a3.23,3.23,0,0,1,3.25,3.26,3.28,3.28,0,0,1-3.25,3.25c-21.18,0-36.28,14.2-37.7,35h132c-1.41-21.22-16.51-35.8-37.71-35.8a3.26,3.26,0,0,1,0-6.51c25.69,0,44.32,19.13,44.32,45.57a3.24,3.24,0,0,1-3.25,3.25"/></g><path id="Fill-1885" class="cls-2" d="M199.12,191.25a4.23,4.23,0,0,0-4.28,4.15v2.77a4.24,4.24,0,0,0,4.28,4.16h19.95a4.23,4.23,0,0,0,4.27-4.16V195.4a4.22,4.22,0,0,0-4.27-4.15Zm19.95,16.62H199.12a9.87,9.87,0,0,1-10-9.7V195.4a9.87,9.87,0,0,1,10-9.7h19.95a9.87,9.87,0,0,1,10,9.7v2.77a9.87,9.87,0,0,1-10,9.7Z"/><path id="Fill-1886" class="cls-2" d="M163.66,133.62a4.24,4.24,0,0,0-4.28,4.16v2.76a4.23,4.23,0,0,0,4.28,4.15H183.6a4.23,4.23,0,0,0,4.28-4.15v-2.76a4.24,4.24,0,0,0-4.28-4.16Zm19.94,16.62H163.66a9.87,9.87,0,0,1-10-9.7v-2.76a9.87,9.87,0,0,1,10-9.7H183.6a9.87,9.87,0,0,1,10,9.7v2.76a9.87,9.87,0,0,1-10,9.7Z"/><path id="Fill-1887" class="cls-2" d="M199.12,164.64a4.24,4.24,0,0,0-4.28,4.16v2.78a4.24,4.24,0,0,0,4.28,4.15h19.95a4.23,4.23,0,0,0,4.27-4.15V168.8a4.23,4.23,0,0,0-4.27-4.16Zm19.95,16.63H199.12a9.87,9.87,0,0,1-10-9.69V168.8a9.87,9.87,0,0,1,10-9.69h19.95a9.86,9.86,0,0,1,10,9.69v2.78a9.86,9.86,0,0,1-10,9.69Z"/></svg>