<svg xmlns="http://www.w3.org/2000/svg" width="43" height="62" viewBox="0 0 43 62">
    <g fill="none" fill-rule="evenodd">
        <path fill="#FFF" d="M21.506 58.877c-10.147 0-18.403-8.338-18.403-18.585 0-10.247 8.256-18.584 18.403-18.584a18.265 18.265 0 0 1 2.16.14c.386.045.766.107 1.143.176a18.433 18.433 0 0 1 1.839.435 17.556 17.556 0 0 1 1.385.479c1.013.392 1.997.874 2.937 1.446 5.346 3.255 8.94 9.159 8.94 15.908 0 10.247-8.257 18.585-18.404 18.585m11.246-35.813V11.61c0-5.818-5.045-10.552-11.246-10.552-6.2 0-11.246 4.734-11.246 10.552 0 .571.457 1.033 1.022 1.033s1.022-.462 1.022-1.033c0-4.679 4.128-8.487 9.202-8.487s9.202 3.808 9.202 8.487v10.261c-.193-.098-.389-.185-.583-.277a20.523 20.523 0 0 0-2.03-.83c-.265-.092-.53-.184-.8-.264a20.363 20.363 0 0 0-1.948-.478 20.288 20.288 0 0 0-1.614-.25c-.123-.014-.246-.022-.368-.033a19.614 19.614 0 0 0-1.859-.096c-11.275 0-20.448 9.263-20.448 20.65 0 11.385 9.173 20.648 20.448 20.648s20.448-9.263 20.448-20.649a20.69 20.69 0 0 0-9.202-17.228"/>
        <path stroke="#FFF" d="M21.506 58.877c-10.147 0-18.403-8.338-18.403-18.585 0-10.247 8.256-18.584 18.403-18.584a18.265 18.265 0 0 1 2.16.14c.386.045.766.107 1.143.176a18.433 18.433 0 0 1 1.839.435 17.556 17.556 0 0 1 1.385.479c1.013.392 1.997.874 2.937 1.446 5.346 3.255 8.94 9.159 8.94 15.908 0 10.247-8.257 18.585-18.404 18.585zm11.246-35.813V11.61c0-5.818-5.045-10.552-11.246-10.552-6.2 0-11.246 4.734-11.246 10.552 0 .571.457 1.033 1.022 1.033s1.022-.462 1.022-1.033c0-4.679 4.128-8.487 9.202-8.487s9.202 3.808 9.202 8.487v10.261c-.193-.098-.389-.185-.583-.277a20.523 20.523 0 0 0-2.03-.83c-.265-.092-.53-.184-.8-.264a20.363 20.363 0 0 0-1.948-.478 20.288 20.288 0 0 0-1.614-.25c-.123-.014-.246-.022-.368-.033a19.614 19.614 0 0 0-1.859-.096c-11.275 0-20.448 9.263-20.448 20.65 0 11.385 9.173 20.648 20.448 20.648s20.448-9.263 20.448-20.649a20.69 20.69 0 0 0-9.202-17.228z"/>
        <path fill="#FFB51B" d="M21.506 47.52c-3.946 0-7.157-3.243-7.157-7.228 0-3.984 3.211-7.227 7.157-7.227 3.945 0 7.157 3.243 7.157 7.227 0 3.985-3.212 7.227-7.157 7.227m12.269-8.26h-3.128a9.295 9.295 0 0 0-1.959-4.76l2.216-2.237c.4-.404.4-1.057 0-1.46a1.014 1.014 0 0 0-1.446 0l-2.215 2.237a9.111 9.111 0 0 0-4.715-1.978v-3.158c0-.571-.457-1.033-1.022-1.033s-1.022.462-1.022 1.033v3.158c-1.772.2-3.39.909-4.715 1.978l-2.215-2.237a1.014 1.014 0 0 0-1.446 0c-.4.403-.4 1.056 0 1.46l2.216 2.237a9.295 9.295 0 0 0-1.96 4.76H9.238c-.565 0-1.022.462-1.022 1.033s.457 1.033 1.022 1.033h3.128c.197 1.789.9 3.423 1.959 4.76l-2.216 2.238c-.4.403-.4 1.056 0 1.46a1.015 1.015 0 0 0 1.446 0l2.215-2.238a9.11 9.11 0 0 0 4.715 1.978v3.159c0 .57.457 1.032 1.022 1.032s1.022-.461 1.022-1.032v-3.159a9.11 9.11 0 0 0 4.715-1.978l2.215 2.238a1.015 1.015 0 0 0 1.446 0c.4-.404.4-1.057 0-1.46l-2.216-2.238a9.294 9.294 0 0 0 1.96-4.76h3.127c.565 0 1.022-.462 1.022-1.033 0-.57-.457-1.032-1.022-1.032"/>
        <path stroke="#FFB51B" d="M21.506 47.52c-3.946 0-7.157-3.243-7.157-7.228 0-3.984 3.211-7.227 7.157-7.227 3.945 0 7.157 3.243 7.157 7.227 0 3.985-3.212 7.227-7.157 7.227zm12.269-8.26h-3.128a9.295 9.295 0 0 0-1.959-4.761l2.216-2.237c.4-.404.4-1.057 0-1.46a1.014 1.014 0 0 0-1.446 0l-2.215 2.237a9.111 9.111 0 0 0-4.715-1.978v-3.158c0-.571-.457-1.033-1.022-1.033s-1.022.462-1.022 1.033v3.158c-1.772.2-3.39.909-4.715 1.978l-2.215-2.237a1.014 1.014 0 0 0-1.446 0c-.4.403-.4 1.056 0 1.46l2.216 2.237a9.295 9.295 0 0 0-1.96 4.76H9.238c-.565 0-1.022.462-1.022 1.033s.457 1.033 1.022 1.033h3.128c.197 1.789.9 3.423 1.959 4.76l-2.216 2.238c-.4.403-.4 1.056 0 1.46a1.015 1.015 0 0 0 1.446 0l2.215-2.238a9.11 9.11 0 0 0 4.715 1.978v3.159c0 .57.457 1.032 1.022 1.032s1.022-.461 1.022-1.032v-3.159a9.11 9.11 0 0 0 4.715-1.978l2.215 2.238a1.015 1.015 0 0 0 1.446 0c.4-.404.4-1.057 0-1.46l-2.216-2.238a9.294 9.294 0 0 0 1.96-4.76h3.127c.565 0 1.022-.462 1.022-1.033 0-.57-.457-1.032-1.022-1.032z"/>
    </g>
</svg>
