<svg xmlns="http://www.w3.org/2000/svg" xmlns:xlink="http://www.w3.org/1999/xlink" width="70" height="67" viewBox="0 0 70 67">
    <defs>
        <path id="a" d="M.042.094h4.67v17.192H.041z"/>
        <path id="c" d="M0 .014h2.832v2.78H0z"/>
    </defs>
    <g fill="none" fill-rule="evenodd">
        <g transform="translate(29.337 .042)">
            <mask id="b" fill="#fff">
                <use xlink:href="#a"/>
            </mask>
            <path fill="#FFF" d="M.055 1.58a1.303 1.303 0 1 1 2.58-.365l2.063 14.586a1.303 1.303 0 1 1-2.58.364L.056 1.58z" mask="url(#b)"/>
        </g>
        <path fill="#FFB51B" d="M63.736 6.61l-1.02 1.02a1.303 1.303 0 1 0 1.842 1.842l1.02-1.02 1.02 1.02a1.299 1.299 0 0 0 1.843 0 1.303 1.303 0 0 0 0-1.842l-1.02-1.02 1.02-1.02a1.303 1.303 0 1 0-1.843-1.843l-1.02 1.02-1.02-1.02a1.303 1.303 0 0 0-1.843 1.843l1.02 1.02z"/>
        <path fill="#FFF" d="M25.933 23.533a1.3 1.3 0 0 0 1.826.242c.571-.437.68-1.255.242-1.826l-11.5-15.012a1.303 1.303 0 0 0-2.07 1.585l11.502 15.011zM4.55 11.365l.43.332a1.301 1.301 0 0 0 1.827-.24 1.303 1.303 0 0 0-.239-1.826l-.431-.332a1.303 1.303 0 1 0-1.588 2.066M3.449 27.512a1.302 1.302 0 1 0-.343 2.583L16.43 31.86a1.302 1.302 0 1 0 .342-2.583L3.45 27.512zM8.796 14.63l12.664 9.732a1.301 1.301 0 0 0 1.588-2.066l-12.664-9.733a1.303 1.303 0 0 0-1.588 2.066M36.815 17.45a1.303 1.303 0 0 0 1.466-1.116l1.996-14.711a1.303 1.303 0 1 0-2.582-.35L35.7 15.983a1.303 1.303 0 0 0 1.115 1.467M66.515 35.863l-17.868-2.366a1.304 1.304 0 0 0-.343 2.583l17.869 2.366a1.303 1.303 0 0 0 .342-2.583M67.642 28.682a1.303 1.303 0 0 0-1.461-1.123l-13.406 1.755a1.303 1.303 0 1 0 .338 2.583l13.406-1.754a1.303 1.303 0 0 0 1.123-1.461M59.268 12.6l-12.613 9.663a1.303 1.303 0 0 0 1.585 2.069l12.613-9.664a1.303 1.303 0 0 0-1.585-2.068M55.784 5.672a1.301 1.301 0 0 0 1.827-.238l.114-.15a1.303 1.303 0 0 0-2.065-1.588l-.115.15a1.303 1.303 0 0 0 .239 1.826M58.102 2.653a1.3 1.3 0 0 0 1.827-.238l.122-.158A1.303 1.303 0 1 0 57.986.668l-.121.158a1.303 1.303 0 0 0 .237 1.827M41.943 23.699a1.3 1.3 0 0 0 1.827-.24L55.226 8.553a1.303 1.303 0 0 0-2.065-1.588L41.704 21.872a1.303 1.303 0 0 0 .239 1.827"/>
        <g transform="translate(0 5.91)">
            <mask id="d" fill="#fff">
                <use xlink:href="#c"/>
            </mask>
            <path fill="#FFF" d="M2.562 2.284c.439-.57.331-1.388-.24-1.827L2.097.283A1.303 1.303 0 0 0 .51 2.35l.227.174a1.3 1.3 0 0 0 1.827-.24" mask="url(#d)"/>
        </g>
        <path fill="#FFB51B" d="M38.989 34.074c-.401.317-.58.84-.457 1.335l1.254 5.077-4.008-2.673a1.303 1.303 0 0 0-1.41-.022l-4.441 2.762 1.303-4.638a1.303 1.303 0 0 0-.414-1.349l-4-3.37 4.814-.193c.511-.02.963-.337 1.155-.81l1.969-4.845 1.671 4.518c.178.479.619.81 1.129.847l5.215.376-3.78 2.985zm8.468-4.427a1.303 1.303 0 0 0-1.152-.916l-7.727-.557-2.545-6.879a1.303 1.303 0 0 0-2.429-.038l-2.917 7.176-7.329.295a1.303 1.303 0 0 0-.787 2.298l5.924 4.992-1.984 7.062a1.303 1.303 0 0 0 1.942 1.458l6.578-4.092 6.103 4.07a1.302 1.302 0 0 0 1.987-1.397l-1.858-7.52 5.756-4.546c.422-.334.596-.892.438-1.406z"/>
        <path fill="#FFF" d="M60.544 64.426a1.303 1.303 0 0 0-2.068 1.585l.188.246a1.3 1.3 0 0 0 1.827.241 1.303 1.303 0 0 0 .241-1.826l-.188-.246z"/>
        <path fill="#FFB51B" d="M3.469 23.785l1.02-1.02 1.02 1.02a1.299 1.299 0 0 0 1.842 0 1.303 1.303 0 0 0 0-1.843l-1.02-1.02 1.02-1.02A1.303 1.303 0 1 0 5.51 18.06l-1.02 1.02-1.02-1.02a1.303 1.303 0 0 0-1.843 1.842l1.02 1.02-1.02 1.02a1.303 1.303 0 1 0 1.843 1.843"/>
        <path fill="#FFF" d="M58.038 61.153l-.189-.246a1.303 1.303 0 0 0-2.067 1.586l.188.245a1.3 1.3 0 0 0 1.826.242 1.303 1.303 0 0 0 .242-1.827"/>
        <path fill="#FFB51B" d="M68.462 46.081l1.02-1.02a1.303 1.303 0 1 0-1.843-1.842l-1.02 1.02-1.02-1.02a1.303 1.303 0 0 0-1.842 1.842l1.02 1.02-1.02 1.02a1.303 1.303 0 1 0 1.842 1.843l1.02-1.02 1.02 1.02a1.299 1.299 0 0 0 1.843 0 1.303 1.303 0 0 0 0-1.843l-1.02-1.02z"/>
        <path fill="#FFF" d="M60.825 51.329l-12.14-9.33a1.303 1.303 0 0 0-1.588 2.065l12.14 9.33a1.301 1.301 0 0 0 1.588-2.066M48.712 48.982a1.303 1.303 0 1 0-2.068 1.585l6.477 8.454a1.3 1.3 0 0 0 1.827.242c.571-.438.68-1.255.242-1.827l-6.478-8.454zM22.811 42.172a1.303 1.303 0 0 0-1.826-.241L8.769 51.29a1.303 1.303 0 0 0 1.584 2.068L22.57 44c.571-.438.68-1.255.242-1.827"/>
        <path fill="#FFB51B" d="M9.568 59.43a1.303 1.303 0 0 0-1.842 0l-1.02 1.02-1.02-1.02a1.303 1.303 0 0 0-1.843 1.843l1.02 1.02-1.02 1.02a1.303 1.303 0 1 0 1.842 1.842l1.02-1.02 1.02 1.02a1.3 1.3 0 0 0 1.843 0 1.303 1.303 0 0 0 0-1.843l-1.02-1.02 1.02-1.02c.509-.508.509-1.333 0-1.842"/>
        <path fill="#FFF" d="M22.314 34.615a1.305 1.305 0 0 0-1.46-1.123L3.101 35.816a1.303 1.303 0 1 0 .338 2.583l17.751-2.323a1.303 1.303 0 0 0 1.123-1.461M38.282 49.893a1.304 1.304 0 0 0-2.582.35l1.995 14.712a1.303 1.303 0 1 0 2.582-.35l-1.995-14.712zM32.928 48.912a1.303 1.303 0 0 0-1.472 1.108l-2.063 14.585a1.303 1.303 0 1 0 2.58.365l2.062-14.585a1.302 1.302 0 0 0-1.107-1.473M22.712 48.722a1.303 1.303 0 0 0-1.827.24l-6.49 8.444a1.303 1.303 0 0 0 2.066 1.588l6.49-8.445a1.303 1.303 0 0 0-.24-1.827"/>
    </g>
</svg>
