<svg xmlns="http://www.w3.org/2000/svg" width="50" height="60" viewBox="0 0 50 60">
    <g fill="none" fill-rule="evenodd">
        <path fill="#FFB51B" d="M22.448 33.505l-7.549-7.225-3.215 3.397L22.71 40.23l16.8-18.808-3.47-3.134z"/>
        <path fill="#FFF" d="M45.237 28.71c0 6.968-3.5 13.521-10.404 19.48-4.013 3.464-8.087 5.722-9.882 6.638C20.824 52.72 4.664 43.515 4.664 28.711V14.565c0-1.136.814-2.107 1.937-2.31 6.494-1.17 12.336-4.642 15.24-6.608a5.53 5.53 0 0 1 6.219 0c2.904 1.966 8.746 5.438 15.24 6.608a2.349 2.349 0 0 1 1.937 2.31v14.146zM44.123 7.64c-5.653-1.019-10.86-4.123-13.46-5.883a10.16 10.16 0 0 0-11.426 0c-2.6 1.76-7.806 4.864-13.459 5.883A7.026 7.026 0 0 0 0 14.565v14.146c0 4.673 1.3 9.228 3.865 13.54 2.006 3.372 4.786 6.596 8.262 9.58 5.844 5.019 11.632 7.636 11.875 7.745l.948.424.948-.424c.244-.109 6.031-2.726 11.876-7.745 3.476-2.984 6.256-6.208 8.262-9.58C48.6 37.939 49.9 33.384 49.9 28.71V14.565c0-3.41-2.43-6.322-5.777-6.925z"/>
    </g>
</svg>
