<svg xmlns="http://www.w3.org/2000/svg" xmlns:xlink="http://www.w3.org/1999/xlink" width="48" height="58" viewBox="0 0 48 58">
    <defs>
        <path id="a" d="M0 0h47.963v58H0z"/>
    </defs>
    <g fill="none" fill-rule="evenodd">
        <g>
            <mask id="b" fill="#fff">
                <use xlink:href="#a"/>
            </mask>
            <path fill="#FFF" d="M5.756 54.133h36.451v1.934H5.756v-1.934zm4.796-11.814a5.86 5.86 0 0 1 2.588-4.874l10.841-7.283 10.842 7.283a5.86 5.86 0 0 1 2.588 4.874V52.2H10.55v-9.881zm2.588-21.764a5.86 5.86 0 0 1-2.588-4.874V5.8H37.41v9.881a5.86 5.86 0 0 1-2.588 4.874L23.98 27.838 13.14 20.555zM5.756 3.867V1.933h36.451v1.934H5.756zm41.247 52.2h-2.878V52.2H39.33v-9.881a7.793 7.793 0 0 0-3.442-6.483L25.71 29l10.176-6.836a7.793 7.793 0 0 0 3.442-6.483V5.8h4.796V1.933h2.878c.53 0 .96-.432.96-.966a.963.963 0 0 0-.96-.967H.96C.43 0 0 .432 0 .967c0 .534.43.966.96.966h2.877V5.8h4.796v9.881a7.793 7.793 0 0 0 3.443 6.483L22.252 29l-10.176 6.836a7.793 7.793 0 0 0-3.443 6.483V52.2H3.837v3.867H.959c-.53 0-.959.432-.959.966 0 .535.43.967.96.967H47.002c.53 0 .96-.432.96-.967a.963.963 0 0 0-.96-.966z" mask="url(#b)"/>
        </g>
        <path fill="#FFB51B" d="M15.268 17.338c-.55-.37-.88-.99-.88-1.657v-2.148a.963.963 0 0 0-.958-.966c-.53 0-.96.432-.96.966v2.148c0 1.316.649 2.537 1.735 3.266l4.449 2.989a.954.954 0 0 0 1.33-.268.972.972 0 0 0-.266-1.34l-4.45-2.99zM33.758 39.885l-4.45-2.99a.954.954 0 0 0-1.33.269.972.972 0 0 0 .266 1.34l4.45 2.99c.55.37.88.988.88 1.656v2.148c0 .535.43.967.959.967.53 0 .96-.432.96-.967V43.15a3.922 3.922 0 0 0-1.735-3.265"/>
    </g>
</svg>
