<svg xmlns="http://www.w3.org/2000/svg" width="80" height="59" viewBox="0 0 80 59">
    <g fill="none" fill-rule="evenodd">
        <path fill="#FFF" d="M70.581 26.55c-2.722-1.368-7.826-1.384-8.042-1.384-.647 0-1.172.527-1.172 1.177s.525 1.177 1.172 1.177c1.317 0 5.141.204 6.994 1.134a1.172 1.172 0 0 0 1.572-.526 1.18 1.18 0 0 0-.524-1.579"/>
        <path fill="#FFF" d="M70.717 37.21a6.284 6.284 0 0 1-4.615 1.795c-3.391-.102-6.15-3.102-6.15-6.686v-2.2a1.18 1.18 0 0 0-.124-.527l-.724-1.454a3.89 3.89 0 0 1-.405-1.724v-.07c0-2.82 2.285-5.115 5.093-5.115h10.105v4.888c0 .79-.186 1.58-.537 2.287l-.592 1.188a1.18 1.18 0 0 0-.124.527v2.516a6.336 6.336 0 0 1-1.927 4.574zm-4.419 7.602l-2.66-2.67c.047-.212.073-.444.073-.7v-.496a8.186 8.186 0 0 0 2.59.416 8.67 8.67 0 0 0 2.584-.392v.473c0 .235.03.465.085.686l-2.672 2.683zm-21.398.993a.075.075 0 0 1-.06.036c-.038.005-.057-.015-.065-.023l-2.933-2.945 5.53-3.795 1.172 1.237-3.644 5.49zm-4.885-4.529l-6.346-4.356v-2.197a13.153 13.153 0 0 0 6.358 1.606c2.24 0 4.397-.538 6.334-1.559v2.15l-6.346 4.356zm-4.76 4.542c-.008.008-.027.027-.065.023a.075.075 0 0 1-.06-.036l-3.644-5.49 1.172-1.238 5.53 3.796-2.933 2.945zm-6.598-23.68v-2.92c0-.178-.04-.353-.117-.512a11.328 11.328 0 0 1-1.136-4.946v-2.516c0-4.902 3.97-8.89 8.852-8.89h16.37V13.76c0 1.714-.382 3.378-1.136 4.946-.077.16-.117.335-.117.512v3.35a11.32 11.32 0 0 1-3.592 8.324c-.29.273-.59.528-.9.765l-.02.015c-2.17 1.655-4.828 2.459-7.604 2.278-5.944-.386-10.6-5.575-10.6-11.813zM17.38 41.23v-1.404a8.698 8.698 0 0 0 3.094-3.836c.14 1.013.347 1.973.667 2.811-.467.572-1.572 1.637-3.761 2.429zm-4.93-2.222c-3.5 0-6.347-2.859-6.347-6.373a1.174 1.174 0 0 0-1.364-1.16l.01-.302c.026-.81.051-1.574.098-2.23.15-2.114.991-4.062 2.37-5.486a7.228 7.228 0 0 1 5.232-2.228c1.984 0 3.842.791 5.233 2.228 1.378 1.424 2.22 3.372 2.37 5.487.046.655.07 1.42.097 2.228l.007.21c-1.275-1.972-3.244-3.426-5.788-4.247-2.35-.759-4.372-.712-4.457-.71a1.17 1.17 0 0 0-.811.36l-2.115 2.202a1.18 1.18 0 0 0 .03 1.664 1.169 1.169 0 0 0 1.657-.03l1.76-1.832c1.515.074 6.39.643 8.285 4.836a6.34 6.34 0 0 1-6.268 5.383zm1.781 5.403c-1 .954-2.565.954-3.564 0l-1.09-1.04c.184-.346.285-.738.285-1.15v-1.254a8.683 8.683 0 0 0 5.174 0v1.254c0 .412.1.804.285 1.15l-1.09 1.04zm-6.713-3.185c-2.192-.792-3.292-1.848-3.761-2.425.32-.84.528-1.802.668-2.818a8.768 8.768 0 0 0 3.093 3.832v1.41zm68.906 2.079l-4.84-1.39a.493.493 0 0 1-.355-.472v-1.622c.394-.274.77-.58 1.12-.923a8.676 8.676 0 0 0 2.64-6.263v-2.239l.467-.94a7.534 7.534 0 0 0 .785-3.34v-6.064c0-.65-.525-1.177-1.172-1.177H63.792c-4.1 0-7.437 3.35-7.437 7.468v.07c0 .96.226 1.92.653 2.778l.6 1.205v1.922a9.195 9.195 0 0 0 3.76 7.425v1.7c0 .262 0 .37-.968.649l-2.362.677-6.831-2.494a1.178 1.178 0 0 0-.32-.901l-2.182-2.304v-3.866c.23-.191.458-.387.678-.595a13.84 13.84 0 0 0 4.334-10.04V19.48a13.652 13.652 0 0 0 1.253-5.721V1.177C54.97.527 54.445 0 53.798 0H36.256C30.082 0 25.06 5.044 25.06 11.243v2.517c0 1.98.421 3.904 1.253 5.72v2.658c0 4.399 1.948 8.362 5.012 10.975v3.958l-2.183 2.303a1.178 1.178 0 0 0-.32.9l-7.21 2.634c-.522.19-1.007.449-1.448.762l-1.132-.569c3.37-1.473 4.438-3.545 4.489-3.648a1.181 1.181 0 0 0 0-1.052c-.845-1.697-.947-4.808-1.03-7.307a63.923 63.923 0 0 0-.102-2.317c-.4-5.645-4.673-9.902-9.94-9.902-5.267 0-9.54 4.257-9.94 9.902-.05.7-.076 1.486-.103 2.318-.082 2.499-.185 5.608-1.03 7.305a1.181 1.181 0 0 0 0 1.053c.052.103 1.117 2.17 4.494 3.646l-3.144 1.579A4.928 4.928 0 0 0 0 49.108v8.694c0 .65.525 1.177 1.172 1.177.647 0 1.172-.527 1.172-1.177v-8.695c0-.99.548-1.88 1.43-2.324l3.916-1.966 1.362 1.3a4.905 4.905 0 0 0 3.397 1.363 4.907 4.907 0 0 0 3.396-1.363l1.362-1.3 1.277.641a6.217 6.217 0 0 0-.942 3.286v9.058c0 .65.525 1.177 1.172 1.177.647 0 1.172-.527 1.172-1.177v-9.058a3.867 3.867 0 0 1 2.527-3.624l7.602-2.776 3.165 4.767a2.414 2.414 0 0 0 2.02 1.084 2.41 2.41 0 0 0 1.712-.713l1.93-1.939v12.26c0 .65.526 1.176 1.173 1.176s1.172-.527 1.172-1.177V45.543l1.93 1.94a2.41 2.41 0 0 0 1.954.7 2.414 2.414 0 0 0 1.779-1.072l3.164-4.767 7.602 2.776a3.868 3.868 0 0 1 2.528 3.624v9.058c0 .65.524 1.177 1.172 1.177.647 0 1.171-.527 1.171-1.177v-9.058c0-1.636-.647-3.17-1.733-4.306l.29-.083c.292-.083.69-.198 1.09-.395l2.992 3.005v10.837c0 .65.525 1.177 1.172 1.177.647 0 1.172-.527 1.172-1.177V46.965l2.971-2.984c.158.08.324.149.499.199l4.84 1.388a2.608 2.608 0 0 1 1.876 2.499v9.735c0 .65.525 1.177 1.172 1.177.647 0 1.172-.527 1.172-1.177v-9.735a4.97 4.97 0 0 0-3.576-4.762z"/>
        <path fill="#FFB51B" d="M73.816 49.075c-.647 0-1.172.527-1.172 1.177v7.55c0 .65.525 1.177 1.172 1.177.647 0 1.172-.527 1.172-1.177v-7.55c0-.65-.525-1.177-1.172-1.177M6.184 50.63c-.647 0-1.172.527-1.172 1.177v5.995c0 .65.525 1.177 1.172 1.177.647 0 1.172-.527 1.172-1.177v-5.995c0-.65-.525-1.177-1.172-1.177"/>
        <path fill="#FFF" d="M49.614 14.187c-4.432-4.452-13.705-3.6-17.487-3.028a2.413 2.413 0 0 0-2.055 2.407v2.71c0 .65.525 1.178 1.172 1.178.647 0 1.172-.527 1.172-1.177v-2.711c0-.04.026-.075.06-.08 1.511-.229 4.509-.581 7.614-.373 3.655.244 6.301 1.165 7.867 2.738.458.46 1.2.46 1.657 0a1.18 1.18 0 0 0 0-1.664"/>
        <path fill="#FFB51B" d="M26.232 51.592c-.647 0-1.172.526-1.172 1.176v5.034c0 .65.525 1.177 1.172 1.177.647 0 1.172-.527 1.172-1.177v-5.034c0-.65-.525-1.176-1.172-1.176M53.798 51.592c-.647 0-1.172.526-1.172 1.176v5.034c0 .65.525 1.177 1.172 1.177.647 0 1.172-.527 1.172-1.177v-5.034c0-.65-.525-1.176-1.172-1.176"/>
    </g>
</svg>
