<?xml version="1.0" encoding="UTF-8"?>
<svg viewBox="0 0 28 25" version="1.1" xmlns="http://www.w3.org/2000/svg" xmlns:xlink="http://www.w3.org/1999/xlink">
    <g id="2" stroke="none" stroke-width="1" fill="none" fill-rule="evenodd">
        <g id="Adhive-ICO-26.04" transform="translate(-373.000000, -1089.000000)" fill="#000" fill-rule="nonzero">
            <g id="Group-26" transform="translate(352.000000, 1079.000000)">
                <g id="noun_1016078_cc" transform="translate(21.000000, 10.000000)">
                    <g id="Group">
                        <path d="M26.95,14.2625 C26.4541667,14.2625 26.0458333,14.6708333 26.0458333,15.1666667 L26.0458333,22.4583333 L1.925,22.4583333 L1.925,15.1666667 C1.925,14.6708333 1.51666667,14.2625 1.02083333,14.2625 C0.525,14.2625 0.116666667,14.6708333 0.116666667,15.1666667 L0.116666667,23.3625 C0.116666667,23.8583333 0.525,24.2666667 1.02083333,24.2666667 L26.95,24.2666667 C27.4458333,24.2666667 27.8541667,23.8583333 27.8541667,23.3625 L27.8541667,15.1666667 C27.8541667,14.6416667 27.4458333,14.2625 26.95,14.2625 Z" id="Shape"></path>
                        <path d="M13.3875,17.5291667 C13.5625,17.7041667 13.7958333,17.7916667 14.0291667,17.7916667 C14.2625,17.7916667 14.4958333,17.7041667 14.6708333,17.5291667 L20.0083333,12.1916667 C20.3583333,11.8416667 20.3583333,11.2875 20.0083333,10.9375 C19.6583333,10.5875 19.1041667,10.5875 18.7541667,10.9375 L14.9625,14.7291667 L14.9625,1.16666667 C14.9625,0.670833333 14.5541667,0.2625 14.0583333,0.2625 C13.5625,0.2625 13.1541667,0.670833333 13.1541667,1.16666667 L13.1541667,14.7583333 L9.30416667,10.9083333 C8.95416667,10.5583333 8.4,10.5583333 8.05,10.9083333 C7.7,11.2583333 7.7,11.8125 8.05,12.1625 L13.3875,17.5291667 Z" id="Shape"></path>
                    </g>
                </g>
            </g>
        </g>
    </g>
</svg>