<svg xmlns="http://www.w3.org/2000/svg" width="59" height="71" viewBox="0 0 59 71">
    <g fill="none" fill-rule="evenodd">
        <path fill="#FFF" d="M56.598 67.336c0 .66-.536 1.197-1.195 1.197H45.198v-26.45h11.4v25.253zm-13.724 1.197h-4.517v-21a1.163 1.163 0 1 0-2.324 0v21H25.828a1.197 1.197 0 0 1-1.194-1.197V42.083h18.24v26.45zm-32.463-.361L7.07 66.76l4.658-11.057 8.686-20.618 3.341 1.412-13.344 31.675zM7.39 56.968a3.997 3.997 0 0 1-3.085-.02l-1.622-.686 1.562-3.707a4.033 4.033 0 0 1 5.281-2.15l1.622.685-1.563 3.708a4.006 4.006 0 0 1-2.195 2.17zm.893-13.998l1.562-3.708 1.622.685c.992.42 1.762 1.2 2.167 2.2.405 1 .398 2.097-.02 3.09l-1.563 3.708-1.621-.685a4.007 4.007 0 0 1-2.167-2.2c-.406-.999-.398-2.096.02-3.09zm49.476-3.215H24.905l1.443-3.425a1.166 1.166 0 0 0-.619-1.525l-5.482-2.317a1.161 1.161 0 0 0-1.522.62l-3.2 7.595a6.311 6.311 0 0 0-3.153-2.9L9.68 36.665a1.161 1.161 0 0 0-1.523.62l-2.014 4.78a6.333 6.333 0 0 0-.032 4.872c.139.342.306.666.496.972a6.353 6.353 0 0 0-4.502 3.74L.091 56.43a1.166 1.166 0 0 0 .62 1.525l2.691 1.138a6.302 6.302 0 0 0 4.274.24l-3.2 7.595c-.249.592.028 1.275.62 1.524l5.482 2.318a1.158 1.158 0 0 0 1.522-.62l10.21-24.234v21.42a3.526 3.526 0 0 0 3.519 3.525h29.574a3.526 3.526 0 0 0 3.519-3.525V40.92c0-.643-.52-1.164-1.162-1.164zM41.791 5.793a1.342 1.342 0 0 0-.906.864l-.233.691-.407-.606a1.34 1.34 0 0 0-1.099-.595l-.728-.008.45-.574c.273-.348.357-.808.225-1.232l-.217-.696.682.25c.416.153.88.092 1.241-.165l.595-.422-.027.728c-.017.443.185.866.54 1.13l.584.436-.7.2zm3.683-.877L43.708 3.6l.082-2.205a1.336 1.336 0 0 0-.704-1.232 1.333 1.333 0 0 0-1.414.086l-1.796 1.276-2.068-.76a1.332 1.332 0 0 0-1.387.29c-.373.355-.51.882-.356 1.374l.656 2.105-1.36 1.735a1.338 1.338 0 0 0-.154 1.41c.222.466.68.758 1.195.765l2.202.025L39.83 10.3a1.332 1.332 0 0 0 1.292.584c.51-.068.93-.414 1.094-.903l.705-2.09 2.118-.602c.496-.142.86-.545.953-1.052a1.337 1.337 0 0 0-.519-1.32z"/>
        <path fill="#FFB51B" d="M41.15 24.805a65.355 65.355 0 0 0-1.646-10.157 1.162 1.162 0 1 0-2.258.554 63 63 0 0 1 1.588 9.793c.298 3.64.276 7.332-.064 10.972a1.164 1.164 0 0 0 1.158 1.273c.593 0 1.1-.453 1.156-1.056.352-3.775.375-7.603.066-11.38M37.672 36.039c-.22-2.34-1.005-5.835-3.501-9.203-3.309-4.464-7.742-6.173-10.09-6.795a1.164 1.164 0 1 0-.593 2.25c2.053.544 5.93 2.038 8.816 5.932 2.177 2.937 2.862 5.99 3.054 8.033a1.163 1.163 0 1 0 2.314-.217M57.398 21.835c-1.864.08-6.624.688-10.559 4.6-3.408 3.387-4.33 7.364-4.577 9.432a1.164 1.164 0 0 0 1.155 1.303c.58 0 1.082-.435 1.152-1.026.211-1.768 1-5.166 3.907-8.057 3.358-3.339 7.428-3.858 9.022-3.927a1.163 1.163 0 0 0 1.11-1.212 1.159 1.159 0 0 0-1.21-1.113M30.586 14.807a1.797 1.797 0 0 1-2.54-.062 1.804 1.804 0 0 1 .061-2.545 1.788 1.788 0 0 1 1.239-.495c.475 0 .949.186 1.302.557.683.719.655 1.86-.062 2.545m1.744-4.15a4.12 4.12 0 0 0-5.826-.142 4.138 4.138 0 0 0-.142 5.835 4.091 4.091 0 0 0 2.987 1.281 4.088 4.088 0 0 0 2.84-1.139 4.104 4.104 0 0 0 1.277-2.888 4.103 4.103 0 0 0-1.136-2.947M48.856 18.26a1.797 1.797 0 0 1-2.54-.063 1.804 1.804 0 0 1 .062-2.544 1.788 1.788 0 0 1 1.239-.496c.475 0 .949.187 1.301.558.683.718.656 1.86-.062 2.544m1.745-4.15a4.12 4.12 0 0 0-7.104 2.746 4.104 4.104 0 0 0 1.136 2.948 4.107 4.107 0 0 0 2.985 1.278 4.103 4.103 0 0 0 2.841-1.136 4.137 4.137 0 0 0 .142-5.836"/>
    </g>
</svg>
