<svg xmlns="http://www.w3.org/2000/svg" xmlns:xlink="http://www.w3.org/1999/xlink" width="58" height="59" viewBox="0 0 58 59">
    <defs>
        <path id="a" d="M0 .105h17.756V16.71H0z"/>
        <path id="c" d="M0 59h57.95V0H0z"/>
    </defs>
    <g fill="none" fill-rule="evenodd">
        <path fill="#FFB51B" d="M12.073 14.181H2.415v-9.69h9.158l-4.33 4.343-1.56-1.566L3.976 8.98l2.414 2.422a1.204 1.204 0 0 0 1.707 0l3.976-3.988v6.766zM16.049 0l-2.213 2.22a1.168 1.168 0 0 0-.556-.152H1.207A1.21 1.21 0 0 0 0 3.279v12.113c0 .67.54 1.212 1.207 1.212H13.28a1.21 1.21 0 0 0 1.208-1.212v-10.4l3.268-3.28L16.049 0zM12.073 35.985H2.415v-9.69h9.158l-4.33 4.343-1.56-1.566-1.707 1.713 2.414 2.422a1.204 1.204 0 0 0 1.707 0l3.976-3.989v6.767zm3.976-14.181l-2.213 2.22a1.168 1.168 0 0 0-.556-.152H1.207A1.21 1.21 0 0 0 0 25.082v12.114c0 .67.54 1.212 1.207 1.212H13.28a1.21 1.21 0 0 0 1.208-1.212v-10.4l3.268-3.28-1.707-1.712z"/>
        <g transform="translate(0 42.291)">
            <mask id="b" fill="#fff">
                <use xlink:href="#a"/>
            </mask>
            <path fill="#FFB51B" d="M12.073 14.286H2.415v-9.69h9.158L7.243 8.94l-1.56-1.567-1.707 1.713L6.39 11.51a1.204 1.204 0 0 0 1.707 0l3.976-3.99v6.767zM16.049.106l-2.213 2.22a1.168 1.168 0 0 0-.556-.153H1.207A1.21 1.21 0 0 0 0 3.384v12.114c0 .669.54 1.211 1.207 1.211H13.28a1.21 1.21 0 0 0 1.208-1.211v-10.4l3.268-3.28L16.049.105z" mask="url(#b)"/>
        </g>
        <mask id="d" fill="#fff">
            <use xlink:href="#c"/>
        </mask>
        <path fill="#FFF" d="M22.939 14.181H57.95v-2.423H22.94zM22.939 6.913H57.95V4.49H22.94zM22.939 35.985H57.95v-2.423H22.94zM22.939 28.717H57.95v-2.423H22.94zM22.939 56.577H57.95v-2.422H22.94zM22.939 49.31H57.95v-2.423H22.94z" mask="url(#d)"/>
    </g>
</svg>
