<svg xmlns="http://www.w3.org/2000/svg" xmlns:xlink="http://www.w3.org/1999/xlink" width="70" height="70" viewBox="0 0 70 70">
    <defs>
        <path id="a" d="M0 .007h69.864v69.857H0z"/>
        <path id="c" d="M0 69.993h69.864V.136H0z"/>
    </defs>
    <g fill="none" fill-rule="evenodd">
        <g transform="translate(0 .13)">
            <mask id="b" fill="#fff">
                <use xlink:href="#a"/>
            </mask>
            <path fill="#FFF" d="M56.447 35.352c-3.386 2.037-6.778 2.465-9.027 2.465h-.001c-.088 0-.174 0-.258-.002l.004-.006c.135-.186.268-.375.398-.566l.048-.07a25.992 25.992 0 0 0 .762-1.189l.053-.09c.095-.159.188-.318.28-.48l.066-.11c1.937-.04 4.652-.446 7.162-2.058 2.57-1.65 4.717-3.95 6.382-6.834 1.744-3.022 2.911-6.616 3.47-10.683.326-2.374-.052-4.2-1.125-5.43-.986-1.132-2.498-1.705-4.492-1.705-1.559 0-3.22.354-4.63.768.065-.708.12-1.388.169-2.035l.004-.054c1.038-.365 3.307-1.058 5.605-1.058 4.297 0 6.413 2.337 6.47 7.144.159 13.595-7.877 19.909-11.34 21.993zm-11.31 1.705l-.034.045c-.102.132-.205.26-.309.388l-.075.093a18.06 18.06 0 0 1-.344.405l-.016.02c-1.157 1.32-2.42 2.365-3.754 3.107a6.169 6.169 0 0 0-3.07 4.385H32.33a6.17 6.17 0 0 0-3.07-4.385c-1.288-.716-2.45-1.674-3.501-2.818l-.254-.29c-1.031-1.176-2.004-2.601-2.89-4.236l-.271-.5c-4.462-8.621-5.811-21.08-6.218-27.7h37.62c-.017.289-.036.586-.057.895l-.003.043c-.023.335-.047.67-.073 1.006l-.003.03a114.89 114.89 0 0 1-.293 3.188l-.068.638c-.754 6.759-2.346 15.368-5.704 21.854l-.296.546a24.817 24.817 0 0 1-2.112 3.286zm-5.19 11.861c0 .74-.602 1.343-1.343 1.343H31.26c-.74 0-1.343-.602-1.343-1.343 0-.74.603-1.343 1.343-1.343h7.344c.741 0 1.343.603 1.343 1.343zm-7.531 7.646h5.033v-4.228h-5.033v4.228zm7.108 2.075h3.539v2.469H26.802v-2.469h12.722zm9.079 4.544v4.606H21.262v-4.606h27.341zM22.445 37.817c-2.25 0-5.643-.428-9.028-2.465-3.463-2.084-11.5-8.398-11.34-21.993.057-4.807 2.173-7.144 6.47-7.144 2.298 0 4.568.693 5.605 1.058.052.696.11 1.394.174 2.09-1.41-.415-3.072-.77-4.63-.77-1.995 0-3.507.574-4.493 1.705-1.073 1.23-1.451 3.057-1.125 5.43.559 4.067 1.726 7.661 3.47 10.683 1.665 2.885 3.812 5.185 6.382 6.835 2.51 1.612 5.225 2.018 7.162 2.057l.02.034a29.103 29.103 0 0 0 .736 1.22l.12.183a25.631 25.631 0 0 0 .636.935l.098.14-.257.002zm-6.822-18.982c1.02 5.474 2.43 10.174 4.188 13.971l.165.35c-1.492-.156-3.272-.595-4.925-1.656-4.747-3.048-7.914-8.75-8.917-16.053-.241-1.754-.028-3.027.633-3.785.574-.659 1.56-.993 2.928-.993 1.634 0 3.457.472 4.864.94.25 2.247.594 4.706 1.064 7.226zm39.686-7.227c1.406-.468 3.227-.94 4.86-.94 1.368 0 2.353.335 2.928.994.66.758.874 2.031.633 3.785-1.003 7.303-4.17 13.005-8.918 16.053-1.653 1.062-3.434 1.5-4.927 1.656 3.157-6.636 4.685-14.961 5.424-21.548zm-1.411-9.526c-.01.38-.024.857-.047 1.415H16.018a92.912 92.912 0 0 1-.05-1.415h37.93zM69.86 13.335c-.07-5.93-3.104-9.195-8.544-9.195-2.106 0-4.135.49-5.462.899a80.64 80.64 0 0 0 .135-3.994V.007H13.875v1.038c0 .035.003 1.555.137 3.995-1.326-.41-3.357-.9-5.465-.9-5.44 0-8.475 3.265-8.544 9.195-.069 5.833 1.261 11.026 3.953 15.434a24.97 24.97 0 0 0 8.39 8.36c3.794 2.283 7.586 2.763 10.099 2.763.62 0 1.216-.03 1.774-.087l.108-.012c1.215 1.308 2.525 2.356 3.924 3.135a4.085 4.085 0 0 1 1.995 2.726 3.424 3.424 0 0 0-2.404 3.264 3.423 3.423 0 0 0 2.499 3.292v4.354h-5.614v4.544h-5.54v8.756h31.49v-8.756h-5.54v-4.544h-5.613V52.21a3.423 3.423 0 0 0 2.498-3.292 3.424 3.424 0 0 0-2.404-3.264 4.085 4.085 0 0 1 1.995-2.726c1.397-.777 2.715-1.83 3.927-3.135.43.048 1.074.099 1.879.099 2.513 0 6.304-.48 10.098-2.763a24.972 24.972 0 0 0 8.39-8.36c2.692-4.408 4.023-9.6 3.954-15.434z" mask="url(#b)"/>
        </g>
        <path fill="#FFB51B" d="M26.247 33.732l-1.732 1.142a18.469 18.469 0 0 0 1.89 2.426l1.518-1.415a16.39 16.39 0 0 1-1.676-2.153M21.794 22.227l-2.023.462c.995 4.362 2.323 8.023 3.948 10.883l1.804-1.025c-1.525-2.684-2.78-6.155-3.73-10.32M15.39 56.416l-.002-2.075-1.47.001-.002-1.47-2.075.003.002 1.47h-1.47l.002 2.076 1.47-.002.001 1.47 2.075-.002-.001-1.47z"/>
        <mask id="d" fill="#fff">
            <use xlink:href="#c"/>
        </mask>
        <path fill="#FFB51B" d="M6.665 41.528h1.957v-2.075H6.665zM19.245 47.667h1.957v-2.075h-1.957zM50.795 53.91h1.957v-2.075h-1.957z" mask="url(#d)"/>
    </g>
</svg>
