<svg xmlns="http://www.w3.org/2000/svg" width="55" height="55" viewBox="0 0 55 55">
    <g fill="none" fill-rule="evenodd">
        <path fill="#FFB51B" d="M27.5 0a1.147 1.147 0 0 0-.716 2.041l5.729 4.583a1.145 1.145 0 1 0 1.432-1.79l-2.862-2.288C43.293 4.29 52.708 14.816 52.708 27.5a25.222 25.222 0 0 1-10.961 20.798 1.145 1.145 0 1 0 1.298 1.89A27.512 27.512 0 0 0 55 27.5C55 12.337 42.664 0 27.5 0M28.216 52.959l-5.73-4.583a1.15 1.15 0 0 0-1.61.179 1.148 1.148 0 0 0 .179 1.611l2.862 2.288C11.707 50.71 2.292 40.184 2.292 27.5A25.226 25.226 0 0 1 13.253 6.7a1.146 1.146 0 0 0-1.298-1.888A27.515 27.515 0 0 0 0 27.5C0 42.663 12.336 55 27.5 55a1.147 1.147 0 0 0 .716-2.041"/>
        <path fill="#FFF" d="M33.56 20.046l.017-.038a2.886 2.886 0 0 0-1.485-3.801l-.004-.002a2.908 2.908 0 1 0 1.472 3.84M28.34 34.945l-7.735-3.487a7.521 7.521 0 0 0-.306 2.37l6.452 2.898a7.764 7.764 0 0 0 1.588-1.781M21.85 39.022c0 .014.012.026.026.026l.028-.045c1.182-.279 2.323-.71 3.394-1.283l-4.759-2.116c.277 1.18.718 2.314 1.311 3.37l-.026.048h.026z"/>
        <path fill="#FFF" d="M22.077 19.787c.484.23.945.509 1.374.83.167.12.858.749 1.568 2.464.145.287.296.593.45.91.19.471.384.984.576 1.525-1.277.518-2.735 1.078-3.704 1.24-2.16.59-4.392-1.07-4.392-1.07s.077.084.235.214a11.474 11.474 0 0 1-.084-.057c-1.498-1.137-2.146-2.992-1.454-4.515.83-1.826 3.275-2.539 5.43-1.54m4.116 8.252l.931.417c.265.683.563 1.404.876 2.059l-3.931-1.771c.68-.204 1.435-.46 2.124-.705m12.33 3.107c-.615 1.356-2.123 2.097-3.741 1.98a7.357 7.357 0 0 1-1.404-.327l.039.006a6.972 6.972 0 0 1-1.946-1.135c-.342-.36-.69-.873-1.029-1.516-.238-.468-.5-1.054-.77-1.723a22.483 22.483 0 0 1-.287-.792c-.07-.23-.149-.474-.235-.73 1.834-.74 3.417-1.235 4.218-1.317h.073l.073-.027c.5-.117 1.292.058 1.9.256.322.11.637.238.943.389.073.026.12.073.187.093l.002-.003c1.856 1.079 2.736 3.151 1.978 4.846M32.19 34.7l.01.004-.01.024c.603.27 1.219.46 1.831.574a7.806 7.806 0 0 0 2.84.036c3.932-1.022 4.697-3.82 4.485-5.833a5.793 5.793 0 0 0-1.334-3.074 7.97 7.97 0 0 0-3.024-2.38s-.18-.087-.48-.205c-.713-.286-2.133-.753-3.494-.598-2.275.305-4.718 1.373-4.723 1.374a55.348 55.348 0 0 0-.192-.47 24.142 24.142 0 0 0-1.461-3.155c-.25-.468-.475-.833-.65-1.045-1.281-1.541-3.062-2.204-3.083-2.232-2.938-1.291-6.188-.68-7.899 1.318-1.238 1.404-2.143 3.75.05 7 .752 1.07 1.877 1.765 2.553 2.113.187.103.379.201.577.292l.01-.022c.047.024.116.043.204.087.528.217 1.912.73 3.263.706a9.354 9.354 0 0 0-.514.817l7.852 3.534a8.32 8.32 0 0 0 .282-.931c1.036 1.209 2.658 1.962 2.907 2.066"/>
    </g>
</svg>
